<?xml version="1.0" encoding="UTF-8"?> <svg xmlns="http://www.w3.org/2000/svg" xml:space="preserve" id="Layer_1" x="0" y="0" version="1.1" viewBox="0 0 1000 1000"><style>.st0,.st1{fill:#ebebeb}.st1{fill-rule:evenodd;clip-rule:evenodd}.st2{fill:#fafafa}.st3{fill:#e0e0e0}.st4{fill:#f0f0f0}.st5{opacity:.1;fill:#fff;enable-background:new}.st6{opacity:.3}.st7{fill:#fff}.st8{fill:#e6e6e6}.st9{fill:#f5f5f5}.st10{opacity:.8;fill:#fff;enable-background:new}.st11{fill:#407bff}.st12,.st13,.st14{opacity:.1;enable-background:new}.st13,.st14{opacity:.7;fill:#fff}.st14{opacity:.5}.st15{opacity:.1}.st16{fill:#263238}.st17{fill:#ffc3bd}.st18{opacity:.2}.st18,.st19,.st20{enable-background:new}.st19{opacity:.6}.st20{opacity:.5}.st22{fill:#ed847e}.st25{opacity:.9;fill:#fff;enable-background:new}.st28{opacity:.2}.st29{fill:#e8bfbf}.st31,.st32{opacity:.2;fill:#fff;enable-background:new}.st32{opacity:.6}</style><path d="M838 797h66v1h-66v-1zm-189 5h17v1h-17v-1zm148-24h39v1h-39v-1zm-688 4h86-86zm104 0h13-13zm54 8h187v1H267v-1z" class="st0"></path><path d="M478 676H92c-6 0-12-5-12-12V121c0-6 6-11 12-11h386c6 0 11 5 11 11v543c0 7-5 12-11 12zM92 110c-6 0-11 5-11 11v543c0 6 5 11 11 11h386c6 0 11-5 11-11V121c0-6-5-11-11-11H92zm819 566H524c-6 0-11-5-11-12V121c0-6 5-11 11-11h387c6 0 11 5 11 11v543c0 7-5 12-11 12zM524 110c-6 0-11 5-11 11v543c1 6 5 11 11 11h387c6 0 10-5 10-11V121c0-6-4-11-10-11H524z" class="st1"></path><path d="M1004 765H4h1000z" class="st0"></path><path d="M915 626H773V143h142v483z" class="st2"></path><path d="M919 314v308H741V314h178z" class="st3"></path><path d="M885 271v77H775v-77h110z" class="st3"></path><path d="M775 348h-23v-23h23v23zm44 0h-23v-23h23v23zm44 0h-22v-23h22v23z" class="st2"></path><path d="M908 348h-23v-23h23v23zm-133 42h-23v-23h23v23zm44 0h-23v-23h23v23z" class="st4"></path><path d="M863 390h-22v-23h22v23zm45 0h-23v-23h23v23z" class="st2"></path><path d="M775 431h-23v-23h23v23z" class="st4"></path><path d="M819 431h-23v-23h23v23zm44 0h-22v-23h22v23zm-44-119h-23v-23h23v23z" class="st2"></path><path d="M863 312h-22v-23h22v23zm45 119h-23v-23h23v23z" class="st4"></path><path d="M775 472h-23v-22h23v22z" class="st2"></path><path d="M819 472h-23v-22h23v22zm44 0h-22v-22h22v22z" class="st4"></path><path d="M908 472h-23v-22h23v22z" class="st2"></path><path d="M775 514h-23v-23h23v23z" class="st4"></path><path d="M819 514h-23v-23h23v23zm44 0h-22v-23h22v23z" class="st2"></path><path d="M908 514h-23v-23h23v23zm-133 41h-23v-23h23v23z" class="st4"></path><path d="M819 555h-23v-23h23v23z" class="st2"></path><path d="M863 555h-22v-23h22v23z" class="st4"></path><path d="M908 555h-23v-23h23v23zm-133 42h-23v-23h23v23zm44 0h-23v-23h23v23z" class="st2"></path><path d="M863 597h-22v-23h22v23zm45 0h-23v-23h23v23z" class="st4"></path><path d="M915 626H773V143h142v483z" class="st5"></path><g class="st6"><path d="M851 626h-45l50-483h45l-50 483z" class="st7"></path></g><path d="M917 149H772v-12h145v12z" class="st3"></path><path d="M917 634H772v-12h145v12z" class="st0"></path><path d="M922 645H765V125h157v520zm-145-12h133V137H777v496z" class="st1"></path><path d="M760 626H617V143h143v483z" class="st2"></path><path d="M749 474v150H627V474h122z" class="st8"></path><path d="M739 506h-44v-15h44v15z" class="st8"></path><path d="M739 537h-44v-16h44v16z" class="st2"></path><path d="M739 567h-44v-16h44v16z" class="st8"></path><path d="M739 597h-44v-16h44v16zm-57-91h-44v-15h44v15zm0 31h-44v-16h44v16z" class="st2"></path><path d="M682 567h-44v-16h44v16z" class="st8"></path><path d="M682 597h-44v-16h44v16z" class="st2"></path><path d="M759 626H617V143h142v483z" class="st5"></path><g class="st6"><path d="M696 626h-45l49-483h46l-50 483z" class="st7"></path></g><path d="M761 149H616v-12h145v12z" class="st3"></path><path d="M761 634H616v-12h145v12z" class="st0"></path><path d="M767 645H610V125h157v520zm-145-12h133V137H622v496z" class="st1"></path><path d="M387 626H244V143h143v483z" class="st2"></path><path d="M386 626H244V143h142v483z" class="st5"></path><g class="st6"><path d="M323 626h-46l50-483h45l-49 483z" class="st7"></path></g><path d="M388 149H243v-12h145v12z" class="st3"></path><path d="M388 634H243v-12h145v12z" class="st0"></path><path d="M393 645H236V125h157v520zm-145-12h133V137H248v496z" class="st1"></path><path d="M231 626H89V143h142v483z" class="st2"></path><path d="M210 348v92H100v-92h110z" class="st8"></path><path d="M121 373h-14v-14h14v14zm27 0h-14v-14h14v14zm27 0h-14v-14h14v14zm28 0h-14v-14h14v14zm-82 26h-14v-14h14v14zm27 0h-14v-14h14v14zm27 0h-14v-14h14v14z" class="st2"></path><path d="M203 399h-14v-14h14v14zm-82 25h-14v-14h14v14zm27 0h-14v-14h14v14z" class="st8"></path><path d="M175 424h-14v-14h14v14z" class="st2"></path><path d="M203 424h-14v-14h14v14zm7 15v92H100v-92h110z" class="st8"></path><path d="M121 465h-14v-15h14v15zm27 0h-14v-15h14v15zm27 0h-14v-15h14v15zm28 0h-14v-15h14v15zm-82 25h-14v-14h14v14zm27 0h-14v-14h14v14zm27 0h-14v-14h14v14z" class="st2"></path><path d="M203 490h-14v-14h14v14zm-82 26h-14v-14h14v14zm27 0h-14v-14h14v14z" class="st8"></path><path d="M175 516h-14v-14h14v14z" class="st2"></path><path d="M203 516h-14v-14h14v14zm7 14v93H100v-93h110z" class="st8"></path><path d="M121 556h-14v-14h14v14zm27 0h-14v-14h14v14zm27 0h-14v-14h14v14zm28 0h-14v-14h14v14zm-82 26h-14v-15h14v15zm27 0h-14v-15h14v15zm27 0h-14v-15h14v15z" class="st2"></path><path d="M203 582h-14v-15h14v15zm-82 25h-14v-14h14v14zm27 0h-14v-14h14v14z" class="st8"></path><path d="M175 607h-14v-14h14v14z" class="st2"></path><path d="M203 607h-14v-14h14v14z" class="st8"></path><path d="M694 826H552V343h142v483z" class="st5"></path><g class="st6"><path d="M167 626h-45l50-483h45l-50 483z" class="st7"></path></g><path d="M233 149H88v-12h145v12z" class="st3"></path><path d="M233 634H88v-12h145v12z" class="st0"></path><path d="M238 645H81V125h157v520zM93 633h133V137H93v496z" class="st1"></path><path d="M491 709h-2s-9-82 11-148 6-108 6-109h1s14 43-6 109-10 147-10 148z" class="st3"></path><path d="M509 461c-4-4-9-7-14-8l1-2c5 2 10 5 14 9l-1 1zm3 11-1-1 5-3v1l-4 3zm-5 34c-4-10-12-17-21-21l1-1c9 4 17 11 21 21l-1 1zm-4 50h-2c0-6-3-13-8-17l1-1c5 4 8 11 9 18zm-4 13h-2c2-4 5-8 10-9v1c-3 2-7 5-8 8zm-10 83-2-1c3-3 4-14 5-19h2c-1 7-3 17-5 20zm-1 26c-2-7-9-11-16-11v-2c8 0 15 5 17 12l-1 1zm2 30-2-1 12-13 1 2-11 12z" class="st3"></path><path d="M508 612c2 8-16 24-16 24s-23-3-26-12c-5-25 32-37 42-12z" class="st4"></path><path d="M528 510c-2 9-19 15-19 15s-12-13-10-22c9-26 34-20 29 7z" class="st0"></path><path d="M460 643c10 4 17 23 17 23s-18 9-28 5c-32-14-22-39 11-28z" class="st9"></path><path d="M477 517c10-3 28 14 21 24-8 10-37-18-21-24z" class="st8"></path><path d="M523 547c8 6-15 23-18 14-1-2 0-4 2-6 3-4 10-14 16-8z" class="st0"></path><path d="M491 486c-3 9-23-2-23-8 3-8 26 0 23 8z" class="st3"></path><path d="M495 448c3 1 10 1 8 5-4 2-19 4-20-1-1-7 8-4 12-4z" class="st8"></path><path d="M520 465c4 0 12-3 13 3-2 6-17 5-20 3-2-4 4-5 7-6zm-3 188c16-8-19 55-21 44-2-14 11-35 21-44z" class="st4"></path><path d="M506 449c13-29 31 8 0 3v-3z" class="st8"></path><path d="M519 765c-20 4-42 4-63 0l-24-72h112l-25 72z" class="st4"></path><path d="M547 185c-1 54-82 54-83 0 1-55 82-55 83 0z" class="st3"></path><path d="M544 183c0 54-83 54-83 0 1-55 82-55 83 0z" class="st0"></path><path d="M536 183c0 44-67 44-67 0 1-44 66-44 67 0z" class="st10"></path><path d="M501 186c-3-3 1-8 4-5 4 4-1 8-4 5z" class="st3"></path><path d="m502 183 20-1v2l-18 1-2 31-2-1 2-32z" class="st3"></path><path d="M892 831c20 29-796 29-776 0-20-28 796-28 776 0z" class="st9"></path><path d="M849 741H656l11-189c10-138 214-125 208 12l-10 162c-1 8-8 15-16 15z" class="st11"></path><path d="M843 741H656l11-189c10-138 214-125 208 12l-10 156c-1 12-10 21-22 21z" class="st12"></path><path d="M626 741c13-90-27-287 114-288 151 6 92 194 93 288H626zm208 27-4-27h16l-4 27c0 4-8 4-8 0z" class="st11"></path><path d="m834 768-4-27h16l-4 27c0 4-8 4-8 0z" class="st13"></path><path d="m573 768-4-27h15l-4 27c0 4-7 4-7 0z" class="st11"></path><path d="m573 768-4-27h15l-4 27c0 4-7 4-7 0z" class="st14"></path><path d="m648 768-3-27h14l-3 27c-1 4-8 4-8 0z" class="st11"></path><path d="m648 768-3-27h14l-3 27c-1 4-8 4-8 0z" class="st13"></path><path d="m753 768-4-27h16l-4 27c0 2-1 3-3 3s-5 0-5-3z" class="st11"></path><path d="m753 768-4-27h16l-4 27c0 2-1 3-3 3s-5 0-5-3z" class="st14"></path><path d="M668 674h-71l-6-83c1-21-13-42-35-43h69c20 0 35 17 37 36v7l6 83z" class="st11"></path><path d="M668 674h-71l-6-83c1-21-13-42-35-43h69c20 0 35 17 37 36v7l6 83z" class="st12"></path><path d="M724 637c9 2 41-5 41 10v17c0 15-32 8-41 10v-37z" class="st15"></path><path d="M597 663c0-9-3-26 10-26h126c14 1 11 17 11 26 0 6-5 11-11 11H607c-6 0-10-5-10-11zm307-74c0 20-14 36-34 40-15 130 24 111-99 112 7 0 13-7 14-15l7-98c48-9 42-79-7-80 9 1 84-2 90 2 17 5 29 21 29 39z" class="st11"></path><path d="M904 589c0 20-14 36-34 40-15 130 24 111-99 112 7 0 13-7 14-15l7-98c48-9 42-79-7-80 9 1 84-2 90 2 17 5 29 21 29 39z" class="st12"></path><path d="M826 589c0 20-14 36-31 40l-6 97c-1 8-7 15-13 15H566c-6 0-12-7-12-15l-7-98c-34-6-40-60-9-76 20-12 46 2 51 24 2 8 6 88 7 98h150l6-90c1-13 7-24 16-29 24-20 59 4 58 34z" class="st11"></path><path d="M742 741H566c-6 0-12-7-12-15l-7-98c-34-6-40-60-9-76 20-12 46 2 51 24 2 8 6 88 7 98h150l-4 67z" class="st5"></path><path d="M720 463c-27 15-56 27-87 30-26-3-51-10-76-18l3-14 74 6h-3c27-4 51-17 75-29l14 25z" class="st16"></path><path d="M720 463c-27 15-56 27-87 30-26-3-51-10-76-18l3-14 74 6h-3c27-4 51-17 75-29l14 25z" class="st12"></path><path d="m560 473-2 2-16-6 6-20c9 1 21 13 12 24z" class="st17"></path><path d="m529 455 4-14 15 8-6 20-13-14z" class="st17"></path><path d="M708 454c4 1 8 5 10 9a79 79 0 0 1-47 21c12-24 26-32 37-30z" class="st18"></path><path d="M684 589c29-63-17-140 33-153l49-8c17 1 30 14 30 31-1 78-26 130-26 130h-86z" class="st11"></path><path d="M684 589c29-63-17-140 33-153l49-8c17 1 30 14 30 31-1 78-26 130-26 130h-86z" class="st10"></path><path d="m553 765-11 34h-16l5-34h22z" class="st17"></path><path d="M524 791c27 1 22-7 23 17-1 6-18 2-25 3l-30-2c-8-1-6-8-2-9 19 0 24-5 34-9z" class="st16"></path><path d="m529 779 2-14h22l-6 17-18-3z" class="st18"></path><path d="M737 576c18 79-91 52-149 64-1 48-37 139-37 139l-25-7c1 0 11-92 14-152 22-58 163-40 197-44z" class="st11"></path><path d="M737 576c18 79-91 52-149 64-1 48-37 139-37 139l-25-7c1 0 11-92 14-152 22-58 163-40 197-44z" class="st19"></path><path d="m668 777 6 24h-18l-9-23 21-1z" class="st17"></path><path d="m649 784-6-15 23-3 3 17-20 1z" class="st18"></path><path d="M651 793c29 2 23-7 26 19 0 6-18 1-26 3h-27c-9 0-8-8-5-8 20-4 22-10 32-14z" class="st16"></path><path d="M772 576c17 74-72 58-127 59l23 144h-24s-48-107-51-153c12-58 149-48 179-50z" class="st11"></path><path d="M772 576c17 74-72 58-127 59l23 144h-24s-48-107-51-153c12-58 149-48 179-50z" class="st20"></path><path d="M753 381c-2 14-4 40 5 48-8 10-19 17-32 18-16 3-14-4-10-11 15-5 14-19 12-29l25-26z" class="st17"></path><path d="M728 426c1 3-19 25-22 41-5 39 4 80-17 116-4-1-10-3-10-7 6-15 10-26 10-42 0-37-10-99 39-108z" class="st16"></path><path d="M739 415c-3 2-7 3-10 2v-8l16-13c2 7 1 15-6 19z" opacity=".3"></path><path d="M752 364c0 19 1 30-7 41s-23 13-34 5c-17-15-17-54 4-66 17-10 36 2 37 20z" class="st17"></path><path d="M752 374c8 34-34 58-49 25 13-1 39-12 49-25z" class="st18"></path><path d="M767 373c-1 10-8 20-17 24l7-22c-5 0-9 4-9 8 0-6-5-10-9-14-5-5-6-13-2-19 14-22 32 9 30 23z" class="st16"></path><path d="M730 333c7 0 29 2 24 14-6 10-27 9-38 12-6 0-23 8-22-3 5-13 22-22 36-23z" class="st16"></path><path d="M762 381c0 8-14 19-15 4-1-14 16-20 15-4z" class="st17"></path><path d="M718 391s-3 2-6 1l3-11 3 10z" class="st22"></path><path d="M727 366c-2-2-6-2-8-2l-1-1c1-3 8 0 10 2 1 1 0 2-1 1zm-26 4c-1-3 4-6 6-6s2 2 1 2c-4 0-6 4-7 4z" class="st16"></path><path fill="#2e353a" d="M718 398c3-1 8-4 10-7 4 5 2 13-7 16l-5-8 2-1z"></path><path d="M728 391c3 4-2 6-7 9-2 1-2-1-3-2 3-1 8-4 10-7z" class="st7"></path><path fill="#de5753" d="m724 402 6-5c0 3-2 7-7 9l1-4z"></path><path d="M710 379c0 3-3 4-4 0-1-3 3-4 4 0zm17-3c0 3-3 4-4 0 0-3 3-4 4 0z" class="st16"></path><path d="m700 384 12-3 1 6-12 3-1-6z" class="st25"></path><path d="m733 376 1 6-16 3-2-5 17-4z" class="st25" opacity=".8"></path><path d="M712 383v-2l4-1 1 2-5 1zm12 140c1-27 6-76 24-91 20-23 54 14 52 30-5 33-14 75-19 110-2 8-3 17-9 22-15 17-49-4-64-8 8-15 17-42 16-63z" class="st16"></path><path d="M799 455c-2 44-6 118-51 91l-55-29 7-13 53 15c3 1 12 6 12-1 3-4 2-53 11-67 6-9 20-6 23 4z" class="st16"></path><path d="M799 455c-2 44-6 118-51 91l-55-29 7-13 53 15c3 1 12 6 12-1 3-4 2-53 11-67 6-9 20-6 23 4z" class="st5"></path><path d="M695 535h-60l-7-77h60l7 77z" class="st16"></path><path d="M695 535h-60l-7-77h60l7 77z" class="st14"></path><path d="M692 535h-59l-7-78h60l6 78z" class="st11"></path><path d="M692 535h-59l-7-78h60l6 78z" class="st10"></path><path d="M669 462h-25l-1-10h25l1 10z" class="st11"></path><path d="M643 453c0-2 28-1 28-1l1 4-2 2v3l-1 1-1-10h-25z" class="st11"></path><path d="M643 453c0-2 28-1 28-1l1 4-2 2v3l-1 1-1-10h-25z" class="st20"></path><path d="m704 508 2 7c-4 9-22 7-22 7v-22c4 2 20 2 20 8zm-20-8v22h-16l-4-19 20-3z" class="st17"></path><path d="m746 674 6-90c1-13 7-24 16-29 15-12 39-8 50 9 17 22 4 61-23 64l-6 98c-1 8-7 15-13 15h-34l4-67z" class="st11"></path><path d="m746 674 6-90c1-13 7-24 16-29 15-12 39-8 50 9 17 22 4 61-23 64l-6 98c-1 8-7 15-13 15h-34l4-67z" class="st5"></path><path fill="none" stroke="#407bff" stroke-width="2" d="M441 255c-4 120 24 87-94 92l-31 23c-3 3-9 0-9-4v-19c-6 0-13-1-13-8v-84c0-4 4-8 8-8h131c4 0 8 4 8 8z"></path><path d="M344 236h16v2h-16v-2zm-60 23h-2c-1-11 0-23 14-23h36v2h-36c-12 0-12 12-12 21zm116 50c-4 0-7-3-7-7 2-25 22-27 24-55 1-8-2-11-8-11-15 0-3 23-18 24-6 0-9-6-8-11-1-36 57-40 51 0-2 29-23 33-25 53 0 6-5 7-9 7zm8 17c-1 11-18 9-17-2s18-9 17 2zm-31-37h-46c-2 0-4-2-4-4s2-4 4-4h46c5 0 5 8 0 8zm-6 16h-40c-2 0-4-2-4-4s2-4 4-4h40c5 0 5 8 0 8zm-7 16h-33c-2 0-4-2-4-4s2-4 4-4h33c6 0 6 8 0 8zm-94 363c-9-1-42 6-42-10v-17c0-16 33-8 42-10v37z" class="st11"></path><path d="M134 728c0-93-52-266 94-272 142 1 101 198 115 287H150c-8 0-15-6-16-15z" class="st11"></path><path d="M134 723c-1-93-50-261 94-267 142 1 101 198 115 287H156c-12 0-21-9-22-20z" class="st12"></path><path d="M166 743c1-94-58-282 93-287 141 1 100 198 114 287H167zm-4 31c-2 0-5 0-5-3l-4-28h16l-4 28c0 1-1 3-3 3z" class="st11"></path><path d="M162 774c-2 0-5 0-5-3l-4-28h16l-4 28c0 1-1 3-3 3z" class="st13"></path><path d="M424 774c-2 0-5 0-5-3l-4-28h15c-1 2-2 32-6 31z" class="st11"></path><path d="M424 774c-2 0-5 0-5-3l-4-28h15c-1 2-2 32-6 31z" class="st14"></path><path d="M348 774c-2 0-4 0-5-3l-3-28h15l-4 28c0 1-1 3-3 3z" class="st11"></path><path d="M348 774c-2 0-4 0-5-3l-3-28h15l-4 28c0 1-1 3-3 3z" class="st13"></path><path d="M243 774c-2 0-5 0-5-3l-4-28h16l-4 28c0 1-1 3-3 3z" class="st11"></path><path d="M243 774c-2 0-5 0-5-3l-4-28h16l-4 28c0 1-1 3-3 3z" class="st14"></path><path d="M337 593c-1-21 15-42 37-42h69c-22 1-36 22-35 42l-6 84h-71l6-84z" class="st11"></path><path d="M337 593c-1-21 15-42 37-42h69c-22 1-36 22-35 42l-6 84h-71l6-84z" class="st12"></path><path d="M275 677c-9-2-41 5-41-10v-17c0-16 32-8 41-10v37z" class="st15"></path><path d="M392 677H266c-14-1-11-17-11-26 0-6 5-11 11-11h126c13 0 10 17 10 26 1 6-4 11-10 11zM103 567c8-10 20-16 33-16h78c-13 0-24 6-32 15-19 23-4 61 25 65l7 98c1 8 7 14 14 14-123-1-83 18-99-112-29-4-44-42-26-64z" class="st11"></path><path d="M103 567c8-10 20-16 33-16h78c-13 0-24 6-32 15-19 23-4 61 25 65l7 98c1 8 7 14 14 14-123-1-83 18-99-112-29-4-44-42-26-64z" class="st12"></path><path d="M181 567c11-17 35-22 50-9 9 5 15 16 16 28l6 90h149c2-10 6-89 8-97 5-22 31-36 51-24 32 16 25 70-9 76l-7 97c0 9-6 15-12 15H223c-6 0-12-6-12-14l-7-98c-27-4-40-43-23-64z" class="st11"></path><path d="M253 677h150c1-11 5-90 7-98 5-22 31-36 51-24 32 16 25 70-9 76l-7 97c0 9-6 15-12 15H257l-4-66z" class="st5"></path><path d="m326 738 17 4-16 40-17-4 16-40z" class="st17"></path><path d="M361 791c4 0 4 9-5 9-9 1-22-3-28-4-9-3-25 0-23-9 8-23 1-17 25-13 2 0 4 1 5 3 3 4 13 12 26 14z" class="st16"></path><path d="m343 742-8 21-17-5 8-20 17 4z" class="st28"></path><path d="M286 590s102 0 99 34c-2 30-42 122-45 135l-24-8s21-99 35-109h-86c-29 0-42-32-14-68 18 0 35 16 35 16z" class="st11"></path><path d="M286 590s102 0 99 34c2 21-45 135-45 135l-24-8s21-99 35-109h-86c-29 0-42-32-14-68 18 0 35 16 35 16z" class="st19"></path><path d="M358 528c-12 11-37-16-41-19-65-50-17-71 22-6l19 25z" class="st16"></path><path d="M294 462c5 1 6 15 8 24 7 21 5 31-4 51-2 12 3 32-5 32l-63-1c-2-1-3-3-3-5 9-31-16-79 3-104 4-5 11-2 17-4 18-3 39 5 47 7z" class="st11"></path><path d="M294 462c5 1 6 15 8 24 7 21 5 31-4 51-2 12 3 32-5 32l-63-1c-2-1-3-3-3-5 9-31-16-79 3-104 4-5 11-2 17-4 18-3 39 5 47 7z" class="st10"></path><path d="M253 528c0 11-4 18-19 12-8-2-10-28-10-28s-9-23-5-46c4-17 21-2 22-1 11 17 12 63 12 63z" class="st16"></path><path d="M272 441c-2 7-2 15 5 19 10 6 13 19 2 28-12-17-31-27-31-27 8-7 6-27 4-38l20 18z" class="st29"></path><path d="M255 442c5 1 11 4 16 4v6c-7 3-15-3-16-10z" class="st18"></path><path d="m415 717 13-22 20 48h-19l-14-26z" class="st17"></path><path d="M450 741c4 5 12 12 27 19 4 1 1 10-7 8l-52-12-2-4 6-17c1-1 1-2 2-1 3 1 25 4 26 7z" class="st16"></path><path d="m428 695 9 21-17 9-5-8 13-22z" class="st28"></path><path d="m228 567 73 2 1 1-1 7c0 2-74-2-75-2l-1-1c1 0 1-7 3-7z" class="st16"></path><path d="M320 621c-25 11-51 21-65 21-29 0-55-21-27-68l46 1c166-43 127 28 163 133l-20 14s-32-67-51-120l-46 19z" class="st11"></path><path d="m437 708-20 14s-32-67-51-120c-24 8-87 40-111 40-29 0-55-21-27-68l46 1c166-43 127 28 163 133z" class="st20"></path><path d="m385 624-3 20-16-42c12 5 20 12 19 22z" class="st11"></path><path d="m385 624-3 20-16-42c12 5 20 12 19 22z" class="st19"></path><path d="M238 402c2-14 14-23 27-22 19 2 29 27 29 43 1 19-18 30-35 20-12-6-20-24-21-41z" class="st29"></path><path d="M271 408c2-1 3 4 1 5-2 0-4-5-1-5zm15-5c3-1 4 4 2 5s-4-5-2-5z" class="st16"></path><path d="m286 403 3-2s-1 3-3 2z" class="st16"></path><path d="m280 409 7 7c-1 3-4 3-4 3l-3-10z" class="st22"></path><path d="M230 405c9-20 14 4 14 13-1 4-7 6-6 10 2 4 9 1 11 4 3 7-6 14-11 18l2-7c-3 4-8 7-14 7 4-2 7-5 9-9-3 5-9 8-15 6 6-1 12-7 11-13-2-10-6-20-1-29z" class="st16"></path><path d="M241 419c8-3 18 16 7 16-8 0-17-12-7-16z" class="st29"></path><path d="M270 399h-1c-4 1-6 6-6 6l-2-1c1 0 3-5 8-6 1-1 1 0 1 1zm11-4c2 1 5 3 7 2l1 1c-2 2-7-1-10-2l2-1zm-11 13 3-2s-1 3-3 2zm8-32c-11 9-32 8-38 22-1 9-10 5-11 26-9-13-5-36 7-46 12-9 28-9 42-2z" class="st16"></path><path d="M260 369c33 1 65 47 37 73 5-9 5-20 2-29 0 4-1 8-4 10 1-21-13-32-33-35 3 2 7 9 5 10-6 1-14 0-18-5 3 0 6 9 5 10 0 1-8 2-12 1-25-11 0-36 18-35z" class="st16"></path><path d="M233 456c-15-7-16-12-13-26 4-1 9-2 13-1l3 10c4 5 11 1 10 14-4 0-9 4-13 3z" class="st29"></path><path d="M246 453c-1 8 13 79 4 84-36 26-15-82-16-81 4-8 12-3 12-3zm96 54c1-11 4-43 6-48l10 3c0 1 5 32 4 43-1 5-5 12-10 15l-10-13z" class="st29"></path><path d="M351 522c-5-5-10-12-12-19-1-3 1-15 4-13-3 6 16 18 19 9 5 0 1 27-4 29l-7-6z" class="st16"></path><path d="m347 460-1-18c19 11 29-6 12 20l-11-2z" class="st29"></path><path d="m346 442 8-18 10 6c3 6 3 18 3 18s-14 1-21-6z" class="st29"></path><path d="M280 425c2 0 3 5 1 5-2 1-3-4-1-5z" class="st16"></path><path d="M257 743h-34c-6 0-12-6-12-14l-7-98c-27-4-40-43-23-64v-1c11-16 35-21 50-8 9 5 15 16 16 28l10 157z" class="st11"></path><path d="M257 743h-34c-6 0-12-6-12-14l-7-98c-27-4-40-43-23-64v-1c11-16 35-21 50-8 9 5 15 16 16 28l10 157z" class="st5"></path><path d="M559 824c3 22-136 22-134 0-2-22 137-22 134 0z" class="st16"></path><path fill="#fff" d="M559 821c3 18-137 18-134 0-2-18 137-18 134 0z" opacity=".3"></path><path d="M498 821h-11l-13-138h37l-13 138z" class="st16"></path><path d="M511 683c0 9-38 9-37 0-1-10 37-9 37 0z" class="st16"></path><path d="M511 683c0 9-38 9-37 0-1-10 37-9 37 0z" class="st13"></path><path d="m268 685 2-4c22 35 445 35 466 0 28 50-482 43-468 4z" class="st13"></path><path d="M270 689c22-35 445-35 466 0-21 36-444 35-466 0z" class="st13"></path><path d="M268 684c-14-38 496-45 468 5-21-36-444-36-466 0l-2-5z" class="st13"></path><path d="m594 669-99-2-1-2 2-2 98 1c2 1 2 5 0 5z" class="st16"></path><path d="m594 669-99-2-1-2 2-2 98 1c2 1 2 5 0 5z" class="st31"></path><path d="M641 662c-1-1-50 10-49 5-3-4 48-8 49-10 3 0 3 4 0 5zm-50 2-95-1c29-7 114-6 145-6l-50 7z" class="st16"></path><path d="m591 664-95-1c29-7 114-6 145-6l-50 7z" class="st32"></path><path d="M641 662c-1-1-50 10-49 5-3-4 48-8 49-10 3 0 3 4 0 5z" class="st14"></path><path d="m591 664-92-1c-3 0-6-4-6-7l-2-56c-1-4 2-7 5-7l92 2c3 0 6 3 6 7l3 56c0 3-3 7-6 6z" class="st11"></path><path d="m591 664-92-1c-3 0-6-4-6-7l-2-56c-1-4 2-7 5-7l92 2c3 0 6 3 6 7l3 56c0 3-3 7-6 6z" class="st31"></path><path d="m588 664-91-2c-4 0-6-3-7-7l-2-55c0-4 2-7 5-7l92 2c3 0 6 3 6 7l3 55c0 4-2 7-6 7z" class="st11"></path><path d="m588 664-91-2c-4 0-6-3-7-7l-2-55c0-4 2-7 5-7l92 2c3 0 6 3 6 7l3 55c0 4-2 7-6 7z" class="st32"></path><path d="M538 618c12-1 15 19 1 19-12 1-15-19-1-19z" class="st7"></path></svg> 