<?xml version="1.0" encoding="UTF-8"?> <svg xmlns="http://www.w3.org/2000/svg" version="1.2" viewBox="0 0 400 320" width="400" height="320"><defs><linearGradient id="P" gradientUnits="userSpaceOnUse"></linearGradient><linearGradient id="g1" x1="303" y1="577.9" x2="1.1" y2="256.4" href="#P"><stop stop-color="#dae3fe"></stop><stop offset="1" stop-color="#e9effd"></stop></linearGradient><linearGradient id="g2" x1="299.8" y1="131.3" x2="235.5" y2="324.3" href="#P"><stop stop-color="#09005d"></stop><stop offset="1" stop-color="#1a0f91"></stop></linearGradient><linearGradient id="g3" x1="296.1" y1="116.9" x2="210.9" y2="380.5" href="#P"><stop stop-color="#fe7062"></stop><stop offset="1" stop-color="#ff928e"></stop></linearGradient><linearGradient id="g4" x1="200.8" y1="144.9" x2="200.8" y2="190.8" href="#P"><stop stop-color="#09005d"></stop><stop offset="1" stop-color="#1a0f91"></stop></linearGradient><linearGradient id="g5" x1="-15.4" y1="249.7" x2="80" y2="121.7" href="#P"><stop stop-color="#09005d"></stop><stop offset="1" stop-color="#1a0f91"></stop></linearGradient><linearGradient id="g6" x1="214.3" y1="-6.7" x2="344.3" y2="224.9" href="#P"><stop stop-color="#4f52ff"></stop><stop offset="1" stop-color="#4042e2"></stop></linearGradient><linearGradient id="g7" x1="233.4" y1="28.9" x2="289.2" y2="23.8" href="#P"><stop stop-color="#4f52ff"></stop><stop offset="1" stop-color="#4042e2"></stop></linearGradient><clipPath id="cp1"><path d="m268.41 205.71c-1.36-1.39-4.34-6.74-6.89-20.6-2.47-13.39-3.82-30.76-3.82-48.91 0-18.15 1.35-35.52 3.82-48.91 2.55-13.86 5.53-19.22 6.89-20.61 1.37 1.39 4.34 6.75 6.89 20.61 2.47 13.39 21.92 30.76 21.92 48.91 0 18.15-19.45 35.52-21.92 48.91-2.55 13.86-5.52 19.21-6.89 20.6z"></path></clipPath><linearGradient id="g8" x1="304.1" y1="157.6" x2="190.7" y2="164.1" href="#P"><stop stop-color="#09005d"></stop><stop offset="1" stop-color="#1a0f91"></stop></linearGradient><linearGradient id="g9" x1="53.9" y1="173.6" x2="49.8" y2="72.5" href="#P"><stop stop-color="#09005d"></stop><stop offset="1" stop-color="#1a0f91"></stop></linearGradient><linearGradient id="g10" x1="178.2" y1="293.5" x2="81.3" y2="397" href="#P"><stop stop-color="#09005d"></stop><stop offset="1" stop-color="#1a0f91"></stop></linearGradient><linearGradient id="g11" x1="146.3" y1="300.7" x2="151.8" y2="300.8" href="#P"><stop stop-color="#febbba"></stop><stop offset="1" stop-color="#ff928e"></stop></linearGradient><linearGradient id="g12" x1="348.4" y1="335.4" x2="283.6" y2="421.4" href="#P"><stop stop-color="#4f52ff"></stop><stop offset="1" stop-color="#4042e2"></stop></linearGradient><linearGradient id="g13" x1="165.1" y1="281.1" x2="82.4" y2="369.4" href="#P"><stop stop-color="#09005d"></stop><stop offset="1" stop-color="#1a0f91"></stop></linearGradient><linearGradient id="g14" x1="126.8" y1="299.4" x2="131.5" y2="299.4" href="#P"><stop stop-color="#febbba"></stop><stop offset="1" stop-color="#ff928e"></stop></linearGradient><linearGradient id="g15" x1="252" y1="295.9" x2="201.8" y2="362.6" href="#P"><stop stop-color="#4f52ff"></stop><stop offset="1" stop-color="#4042e2"></stop></linearGradient><linearGradient id="g16" x1="169.9" y1="146" x2="198.1" y2="146.2" href="#P"><stop stop-color="#febbba"></stop><stop offset="1" stop-color="#ff928e"></stop></linearGradient><linearGradient id="g17" x1="178.9" y1="127.5" x2="159.7" y2="82.7" href="#P"><stop stop-color="#febbba"></stop><stop offset="1" stop-color="#ff928e"></stop></linearGradient><linearGradient id="g18" x1="192.1" y1="140.6" x2="201.4" y2="126.5" href="#P"><stop stop-color="#febbba"></stop><stop offset="1" stop-color="#ff928e"></stop></linearGradient><linearGradient id="g19" x1="109.1" y1="191.8" x2="144.3" y2="192.1" href="#P"><stop stop-color="#febbba"></stop><stop offset="1" stop-color="#ff928e"></stop></linearGradient><linearGradient id="g20" x1="136.2" y1="156.2" x2="150.4" y2="156.3" href="#P"><stop stop-color="#febbba"></stop><stop offset="1" stop-color="#ff928e"></stop></linearGradient><linearGradient id="g21" x1="147.7" y1="165.8" x2="130" y2="154.7" href="#P"><stop stop-color="#febbba"></stop><stop offset="1" stop-color="#ff928e"></stop></linearGradient><linearGradient id="g22" x1="130.1" y1="117.4" x2="166.9" y2="147" href="#P"><stop stop-color="#09005d"></stop><stop offset="1" stop-color="#1a0f91"></stop></linearGradient><linearGradient id="g23" x1="149.4" y1="161.1" x2="132.7" y2="150.7" href="#P"><stop stop-color="#febbba"></stop><stop offset="1" stop-color="#ff928e"></stop></linearGradient><linearGradient id="g24" x1="169.2" y1="170.4" x2="193.3" y2="270.7" href="#P"><stop stop-color="#09005d"></stop><stop offset="1" stop-color="#1a0f91"></stop></linearGradient><linearGradient id="g25" x1="140.2" y1="195.1" x2="151.1" y2="195.1" href="#P"><stop stop-color="#febbba"></stop><stop offset="1" stop-color="#ff928e"></stop></linearGradient><linearGradient id="g26" x1="147.5" y1="182.5" x2="171" y2="182.5" href="#P"><stop stop-color="#dae3fe"></stop><stop offset="1" stop-color="#e9effd"></stop></linearGradient></defs><style>.a{fill:url(#g1)}.b{fill:#91b3fa}.c{fill:#bdd0fb}.d{fill:url(#g2)}.e{fill:url(#g3)}.f{fill:#fff}.g{fill:url(#g4)}.h{opacity:.4;fill:#fff}.i{fill:url(#g5)}.j{fill:url(#g6)}.k{fill:url(#g7)}.l{fill:url(#g8)}.m{fill:url(#g9)}.n{fill:#7d97f4}.o{fill:url(#g10)}.p{fill:url(#g11)}.q{fill:url(#g12)}.r{fill:url(#g13)}.s{fill:url(#g14)}.t{fill:url(#g15)}.u{fill:url(#g16)}.v{fill:url(#g17)}.w{fill:url(#g18)}.x{fill:url(#g19)}.y{fill:url(#g20)}.z{fill:url(#g21)}.A{fill:url(#g22)}.B{fill:url(#g23)}.C{fill:url(#g24)}.D{fill:url(#g25)}.E{fill:url(#g26)}</style><path class="a" d="m315.8 271.5c-7.8 8.1-14.8 12.9-20.2 16.5-52.2 35.3-111.9 25.1-130.4 21.6-29.7-5.6-54.9-9.5-76.5-29.2-49-44.9-46.6-138.4-9.1-196.3 4.4-6.9 41.8-63 101.7-70.9 1.4-0.2 2.5-0.3 3.5-0.4 9.2-1 66.6-6.2 113.3 33.4 6.7 5.7 17.5 15.9 27.5 31.5 36.5 57 36.6 145.4-9.8 193.8z"></path><path class="b" d="m48.5 79.2q0 0 0 0c-0.2 0-0.4-0.2-0.4-0.4q0-0.7 0-1.5c0-0.2 0.2-0.3 0.4-0.3 0.2 0 0.4 0.1 0.4 0.3q-0.1 0.8-0.1 1.5c0 0.2-0.1 0.4-0.3 0.4z"></path><path class="b" d="m48.8 73q0 0 0 0c-0.2 0-0.4-0.2-0.4-0.4q0.2-1.4 0.4-2.8c0-0.2 0.2-0.4 0.4-0.3 0.2 0 0.4 0.2 0.3 0.4q-0.2 1.4-0.3 2.8c0 0.2-0.2 0.3-0.4 0.3zm1.2-7.4q0 0-0.1 0c-0.1-0.1-0.3-0.3-0.2-0.5q0.3-1.4 0.7-2.8c0-0.2 0.2-0.3 0.4-0.2 0.2 0 0.3 0.2 0.3 0.4q-0.4 1.4-0.7 2.8c-0.1 0.2-0.2 0.3-0.4 0.3zm2.1-7.3q-0.1 0-0.1 0c-0.2-0.1-0.3-0.3-0.2-0.5q0.2-0.7 0.5-1.5 0.2-0.6 0.5-1.2c0.1-0.2 0.3-0.2 0.5-0.2 0.1 0.1 0.2 0.3 0.2 0.5q-0.3 0.6-0.5 1.2-0.3 0.7-0.5 1.5c-0.1 0.1-0.2 0.2-0.4 0.2zm2.9-6.9q-0.1 0-0.1-0.1c-0.2-0.1-0.3-0.3-0.2-0.5q0.6-1.3 1.3-2.5c0.1-0.2 0.3-0.3 0.5-0.2 0.2 0.1 0.2 0.3 0.1 0.5q-0.6 1.3-1.3 2.5c0 0.2-0.2 0.3-0.3 0.3zm3.7-6.6q-0.1 0-0.2-0.1c-0.2-0.1-0.2-0.3-0.1-0.5q0.8-1.2 1.6-2.4c0.1-0.2 0.4-0.2 0.5-0.1 0.2 0.1 0.2 0.4 0.1 0.5q-0.8 1.2-1.6 2.4-0.1 0.2-0.3 0.2zm4.4-6.1q-0.1 0-0.2-0.1c-0.1-0.1-0.2-0.4 0-0.5q0.9-1.2 1.9-2.2c0.1-0.2 0.3-0.2 0.5-0.1 0.1 0.2 0.1 0.4 0 0.6q-1 1-1.9 2.1-0.1 0.2-0.3 0.2zm96.2-3.8q-0.1 0-0.2-0.1-1-1.1-2.1-2.1c-0.1-0.1-0.1-0.3 0-0.5 0.2-0.1 0.4-0.1 0.5 0q1.1 1 2.1 2c0.1 0.2 0.1 0.4 0 0.6q-0.1 0.1-0.3 0.1zm-91-1.8q-0.2 0-0.3-0.1c-0.1-0.1-0.1-0.4 0-0.5q1.1-1 2.2-2c0.1-0.1 0.3-0.1 0.5 0.1 0.1 0.1 0.1 0.3-0.1 0.5q-1 0.9-2.1 1.9-0.1 0.1-0.2 0.1zm85.5-3.4q-0.1 0-0.2 0-1.2-0.9-2.3-1.8c-0.2-0.1-0.2-0.4-0.1-0.5 0.1-0.2 0.4-0.2 0.5-0.1q1.2 0.9 2.3 1.8c0.2 0.1 0.2 0.4 0.1 0.5q-0.2 0.1-0.3 0.1zm-79.8-1.5q-0.1 0-0.3-0.1c-0.1-0.2 0-0.4 0.1-0.5q1.2-0.9 2.4-1.7c0.1-0.1 0.4-0.1 0.5 0.1 0.1 0.1 0 0.4-0.1 0.5q-1.2 0.8-2.3 1.6-0.1 0.1-0.3 0.1zm73.7-2.9q-0.1 0-0.2 0-1.2-0.8-2.5-1.5c-0.2-0.1-0.2-0.4-0.1-0.5 0.1-0.2 0.3-0.3 0.5-0.2q1.2 0.8 2.5 1.5c0.1 0.1 0.2 0.4 0.1 0.5q-0.1 0.2-0.3 0.2zm-67.4-1.3q-0.2 0-0.3-0.2c-0.1-0.1 0-0.4 0.1-0.5q1.3-0.7 2.6-1.4c0.1-0.1 0.4 0 0.5 0.2 0 0.2 0 0.4-0.2 0.5q-1.3 0.7-2.5 1.4-0.1 0-0.2 0zm60.8-2.4q-0.1 0-0.2 0-1.3-0.6-2.6-1.2c-0.2-0.1-0.3-0.3-0.2-0.5 0.1-0.2 0.3-0.2 0.5-0.2q1.3 0.6 2.6 1.2c0.2 0.1 0.3 0.3 0.2 0.5-0.1 0.2-0.2 0.2-0.3 0.2zm-54.1-1c-0.1 0-0.2-0.1-0.3-0.2-0.1-0.2 0-0.4 0.2-0.5q1.3-0.6 2.7-1.1c0.2-0.1 0.4 0 0.4 0.2 0.1 0.2 0 0.4-0.2 0.5q-1.3 0.5-2.6 1.1-0.1 0-0.2 0zm47.1-1.9q-0.1 0-0.1 0-1.4-0.5-2.8-0.9c-0.1 0-0.3-0.2-0.2-0.4 0.1-0.2 0.3-0.3 0.5-0.3q1.3 0.5 2.7 0.9c0.2 0.1 0.3 0.3 0.2 0.5 0 0.1-0.2 0.2-0.3 0.2zm-40-0.7c-0.1 0-0.3-0.1-0.3-0.3-0.1-0.2 0-0.4 0.2-0.4q1.4-0.5 2.8-0.8c0.2-0.1 0.4 0 0.4 0.2 0.1 0.2 0 0.4-0.2 0.5q-1.4 0.3-2.8 0.8 0 0-0.1 0zm32.7-1.3q0 0-0.1 0-1.3-0.3-2.8-0.6c-0.2 0-0.3-0.2-0.3-0.4 0.1-0.2 0.3-0.3 0.5-0.3q1.4 0.2 2.8 0.6c0.2 0 0.3 0.2 0.3 0.4-0.1 0.2-0.2 0.3-0.4 0.3zm-25.3-0.5c-0.2 0-0.4-0.1-0.4-0.3 0-0.2 0.1-0.4 0.3-0.4q1.4-0.3 2.8-0.5c0.2 0 0.4 0.1 0.5 0.3 0 0.2-0.2 0.4-0.4 0.4q-1.4 0.2-2.8 0.5 0 0 0 0zm17.9-0.7q0 0-0.1 0-1.4-0.2-2.8-0.3c-0.2 0-0.4-0.1-0.4-0.3 0-0.2 0.2-0.4 0.4-0.4q1.5 0.1 2.9 0.2c0.2 0.1 0.4 0.2 0.3 0.4 0 0.2-0.1 0.4-0.3 0.4zm-10.4-0.2c-0.2 0-0.4-0.2-0.4-0.4 0-0.2 0.1-0.3 0.3-0.4q1.5 0 2.9-0.1c0.2 0 0.4 0.2 0.4 0.4 0 0.2-0.2 0.4-0.4 0.4q-1.4 0-2.8 0.1 0 0 0 0z"></path><path class="b" d="m163.4 39.5q-0.2 0-0.3-0.1-0.4-0.6-0.9-1.2c-0.1-0.1-0.1-0.3 0-0.5 0.2-0.1 0.4-0.1 0.5 0.1q0.5 0.5 1 1.1c0.1 0.2 0.1 0.4-0.1 0.5q-0.1 0.1-0.2 0.1z"></path><path class="b" d="m177 87q0 0-0.1 0c-0.2-0.1-0.3-0.3-0.3-0.5q0.1-0.7 0.2-1.4c0-0.2 0.2-0.3 0.4-0.3 0.2 0 0.3 0.2 0.3 0.4q-0.1 0.7-0.2 1.4c0 0.2-0.1 0.4-0.3 0.4z"></path><path class="b" d="m113 144.1c-0.2 0-0.3-0.2-0.3-0.4 0-0.2 0.1-0.4 0.3-0.4q1.5 0 3 0c0.2 0 0.4 0.1 0.4 0.3 0 0.2-0.2 0.4-0.4 0.4q-1.5 0.1-3 0.1 0 0 0 0zm-4.8-0.2q0 0 0 0-1.5-0.1-3-0.3c-0.2 0-0.4-0.2-0.3-0.4 0-0.2 0.2-0.3 0.4-0.3q1.4 0.2 2.9 0.3c0.2 0 0.4 0.2 0.4 0.4-0.1 0.1-0.2 0.3-0.4 0.3zm12.6-0.3c-0.2 0-0.3-0.2-0.3-0.3-0.1-0.2 0.1-0.4 0.3-0.4q1.4-0.2 2.9-0.5c0.2 0 0.4 0.1 0.4 0.3 0.1 0.2-0.1 0.4-0.3 0.4q-1.4 0.3-2.9 0.5-0.1 0-0.1 0zm-20.3-0.8q-0.1 0-0.1 0-1.5-0.3-2.9-0.6c-0.2-0.1-0.4-0.3-0.3-0.5 0-0.2 0.2-0.3 0.4-0.2q1.5 0.3 2.9 0.6c0.2 0.1 0.4 0.3 0.3 0.4 0 0.2-0.2 0.3-0.3 0.3zm28-0.6c-0.2 0-0.3-0.2-0.4-0.3 0-0.2 0.1-0.4 0.3-0.5q1.4-0.3 2.9-0.8c0.2 0 0.4 0.1 0.4 0.3 0.1 0.2 0 0.4-0.2 0.4q-1.5 0.5-2.9 0.8-0.1 0.1-0.1 0.1zm-35.6-1.3q-0.1 0-0.1-0.1-1.4-0.4-2.8-0.9c-0.2-0.1-0.3-0.3-0.2-0.5 0-0.2 0.2-0.3 0.4-0.2h0.1q1.3 0.5 2.7 1c0.2 0 0.3 0.2 0.2 0.4 0 0.2-0.1 0.3-0.3 0.3zm43-1.1c-0.1 0-0.2-0.1-0.3-0.2-0.1-0.2 0-0.4 0.2-0.5q1.4-0.5 2.8-1.1c0.1-0.1 0.4 0 0.4 0.2 0.1 0.2 0 0.4-0.2 0.4q-1.3 0.6-2.7 1.2-0.1 0-0.2 0zm-50.3-1.8q0 0-0.1 0-1.4-0.7-2.7-1.4c-0.2-0.1-0.3-0.3-0.2-0.5 0.1-0.1 0.4-0.2 0.5-0.1q1.3 0.7 2.7 1.3c0.2 0.1 0.3 0.3 0.2 0.5-0.1 0.1-0.2 0.2-0.4 0.2zm57.5-1.4q-0.2 0-0.4-0.2c-0.1-0.2 0-0.4 0.2-0.5q1.3-0.7 2.6-1.5c0.2-0.1 0.4 0 0.5 0.2 0.1 0.2 0 0.4-0.2 0.5q-1.2 0.7-2.6 1.4-0.1 0.1-0.1 0.1zm-64.3-2.3q-0.1 0-0.2-0.1-1.3-0.8-2.5-1.6c-0.2-0.1-0.2-0.4-0.1-0.5 0.1-0.2 0.3-0.2 0.5-0.1q1.2 0.8 2.5 1.6c0.1 0.1 0.2 0.3 0.1 0.5q-0.1 0.2-0.3 0.2zm70.9-1.8q-0.1 0-0.3-0.1c-0.1-0.2 0-0.4 0.1-0.5q1.2-0.9 2.4-1.8c0.2-0.1 0.4-0.1 0.5 0.1 0.2 0.1 0.1 0.4 0 0.5q-1.2 0.9-2.5 1.8-0.1 0-0.2 0zm-77.3-2.8q-0.1 0-0.2 0-1.2-1-2.3-2c-0.2-0.1-0.2-0.3 0-0.5 0.1-0.2 0.3-0.2 0.5 0q1.1 0.9 2.2 1.9c0.2 0.1 0.2 0.3 0.1 0.5q-0.1 0.1-0.3 0.1zm83.5-2q-0.2 0-0.3-0.1c-0.1-0.2-0.1-0.4 0-0.6q1.1-0.9 2.2-2c0.1-0.1 0.4-0.1 0.5 0 0.1 0.2 0.1 0.4 0 0.5q-1.1 1.1-2.2 2.1-0.1 0.1-0.2 0.1zm-89.3-3.2q-0.1 0-0.2-0.2-1.1-1-2.1-2.2c-0.1-0.1-0.1-0.3 0.1-0.5 0.1-0.1 0.4-0.1 0.5 0.1q1 1.1 2 2.1c0.1 0.2 0.1 0.4 0 0.6q-0.1 0.1-0.3 0.1zm94.8-2.4q-0.2 0-0.3-0.1c-0.1-0.1-0.1-0.3 0-0.5q1-1.1 1.9-2.2c0.1-0.2 0.4-0.2 0.5-0.1 0.2 0.1 0.2 0.4 0.1 0.5q-1 1.2-2 2.3-0.1 0.1-0.2 0.1zm4.8-6.1q-0.1 0-0.2-0.1c-0.2-0.1-0.3-0.3-0.1-0.5q0.8-1.2 1.6-2.5c0.1-0.2 0.3-0.2 0.5-0.1 0.1 0.1 0.2 0.3 0.1 0.5q-0.8 1.3-1.6 2.5-0.2 0.2-0.3 0.2zm4-6.7q-0.1 0-0.2-0.1c-0.2-0.1-0.3-0.3-0.2-0.5q0.7-1.3 1.3-2.6c0.1-0.2 0.3-0.3 0.5-0.2 0.2 0.1 0.3 0.3 0.2 0.5q-0.6 1.3-1.3 2.7-0.1 0.1-0.3 0.2zm3.1-7.2q0 0-0.1 0c-0.2-0.1-0.3-0.3-0.2-0.5q0.5-1.4 1-2.8c0-0.2 0.2-0.3 0.4-0.2 0.2 0 0.3 0.3 0.2 0.4q-0.4 1.5-0.9 2.9c-0.1 0.1-0.2 0.2-0.4 0.2zm2.3-7.5q0 0-0.1 0c-0.2 0-0.3-0.2-0.2-0.4q0.3-1.4 0.6-2.9c0-0.2 0.2-0.3 0.4-0.3 0.2 0 0.3 0.2 0.3 0.4q-0.3 1.5-0.6 3c-0.1 0.1-0.2 0.2-0.4 0.2z"></path><path class="b" d="m61.5 118.5q-0.1 0-0.2-0.1-0.5-0.6-0.9-1.2c-0.1-0.2-0.1-0.4 0.1-0.5 0.1-0.1 0.4-0.1 0.5 0.1q0.4 0.5 0.8 1.1c0.2 0.2 0.1 0.4 0 0.5q-0.1 0.1-0.3 0.1z"></path><path class="b" d="m65.1 92.5c-0.1-0.3 0-0.7 0.2-0.9l7.1-6.2c-0.7-4.4-0.7-8.8 0-13.3l-7-6.2c-0.3-0.3-0.4-0.6-0.2-0.9l4.3-10.4c0.1-0.4 0.4-0.5 0.8-0.5l9.3 0.6c2.7-3.7 5.9-6.9 9.4-9.4l-0.5-9.4c0-0.4 0.2-0.7 0.5-0.8l10.4-4.3c0.3-0.1 0.7 0 0.9 0.2l6.2 7c4.3-0.7 8.8-0.7 13.3 0.1l6.2-7.1c0.3-0.2 0.6-0.3 0.9-0.2l10.4 4.3c0.3 0.2 0.5 0.5 0.5 0.8l-0.6 9.4c3.7 2.6 6.9 5.8 9.4 9.4l9.4-0.6c0.3 0 0.7 0.2 0.8 0.5l4.3 10.4c0.1 0.3 0 0.7-0.2 0.9l-7.1 6.3c0.8 4.3 0.8 8.8 0 13.2l7.1 6.3c0.2 0.2 0.3 0.6 0.2 0.9l-4.3 10.4c-0.2 0.3-0.5 0.5-0.8 0.5l-9.4-0.6c-2.6 3.7-5.8 6.8-9.4 9.4l0.6 9.4c0 0.3-0.2 0.6-0.5 0.7l-10.5 4.3c-0.3 0.2-0.6 0.1-0.8-0.2l-6.3-7c-4.3 0.7-8.8 0.7-13.2 0l-6.3 7c-0.2 0.3-0.6 0.4-0.9 0.2l-10.4-4.3c-0.3-0.1-0.5-0.4-0.5-0.8l0.6-9.4c-3.7-2.6-6.8-5.8-9.4-9.4l-9.4 0.6c-0.3 0-0.6-0.2-0.7-0.5z"></path><path fill-rule="evenodd" class="c" d="m113.1 89.3q-0.7 0-1.5-0.1c-2.8-0.4-5.3-1.9-7-4.1-1.6-2.3-2.4-5.1-1.9-7.9 0.8-5.7 6.2-9.7 12-8.9 5.7 0.9 9.7 6.2 8.9 12-0.8 5.3-5.3 9-10.5 9zm0-20c-4.6 0-8.7 3.4-9.4 8.1-0.3 2.5 0.3 5 1.8 7 1.5 2.1 3.7 3.4 6.2 3.7 5.2 0.8 10-2.8 10.8-8 0.8-5.1-2.8-9.9-8-10.7q-0.7-0.1-1.4-0.1z"></path><path class="c" d="m113.3 106.5c-3.5 0-7.1-0.7-10.6-2.2q-2.8-1.1-5.2-2.8l0.6-0.9q2.4 1.6 5 2.7c7.1 3 14.7 2.6 21.2-0.3 5.7-2.6 10.5-7.1 13.3-13.1q0.2-0.5 0.4-1c1.4-3.3 2-6.8 2-10.2 0-10.5-6.2-20.4-16.4-24.7-13.6-5.6-29.3 0.8-34.9 14.4-1.4 3.3-2.1 6.8-2.1 10.3q0 1.9 0.3 3.8l-1.1 0.2q-0.3-2-0.3-4c0-3.7 0.8-7.3 2.2-10.7 5.8-14.1 22.1-20.9 36.3-15 6.8 2.8 12.2 8.2 15 15 1.4 3.5 2.1 7.1 2.1 10.7 0 3.6-0.7 7.2-2.1 10.6-4.4 10.7-14.8 17.2-25.7 17.2z"></path><path class="b" d="m169.5 64.7l-2.9-5.7c-0.1-0.1 0-0.3 0.1-0.5l3.7-3.7c-0.6-2.4-0.8-4.9-0.6-7.5l-4.2-3.1c-0.2-0.2-0.2-0.3-0.2-0.5l2-6c0-0.2 0.2-0.3 0.4-0.3l5.3-0.1c1.3-2.2 2.9-4.1 4.8-5.7l-0.7-5.2c-0.1-0.2 0-0.4 0.2-0.5l5.6-2.8c0.2-0.1 0.4-0.1 0.5 0l3.8 3.7c2.4-0.6 4.9-0.8 7.4-0.6l3.2-4.2c0.1-0.1 0.3-0.2 0.5-0.1l6 1.9c0.2 0.1 0.3 0.2 0.3 0.4l0.1 5.3c2.2 1.3 4.1 2.9 5.7 4.8l5.2-0.7c0.2 0 0.3 0.1 0.4 0.2l2.9 5.7c0.1 0.1 0.1 0.3-0.1 0.4l-3.6 3.8c0.6 2.4 0.8 4.9 0.6 7.5l4.2 3.1c0.1 0.2 0.2 0.3 0.1 0.5l-1.9 6c-0.1 0.2-0.3 0.3-0.4 0.3l-5.3 0.1c-1.3 2.2-3 4.1-4.8 5.7l0.7 5.2c0 0.2-0.1 0.4-0.2 0.5l-5.7 2.8c-0.1 0.1-0.3 0.1-0.5 0l-3.8-3.7c-2.4 0.6-4.9 0.8-7.4 0.6l-3.2 4.2c-0.1 0.1-0.3 0.2-0.5 0.1l-6-1.9c-0.1-0.1-0.3-0.2-0.3-0.4l-0.1-5.3c-2.1-1.3-4-2.9-5.6-4.8l-5.2 0.7c-0.2 0-0.4-0.1-0.5-0.2z"></path><path fill-rule="evenodd" class="c" d="m192.8 55.4q-0.2 0-0.4 0c-1.6-0.1-3.1-0.9-4.2-2.1-1.1-1.2-1.6-2.8-1.5-4.5 0.1-1.6 0.8-3.1 2.1-4.2 1.2-1.1 2.8-1.6 4.4-1.5 1.7 0.1 3.2 0.9 4.3 2.1 1 1.2 1.6 2.8 1.5 4.5-0.1 1.6-0.9 3.1-2.1 4.2-1.2 1-2.6 1.5-4.1 1.5zm0-11.2c-1.2 0-2.4 0.4-3.3 1.2-1 0.9-1.6 2.2-1.7 3.5-0.1 1.4 0.3 2.7 1.2 3.7 0.9 1 2.1 1.6 3.5 1.7 1.3 0.1 2.6-0.3 3.7-1.2 1-0.9 1.6-2.2 1.7-3.5 0.1-1.4-0.4-2.7-1.3-3.7-0.9-1-2.1-1.6-3.4-1.7q-0.2 0-0.4 0z"></path><path class="b" d="m160.3 59.2c-0.2 0-0.3-0.1-0.4-0.2q-0.2-0.7-0.3-1.4c-0.1-0.2 0-0.4 0.2-0.5 0.2 0 0.4 0.1 0.5 0.3q0.1 0.7 0.3 1.4c0.1 0.2 0 0.4-0.2 0.4q-0.1 0-0.1 0z"></path><path class="b" d="m159.1 53.2c-0.2 0-0.3-0.1-0.4-0.3q-0.1-1.5-0.2-2.9c0-0.2 0.2-0.4 0.4-0.4q0 0 0 0c0.2 0 0.4 0.1 0.4 0.3q0 1.5 0.2 2.9c0 0.2-0.2 0.4-0.4 0.4q0 0 0 0zm0-7.6q0 0 0 0c-0.2 0-0.3-0.2-0.3-0.4q0.2-1.4 0.4-2.9c0.1-0.2 0.3-0.3 0.5-0.2 0.2 0 0.3 0.2 0.3 0.4q-0.3 1.4-0.5 2.8c0 0.2-0.2 0.3-0.4 0.3zm1.8-7.3q-0.1 0-0.2-0.1c-0.2 0-0.3-0.2-0.2-0.4q0.5-1.4 1.1-2.7c0.1-0.2 0.3-0.3 0.5-0.2 0.2 0.1 0.3 0.3 0.2 0.5q-0.6 1.3-1.1 2.6c-0.1 0.2-0.2 0.3-0.3 0.3zm3.3-6.9q-0.1 0-0.2 0c-0.2-0.1-0.2-0.3-0.1-0.5q0.8-1.3 1.6-2.4c0.2-0.2 0.4-0.2 0.5-0.1 0.2 0.1 0.2 0.4 0.1 0.5q-0.8 1.2-1.6 2.4-0.1 0.1-0.3 0.1zm4.7-5.9q-0.1 0-0.2-0.1c-0.2-0.1-0.2-0.3 0-0.5q1-1 2.1-2c0.2-0.1 0.4-0.1 0.5 0.1 0.2 0.2 0.2 0.4 0 0.5q-1.1 0.9-2.1 1.9-0.1 0.1-0.3 0.1zm6-4.7q-0.2 0-0.3-0.1c-0.2-0.2-0.1-0.4 0.1-0.5q1.2-0.8 2.5-1.5c0.2-0.1 0.4 0 0.5 0.2 0.1 0.2 0 0.4-0.2 0.5q-1.2 0.6-2.4 1.4-0.1 0-0.2 0zm31.8-2.1q-0.1 0-0.1-0.1-1.3-0.6-2.7-1c-0.2-0.1-0.3-0.3-0.2-0.5 0.1-0.2 0.3-0.3 0.5-0.2q1.3 0.5 2.7 1.1c0.2 0 0.2 0.3 0.2 0.4-0.1 0.2-0.2 0.3-0.4 0.3zm-25-1.1c-0.2 0-0.3-0.1-0.4-0.3 0-0.2 0.1-0.4 0.3-0.4q1.3-0.5 2.8-0.9c0.2 0 0.4 0.1 0.4 0.3 0.1 0.2-0.1 0.4-0.3 0.4q-1.3 0.4-2.7 0.8-0.1 0.1-0.1 0.1zm17.8-1.2q0 0-0.1-0.1-1.4-0.2-2.8-0.4c-0.2 0-0.3-0.2-0.3-0.4 0-0.2 0.2-0.3 0.4-0.3q1.4 0.1 2.9 0.4c0.2 0.1 0.3 0.3 0.3 0.5-0.1 0.1-0.2 0.3-0.4 0.3zm-10.4-0.5c-0.2 0-0.4-0.1-0.4-0.3 0-0.2 0.1-0.4 0.3-0.4q1.5-0.2 2.9-0.2c0.3 0 0.4 0.1 0.4 0.3 0 0.2-0.1 0.4-0.3 0.4q-1.5 0-2.9 0.2 0 0 0 0z"></path><path class="b" d="m212.1 21.7q-0.1 0-0.2-0.1-0.6-0.4-1.2-0.8c-0.2-0.1-0.2-0.3-0.1-0.5 0.1-0.1 0.3-0.2 0.5-0.1q0.6 0.4 1.2 0.8c0.2 0.1 0.2 0.4 0.1 0.5q-0.1 0.2-0.3 0.2z"></path><path class="b" d="m226.3 44.2c-0.2 0-0.3-0.1-0.3-0.3q-0.2-0.7-0.3-1.4c0-0.2 0.1-0.4 0.3-0.5 0.2 0 0.4 0.1 0.4 0.3q0.2 0.7 0.3 1.5c0 0.2-0.1 0.4-0.3 0.4q-0.1 0-0.1 0z"></path><path class="b" d="m192.9 83.5q-0.6 0-1.1 0c-0.2 0-0.4-0.2-0.4-0.4 0-0.2 0.2-0.3 0.4-0.3q1.4 0 2.8 0c0.2-0.1 0.4 0.1 0.4 0.3 0 0.2-0.1 0.4-0.3 0.4q-0.9 0-1.8 0zm-5.7-0.4q0 0-0.1 0-1.4-0.3-2.8-0.6c-0.2-0.1-0.3-0.3-0.2-0.5 0-0.2 0.2-0.3 0.4-0.2q1.4 0.3 2.8 0.5c0.2 0.1 0.3 0.3 0.3 0.5-0.1 0.1-0.2 0.3-0.4 0.3zm12-0.2c-0.1 0-0.3-0.1-0.3-0.3-0.1-0.2 0.1-0.4 0.3-0.4q1.3-0.3 2.7-0.6c0.2-0.1 0.4 0 0.4 0.2 0.1 0.2 0 0.4-0.2 0.5q-1.4 0.3-2.8 0.6 0 0-0.1 0zm-19.2-1.9q0 0-0.1 0-1.3-0.5-2.6-1.2c-0.2-0.1-0.3-0.3-0.2-0.5 0.1-0.2 0.3-0.2 0.5-0.1q1.3 0.6 2.6 1.1c0.1 0.1 0.2 0.3 0.2 0.5-0.1 0.1-0.2 0.2-0.4 0.2zm26.3-0.3c-0.1 0-0.2-0.1-0.3-0.2-0.1-0.2 0-0.4 0.2-0.5q1.3-0.5 2.5-1.2c0.2-0.1 0.4 0 0.5 0.1 0.1 0.2 0 0.4-0.1 0.5q-1.3 0.7-2.6 1.3-0.1 0-0.2 0zm6.5-3.7q-0.2 0-0.3-0.1c-0.1-0.2-0.1-0.4 0.1-0.5q1.1-0.9 2.2-1.8c0.1-0.1 0.4-0.1 0.5 0 0.1 0.2 0.1 0.4 0 0.6q-1.1 0.9-2.3 1.7-0.1 0.1-0.2 0.1zm5.5-5q-0.1 0-0.2-0.1c-0.2-0.1-0.2-0.4-0.1-0.5q1-1.1 1.8-2.2c0.1-0.2 0.4-0.2 0.5-0.1 0.2 0.1 0.2 0.4 0.1 0.5q-0.9 1.2-1.8 2.3-0.1 0.1-0.3 0.1zm4.3-6.1q-0.1 0-0.2-0.1c-0.2-0.1-0.2-0.3-0.1-0.5q0.6-1.2 1.2-2.5c0.1-0.2 0.3-0.2 0.5-0.2 0.2 0.1 0.3 0.3 0.2 0.5q-0.6 1.3-1.3 2.6-0.1 0.2-0.3 0.2zm2.8-6.9q0 0-0.1 0c-0.2-0.1-0.3-0.3-0.2-0.5q0.4-1.3 0.6-2.7c0.1-0.2 0.3-0.3 0.5-0.3 0.2 0 0.3 0.2 0.3 0.4q-0.3 1.4-0.7 2.8c-0.1 0.2-0.2 0.3-0.4 0.3zm1.3-7.4q0 0 0 0c-0.2 0-0.4-0.1-0.4-0.3q0.1-1.1 0.1-2.1 0-0.4 0-0.8c0-0.2 0.1-0.3 0.3-0.3q0 0 0 0c0.2 0 0.4 0.1 0.4 0.3q0 0.4 0 0.8 0 1.1-0.1 2.1c0 0.2-0.1 0.3-0.3 0.3z"></path><path class="b" d="m173.5 77.5q-0.2 0-0.3-0.1-0.6-0.4-1.1-0.9c-0.2-0.1-0.2-0.3-0.1-0.5 0.1-0.1 0.3-0.2 0.5-0.1q0.6 0.5 1.2 0.9c0.1 0.1 0.2 0.3 0.1 0.5q-0.2 0.2-0.3 0.2z"></path><path class="c" d="m192.9 65q-2.4 0-4.9-0.8 0 0-0.1 0-1.3-0.5-2.6-1.2 0 0 0 0 0 0-0.1 0 0 0 0 0-0.1-0.1-0.2-0.2l0.5-0.9q1.4 0.8 2.9 1.3 0.4 0.1 0.9 0.2 0 0 0 0 0 0 0 0c2.1 0.6 4.4 0.7 6.5 0.2q1.9-0.3 3.6-1.2 0 0 0 0 0.1 0 0.1 0 0.1-0.1 0.1-0.1c3.5-1.8 6.1-4.8 7.3-8.6q0.8-2.2 0.8-4.5c0-2.3-0.6-4.6-1.7-6.7-1.7-3.5-4.8-6.1-8.5-7.3-7.7-2.5-16.1 1.7-18.6 9.4q-0.7 2.3-0.7 4.6 0 1.6 0.4 3.3l-1.1 0.2q-0.4-1.7-0.4-3.5 0-2.5 0.8-4.9c2.7-8.3 11.6-12.9 19.9-10.2 4 1.3 7.3 4.1 9.2 7.9 1.2 2.3 1.8 4.7 1.8 7.2q0 2.4-0.8 4.9c-1.3 4-4.1 7.2-7.9 9.2-2.2 1.1-4.7 1.7-7.2 1.7z"></path><path class="d" d="m60 108.8c0-3.4 1.3-6.7 3.7-9.1 2.4-2.4 5.7-3.7 9.1-3.6l260.7 6.7c5.9-0.4 9.1 4.9 9.1 7.6l-2.3 153.3c0 2.7-2.2 5-4.9 5h-266.8c-2.7 0-4.9-2.3-4.9-5z"></path><path class="e" d="m64.9 110.9c-0.1-2.4 0.8-4.7 2.5-6.4 1.7-1.7 4-2.6 6.4-2.6l249.9 6.7c4.5-0.2 11.8 2.9 12 11.2l-2.1 139.2c0 2.6-2.1 4.7-4.6 4.7h-255.8c-2.5 0-4.6-2.1-4.6-4.7z"></path><path class="f" d="m330.9 192.9q0 0 0 0c-0.4 0-0.7-0.3-0.7-0.7l0.2-11.3c0-0.4 0.3-0.7 0.7-0.7q0 0 0 0c0.3 0 0.6 0.3 0.6 0.7l-0.1 11.3c0 0.4-0.3 0.7-0.7 0.7z"></path><path class="f" d="m331.3 165.2q0 0 0 0c-0.4 0-0.7-0.3-0.7-0.7l0.6-43.2c0-2.6-0.7-4.6-2.3-6.1-2.8-2.7-7.3-2.6-7.5-2.6l-79.9-2.1c-0.4 0-0.7-0.3-0.7-0.7 0-0.4 0.3-0.7 0.7-0.7l79.9 2.2c0.5-0.1 5.3-0.1 8.5 2.9 1.8 1.8 2.7 4.1 2.7 7.1l-0.6 43.3c0 0.3-0.3 0.6-0.7 0.6z"></path><path class="g" d="m49.5 268.9c0-0.5 0.5-1 1-1h300c0.5 0 1 0.5 1 1v11.5c0 0.5-0.5 1-1 1h-300c-0.5 0-1-0.5-1-1z"></path><path class="h" d="m79.7 200.1c0-1.1 0.9-2 2-2h112.9c1.1 0 2 0.9 2 2v57.3c0 1.1-0.9 2-2 2h-112.9c-1.1 0-2-0.9-2-2z"></path><path class="h" d="m206.1 123.3c0-1.1 0.9-2 2-2h110.8c1.1 0 2 0.9 2 2v38.3c0 1.1-0.9 2-2 2h-110.8c-1.1 0-2-0.9-2-2z"></path><path class="h" d="m207.7 170.9c0-1.1 0.9-2 2-2h110.7c1.1 0 2 0.9 2 2v38.3c0 1.1-0.9 2-2 2h-110.7c-1.1 0-2-0.9-2-2z"></path><path class="h" d="m209.4 218.2c0-1.1 0.9-2 2-2h110.8c1.1 0 2 0.9 2 2v38.2c0 1.1-0.9 2-2 2h-110.8c-1.1 0-2-0.9-2-2z"></path><path class="h" d="m191.4 188.7h-104.6c-3.4 0-6.1-2.7-6.1-6.1l-2.6-60.1c-0.1-4.1 3.3-7.6 7.4-7.4l105.9 3.2c3.4 0 6.1 2.7 6.1 6.1v58.2c0 3.4-2.7 6.1-6.1 6.1z"></path><path class="i" d="m114.4 168.6c0 0 31 54.5 32.3 67.7 1.3 13.2-25.2 23.2-34.3 7.5-7.8-13.6-32.5-78.9-32.5-78.9z"></path><path class="j" d="m113.3 117.4l153.8-53.4-1.6 144.4-156.4-34.9z"></path><path class="b" d="m267.3 210.8c-8.4 0-15.1-33.2-15.1-74.2 0-41 6.7-74.2 15.1-74.2 8.3 0 15.1 33.2 15.1 74.2 0 41-6.8 74.2-15.1 74.2z"></path><path class="k" d="m268.4 205.7c-1.4-1.4-4.3-6.7-6.9-20.6-2.4-13.4-3.8-30.8-3.8-48.9 0-18.2 1.4-35.5 3.8-48.9 2.6-13.9 5.5-19.2 6.9-20.6 1.4 1.4 4.4 6.7 6.9 20.6 2.5 13.4 3.8 30.7 3.8 48.9 0 18.1-1.3 35.5-3.8 48.9-2.5 13.9-5.5 19.2-6.9 20.6z"></path><g clip-path="url(#cp1)"><path class="l" d="m287.8 135.6c0 12.6-6.8 22.9-20.2 22.9-13.5 0-24.4-10.3-24.4-22.9 0-12.6 10.9-22.8 24.4-22.8 13.4 0 20.2 10.2 20.2 22.8z"></path></g><path class="m" d="m88.5 114.3c7.2-0.9 17.6-1.2 28.8 1.4-3.7 19.3-3.1 39.4 1.2 60.3h-31.7c-5 0-9.3-3.7-10.1-8.7-1.6-10-3.5-26.8-1.5-40.2 1.1-6.8 6.5-12 13.3-12.8z"></path><path class="c" d="m107.5 129.1h-24.7c-0.8 0-1.5-0.5-1.9-1.2-0.4-0.8-0.4-1.6 0-2.3 0.2-0.3 0.6-0.4 0.9-0.2 0.3 0.2 0.4 0.6 0.2 0.9-0.2 0.3-0.2 0.7 0 1 0.1 0.3 0.5 0.5 0.8 0.5h24.7c0.5 0 1-0.5 1-1v-1.8c0-0.5-0.5-0.9-1-0.9h-24.9c-0.3 0-0.6-0.3-0.6-0.7 0-0.3 0.3-0.6 0.6-0.6h24.9c1.2 0 2.2 1 2.2 2.2v1.8c0 1.2-1 2.3-2.2 2.3z"></path><path class="c" d="m105.3 140h-24.7c-0.8 0-1.5-0.5-1.9-1.2-0.4-0.7-0.4-1.6 0-2.3 0.2-0.3 0.6-0.4 0.9-0.2 0.3 0.2 0.4 0.6 0.2 0.9-0.2 0.3-0.2 0.7 0 1 0.1 0.3 0.5 0.5 0.8 0.5h24.7c0.5 0 1-0.4 1-1v-1.7c0-0.6-0.5-1-1-1h-24.9c-0.3 0-0.6-0.3-0.6-0.6 0-0.4 0.3-0.7 0.6-0.7h24.9c1.2 0 2.2 1 2.2 2.3v1.7c0 1.3-1 2.3-2.2 2.3z"></path><path class="c" d="m135.6 113.5c-0.2 0-0.5-0.2-0.6-0.5-0.1-0.3 0.1-0.7 0.5-0.8l116.5-37.1c0.3-0.1 0.6 0.1 0.8 0.5 0.1 0.3-0.1 0.7-0.5 0.8l-116.5 37q-0.1 0.1-0.2 0.1z"></path><path class="c" d="m119.9 119.9c-0.3 0-0.5-0.1-0.6-0.4-0.1-0.3 0-0.7 0.4-0.8l6-2.5c0.3-0.1 0.6 0.1 0.8 0.4 0.1 0.3 0 0.7-0.4 0.8l-6 2.5q-0.1 0-0.2 0z"></path><path class="c" d="m107.5 152.8h-24.7c-0.8 0-1.5-0.5-1.9-1.2-0.4-0.7-0.4-1.6 0-2.3 0.2-0.3 0.6-0.4 0.9-0.2 0.3 0.2 0.4 0.6 0.2 0.9-0.2 0.3-0.2 0.7 0 1 0.1 0.3 0.5 0.5 0.8 0.5h24.7c0.5 0 1-0.4 1-1v-1.7c0-0.6-0.5-1-1-1h-24.9c-0.3 0-0.6-0.3-0.6-0.7 0-0.3 0.3-0.6 0.6-0.6h24.9c1.2 0 2.2 1 2.2 2.3v1.7c0 1.3-1 2.3-2.2 2.3z"></path><path class="c" d="m109.8 167h-24.7c-0.8 0-1.5-0.5-1.9-1.2-0.4-0.8-0.4-1.6 0-2.3 0.2-0.3 0.6-0.4 0.9-0.2 0.3 0.2 0.4 0.6 0.2 0.9-0.2 0.3-0.2 0.7 0 1 0.1 0.3 0.5 0.5 0.8 0.5h24.7c0.5 0 1-0.5 1-1v-1.7c0-0.6-0.5-1-1-1h-24.8c-0.4 0-0.7-0.3-0.7-0.7 0-0.3 0.3-0.6 0.7-0.6h24.8c1.2 0 2.2 1 2.2 2.3v1.7c0 1.2-1 2.3-2.2 2.3z"></path><path class="c" d="m131.8 244.1q-1.7 0-3.4-0.3c-5-1.1-9.1-4.4-11.2-9.1l-19.7-43.8c-0.2-0.3 0-0.7 0.3-0.8 0.3-0.2 0.7 0 0.8 0.3l19.7 43.8c2 4.3 5.7 7.3 10.3 8.3 4.6 1 9.2-0.2 12.6-3.2q0.3-0.3 0.6-0.5c0.3-0.2 0.7-0.2 0.9 0 0.2 0.3 0.2 0.7 0 0.9q-0.3 0.3-0.6 0.5c-2.9 2.6-6.5 3.9-10.3 3.9z"></path><path class="c" d="m95.2 184.8c-0.3 0-0.5-0.1-0.6-0.3l-2.2-4.9c-0.2-0.3 0-0.7 0.3-0.9 0.3-0.1 0.7 0 0.8 0.4l2.2 4.8c0.2 0.4 0 0.7-0.3 0.9q-0.1 0-0.2 0z"></path><path class="c" d="m284.2 135c-0.4 0-0.6-0.3-0.7-0.6-0.4-6.2-2.5-10.8-6.3-13.7-6.6-5-15.9-3.3-16-3.3-0.3 0.1-0.7-0.1-0.7-0.5-0.1-0.3 0.1-0.6 0.5-0.7 0.4-0.1 10-1.9 17 3.5 4 3.1 6.3 8.1 6.8 14.6 0 0.4-0.2 0.7-0.6 0.7q0 0 0 0z"></path><path class="b" d="m328 167.4c-12.9 0-23.4-10.5-23.4-23.5 0-13 10.5-23.5 23.4-23.5 13 0 23.5 10.5 23.5 23.5 0 13-10.5 23.5-23.5 23.5z"></path><path class="f" d="m316.2 136c0-0.5 0.4-1 1-1h4c0.6 0 1 0.5 1 1v17.7c0 0.6-0.4 1-1 1h-4c-0.6 0-1-0.4-1-1z"></path><path class="f" d="m339.9 139.2v11.9c0 2.3-1.8 4.4-4.1 4.4h-9.1-0.9c-0.6 0-2-0.8-2-1.4v-17.9c0-0.6 1-1.1 1.6-1.1l1.3-4.7c0-1.5 1.2-2.6 2.7-2.6h0.1c1.5 0 2.3 1 2.3 2.5v4.7h4c2.3 0 4.1 1.9 4.1 4.2z"></path><path class="b" d="m327.3 237.4c-11.3 0-20.5-9.2-20.5-20.5 0-11.3 9.2-20.4 20.5-20.4 11.2 0 20.4 9.1 20.4 20.4 0 11.3-9.2 20.5-20.4 20.5z"></path><path class="f" d="m336.1 219.9l-7.9 8c-0.4 0.4-1 0.4-1.3 0l-8.1-7.9c-2.4-2.3-2.4-6.2-0.1-8.6 2.2-2.2 5.7-1.6 8.1 0.3 0.3 0.3 0.8 0.3 1.2 0 2.3-2 5.8-2.6 8-0.5 2.4 2.4 2.4 6.3 0.1 8.7z"></path><path class="n" d="m309.5 90.2c-11.9 0-21.5-9.6-21.5-21.5 0-11.9 9.6-21.5 21.5-21.5 11.9 0 21.6 9.6 21.6 21.5 0 11.9-9.7 21.5-21.6 21.5z"></path><path class="f" d="m315.6 61.7c0 3.3-2.7 6.9-6 6.9-3.4 0-6.1-3.6-6.1-6.9 0-3.4 2.7-5.7 6.1-5.7 3.3 0 6 2.3 6 5.7z"></path><path class="f" d="m298.6 78.8l-0.6-2.3c-0.5-1.8 0.5-3.7 2.3-4.3 6.4-2.1 12.5-2.3 18.5-0.2 1.8 0.7 2.8 2.7 2.2 4.5l-0.8 2.4c-0.5 1.5-1.8 2.5-3.4 2.5h-14.7c-1.6 0-3-1.1-3.5-2.6z"></path><path class="n" d="m286.8 203.7c-10.4 0-18.9-8.5-18.9-18.9 0-10.5 8.5-19 18.9-19 10.5 0 19 8.5 19 19 0 10.4-8.5 18.9-19 18.9z"></path><path fill-rule="evenodd" class="f" d="m286.8 196.6c-6.5 0-11.8-5.3-11.8-11.8 0-6.6 5.3-11.9 11.8-11.9 6.6 0 11.9 5.3 11.9 11.9 0 6.5-5.3 11.8-11.9 11.8zm9.9-11.8c0-5.5-4.4-9.9-9.9-9.9-5.4 0-9.8 4.4-9.8 9.9 0 5.4 4.4 9.9 9.8 9.9 5.5 0 9.9-4.5 9.9-9.9z"></path><path class="f" d="m283.1 189.3v-8.5c0-0.9 1-1.5 1.8-1l7.2 4.3c0.8 0.4 0.8 1.5 0 2l-7.2 4.3c-0.8 0.4-1.8-0.1-1.8-1.1z"></path><path class="o" d="m149.8 304l16.6 7.8c0.4 0.2 0.7 0.5 0.9 1 0.2 0.5-0.2 1-0.8 1.1-3.6 0.1-13.7-0.4-18.4-0.6-1.4-0.1-2.4-1.3-2.3-2.7 0.4-3.5 1-7.1 1-7.1z"></path><path class="p" d="m150.6 300.8l1.1 4.7c-2 1.6-4.9 0.2-4.9 0.2l-0.5-4.3z"></path><path class="q" d="m147.5 221c-0.2 1.1-1.7 55.7 3.9 80.2 0.1 0.4-0.1 0.8-0.5 1-0.9 0.4-2.7 0.9-4.8 0.9-0.6 0-1.2-0.4-1.4-1-1.6-5.7-9.3-34.3-10.1-61.5-0.9-30.3 0-1 0-1l0.9-18.8z"></path><path class="r" d="m131.4 305.4c2 2.3 2.7 5.1 2.9 6.9 0.1 0.9-0.6 1.6-1.5 1.6-1.9 0-4.3-0.2-5.9-0.3-0.9-0.1-1.5-1-1.3-1.8 1-4.8 2.1-6.6 2.1-6.6z"></path><path class="s" d="m130.9 299.4l0.5 7c-2.3 0.6-3.5-0.3-3.5-0.3l-1.1-6.4z"></path><path class="t" d="m148 219.6l-0.8 9.9-8.7 6.1c-0.7 0.5-1.2 1.2-1.4 2-4.6 16.3-4.5 57.5-4.9 64.2 0 0.5-0.3 0.9-0.8 1.1-1.5 0.4-2.9 0.2-3.8 0.1-0.5-0.1-0.9-0.5-1-1-1.9-8.3-7.3-50.8-2.2-79.6z"></path><path class="n" d="m169.9 165.9c0.7 3.1 2.4 8.5 6 12.7-4.8 2.6-10.6 4.6-17.6 5.4 0 0-8.8 29.2-10.8 39.6 0 0-12.5 4.6-23.6 1.6 0 0-3.2-28.8 1.3-53.6 0 0 15.8-3.9 30.1-3.5 4.4 0.1 9.6-0.7 14.6-2.2z"></path><path class="u" d="m175.9 178.6c-3.6-4.2-5.3-9.6-6-12.7 11.4-3.4 22.5-10.5 24.7-19.4 0 0 1.8-0.8 3.2 0.9 0 0-3 20.8-21.9 31.2z"></path><path class="v" d="m197.4 147.8c0.2 0.5-1.5 1.2-2.5-0.7 0-0.9-0.6-4.9 0-5.6 3-4 8.7-8.9 8.7-8.9 0.9 0.9 0.1 1.9 0.1 1.9l-2.8 2.8c0.6 1 1.3 1.9 1.6 3.2 0.3 0.9 0.1 2-0.4 2.8-0.5 0.9-1.2 2-1.8 2.9-1.2 1.6-2.9 1.6-2.9 1.6z"></path><path class="w" d="m200 140.8c-0.6 0.9-1.4 5-1.4 5l-2.2-2.5 0.8-2.1 2.5-2.1c0.5 0.3 0.8 0.8 0.3 1.7z"></path><path class="n" d="m121 195.2c-4.5-2.3-9.1-3-11.6-3.2 2.3-11.5 15.8-20.4 15.8-20.4l5.3 13.9c0 0-8.5 4.3-9.5 9.7z"></path><path class="x" d="m144 202.3c0 0-24.3 16.9-33 0.6-2-3.7-2.3-7.4-1.6-10.9 2.5 0.2 7.1 0.9 11.6 3.2-0.3 1.5 0 3 1 4.5 5 7.3 20.1-1.1 20.1-1.1z"></path><path class="y" d="m150.2 156.4l-1.6 11.4c-0.1 0.7-0.5 1.2-1 1.6-5.5 3.3-9.9 1.3-11.1 0.6-0.2-0.1-0.3-0.3-0.3-0.6l4.7-13.1z"></path><path class="z" d="m151 144.2c0 0 4.9 9.5 4.2 13.3-0.7 3.8-6.9 3.4-12.3 0.3l-3.7-10.2z"></path><path class="A" d="m142.5 153.1c-0.2 0.1-0.3 0.3-0.2 0.5l1.4 4.1c0.1 0.3-0.2 0.6-0.4 0.5-3.3-0.4-6.3-3.6-7-4.3q-0.1-0.1-0.3-0.1c-0.8 0.1-3.6 0.3-3.7-2.2-0.1-1.8 0.9-2.4 1.7-2.6 0.3-0.1 0.4-0.5 0.2-0.7-0.7-0.6-1.3-2-0.2-4.3 1.3-2.8 4-2.6 5.2-2.4 0.2 0.1 0.5-0.1 0.5-0.4-0.1-0.8 0.2-2.5 2.5-3.5 2.5-1.1 4.2 0.8 4.9 1.6 0.1 0.2 0.4 0.2 0.6 0 4.1-5.2 6.6 1.5 5.6 4.1-1 2.7-5.8 3.8-9 4.6-3.2 0.7-2.3 1.3-2.3 1.3 0.3 1.1 1 2.3 1.4 2.9 0.1 0.2 0 0.5-0.2 0.6z"></path><path class="B" d="m144.9 155.2c-1.8 0.8-5.2-0.2-4.9-2.2 0.2-2.1 3.8 0.4 3.8 0.4z"></path><path class="C" d="m139 211.8l8.2-28.7c0.1-0.3 0.4-0.6 0.7-0.6 1.5-0.2 5.8-0.7 10.8-1.1 6-0.5 13-0.9 17.2-0.6 0.6 0.1 0.9 0.7 0.6 1.2-2.3 4.8-12.1 24.3-16.9 30.7-0.2 0.2-0.5 0.3-0.7 0.3l-19.1-0.1c-0.6 0-1-0.6-0.8-1.1z"></path><path class="D" d="m141 204.9c0 0-1.2-4.7-0.7-6.4 0.5-1.7 1.4-3.8 4.3-3.4 3 0.5 6.5 1.8 6.5 1.8 0 0-0.1 2.2-2.4 1.4l1.4 1.1c0 0-0.2 1.8-2.1 0.8l1.3 1.5c0 0-0.8 1.4-2.2 0.5-1.4-0.9-2.1 3.2-6.1 2.7z"></path><path class="b" d="m160.6 192.4c-1.3 0-2.4-1.1-2.4-2.4 0-1.4 1.1-2.4 2.4-2.4 1.3 0 2.4 1 2.4 2.4 0 1.3-1.1 2.4-2.4 2.4z"></path><path class="E" d="m147.5 191.4l1.7-5.7c0.3-0.9 1-1.6 2-1.8 5.3-1.1 19.2-1.3 19.8-1.4v0.7c-0.1 0-14.5 0.2-19.7 1.3-0.7 0.2-1.3 0.7-1.5 1.4l-1.6 5.7z"></path></svg> 