<?xml version="1.0" encoding="UTF-8"?> <svg xmlns="http://www.w3.org/2000/svg" version="1.2" viewBox="0 0 400 320" width="400" height="320"><style>.a{fill:#fff8e9}.b{fill:#fff}.c{fill:#07085b}.d{fill:#55769f}.e{fill:#ff5b7e}.f{fill:#e03268}.g{fill:#8fd0d6}.h{fill:#cbefef}.i{mix-blend-mode:multiply;fill:#8fd0d6}.j{fill:#cfe8ea}.k{fill:#74bdc1}.l{fill:#f4a640}.m{fill:#f9cc4b}.n{fill:#fff9ff}.o{fill:#333}.p{fill:#3cb4c5}.q{fill:#e87b50}.r{fill:#cfe4ff}.s{fill:#fdb137}.t{fill:#feb546}.u{fill:#f9c27a}.v{fill:#e2881e}.w{fill:#6db1b5}.x{fill:#ffc0bb}.y{fill:#f99893}.z{fill:#daeef7}.A{fill:#191919}.B{fill:#fc8d84}.C{fill:#c8eef1}</style><path class="a" d="m51.9 286.6c0 0-54.7-33.2-24.6-114.7 30.1-81.5 107.9-60.3 136.8-96.9 28.9-36.7 87-92.5 151.1-50.7 64 41.9 48.3 107.7 71.3 134.3 23 26.5 70.7 139.9-69.9 145.6-140.7 5.7-264.7-17.6-264.7-17.6z"></path><g style="opacity:.3"><path class="b" d="m310.3 108.9c-10.1-2.9-20.2-6.1-29.5-11-5.4-2.8-10.6-6.2-16.4-8-8.6-2.7-17.7-1.5-26.5-2.3-6.9-0.7-14.8-3.4-17.2-10.3-1.9-5.4 0.4-11.8 4.4-15.8 3.9-4 9.3-6 14.6-7.4 4.2-1.1 8.6-2.1 11.8-5.2 2.6-2.5 4.1-6.3 6.9-8.6 3.9-3.1 9.2-2.8 14.1-2.5 8.1 0.5 16.5 0.4 24-3.1 6.2-2.8 11.4-7.8 17.4-11.2q0.6 0.4 1.3 0.8c15.4 10.1 26.3 21.6 34.1 33.6-6.1-1.2-12.4-2.2-18.3-0.6-2.3 0.6-4.4 1.6-6.7 2.2-7.3 1.8-14.9-1.1-22.4-2.1-5.9-0.8-11.9-0.6-17.9-0.3-2.3 0.2-5.1 0.6-6.1 2.8-0.4 1.1-0.4 2.3-0.1 3.5 1.4 6.1 7.8 9.2 13.7 9.9 5.9 0.6 11.9-0.4 17.6 1.2 7.8 2.3 13.7 9.1 21 12.8 6.5 3.3 14.1 4 21 1.8 3.7-1.1 7.2-3 10.9-4.2q0.1-0.1 0.3-0.1c2.9 8 5 16 6.8 23.7q-0.2 0.1-0.3 0.2c-5.8 2.5-12.3 1.7-18.5 2.1-5.8 0.3-11.4 1.6-17.2 1.8-7.7 0.3-15.3-1.7-22.8-3.7z"></path></g><g style="opacity:.3"><path class="b" d="m59 126.1c12.7 2.4 25.7 3.3 38.6 2.4 2.2-0.1 4.4-0.3 6.5-1 1.6-0.6 3.1-1.5 4.7-2.2 7.1-3.2 15.2-2.1 22.9-2.7 2.3-0.2 4.7-0.6 6.7-1.9 4.4-2.9 5.3-9.3 8.7-13.5 3.8-4.8 10.1-6.2 15.1-9.5 1.8-1.2 3.7-3.1 3.5-5.4-0.1-2.3-2.2-3.9-4.1-5q-3.6-1.9-7.4-3c3.7-2.7 7-5.7 9.9-9.3q3.2-4.1 6.9-8.5c3 1.6 5.9 3.6 9 4.9 3.7 1.5 7.8 2.1 11.7 1.6 1.1-0.2 2.3-0.4 3.2 0.2 0.7 0.3 1.1 0.9 1.5 1.5 4.1 6.4 2.9 15.9-2.4 21-3.7 3.5-8.8 5-12.1 8.8-3.2 3.7-4.2 8.9-6.3 13.4-3.9 8.5-11.6 14.6-20 17.8-8.4 3.1-17.5 3.7-26.4 3.4-6.7-0.3-13.5-1-20 0.7-5.9 1.4-11.3 4.7-17.2 6.7-5.2 1.7-10.8 2.3-16.3 2.9-4.5 0.5-9.1 1-13.6 0.2-4.8-0.8-9.4-3-13.8-5.2q-2.5-1.2-4.9-2.4c4.8-6.3 10.1-11.5 15.6-15.9z"></path></g><path class="c" d="m310.6 122.3c-4.8 3.1-10.3 7-10.3 7l10.8 0.2c0.7 40.1-33.1 74-33.1 74 0 0 24.8-66.3 19.9-113 7.5 10.6 11.4 21.3 12.7 31.8z"></path><path class="d" d="m259.2 144.5l6.8-4.3-5.9-0.9c1.8-7.8 5-14.8 8.8-20.8 4.4 1.5 9.5 3 9.5 3l-5.6-8.6c11.3-14.7 25.1-22.4 25.1-22.4 4.9 46.7-19.9 113-19.9 113-16.8-23-21-42.7-18.8-59z"></path><path class="e" d="m316.3 157l-5.8 2.9c0 0 2.7 0.8 5.1 1.5-0.8 4.5-2.3 9.3-4.8 14.2l-4.6-1.3c0 0 1.7 2.6 2.9 4.4-5.7 9.7-15.4 19.2-31.7 26.3 0 0-0.3-29.5 16.3-51.2l4.6 3.3c0 0-0.8-3.9-1.4-7.1 4.7-5.3 10.7-10 18.1-13.4 0 0 2.6 8.7 1.3 20.4z"></path><path class="f" d="m277.4 205c0 0 16.6-44.3 37.6-68.4 0 0 2.6 8.7 1.3 20.4l-5.8 2.9c0 0 2.7 0.8 5.1 1.5-0.8 4.5-2.3 9.3-4.8 14.2l-4.6-1.3c0 0 1.7 2.6 2.9 4.4-5.7 9.7-15.4 19.2-31.7 26.3z"></path><path class="g" d="m353.7 187.5l-55.6 104.2-49.8-30.1 55.6-104.3z"></path><path fill-rule="evenodd" class="h" d="m349.5 189.4l-52 97.5-45-27.2 52-97.5zm-53.3 92.5l48.7-91.2-39.1-23.6-48.7 91.2z"></path><path class="h" d="m311.6 204.9c11.2 6.7 15.6 21.1 9.8 31.9-5.8 10.9-19.6 14.2-30.8 7.4-11.2-6.8-15.6-21.1-9.8-31.9 5.8-10.9 19.6-14.2 30.8-7.4z"></path><path fill-rule="evenodd" class="g" d="m296.6 217.5c-1.2-0.4-2.4-0.5-3.5 0.4 0.1 0.1 0.2 0.3 0.4 0.3q2.6 1.6 5.2 3.2c0.4 0.3 0.6 0.2 0.9-0.1q1.1-1.1 2.4-2.1c2.9-2.2 5.9-1.8 8.6 0.3 3.3 2.6 4.2 5.8 2.9 10-0.2 0.7 0 1.1 0.6 1.4 0.5 0.2 0.9 0.5 1.3 0.8-0.4 0.8-0.8 1.6-1.2 2.4q-1.1-0.6-2.1-1.2c-3.6 4.7-7.9 4.1-10.7 2.7q1-2.2 1.9-4.5c1.7 0.5 3.3 0.4 5-0.6-1-0.6-1.8-1.1-2.7-1.6-1.1-0.7-2.2-1.4-3.4-2.1-0.4-0.3-0.7-0.3-1 0.1-1.2 1.1-2.5 2.1-4 2.5-3.2 1-5.8-0.2-8-2.5-2-2.2-2.2-5-1.3-7.8q0.1-0.3 0.2-0.6c0-0.1 0-0.2 0-0.3q-0.8-0.5-1.7-1c0.5-0.8 0.9-1.6 1.3-2.5 0.4 0.3 0.9 0.5 1.3 0.8 0.4 0.3 0.6 0.2 0.9-0.2 1.3-1.7 3-2.8 5.1-3 1.1-0.1 2.2 0.1 3.4 0.6-0.6 1.5-1.2 3-1.8 4.6zm7.1 6.9c2.1 1.3 4 2.5 6 3.7 0.7-1.5 0.1-3.5-1.3-4.5-1.4-1.1-3.2-0.8-4.7 0.8zm-12-4c-0.2 1.7 0.4 3.2 1.6 3.8 1.2 0.7 2.8 0.5 3.7-0.5-1.7-1.1-3.5-2.2-5.3-3.3z"></path><path class="h" d="m285 261.2c-0.8 1.6-2.7 2.1-4.2 1.2-1.5-0.9-2-2.9-1.2-4.5 0.9-1.6 2.8-2.1 4.3-1.2 1.5 0.9 2 2.9 1.1 4.5z"></path><path class="h" d="m322.6 190.8c-0.9 1.6-2.8 2.2-4.3 1.3-1.5-0.9-2-3-1.1-4.5 0.8-1.6 2.7-2.2 4.2-1.3 1.5 0.9 2 2.9 1.2 4.5z"></path><path class="i" d="m292 230.3l-0.7-4.5 53.7-22.1c0 0-4.1 7.3-3.9 7.4z"></path><path class="g" d="m390.9 256.3l-105.6 41.6-19.9-57.1 105.6-41.6z"></path><path fill-rule="evenodd" class="h" d="m386.5 254.9l-98.7 39-18-51.7 98.7-39zm-96.7 34.3l92.4-36.4-15.7-44.9-92.3 36.4z"></path><path class="h" d="m348.1 240.8c4.5 12.8-0.8 26.8-11.8 31.1-11 4.4-23.5-2.6-28-15.4-4.5-12.9 0.8-26.9 11.8-31.2 11-4.3 23.6 2.6 28 15.5z"></path><path fill-rule="evenodd" class="g" d="m329.1 240.1c-0.8-1.1-1.6-1.9-3-2.1 0 0.2 0 0.4 0.1 0.6q1 3 2 6c0.2 0.4 0.4 0.5 0.8 0.5q1.6-0.1 3.1 0c3.6 0.3 5.6 2.7 6.4 6.2 0.9 4.2-0.3 7.3-3.8 9.6-0.6 0.4-0.7 0.8-0.4 1.5 0.2 0.5 0.4 1 0.6 1.5-0.9 0.3-1.6 0.6-2.5 1q-0.4-1.2-0.8-2.4c-5.6 1.2-8.6-2.2-9.8-5.2q2-1.1 4.1-2.2c1 1.5 2.3 2.6 4.2 3-0.4-1.1-0.7-2.1-1-3-0.5-1.4-1-2.7-1.4-4-0.1-0.5-0.4-0.7-0.9-0.6-1.5 0-3.1-0.1-4.6-0.8-2.9-1.5-4.3-4.2-4.5-7.4-0.2-3.1 1.3-5.4 3.7-6.9q0.3-0.2 0.5-0.4c0.1 0 0.1-0.1 0.2-0.1q-0.3-1-0.7-2c0.9-0.3 1.6-0.6 2.5-0.9 0.2 0.4 0.4 0.9 0.5 1.4 0.1 0.5 0.4 0.5 0.8 0.5 2.1-0.5 4-0.2 5.7 1.2 1 0.7 1.7 1.6 2.2 2.7-1.3 0.8-2.6 1.5-4 2.3zm1.2 10.2c0.8 2.4 1.6 4.7 2.3 7 1.5-0.8 2.2-2.6 1.8-4.4-0.5-1.8-2-2.8-4.1-2.6zm-6.8-11.3c-1.2 1.1-1.6 2.8-1.1 4 0.6 1.4 1.9 2.3 3.2 2.1-0.7-2-1.4-4-2.1-6.1z"></path><path class="h" d="m293.7 265.6c-1.6 0.7-3.3-0.2-3.9-1.9-0.6-1.7 0.2-3.6 1.8-4.3 1.6-0.6 3.4 0.3 4 2 0.6 1.7-0.2 3.6-1.9 4.2z"></path><path class="h" d="m365 237.5c-1.6 0.7-3.4-0.2-4-1.9-0.6-1.7 0.3-3.6 1.9-4.3 1.6-0.6 3.4 0.3 3.9 2 0.6 1.7-0.2 3.6-1.8 4.2z"></path><path class="g" d="m372.9 303.9l-112.6 0.4-0.2-61 112.6-0.4z"></path><path fill-rule="evenodd" class="h" d="m369.2 301l-105.3 0.3-0.2-55.1 105.3-0.3zm-101.9-3.3l98.5-0.4-0.1-47.9-98.5 0.4z"></path><path class="h" d="m337.8 273.6c0 13.7-9.5 24.9-21.2 24.9-11.8 0.1-21.3-11-21.3-24.7-0.1-13.8 9.4-24.9 21.1-25 11.8 0 21.3 11.1 21.4 24.8z"></path><path fill-rule="evenodd" class="g" d="m320.1 266c-0.4-1.3-0.9-2.4-2.2-3 0 0.2 0 0.3 0 0.5q0 3.2-0.1 6.4c0 0.5 0.2 0.7 0.6 0.8q1.5 0.5 2.9 1.2c3.2 1.5 4.4 4.5 4 8.1-0.5 4.2-2.7 6.7-6.6 7.6-0.8 0.2-1 0.5-0.9 1.3 0 0.5 0 1 0 1.6-0.9 0-1.7 0-2.6 0q0-1.3 0-2.5c-5.6-1-7.3-5.3-7.5-8.5q2.2-0.3 4.6-0.5c0.4 1.8 1.2 3.2 2.9 4.3 0-1.2 0-2.2 0-3.2 0-1.4 0-2.8 0-4.2 0-0.6-0.1-0.8-0.6-1-1.5-0.5-2.9-1.2-4-2.4-2.4-2.5-2.8-5.5-1.9-8.6 0.8-3 2.9-4.6 5.7-5.2q0.3 0 0.6-0.1c0 0 0.1 0 0.2-0.1q0-0.9 0-2c0.9 0 1.7 0 2.7 0 0 0.5 0 1 0 1.5-0.1 0.5 0.1 0.7 0.6 0.7 2 0.4 3.8 1.4 5 3.3 0.6 1 1 2.1 1.1 3.4-1.5 0.2-3 0.4-4.5 0.6zm-2.2 10c0 2.6 0 5 0 7.5 1.6-0.2 2.9-1.7 3-3.6 0.2-1.8-1-3.3-3-3.9zm-2.7-13.1c-1.5 0.7-2.4 2-2.3 3.4 0 1.5 1 2.8 2.3 3.2 0-2.2 0-4.3 0-6.6z"></path><path class="h" d="m278.6 277c-1.7 0-3.1-1.4-3.1-3.3 0-1.8 1.4-3.3 3.1-3.3 1.8 0 3.1 1.5 3.1 3.3 0 1.9-1.3 3.3-3.1 3.3z"></path><path class="h" d="m354.6 276.8c-1.7 0-3.1-1.5-3.1-3.3 0-1.9 1.4-3.3 3.1-3.3 1.8 0 3.1 1.4 3.1 3.3 0 1.8-1.3 3.3-3.1 3.3z"></path><path class="i" d="m372.7 263.4v-20.5l-78.6 0.2-0.8-4.8 83.7-0.3v23.8z"></path><path class="j" d="m80.2 165.9l-6.1-25.7 23.3-6.1 6 25.6z"></path><path class="j" d="m7 185.3l-6-25.6 23.3-6.2 6 25.6z"></path><path class="k" d="m122.6 245.7c0.4 5.2 0.2 10.3-0.4 15.1-0.9 6.4-2.7 12.2-5.4 17.4-3 5.8-7.2 10.9-12.3 14.9-5 4-11 7-17.9 9.1q-0.5 0.1-0.9 0.3-0.5 0.1-1 0.2-0.5 0.1-1.1 0.2l-5.8-24.8q0 0 0 0 1-0.1 2.1-0.4c7.7-2.2 12.9-6.1 15.9-11.7 3-5.8 3.3-12.8 2.9-17.7-0.3-5.7-1.5-9.9-1.6-10.3l-0.2-0.4-16.7-71.7 23.2-6.2 16.6 70.8c0.5 1.8 2 7.6 2.6 15.2z"></path><path class="e" d="m77.8 278.2l5.8 24.7c-6.5 1.5-12.9 1.7-18.8 0.7-6.2-1-12.1-3.3-17.3-7-4.7-3.2-8.9-7.5-12.4-12.6-2.8-3.9-5.1-8.4-7.1-13.2-2.8-7-4-12.8-4.4-14.7l-16.6-70.8 23.3-6.2 16.8 71.7v0.4c0.1 0.4 0.9 4.8 3.1 10 1.9 4.5 5.2 10.5 10.4 14.1 4.7 3.2 10.3 4.2 17.2 2.9z"></path><path class="l" d="m328.9 260.8c0.3 24-17.8 43.6-40.3 43.8-22.4 0.3-40.9-18.9-41.1-42.9-0.2-23.9 17.8-43.5 40.3-43.8 22.5-0.2 40.9 19 41.1 42.9z"></path><path class="m" d="m324.8 260.9c0.2 21.5-16 39.1-36.2 39.4-20.2 0.2-36.8-17.1-37-38.6-0.2-21.5 16-39.2 36.2-39.4 20.2-0.3 36.8 17 37 38.6z"></path><path fill-rule="evenodd" class="l" d="m288.6 297.8c-18.9 0.2-34.5-16-34.7-36.1-0.2-20.2 15-36.7 33.9-36.9 18.9-0.3 34.5 16 34.7 36.1 0.2 20.1-15 36.7-33.9 36.9zm-0.7-71.7c-18.3 0.2-32.9 16.2-32.7 35.6 0.2 19.3 15.2 35 33.4 34.7 18.2-0.2 32.8-16.1 32.6-35.5-0.2-19.4-15.1-35-33.3-34.8z"></path><g style="opacity:.5"><path fill-rule="evenodd" class="n" d="m293.8 249.7c-0.5-2-1.4-3.7-3.3-4.6-0.1 0.3-0.1 0.6-0.1 0.8 0 3.3 0 6.6 0.1 9.8 0 0.7 0.2 1 0.8 1.2q2.3 0.7 4.4 1.7c5.1 2.4 6.9 6.9 6.4 12.4-0.6 6.6-4 10.4-10.1 11.9-1.1 0.3-1.4 0.8-1.3 1.9 0.1 0.8 0.1 1.6 0.1 2.5-1.4 0-2.6 0-4 0.1q0-2 0-3.8c-8.7-1.4-11.4-8-11.8-13q3.5-0.4 7.1-0.9c0.7 2.8 2 5 4.6 6.6-0.1-1.8-0.1-3.4-0.1-5 0-2.1-0.1-4.3 0-6.4 0-0.8-0.2-1.2-1-1.4-2.3-0.8-4.5-1.9-6.3-3.7-3.6-3.7-4.2-8.3-3-13.1 1.2-4.6 4.4-7.1 8.7-8q0.4-0.1 0.8-0.2c0.2 0 0.3-0.1 0.4-0.2q0-1.5 0-3.1c1.4-0.1 2.6-0.1 4-0.1 0.1 0.8 0.1 1.5 0.1 2.3-0.1 0.8 0.2 1.1 0.9 1.2 3.2 0.5 5.9 2 7.7 4.9 1 1.5 1.6 3.2 1.9 5.2-2.4 0.3-4.6 0.7-7 1zm-3.2 15.4c0.1 3.9 0.1 7.6 0.1 11.4 2.5-0.3 4.4-2.6 4.6-5.5 0.2-2.8-1.5-5.1-4.7-5.9zm-4.3-20c-2.3 1-3.7 3.1-3.5 5.2 0.1 2.3 1.6 4.3 3.6 4.8-0.1-3.3-0.1-6.6-0.1-10z"></path></g><path class="c" d="m65.1 265.9c0.7-3.5 7.9-0.6 8.3-5.1 0.4-5.7-19.4 2.3-17.7-6 1.1-5.1 6.8-1.2 8.6-8 1.8-6.8-18.1-1.2-17-8.2 1.2-7 12.4-3.9 7-9.4-5.4-5.5-18.3-14.4-7-18.8 11.3-4.4 18.2 19.3 20.6 18.4 2.4-1 3.5-9 7.7-6.8 4.3 2.2 2.8 22.5 5.9 21 3-1.5 5.2-9.5 9.6-5.1 4.3 4.5-2.5 12.2-2.3 17.3 0.3 5.1 4.4 3.7 4.4 3.7 6.7-10 8.3-7.2 8.3-7.2 9.3 4.8-8.6 31.2-8.6 31.2-16.2-1-28.6-13.5-27.8-17z"></path><g style="opacity:.1;mix-blend-mode:color-dodge"><path class="b" d="m100.9 255.5c-1.2 2.9-2.7 5.5-4.5 7.8q-2.7 3.5-6.3 5.8-0.6 0.3-1.2 0.7 2.9 6.9 4.1 12.9-0.1 0.2-0.1 0.2 0 0-0.1 0c-0.6-3-1.5-6-2.6-9-5.9 1.1-12.9-1.7-17.7-4.2-3-1.6-5.6-3.3-7.2-4.4q0-0.1 0.1-0.3c1.7 1.2 4.2 2.8 7.2 4.4 4.8 2.5 11.7 5.2 17.5 4.2-2.6-7-6.5-14.1-10.8-20.8-6.9-1.1-18.2 1.6-23.7 3q0-0.2 0-0.3c5.5-1.5 16.6-4 23.5-3.1-3-4.7-6.3-9.2-9.4-13.3-0.5-0.1-4.1-0.8-9-1.1-3.6-0.1-8.5-0.1-13.4 0.9q0-0.2 0-0.3 0 0 0.1 0c4.9-1 9.7-1 13.3-0.9 4.3 0.2 7.6 0.8 8.7 1q-2.1-2.8-4.2-5.3c-8.1-10-15.9-18-19.9-22.1q0.1 0 0.3-0.1c4 4 11.8 12.1 19.8 22q4.4 5.3 8.1 10.5c-0.2-1.4-0.5-5.2-0.5-9.6 0-3.7 0.3-8.5 1.6-12.5q0.2 0.1 0.3 0.1c-1.3 4-1.6 8.7-1.6 12.5-0.1 5.2 0.5 9.5 0.6 10q4.8 6.7 8.5 13 0.1 0.1 0.1 0.1c1.7-10.2 5.1-15.9 7.6-18.9q0.4-0.4 0.7-0.7 0.1 0.1 0.2 0.2-0.3 0.3-0.7 0.7c-2.5 3-5.9 8.8-7.6 19.1q3.6 6.1 6.1 11.8c6.4-3.5 9.9-9.6 11.8-14.1q0.8-1.9 1.3-3.5 0.1 0.1 0.3 0.2-0.5 1.6-1.3 3.4z"></path></g><path class="g" d="m90.5 304.4c-14.2 1.7-28-6.5-28-6.5l4.6-6.7-8.4 2.7c-6.4-1.2-31.4-15.3-31.4-15.3 11.6-4.4 28.8-6 28.8-6l8.2 6.9-5.1-7.5c29.5-1.3 45.3 17.6 45.3 17.6 0 0 0.2 13.2-14 14.8z"></path><path class="o" d="m172.8 154.6c0-4.4 3.6-8 8-8h90.5c4.4 0 8 3.6 8 8v142.6c0 4.5-3.6 8-8 8h-90.5c-4.4 0-8-3.5-8-8z"></path><path class="p" d="m182.4 159.7h88.3v24.2h-88.3z"></path><g style="opacity:.5;mix-blend-mode:multiply"><path class="p" d="m184.7 183.9h-2.3v-24.2h88.3v3.4h-86z"></path></g><path class="q" d="m182.4 193.8c0-1.7 1.3-3 3-3h19.3c1.7 0 3 1.3 3 3v2.7c0 1.6-1.3 3-3 3h-19.3c-1.7 0-3-1.4-3-3z"></path><path class="q" d="m213.9 193.8c0-1.7 1.3-3 3-3h19.3c1.7 0 3 1.3 3 3v2.7c0 1.6-1.3 3-3 3h-19.3c-1.7 0-3-1.4-3-3z"></path><path class="q" d="m245.4 193.8c0-1.7 1.3-3 3-3h19.3c1.7 0 3 1.3 3 3v2.7c0 1.6-1.3 3-3 3h-19.3c-1.7 0-3-1.4-3-3z"></path><path class="r" d="m182.4 211.4c0-2.8 2.2-5 5-5h9.6c2.8 0 5 2.2 5 5v9.5c0 2.8-2.2 5-5 5h-9.6c-2.8 0-5-2.2-5-5z"></path><path class="r" d="m205.3 211.4c0-2.8 2.2-5 5-5h9.6c2.8 0 5 2.2 5 5v9.5c0 2.8-2.2 5-5 5h-9.6c-2.8 0-5-2.2-5-5z"></path><path class="r" d="m228.2 211.4c0-2.8 2.2-5 5-5h9.6c2.8 0 5 2.2 5 5v9.5c0 2.8-2.2 5-5 5h-9.6c-2.8 0-5-2.2-5-5z"></path><path class="r" d="m182.4 235.5c0-2.8 2.2-5 5-5h9.6c2.8 0 5 2.2 5 5v9.5c0 2.8-2.2 5-5 5h-9.6c-2.8 0-5-2.2-5-5z"></path><path class="r" d="m205.3 235.5c0-2.8 2.2-5 5-5h9.6c2.8 0 5 2.2 5 5v9.5c0 2.8-2.2 5-5 5h-9.6c-2.8 0-5-2.2-5-5z"></path><path class="r" d="m228.2 235.5c0-2.8 2.2-5 5-5h9.6c2.8 0 5 2.2 5 5v9.5c0 2.8-2.2 5-5 5h-9.6c-2.8 0-5-2.2-5-5z"></path><path class="s" d="m270.7 210.6v6.1 5 24.1c0 2.3-1.8 4.2-4 4.2h-11.6c-2.2 0-4-1.9-4-4.2v-24.1-5-6.1c0-2.3 1.8-4.2 4-4.2h11.6c2.2 0 4 1.9 4 4.2z"></path><path class="r" d="m182.4 259.6c0-2.8 2.2-5 5-5h9.6c2.8 0 5 2.2 5 5v9.5c0 2.8-2.2 5-5 5h-9.6c-2.8 0-5-2.2-5-5z"></path><path class="r" d="m205.3 259.6c0-2.8 2.2-5 5-5h9.6c2.8 0 5 2.2 5 5v9.5c0 2.8-2.2 5-5 5h-9.6c-2.8 0-5-2.2-5-5z"></path><path class="r" d="m228.2 259.6c0-2.8 2.2-5 5-5h9.6c2.8 0 5 2.2 5 5v9.5c0 2.8-2.2 5-5 5h-9.6c-2.8 0-5-2.2-5-5z"></path><path class="s" d="m251.1 259.6c0-2.8 2.2-5 5-5h9.6c2.8 0 5 2.2 5 5v9.5c0 2.8-2.2 5-5 5h-9.6c-2.8 0-5-2.2-5-5z"></path><path class="r" d="m182.4 283.7c0-2.8 2.2-5 5-5h9.6c2.8 0 5 2.2 5 5v9.5c0 2.8-2.2 5-5 5h-9.6c-2.8 0-5-2.2-5-5z"></path><path class="r" d="m205.3 283.7c0-2.8 2.2-5 5-5h9.6c2.8 0 5 2.2 5 5v9.5c0 2.8-2.2 5-5 5h-9.6c-2.8 0-5-2.2-5-5z"></path><path class="s" d="m228.2 283.7c0-2.8 2.2-5 5-5h9.6c2.8 0 5 2.2 5 5v9.5c0 2.8-2.2 5-5 5h-9.6c-2.8 0-5-2.2-5-5z"></path><path class="q" d="m251.1 283.7c0-2.8 2.2-5 5-5h9.6c2.8 0 5 2.2 5 5v9.5c0 2.8-2.2 5-5 5h-9.6c-2.8 0-5-2.2-5-5z"></path><path class="b" d="m195.6 259.2v1l-4.6 10.1h-1.4l4.5-9.8h-5.1v-1.3z"></path><path fill-rule="evenodd" class="b" d="m211.7 267.5c0-1.4 0.8-2.4 2-3-1.1-0.6-1.6-1.6-1.6-2.5 0-1.8 1.4-3 3.2-3 2 0 3 1.4 3 2.7 0 1-0.4 2-1.7 2.6v0.1c1.3 0.5 2.1 1.5 2.1 2.8 0 2-1.6 3.3-3.5 3.3-2.2 0-3.5-1.4-3.5-3zm5.6-0.1c0-1.3-0.9-2-2.3-2.4-1.2 0.4-1.9 1.2-1.9 2.3 0 1.1 0.8 2.1 2.1 2.1 1.3 0 2.1-0.9 2.1-2zm-3.9-5.5c0 1.1 0.8 1.7 2 2 0.9-0.3 1.6-1 1.6-2 0-0.9-0.5-1.8-1.8-1.8-1.2 0-1.8 0.8-1.8 1.8z"></path><path fill-rule="evenodd" class="b" d="m218.7 288.4c0 3.8-1.3 5.9-3.6 5.9-2 0-3.4-2.1-3.4-5.7 0-3.7 1.5-5.8 3.6-5.8 2.2 0 3.4 2.1 3.4 5.6zm-5.6 0.2c0 2.9 0.8 4.5 2.1 4.5 1.4 0 2.1-1.8 2.1-4.6 0-2.7-0.7-4.5-2.1-4.5-1.2 0-2.1 1.6-2.1 4.6z"></path><path fill-rule="evenodd" class="b" d="m235.8 269.2c0.3 0.1 0.7 0 1.2 0 0.8-0.1 1.6-0.5 2.2-1.1 0.6-0.7 1.1-1.6 1.3-2.9-0.6 0.7-1.4 1.1-2.5 1.1-1.8 0-3-1.5-3-3.3 0-2.1 1.4-4 3.5-4 2.1 0 3.5 1.9 3.5 4.7 0 2.4-0.8 4.1-1.8 5.2-0.8 0.8-1.9 1.3-3.1 1.5q-0.7 0.1-1.3 0.1zm0.6-6.4c0 1.4 0.7 2.3 2 2.3 0.9 0 1.6-0.5 2-1.1q0.1-0.2 0.1-0.6c0-1.9-0.6-3.3-2.1-3.3-1.2 0-2 1.1-2 2.7z"></path><path fill-rule="evenodd" class="b" d="m193.2 245.7v-3h-4.9v-1l4.7-7.1h1.5v6.9h1.4v1.2h-1.4v3zm0-4.2v-3.7q0-0.8 0-1.7c-0.3 0.6-0.6 1.1-0.9 1.6l-2.5 3.8z"></path><path class="b" d="m218 235.9h-4l-0.4 2.8c0.3 0 0.5 0 0.9 0 0.8 0 1.6 0.2 2.2 0.6 0.8 0.5 1.5 1.4 1.5 2.8 0 2.2-1.6 3.8-3.9 3.8-1.1 0-2.1-0.3-2.5-0.7l0.3-1.1c0.4 0.3 1.3 0.6 2.2 0.6 1.4 0 2.5-0.9 2.5-2.4 0-1.4-0.9-2.5-3-2.5-0.6 0-1.1 0.1-1.4 0.2l0.6-5.4h5z"></path><path fill-rule="evenodd" class="b" d="m241 235.7q-0.5 0-1.1 0.1c-2.2 0.4-3.4 2.1-3.6 3.9 0.5-0.7 1.4-1.3 2.5-1.3 1.9 0 3.2 1.4 3.2 3.6 0 2-1.3 3.9-3.5 3.9-2.2 0-3.6-1.8-3.6-4.7 0-2.2 0.7-3.9 1.7-5 0.9-0.9 2-1.5 3.3-1.6q0.7-0.1 1.1-0.1zm-0.4 6.4c0-1.6-0.9-2.6-2.2-2.6-0.8 0-1.6 0.6-2 1.4q-0.2 0.2-0.2 0.6c0.1 1.9 0.9 3.2 2.3 3.2 1.2 0 2.1-1.1 2.1-2.6z"></path><path class="b" d="m191.9 212.5h-0.1l-1.8 1-0.2-1.1 2.2-1.3h1.2v11.1h-1.3z"></path><path class="b" d="m211.8 222.2v-0.9l1.1-1.2c2.7-2.7 3.9-4.1 3.9-5.8 0-1.1-0.5-2.1-2.1-2.1-0.9 0-1.7 0.5-2.2 0.9l-0.4-1.1c0.7-0.6 1.7-1.1 2.9-1.1 2.2 0 3.2 1.6 3.2 3.2 0 2.1-1.4 3.7-3.6 6l-0.8 0.8h4.6v1.3z"></path><path class="b" d="m235.4 220.5c0.4 0.2 1.3 0.7 2.3 0.7 1.8 0 2.3-1.3 2.3-2.2 0-1.5-1.3-2.2-2.7-2.2h-0.8v-1.1h0.8c1.1 0 2.3-0.6 2.3-1.9 0-0.9-0.5-1.7-1.8-1.7-0.8 0-1.6 0.4-2.1 0.8l-0.3-1.1c0.5-0.5 1.6-0.9 2.7-0.9 2 0 3 1.3 3 2.7 0 1.1-0.7 2.1-1.9 2.6 1.2 0.3 2.3 1.3 2.3 2.8 0 1.8-1.3 3.4-3.8 3.4-1.2 0-2.2-0.4-2.7-0.8z"></path><path class="b" d="m192.2 294c-0.7 0-1.2-0.6-1.2-1.4 0-0.7 0.5-1.3 1.2-1.3 0.7 0 1.3 0.6 1.3 1.3 0 0.8-0.6 1.4-1.3 1.4z"></path><path class="b" d="m268.3 230.7h-6.6v7h-1.7v-7h-6.5v-1.8h6.5v-7h1.7v7h6.6z"></path><path class="b" d="m241.5 293.6l-3.5-3.8-3.5 3.8-0.9-1 3.5-3.7-3.5-3.7 0.9-1 3.5 3.7 3.5-3.7 0.9 1-3.5 3.7 3.5 3.7z"></path><path class="b" d="m255 264h11v1.8h-11z"></path><path class="b" d="m255.4 284.8h11v1.8h-11z"></path><path class="b" d="m255.4 289.3h11v1.8h-11z"></path><path class="l" d="m160.3 220.8h37.2v16.8h-37.2z"></path><path class="t" d="m123.1 220.8h37.2v16.8h-37.2z"></path><path class="u" d="m85.8 220.8h37.3v16.8h-37.3z"></path><path fill-rule="evenodd" class="v" d="m85.5 220.3h112.3v17.8h-112.3zm0.6 16.7h111.1v-15.8h-111.1z"></path><path class="l" d="m154.6 254.4h37.2v16.7h-37.2z"></path><path class="t" d="m117.4 254.4h37.2v16.7h-37.2z"></path><path class="u" d="m80.1 254.4h37.3v16.7h-37.3z"></path><path fill-rule="evenodd" class="v" d="m79.8 253.9h112.3v17.7h-112.3zm0.6 16.8h111.1v-15.8h-111.1z"></path><path class="l" d="m160.3 271.1h37.2v16.8h-37.2z"></path><path class="t" d="m123.1 271.1h37.2v16.8h-37.2z"></path><path class="u" d="m85.8 271.1h37.3v16.8h-37.3z"></path><path fill-rule="evenodd" class="v" d="m85.5 270.6h112.3v17.8h-112.3zm0.6 16.8h111.1v-15.8h-111.1z"></path><path class="l" d="m169.3 287.9h37.2v16.8h-37.2z"></path><path class="t" d="m132 287.9h37.3v16.8h-37.3z"></path><path class="u" d="m94.8 287.9h37.2v16.8h-37.2z"></path><path fill-rule="evenodd" class="v" d="m94.5 287.4h112.3v17.8h-112.3zm0.6 16.8h111.1v-15.8h-111.1z"></path><path class="l" d="m166.4 237.6h37.3v16.8h-37.3z"></path><path class="t" d="m129.2 237.6h37.2v16.8h-37.2z"></path><path class="u" d="m92 237.6h37.2v16.8h-37.2z"></path><path fill-rule="evenodd" class="v" d="m91.7 237.1h112.3v17.7h-112.3zm0.5 16.8h111.2v-15.8h-111.2z"></path><path class="w" d="m110.8 109.5l1.2 9-6-4.6-18.5-10.1 14.3 1.4c0 0 7.2 1.9 7.6 2.3 0.4 0.4 1.4 2 1.4 2z"></path><path class="x" d="m227.9 166.4v3.4l-3.3-0.9v-1.5z"></path><path class="x" d="m235.4 166.9c0 0-0.3 3-0.3 3 0 0-3.1-1-3.1-1v-1.8z"></path><path class="g" d="m110.8 109.5l-23.3-5.7 29.6 0.3z"></path><path class="g" d="m87.5 103.8l21.6 8.2-7.8 6.6z"></path><path class="w" d="m147.4 158.3l-0.3-0.7q0.9-0.6 1.6-1.5l0.5 0.4q-0.8 1-1.8 1.8z"></path><path class="w" d="m151.4 152.2l-0.7-0.2q0.6-2.1 0.8-4.6h0.7q-0.2 2.7-0.8 4.8zm0.8-9.6h-0.7q-0.1-0.3-0.1-0.6-0.1-1-0.4-2-0.2-1-0.5-1.9l0.7-0.3q0.3 1 0.5 2 0.3 1 0.4 2.1 0 0.3 0.1 0.7zm-3.6-8.8q-1.1-1.9-2.7-3.8l0.6-0.5q1.5 1.9 2.7 3.9zm-21.8-1.7c-0.5 0.1-1.7 0.1-2.5-0.4-0.5-0.3-1-0.9-1.4-1.6l0.7-0.4q0.4 0.9 1.1 1.4c0.6 0.4 1.6 0.4 1.9 0.3q0.1-0.1 0.1-0.1 0.1 0 0.1 0l0.4 0.6q-0.1 0-0.1 0.1-0.1 0-0.3 0.1zm16-5.4q-1.7-1.5-3.6-2.8l0.4-0.6q1.9 1.3 3.6 2.9zm-13 0.9l-0.7-0.1q0.1-0.7 0.1-1.4 0-1-0.2-2-0.1-0.5-0.3-1.1l0.6-0.3q0.2 0.6 0.4 1.2 0.2 1.1 0.2 2.2 0 0.8-0.1 1.5zm-6.2-2.2l-0.6-0.4c0.6-1.4 1.8-2.6 3.3-3.3l0.1-0.1 0.2 0.7c-1.3 0.7-2.4 1.8-3 3.1zm11.6-3.4c-1.3-0.4-2.3-0.6-2.8-0.7q-0.8 0-1.5 0v-0.7q0.7 0 1.6 0c0.7 0 2.1 0.5 2.9 0.7zm-8.8-3q-1.4-1.8-3.3-3l0.4-0.7q1.9 1.4 3.4 3.2z"></path><path class="w" d="m119 114.1q-1.1-0.3-2.2-0.4l0.1-0.8q1.2 0.2 2.3 0.5z"></path><path class="c" d="m212.7 95.8l-0.6 4-1.2-5.4c0 0 1.8-0.9 1.8-0.5 0.1 0.3 0 1.9 0 1.9z"></path><path class="x" d="m207.2 104.9l0.7 6.1-5.8 0.3 0.6-6.9z"></path><path class="y" d="m202.5 106.8l0.2-2.4 4.5 0.5 0.3 2.9c-2.5 0.9-4.1 0-5-1z"></path><path class="y" d="m212.7 98.9c0.6 0.3 0.7 1.1 0.4 1.9-0.4 0.8-1.1 1.1-1.7 0.8-0.5-0.3-0.7-1.1-0.4-1.9 0.4-0.7 1.1-1.1 1.7-0.8z"></path><path class="x" d="m209.7 105.4q-0.1 0.1-0.3 0.2c-1 0.9-2.3 1.5-3.8 1.4-2.9-0.2-5.2-2.8-5.3-6q-0.2 0.1-0.3 0.2c-0.8 0.3-1.7-0.3-2-1.3-0.4-1 0-2 0.7-2.3 0.4-0.2 0.8-0.1 1.2 0.2 0.2-3.8 3.4-6.6 7-6.1 2.6 0.4 4.8 2.6 5.2 5.5q0.2 1.3-0.1 2.5-0.1 0.3-0.1 0.6c-0.2 0.9-0.4 2-0.8 2.9q-0.3 0.6-0.6 1.1-0.3 0.6-0.8 1.1z"></path><path class="y" d="m207.4 98.2q0 0.6 0 1.1c0 0.3 0.1 0.7 0.2 1q0 0 0.1 0 0 0.1 0.1 0.2 0 0.1 0.1 0.3c0 0.3-0.2 0.5-0.3 0.6-0.3 0.3-0.7 0.3-1.1 0.3 0.4-0.1 0.7-0.2 0.9-0.5q0.1-0.2 0.1-0.3 0-0.1 0-0.2-0.1-0.1-0.1-0.1v-0.1h-0.1q-0.1-0.3-0.2-0.6 0-0.3 0-0.6 0.1-0.6 0.3-1.1z"></path><path class="o" d="m204.8 99.2c-0.3 0-0.5-0.2-0.5-0.5 0-0.4 0.2-0.6 0.5-0.6 0.3 0 0.6 0.2 0.6 0.6 0 0.3-0.3 0.5-0.6 0.5z"></path><path class="o" d="m209.4 99.8c-0.3 0-0.5-0.3-0.5-0.6 0-0.3 0.2-0.6 0.5-0.6 0.3 0 0.5 0.3 0.5 0.6 0 0.3-0.2 0.6-0.5 0.6z"></path><path class="y" d="m204.5 102.5q0.2 0.2 0.4 0.4 0.2 0.2 0.5 0.3 0.5 0.3 1 0.3 0.6 0.1 1.1 0 0.5-0.2 1-0.5-0.2 0.2-0.5 0.3-0.2 0.2-0.5 0.3-0.2 0.1-0.5 0.1-0.3 0-0.6 0-0.6-0.1-1.1-0.4-0.5-0.3-0.8-0.8z"></path><path class="c" d="m206 97.4q-0.4-0.1-0.8-0.2-0.3-0.1-0.7 0-0.4 0-0.7 0.2c-0.1 0-0.2 0.1-0.4 0.2q-0.1 0.1-0.3 0.2 0.1-0.2 0.2-0.4 0.1-0.2 0.3-0.3 0.4-0.3 0.9-0.4 0.4 0 0.8 0.2 0.5 0.1 0.7 0.5z"></path><path class="c" d="m208.4 97.7q0.3-0.3 0.8-0.4 0.4-0.1 0.8 0.1 0.5 0.1 0.8 0.5 0.2 0.1 0.3 0.3 0.1 0.2 0.1 0.5-0.1-0.2-0.3-0.3c-0.1-0.1-0.2-0.2-0.3-0.3q-0.3-0.2-0.7-0.3-0.3-0.1-0.7-0.2-0.4 0-0.8 0.1z"></path><path class="f" d="m207.4 134.8c0.1-0.3 5.6 1.1 5.6 1.1l5.4 0.4h13.1c14.6 4.3 4 31.9 4 31.9l-4.1-0.2-1.3-19.9c0 0-9.8 0.4-17.6-1.1-7.9-1.5-6.7-10.1-6.7-10.1 0.2 0.1 1.6-1.9 1.6-2.1z"></path><path class="e" d="m200.2 134.8c0.1-0.3 5.6 1.2 5.6 1.2l5.4 0.4 13.1-0.1c14.6 4.3 4 31.9 4 31.9l-4.1-0.2-1.3-19.9c0 0-9.8 0.5-17.6-1-7.9-1.5-6.7-10.2-6.7-10.2 0.1 0.2 1.6-1.8 1.6-2.1z"></path><path class="o" d="m208.5 108.6c0 0 5.4 0.7 6.8 1.9 1.3 1.2 7.9 18.6 7.9 18.6l-5.4 6.9h-11.7c0 0-8.7 5.1-14.2 0.3-5.5-4.7-2.7-21.3 0.5-24.8 3.2-3.6 8.8-3.5 8.8-3.5 0 0 5.2 3.8 7.3 0.6z"></path><path class="b" d="m198 117.2q0.3 1.5 0.4 2.9 0.1 0.7 0.1 1.5 0.1 0.7 0 1.4c0 1 0 2-0.2 2.9-0.1 1-0.4 2-0.8 2.8 0.3-0.9 0.4-1.8 0.5-2.8q0.2-1.4 0.2-2.9 0-1.4 0-2.9-0.1-1.4-0.2-2.9z"></path><path class="b" d="m214.2 116.6q0.4 2.1 0.8 4.2 0.4 2.1 0.8 4.2 0.5 2.1 1.1 4.2 0.3 1 0.8 2c0.2 0.6 0.6 1.2 1 1.8-0.5-0.5-0.9-1.1-1.2-1.8q-0.5-0.9-0.8-1.9-0.4-1.1-0.7-2.1-0.3-1-0.5-2.1-0.2-1-0.4-2.1-0.2-1.1-0.4-2.1-0.3-2.2-0.5-4.3z"></path><path class="x" d="m214.2 131.9c-0.2 0-0.1 0.2-0.1 0.2 0.6 0.1 2.1 0.4 2.5 0.6 0.6 0.3-1.5-0.1-2.7-0.1 0 0-0.1 0.3-0.1 0.3 0.1 0.2 0.6 0.4 2 0.7 2.2 0.6 0 0.6 0 0.6 0 0-0.2-0.1-2.2-0.7 0 0-0.1 0.2 0 0.3 0.1 0.2 0.5 0.7 1.1 0.9 0.7 0.3 0.1 0.5 0.1 0.5 0 0-1.3-0.6-2.1-0.8-0.5-0.1-3.3-0.2-4.4-0.3l0.2-1.1v-1.5l-0.1-0.4c1.3 0.1 5.1 0.2 5.7 0.3 0.7 0 2.8 0.3 2.8 0.6 0 0.3-1.6-0.2-2.7-0.1z"></path><path class="b" d="m196.7 128.5q0.7 0.2 1.4 0.4 0.8 0.1 1.5 0.3 1.4 0.3 2.8 0.5 1.5 0.2 2.9 0.3 1.5 0.2 2.9 0.3h0.2v0.1q0.1 0.5 0.2 1 0 0.5 0 1.1 0 0.5-0.1 1-0.1 0.5-0.2 1h-0.1l-1 0.8q-0.6 0.4-1.1 0.7 0.5-0.4 1-0.8l1-0.8q0.1-0.4 0.2-0.9 0.1-0.5 0-1 0-0.5 0-1-0.1-0.5-0.2-1l0.1 0.1q-0.7 0-1.4-0.1-0.8 0-1.5-0.1-1.5-0.2-2.9-0.4-1.5-0.2-2.9-0.6-0.7-0.2-1.4-0.4-0.7-0.2-1.4-0.5z"></path><path class="g" d="m234.3 137h-27.3c-0.3 0-0.6-0.2-0.6-0.5 0-0.3 0.3-0.6 0.6-0.6h7.2l6-15.5h21.1z"></path><path class="z" d="m230.8 129.3c-0.1 0.6-0.6 1.1-1.2 0.9-0.5-0.1-0.9-0.7-0.7-1.4 0.1-0.6 0.6-1.1 1.2-1 0.5 0.2 0.9 0.8 0.7 1.5z"></path><path class="c" d="m212.9 94.8c0.9 3.4-5.4-0.8-5.4-0.8 0.6 2.9-5.5-0.7-5.5-0.7 0 0-2.6 4.1-3.1 4.2-1.3-5.6 1.3-7.4 2-7.5-0.4 0-1.2 0-0.9-0.4 0.4-0.7 1.6-0.6 1.6-0.6 0 0-1.6-1-0.6-1.4 0.9-0.3 1.6 1.1 1.6 1.1 3.2-1.8 8.3 0.1 10.2 1.7 1.9 1.6 0.1 1.6 0.1 1.6 2.5 3 0 2.8 0 2.8z"></path><path class="c" d="m200.6 94.8c0 0 1.8-8.6 2.1-0.6 0.3 7.5-2.3 5.7-2.3 5.7 0 0 0.1-1.6-0.5-2.1-0.5-0.4-1-0.2-1-0.2z"></path><path class="t" d="m75.8 107.6l6.7 2.8-17 21 6.9-18.3-5.7-2.9 15.7-22.8z"></path><path class="x" d="m122.8 218.8l3.3-2.2 2.8 1.9-1 0.7-3.4 0.5c0 0-1.4-0.2-1.4-0.2-0.1 0-0.3-0.7-0.3-0.7z"></path><path class="e" d="m128.9 218.5v1.4c0 0.2-0.2 0.4-0.4 0.4h-6.3c-0.5 0-0.6-0.7-0.2-0.9l0.8-0.6c0.5 0.6 1.9 1.1 6.1-0.3z"></path><path class="x" d="m136.6 218.9l3.3-2.1 2.8 1.8-1 0.7-3.4 0.6c0 0-1.4-0.2-1.4-0.3-0.1 0-0.3-0.7-0.3-0.7z"></path><path class="e" d="m142.7 218.6v1.4c0 0.2-0.2 0.4-0.4 0.4h-6.3c-0.5 0-0.6-0.7-0.2-0.9l0.8-0.6c0.5 0.6 1.9 1.1 6.1-0.3z"></path><path class="t" d="m13.3 134.9l3.6-4.6 10.4 18.5-11-9.9-3.4 3.7-11.9-17.9z"></path><path class="t" d="m40.3 110.4l4.1-0.6-3 15.7-1.3-11.3-3.7 0.2 1.9-16.2z"></path><path class="e" d="m168.7 159.6c0 0 2-1.4 4.3 0 2.3 1.4 2.3 6.1 1.4 7.3-0.9 1.1 0.1 2.7-1.7 4.1-1.8 1.5-4.7 2.1-6.4 0.3-1.6-1.7-0.4-5.6-0.4-5.6z"></path><path class="x" d="m144.1 173.9c0.1 0.1 0 4.9 0 4.9l-1 1.1-1.1-0.4c-0.1-0.3-0.9-1.3-0.9-1.3-2.1-3-2-3-1.9-3.1 0.1-0.1 1.3 0.9 1.3 0.7 0.1-0.1-1-1.9-0.9-1.9 0.2 0 1.4 1.5 1.5 1.4 0.1-0.1-1-1.8-0.8-2 0.2-0.1 1.4 1.8 1.5 1.6 0.2-0.2-1.1-2.1-0.8-2.2 0.2-0.1 1.6 2.1 2 2.7 0.1 0.1 0.2 0.1 0.2 0 0.6-1.5 0.8-1.6 0.9-1.5z"></path><path class="A" d="m147 203.8l-4.1 15-5-1.5 1.7-12.6 5.2-3.7z"></path><path class="c" d="m163.1 174.2l-0.6 4.9-2.9 9.8-3.2 7.4-1.1 2.9-2.2-1.8 1.2-2.9-6.1-4.4c-3.1-2.3-6.6-11-6.6-11 0.9-1.1 2.7-2.1 2.7-2.1l8.7 9.2c1.5-1.8 10.1-13.1 10.1-13.1z"></path><path class="b" d="m165.8 174.4l-1.8 5.3c0 0-2.2 14.3-2.2 14.6 0 0.4-2.2 8.2-2.2 8.2l-4.3-3.1c0 0 2.6-7.9 2.9-10.9 0.3-2.9-0.3-3.1 0.5-5.6 0.7-2.4 4.4-8.7 4.4-8.7z"></path><path class="o" d="m171.2 213.8c-4.7 6.1-8.8 6.9-12.3 6.5-3.6-0.4-14.3-15.3-14.3-15.3-2.4 4.5-15.5 14.5-15.5 14.5l-3.7-2.8c0 0 15.2-24.3 20.8-22.9 5.7 1.4 12.9 8.3 12.9 8.3 0 0 17.5 4.8 12.1 11.7z"></path><path class="x" d="m166.4 168l1.6 4.7c0 0-1.2 2.8-5.1 1.7 0 0 0.4-0.9-0.2-2.9-0.7-2.1 3.7-3.5 3.7-3.5z"></path><g style="opacity:.6"><path class="B" d="m166.4 168l0.7 2.2c-0.3 1.6-1.6 2.7-4.1 3.2 0-0.5-0.1-1.1-0.3-1.9-0.7-2.1 3.7-3.5 3.7-3.5z"></path></g><path class="b" d="m144 201.6q0 0.6 0.1 1.1 0.1 0.6 0.2 1.2 0.2 0.5 0.4 1.1l0.1 0.2-0.2-0.2q-0.3-0.2-0.6-0.5-0.2-0.2-0.5-0.5-0.2-0.3-0.4-0.6-0.2-0.3-0.4-0.7 0.2 0.3 0.4 0.6 0.3 0.3 0.5 0.6 0.2 0.3 0.5 0.6 0.3 0.2 0.6 0.4l-0.1 0.1q-0.2-0.5-0.4-1.1-0.1-0.6-0.2-1.1-0.1-0.6-0.1-1.2 0-0.6 0.1-1.2-0.1 0.6 0 1.2z"></path><path class="y" d="m157.4 164.9c0.3 0.8 0.2 1.6-0.4 1.9-0.6 0.3-1.3-0.1-1.6-0.8-0.4-0.8-0.2-1.6 0.4-1.9 0.5-0.3 1.3 0.1 1.6 0.8z"></path><path class="x" d="m157.9 169.4q-0.3-0.5-0.5-1c-0.4-1-0.7-2-0.8-2.9q-0.1-0.3-0.1-0.6-0.3-1.2-0.1-2.5c0.4-2.8 2.5-5 5.1-5.4 3.6-0.5 6.7 2.3 6.9 6 0.4-0.3 0.8-0.4 1.2-0.2 0.7 0.3 1 1.3 0.7 2.3-0.4 1-1.2 1.5-2 1.2q-0.1 0-0.3-0.1c-0.1 3.2-2.3 5.8-5.3 5.9-1.4 0.1-2.7-0.5-3.7-1.4q-0.1-0.1-0.3-0.2-0.4-0.5-0.8-1.1z"></path><path class="y" d="m161.2 164.5q0 0.3 0 0.5 0 0.3-0.2 0.6 0 0.1-0.1 0.1 0 0.1 0 0.1-0.1 0.1-0.1 0.1 0 0.1 0 0.1c0 0.2 0.1 0.3 0.2 0.4q0.1 0.2 0.4 0.3 0.2 0.1 0.4 0.1-0.2 0.1-0.5 0-0.2 0-0.5-0.2c-0.1-0.2-0.2-0.4-0.2-0.6q0-0.1 0-0.1 0-0.1 0.1-0.2 0-0.1 0.1-0.1 0-0.1 0-0.1 0.1-0.2 0.2-0.5 0-0.2 0-0.5 0-0.5 0-1.1 0.2 0.5 0.2 1.1z"></path><path class="o" d="m163.5 164.4c-0.3 0-0.5-0.2-0.5-0.5 0-0.3 0.2-0.6 0.5-0.6 0.3 0 0.6 0.3 0.6 0.6 0 0.3-0.3 0.5-0.6 0.5z"></path><path class="o" d="m159 165c-0.3 0-0.5-0.3-0.5-0.6 0-0.3 0.2-0.6 0.5-0.6 0.3 0 0.5 0.3 0.5 0.6 0 0.3-0.2 0.6-0.5 0.6z"></path><g style="opacity:.3;mix-blend-mode:multiply"><path class="y" d="m162 169.5c-1.3 0.2-1.6-1-1.6-1 0.6-0.5 1.4-0.1 1.4-0.1 0.7-0.5 1.4-0.2 1.4-0.2 0 0 0.1 1.2-1.2 1.3z"></path></g><path class="y" d="m163 168.5q-0.5 0.3-1 0.3-0.3 0.1-0.6 0-0.3 0-0.5-0.1-0.3-0.1-0.5-0.2-0.3-0.2-0.5-0.4 0.5 0.3 1 0.5 0.5 0.2 1.1 0.1 0.5-0.1 1-0.3 0.2-0.2 0.5-0.3 0.2-0.2 0.4-0.4-0.4 0.5-0.9 0.8z"></path><path class="e" d="m163 162.1q0.4-0.2 0.9-0.1 0.5 0 0.8 0.3 0.2 0.1 0.3 0.3 0.2 0.2 0.3 0.4-0.2-0.1-0.4-0.2c-0.1-0.1-0.2-0.2-0.3-0.2q-0.4-0.1-0.7-0.2-0.4 0-0.8 0-0.4 0.1-0.8 0.2 0.3-0.3 0.7-0.5z"></path><path class="e" d="m159.2 162.9q-0.4 0-0.7 0.1-0.3 0.1-0.7 0.3c-0.1 0.1-0.2 0.2-0.3 0.3q-0.1 0.1-0.3 0.3 0.1-0.3 0.2-0.5 0.1-0.2 0.2-0.3 0.3-0.4 0.8-0.5 0.4-0.2 0.8-0.1 0.5 0.1 0.8 0.4-0.4 0-0.8 0z"></path><path class="l" d="m155.6 176.8c3.9 10.1-0.7 21.6-10.2 25.7-9.5 4.1-20.4-0.8-24.2-10.9-3.8-10.2 0.8-21.7 10.3-25.8 9.5-4 20.3 0.9 24.1 11z"></path><path class="m" d="m153.9 177.5c3.4 9.1-0.7 19.5-9.2 23.2-8.6 3.6-18.3-0.8-21.8-9.9-3.4-9.1 0.7-19.4 9.3-23.1 8.5-3.7 18.3 0.7 21.7 9.8z"></path><path fill-rule="evenodd" class="l" d="m144.3 199.6c-8 3.4-17.1-0.7-20.4-9.2-3.2-8.5 0.7-18.2 8.7-21.7 8-3.4 17.1 0.7 20.3 9.3 3.2 8.5-0.6 18.2-8.6 21.6zm-11.5-30.3c-7.7 3.3-11.4 12.7-8.3 20.9 3.1 8.2 11.9 12.1 19.5 8.8 7.7-3.3 11.5-12.6 8.4-20.8-3.1-8.2-11.9-12.2-19.6-8.9z"></path><g style="opacity:.5"><path fill-rule="evenodd" class="n" d="m139 178.3c-0.6-0.8-1.2-1.3-2.1-1.4q0 0.2 0 0.4 0.8 2 1.6 4.1c0.1 0.3 0.3 0.4 0.6 0.4q1-0.1 2.1-0.1c2.5 0.1 4 1.7 4.6 4.1 0.8 3 0 5.2-2.4 6.9-0.4 0.3-0.5 0.6-0.3 1 0.2 0.3 0.3 0.7 0.5 1.1-0.6 0.2-1.1 0.4-1.7 0.7q-0.3-0.8-0.6-1.6c-3.9 0.9-6.1-1.4-7-3.4q1.4-0.8 2.8-1.7c0.8 1.1 1.6 1.8 3 2-0.3-0.7-0.5-1.4-0.8-2.1q-0.5-1.3-1-2.7c-0.1-0.3-0.3-0.5-0.6-0.4-1.1 0.1-2.2 0-3.3-0.5-2.1-0.9-3.1-2.8-3.3-5-0.2-2.2 0.8-3.8 2.4-4.9q0.2-0.2 0.4-0.3 0 0 0.1-0.1-0.2-0.6-0.5-1.4c0.6-0.2 1.1-0.4 1.7-0.7 0.1 0.3 0.3 0.7 0.4 1 0.1 0.3 0.3 0.4 0.6 0.3 1.4-0.3 2.8-0.2 4 0.7 0.6 0.5 1.2 1.1 1.6 1.9-0.9 0.6-1.9 1.1-2.8 1.7zm1 7.1q1 2.4 1.9 4.8c1-0.6 1.4-1.9 1.1-3.1-0.4-1.3-1.5-1.9-3-1.7zm-4.9-7.8c-0.8 0.9-1.1 2-0.7 2.9 0.4 0.9 1.4 1.5 2.3 1.4-0.6-1.4-1.1-2.8-1.6-4.3z"></path></g><path class="x" d="m144.6 185.9c0.2-0.1 3.5 3.8 3.5 3.8l-0.1 1.8-1.3 0.5-1.5-0.2c-3.7-0.8-3.7-0.9-3.7-1 0-0.2 1.7-0.3 1.6-0.5-0.1-0.2-2.2-0.7-2.1-0.9 0.2-0.1 2.2 0.1 2.2 0 0-0.1-2.1-0.6-2-0.9 0.1-0.3 2.3 0.3 2.3 0 0-0.2-2.4-0.8-2.3-1.1 0.1-0.2 2.8 0.4 3.6 0.6 0.1 0 0.2-0.1 0.2-0.2-0.6-1.7-0.6-1.9-0.4-1.9z"></path><path class="d" d="m167.9 171.9c0 0 7.4 9.5 6.4 26.3-1 16.8-1.2 16.9-1.2 16.9 0 0-4.5-0.5-7.9-3.4-3.4-2.8-7.5-4.8-7.5-4.8l2.7-9.5c0 0-3.6 0.1-6.1-1-2.6-1.2-8-4.3-8-4.3 0 0 0.4-2.8 1-3.7 0 0 6.8 2.3 10.3 2.3 0 0 4-13.2 10.3-18.8z"></path><path class="c" d="m165.8 176.7q-0.4 0.4-0.7 0.9l-0.7 0.9q-1.5 1.8-2.7 3.8l-0.3 0.5q-0.2 0.2-0.3 0.5l-0.6 1q-0.2 0.2-0.3 0.5l-0.3 0.5-0.3 0.5q-0.1 0.3-0.2 0.6l-0.5 1-0.5 1.1-0.2 0.6-0.2 0.5q-0.2 0.6-0.4 1.1 0.2-0.5 0.3-1.1l0.2-0.6 0.2-0.5 0.4-1.1 0.5-1.1q0.1-0.3 0.3-0.6l0.2-0.5 0.3-0.5q0.1-0.3 0.3-0.5l0.6-1.1q0.1-0.2 0.3-0.5l0.3-0.5q1.2-2 2.7-3.8 1.5-1.8 3.2-3.4-0.8 0.9-1.6 1.8z"></path><path class="c" d="m168.8 186q-1 2.2-2.1 4.3-0.6 1-1.2 2-0.7 1-1.4 2-0.7 0.9-1.6 1.7c-0.5 0.6-1.2 1-1.8 1.4 0.6-0.4 1.2-0.9 1.8-1.5q0.8-0.8 1.5-1.8 0.3-0.4 0.6-0.9 0.4-0.5 0.7-1 0.6-1 1.2-2 0.5-1.1 1.1-2.1 0.5-1.1 1-2.2 1-2.1 2-4.3-0.8 2.3-1.8 4.4z"></path><path class="e" d="m156.1 157.5c0.9-2 2.6-3.1 4.1-3.8 1.8-0.7 3.8-0.8 5.6-0.1 5.1 2.1 4.1 8.1 3.9 9.2-0.3 0-0.6 0-1 0.2q-0.3 0.1-0.5 0.3c-1-0.3-1.3-2.1-1.8-2.9-0.7-1.2-3.4-0.1-4.6-0.9-1.1-0.8-1.3-1.7-1.3-1.7-4.5 0.8-4.2 6.2-4.2 6.2-0.2 0-0.6-0.8-0.6-0.8 0 0-1.2-2 0.4-5.7z"></path><path class="x" d="m327 236.3l-4.5 25.7-5.4 39.9-1.9 0.5-1.9-1.4 0.7-60.7 9.6-6.4z"></path><path class="x" d="m344 294.9l-0.3 2.5-1.9 0.9-1.7-2.2-1.7-2.3v-0.1c-3.8-5.3-12.5-17.9-13.2-19.6-0.9-2.2-6.4-37.2-6.4-37.2l10.8-3.5c0 0 6.1 8.4 4.6 21.8-1.4 13.3-2.8 17.4-2.8 17.4 0 0 7.5 8.4 11.8 20.7z"></path><path class="o" d="m319.3 238.5c0 0 11.6-6.1 13.7-0.5 2.1 5.6 2.3 14.1 2 20.9-0.3 6.7 0.7 15.5 0.7 15.5-1.6 1.4-5.1 1.6-5.1 1.6l-1.6-8.3-0.3 8.8c-7.2 0.6-17-1.1-17-1.1-0.2-15.4 2.3-35.9 2.3-35.9z"></path><path class="o" d="m327 187.6c0 0 2.3 1.8 2.9 4.4 0.6 2.2 3.1 1.8 4.7 4.7 1.8 3.3 4.3 8.1-1.4 11.4-3.6 2-9.3 3.6-10.6 2.2-1.3-1.3-4.4-0.8-3.7-15.2 0 0 8.4-5.1 8.5-5.1 0.1-0.1-0.4-2.4-0.4-2.4z"></path><path class="f" d="m316 228.9q-0.1 0.5-0.3 0.9l-0.3 1.2c0 0-0.2 0-0.5-0.1-2.9 4.7-13.4-1.7-13.4-1.7l1.6-0.3 7.7-1c2.1-5.2 3.5-11 3.5-11l2.6 7.3-1.1 4.7z"></path><path class="x" d="m325.7 203.4l-0.2 3.4-4.5 1h-0.8l0.2-4.1 4.7-1.8z"></path><path class="x" d="m319.3 207.3c0 0 2.7-0.5 6.8-0.9l-6.7 5.3c0 0-0.9-0.4-0.7-2.8 0.2 0.1 0.6-1.6 0.6-1.6z"></path><path class="o" d="m324 193.1l-7.8 2.6c-1.1-2.7 0.3-7.4 2.7-8.7 2.3-1.4 5.8-1.6 9 0.6 3.3 2.3 1.9 8.2 1.9 8.2z"></path><path class="y" d="m325.8 202.5c0 0-0.1 1-0.2 2.2-1.7 2-4.9 1.3-5.3 1.1 0-0.6 0-1.9 0-1.9z"></path><path class="y" d="m317.2 196.7c0.3 0.8 0 1.7-0.6 1.9-0.6 0.2-1.3-0.2-1.6-1-0.3-0.8 0-1.7 0.6-1.9 0.6-0.2 1.3 0.2 1.6 1z"></path><path class="x" d="m317.2 201.4q-0.2-0.6-0.4-1.1c-0.3-1.1-0.5-2.2-0.5-3.1q0-0.3-0.1-0.6-0.1-1.2 0.2-2.6c0.6-2.8 3-4.8 5.7-5 3.7-0.1 6.6 3.1 6.5 6.9 0.4-0.2 0.8-0.3 1.2-0.1 0.8 0.4 1 1.5 0.5 2.5-0.4 0.9-1.4 1.4-2.1 1q-0.1 0-0.3-0.2c-0.4 3.3-2.9 5.7-5.9 5.5-1.5-0.1-2.8-0.7-3.8-1.8q-0.1-0.1-0.2-0.2-0.4-0.6-0.8-1.2z"></path><path class="o" d="m323.4 197.5c-0.3 0-0.6-0.3-0.6-0.7 0-0.3 0.3-0.6 0.6-0.6 0.4 0 0.6 0.3 0.6 0.6 0 0.4-0.2 0.7-0.6 0.7z"></path><path class="o" d="m318.2 197.5c-0.3 0-0.5-0.3-0.5-0.7 0-0.3 0.2-0.6 0.5-0.6 0.4 0 0.6 0.3 0.6 0.6 0 0.4-0.2 0.7-0.6 0.7z"></path><path class="o" d="m322.7 195.5q0.2-0.2 0.4-0.2 0.5-0.2 0.9-0.2 0.3 0.1 0.5 0.1 0.2 0.1 0.4 0.3 0.4 0.2 0.7 0.6-0.4-0.3-0.8-0.5 0 0 0 0-0.1-0.1-0.1-0.1-0.2 0-0.3-0.1-0.2 0-0.4 0-0.4-0.1-0.8 0-0.4 0.1-0.8 0.4 0.1-0.2 0.3-0.3z"></path><path class="o" d="m319.2 195.4q-0.5-0.1-0.9 0-0.2 0-0.4 0-0.1 0.1-0.2 0.1-0.1 0-0.1 0.1-0.1 0-0.1 0-0.4 0.2-0.7 0.5 0.2-0.4 0.6-0.6 0.2-0.2 0.4-0.3 0.3 0 0.5-0.1 0.5 0 0.9 0.2 0.2 0 0.4 0.2 0.2 0.1 0.4 0.3-0.4-0.3-0.8-0.4z"></path><path class="b" d="m333.4 216.8h-0.1q-0.2 0.1-0.5 0.1-0.2 0-0.4-0.1-0.3 0-0.5-0.1-0.2-0.1-0.4-0.3 0.2 0.1 0.4 0.2 0.1 0 0.2 0.1 0.2 0 0.3 0 0.2 0.1 0.4 0 0.2 0 0.4 0-0.2-0.2-0.4-0.4-0.1-0.3-0.3-0.6-0.1-0.2-0.1-0.3-0.1-0.2-0.1-0.4-0.1-0.3-0.2-0.6 0.1 0.3 0.2 0.6 0.2 0.3 0.3 0.6 0.2 0.3 0.4 0.6 0.1 0.3 0.4 0.5z"></path><path class="y" d="m320.4 197.5q-0.2 0.4-0.3 0.9-0.1 0.2-0.1 0.5 0 0.1 0 0.1 0 0 0 0.1h0.1q0 0 0.1 0.1c0.2 0.2 0.5 0.3 0.8 0.5q-0.2-0.1-0.5-0.2-0.2-0.1-0.4-0.2-0.1 0-0.1-0.1 0 0-0.1 0 0 0 0-0.1 0 0 0 0-0.1-0.1-0.1-0.1 0-0.1 0-0.2 0.1-0.2 0.1-0.5 0.2-0.4 0.4-0.9 0.1-0.5 0.4-0.9-0.2 0.5-0.3 1z"></path><path class="e" d="m333 238c-8 1.6-19 1.5-19 1.5l1.3-16.8c-0.2-2.7-1.6-5-1.3-7.8 0.4-4 2.4-5.1 5.3-7.6q0 0 0 0c0 1.8 2 2.9 3.4 1.7l3.3-2.6c0 0 0.5-0.1 1.5 0 0 0 1.3 0.7 1.3 0.7l1.9 4.2c0 0 0.3 0.8 1.4 1.8 0.1 0.9 1.4 2.5 1.3 3.7 0 0-0.3 5.1-1.1 9.8q0 0 0 0c-0.1 6.7 0.7 11.4 0.7 11.4z"></path><path class="o" d="m313.1 238.7l-11.5 0.8c-0.7 0-1.5-0.5-1.8-1.1l-6-14.9c-0.3-0.7 0.1-1.2 0.8-1.3l11.5-0.7c0.7-0.1 1.5 0.4 1.8 1.1l6 14.9c0.3 0.6-0.1 1.2-0.8 1.2z"></path><path class="C" d="m302.7 222.5l-3.9 0.2c-0.3 0-0.7-0.2-0.8-0.5l-0.1-0.2c-0.1-0.3 0-0.6 0.4-0.6l3.9-0.2c0.3-0.1 0.6 0.2 0.7 0.4l0.1 0.3c0.2 0.3 0 0.5-0.3 0.6z"></path><path class="x" d="m298.4 234.9c-0.3 0.2-0.7 0.1-0.8-0.2l-1.8-3.3c-0.1-0.2-0.1-0.4 0-0.6 0.3-0.4 1-1.4 1.2-1.4 0.3 0-0.6 1.7-0.5 1.7 0.1 0.1 1.4-1 1.5-0.9 0.1 0.2-1 1.5-1 1.6 0.1 0.1 1.4-0.7 1.5-0.6 0.2 0.2-1.1 1.2-1.1 1.3z"></path><path class="x" d="m297.4 232.5c0 0 1.3-0.4 1.4-0.3 0.1 0.2-1.4 1.1-1.4 1 0 0 0-0.7 0-0.7z"></path><path class="o" d="m329.8 195.8c-0.7-0.3-1.2 0.1-1.2 0.1 0 0-4.2-1.8-6.5-4.6 0 0 0.1 1.5 0.6 2.1-0.2 0.1-3.1-1.2-3.8-3.6-0.7-2.4 3.3-1.4 3.3-1.4 0 0 2.3-0.4 2.4-0.4 0.1 0.1 1.7 1.1 1.8 1.2 0.1 0.1 2.2 3.3 2.2 3.3l0.6 1.2 0.1 1.3h0.1z"></path><path class="b" d="m322.6 200.6c-0.2 0.7-0.8 1.3-1.6 1.3-0.8 0-1.5-0.5-1.6-1.3z"></path><path class="x" d="m334.4 231.3c-1.3 1.7-21.5 4.8-21.5 4.8-0.3 0.2-1.1 0.9-1.1 0.9-3.6 2.4-3.2 2.2-3.3 2-0.1-0.1 1.1-1.5 1-1.6-0.2-0.1-2.3 1.2-2.3 1 0-0.2 1.8-1.7 1.7-1.8-0.1-0.1-2.1 1.2-2.3 0.9-0.1-0.3 2.2-1.6 1.9-1.8-0.2-0.2-2.5 1.2-2.5 0.9-0.1-0.2 2.4-1.9 3.2-2.4 0.1-0.1 0.1-0.2 0-0.3-1.7-0.9-1.8-1-1.7-1.2 0.1-0.1 1.8 0.1 3.4 0.2l2 0.2c0.5-0.1 16.7-4.2 17.6-5.3 0.7-0.9-5.7-17.1-5.6-19.3 0-1.5 1.4-2.6 2.8-2.1 5 2 6.6 11.6 6.6 11.6 0 0 2.4 10.2 0.1 13.3z"></path><path class="f" d="m334.4 231.3c-1.1 1.6-17.5 4.2-20.9 4.7-0.3-0.9-0.5-1.9-0.7-2.9h0.1c0.5-0.1 16.7-4.2 17.6-5.3 0.7-0.9-5.7-17.1-5.6-19.3 0-1.5 1.4-2.6 2.8-2.1 5 2 6.6 11.6 6.6 11.6 0 0 2.4 10.2 0.1 13.3z"></path><path class="b" d="m232.6 46.1q-0.1-0.5-0.1-1c0-5.6 4.3-10.1 9.5-10.1 1.7 0 3.3 0.5 4.7 1.3 1.9-5.7 7-9.8 13-9.8 5.1 0 9.5 2.9 11.9 7.2q1.6-0.5 3.4-0.6c4.5 0 8.4 2.9 10.2 7q0.9-0.3 1.9-0.3c3.6 0 6.7 2.7 7.5 6.3z"></path><path class="b" d="m179.5 78.9c0.5-1.9 2.1-3.4 4-3.4q0.5 0 1 0.2c1-2.2 3-3.7 5.4-3.7q0.9 0 1.8 0.3c1.3-2.3 3.6-3.8 6.3-3.8 3.1 0 5.8 2.2 6.9 5.2 0.7-0.5 1.5-0.7 2.4-0.7 2.8 0 5.1 2.4 5.1 5.4q0 0.2-0.1 0.5z"></path><path class="b" d="m282.1 74.9c0.5-2 2.1-3.4 4-3.4q0.5 0 1 0.1c1-2.1 3-3.6 5.4-3.6q0.9 0 1.8 0.3c1.3-2.3 3.6-3.8 6.3-3.8 3.2 0 5.9 2.1 6.9 5.1 0.7-0.4 1.5-0.6 2.4-0.6 2.8 0 5.1 2.4 5.1 5.3q0 0.3 0 0.6z"></path><path class="b" d="m328.3 128.5c0.5-2.3 2.4-4.1 4.8-4.1q0.6 0 1.2 0.2c1.2-2.6 3.7-4.4 6.5-4.4q1.2 0 2.2 0.3c1.6-2.7 4.4-4.6 7.6-4.6 3.9 0 7.1 2.6 8.4 6.3 0.9-0.5 1.9-0.8 3-0.8 3.3 0 6.1 2.9 6.1 6.5q0 0.3-0.1 0.6z"></path><path class="x" d="m309.7 302.4l3.9-2.6 3.5 2.2-1.2 0.9-4.2 0.6c0 0-1.6-0.2-1.7-0.3-0.1 0-0.3-0.8-0.3-0.8z"></path><path class="c" d="m317.1 302v1.7c0 0.3-0.2 0.5-0.5 0.5h-7.7c-0.5 0-0.7-0.8-0.2-1.1l1-0.7c0.5 0.7 2.3 1.3 7.4-0.4z"></path><path class="x" d="m340.7 302l-0.1-5.2 3.4-1.9 0.2 1.5-1.6 4.2c0 0-0.9 1.4-1 1.5-0.1 0-0.9-0.1-0.9-0.1z"></path><path class="c" d="m344 294.9l1.4 0.8c0.2 0.2 0.3 0.5 0.2 0.7l-3.8 7.1c-0.3 0.5-1 0.3-1-0.2l-0.1-1.3c0.9-0.2 2.2-1.5 3.3-7.1z"></path><path class="b" d="m237.2 174.7l-6.8-2.8c-0.2-0.1-0.3-0.3-0.2-0.5v-0.1c0.1-0.2 0.3-0.3 0.5-0.2l6.8 2.8c0.2 0.1 0.3 0.3 0.2 0.5l-0.1 0.1c0 0.2-0.2 0.3-0.4 0.2z"></path><path class="o" d="m232.1 168.4l3 1.2c0.7 1.2 2.6 2.2 2.8 3.3 0.2 0.6 0 0.9-0.2 1.1-0.1 0.2-0.3 0.2-0.5 0.1l-6.6-2.7c-0.2 0-0.2-0.3-0.1-0.6l1.1-2.1c0.1-0.3 0.3-0.4 0.5-0.3z"></path><path class="b" d="m234.2 170.7c0 0 0-0.1 0-0.2 0.3-0.2 0.9-0.8 1.7-0.3 0 0 0.1 0.1 0 0.2q0 0.1-0.1 0c-0.7-0.4-1.3 0.1-1.5 0.3q0 0.1-0.1 0z"></path><path class="b" d="m234.8 171.3c-0.1 0 0-0.1 0-0.2 0.2-0.2 0.9-0.8 1.7-0.3 0 0 0 0.1 0 0.1v0.1q-0.1 0.1-0.1 0c-0.7-0.4-1.3 0.1-1.5 0.3q-0.1 0.1-0.1 0z"></path><path class="b" d="m235.3 171.8c0 0 0-0.1 0-0.2 0.3-0.2 1-0.8 1.7-0.3 0.1 0 0.1 0.1 0 0.2q0 0.1-0.1 0c-0.7-0.4-1.3 0.1-1.5 0.3q0 0.1-0.1 0z"></path><g style="opacity:.3;mix-blend-mode:multiply"><path class="q" d="m230.6 171.4c-0.2 0-0.2-0.3-0.1-0.6l0.7-1.4c0.5 0.2 1.3 0.8 1.2 2.8z"></path></g><path class="b" d="m230.2 174.7l-6.9-2.3c-0.2 0-0.3-0.2-0.3-0.4l0.1-0.2c0-0.2 0.2-0.3 0.4-0.2l7 2.3c0.2 0.1 0.3 0.3 0.2 0.4v0.2c-0.1 0.2-0.3 0.3-0.5 0.2z"></path><path class="o" d="m224.7 168.8l3.2 1c0.7 1.1 2.6 2 2.9 3.1 0.2 0.5 0.1 0.9-0.1 1.1-0.1 0.2-0.3 0.2-0.5 0.2l-6.7-2.2c-0.2-0.1-0.3-0.4-0.2-0.7l0.9-2.2c0.1-0.2 0.3-0.4 0.5-0.3z"></path><path class="b" d="m227 171c0-0.1 0-0.1 0-0.2 0.2-0.3 0.9-0.9 1.7-0.5 0 0.1 0 0.1 0 0.2q-0.1 0.1-0.1 0.1c-0.8-0.4-1.3 0.2-1.5 0.4q0 0.1-0.1 0z"></path><path class="b" d="m227.6 171.5c0 0 0-0.1 0-0.2 0.2-0.3 0.9-0.9 1.7-0.4 0 0 0 0.1 0 0.1q-0.1 0.1-0.1 0.1c-0.7-0.4-1.3 0.2-1.5 0.4q0 0.1-0.1 0z"></path><path class="b" d="m228.2 172c-0.1 0-0.1-0.1 0-0.2 0.2-0.3 0.8-0.9 1.6-0.5 0.1 0.1 0.1 0.1 0.1 0.2q-0.1 0.1-0.2 0.1c-0.7-0.4-1.2 0.2-1.4 0.4q-0.1 0.1-0.1 0z"></path><g style="opacity:.3;mix-blend-mode:multiply"><path class="q" d="m223.5 172c-0.2-0.1-0.3-0.4-0.2-0.7l0.6-1.4c0.5 0.1 1.4 0.6 1.4 2.6z"></path></g></svg> 