<?xml version="1.0" encoding="UTF-8"?> <svg xmlns="http://www.w3.org/2000/svg" version="1.2" viewBox="0 0 399 320" width="399" height="320"><defs><linearGradient id="P" gradientUnits="userSpaceOnUse"></linearGradient><linearGradient id="g1" x1="135.9" y1="282.5" x2="271" y2="230" href="#P"><stop stop-color="#9e3950"></stop><stop offset="1" stop-color="#c35572"></stop></linearGradient><linearGradient id="g2" x1="169.4" y1="198.5" x2="205.7" y2="103.7" href="#P"><stop stop-color="#d26400"></stop><stop offset="1" stop-color="#ffd35a"></stop></linearGradient><linearGradient id="g3" x1="95.2" y1="135.3" x2="97.4" y2="136.2" href="#P"><stop stop-color="#ffaa87"></stop><stop offset="1" stop-color="#ff5b45"></stop></linearGradient><linearGradient id="g4" x1="95.2" y1="142.3" x2="91.9" y2="141.9" href="#P"><stop stop-color="#ff7f66"></stop><stop offset="1" stop-color="#ffaa87"></stop></linearGradient><linearGradient id="g5" x1="90.9" y1="137.5" x2="91.9" y2="136.2" href="#P"><stop stop-color="#ffaa87"></stop><stop offset="1" stop-color="#ff7f66"></stop></linearGradient><linearGradient id="g6" x1="98.4" y1="136.8" x2="99.4" y2="135.8" href="#P"><stop stop-color="#ffaa87"></stop><stop offset="1" stop-color="#ff7f66"></stop></linearGradient><linearGradient id="g7" x1="311.7" y1="219.3" x2="316.1" y2="186.3" href="#P"><stop stop-color="#00884e"></stop><stop offset="1" stop-color="#02c370"></stop></linearGradient><linearGradient id="g8" x1="309.7" y1="225.8" x2="320.9" y2="215.9" href="#P"><stop stop-color="#fff"></stop><stop offset="1" stop-color="#236f40"></stop></linearGradient><linearGradient id="g9" x1="339.8" y1="200.3" x2="341.8" y2="195.7" href="#P"><stop stop-color="#fff"></stop><stop offset="1" stop-color="#4dac6f"></stop></linearGradient><linearGradient id="g10" x1="94.8" y1="87.6" x2="93.5" y2="47.1" href="#P"><stop stop-color="#00884e"></stop><stop offset="1" stop-color="#02c370"></stop></linearGradient><linearGradient id="g11" x1="319.1" y1="144" x2="320.4" y2="141.8" href="#P"><stop stop-color="#ff5b45"></stop><stop offset="1" stop-color="#ffaa87"></stop></linearGradient><linearGradient id="g12" x1="322.6" y1="147.5" x2="323.6" y2="146.5" href="#P"><stop stop-color="#ffaa87"></stop><stop offset="1" stop-color="#ff7f66"></stop></linearGradient><linearGradient id="g13" x1="316.9" y1="145.7" x2="317.1" y2="144.5" href="#P"><stop stop-color="#ffaa87"></stop><stop offset="1" stop-color="#ff7f66"></stop></linearGradient><linearGradient id="g14" x1="320.9" y1="153.8" x2="321.9" y2="151.6" href="#P"><stop stop-color="#ffaa87"></stop><stop offset="1" stop-color="#ff7f66"></stop></linearGradient><linearGradient id="g15" x1="65.1" y1="124.4" x2="66.2" y2="119.8" href="#P"><stop stop-color="#ff5b45"></stop><stop offset="1" stop-color="#ffaa87"></stop></linearGradient><linearGradient id="g16" x1="118" y1="124.1" x2="119.7" y2="122.1" href="#P"><stop stop-color="#ff5b45"></stop><stop offset="1" stop-color="#ffaa87"></stop></linearGradient><linearGradient id="g17" x1="135.9" y1="282.5" x2="209.8" y2="282.5" href="#P"><stop stop-color="#9e3950"></stop><stop offset="1" stop-color="#8d2642"></stop></linearGradient><linearGradient id="g18" x1="135.9" y1="220.8" x2="156.8" y2="220.8" href="#P"><stop stop-color="#c36581"></stop><stop offset="1" stop-color="#fff"></stop></linearGradient><linearGradient id="g19" x1="126.6" y1="215.3" x2="200.9" y2="215.3" href="#P"><stop stop-color="#a93358"></stop><stop offset="1" stop-color="#501f09"></stop></linearGradient><linearGradient id="g20" x1="307.2" y1="178.3" x2="310.2" y2="175.4" href="#P"><stop stop-color="#fff"></stop><stop offset="1" stop-color="#955fa8"></stop></linearGradient><linearGradient id="g21" x1="72.3" y1="176.7" x2="71.2" y2="154.4" href="#P"><stop stop-color="#a94b4b"></stop><stop offset="1" stop-color="#fff"></stop></linearGradient></defs><style>.a{fill:url(#g1)}.b{fill:#8d2642}.c{fill:url(#g2)}.d{fill:#1c1a1b}.e{fill:#0056a9}.f{fill:#ff2c2c}.g{fill:#ffaa87}.h{fill:#1d191a}.i{fill:#ff8269}.j{fill:url(#g3)}.k{fill:url(#g4)}.l{fill:url(#g5)}.m{fill:url(#g6)}.n{fill:#fff}.o{fill:#236f40}.p{fill:url(#g7)}.q{fill:#00a964}.r{opacity:.6;mix-blend-mode:multiply;fill:url(#g8)}.s{opacity:.8;mix-blend-mode:multiply;fill:url(#g9)}.t{fill:url(#g10)}.u{fill:#fa0}.v{fill:#955fa8}.w{fill:url(#g11)}.x{fill:#ffd35a}.y{fill:url(#g12)}.z{fill:url(#g13)}.A{fill:url(#g14)}.B{fill:url(#g15)}.C{fill:url(#g16)}.D{fill:url(#g17)}.E{fill:#ff969a}.F{mix-blend-mode:multiply;fill:url(#g18)}.G{fill:url(#g19)}.H{mix-blend-mode:multiply;fill:url(#g20)}.I{mix-blend-mode:multiply;fill:url(#g21)}</style><path class="a" d="m135.9 261.5q67.5 0 135.1 0 0 10.5 0 21-67.6 0-135.1 0 0-10.5 0-21zm0-31.5q67.5 0 135.1 0 0 15.7 0 31.5-67.6 0-135.1 0 0-15.8 0-31.5zm0-31.5q67.5 0 135.1 0 0 15.7 0 31.5-67.6 0-135.1 0 0-15.8 0-31.5z"></path><path class="b" d="m211.9 183.4h67.3l-8.2 15.1h-67.1z"></path><path class="c" d="m155.5 181.4c5.9-1.1 12.3-2 19-2.6 2.3 6.7 5.2 14.2 8.8 19.7q-7 0-14 0c-5.4-5.1-10.1-10.9-13.8-17.1zm-6.7-17.7c6.9-2.1 14.1-3.7 21.5-5 0.7 6.6 2.1 14.1 4.2 20.1-6.7 0.6-13.1 1.5-19 2.6-3.2-5.6-5.6-11.5-6.7-17.7zm9.5-47.8c4.5-3.9 10.8-4.9 16.2-7.4-4.8 16.1-6 34.3-4.2 50.2-7.4 1.3-14.6 2.9-21.5 5q-0.7-4-0.7-8.1c0-15.3 3.7-28.9 10.2-39.7zm8.2-11c4.1-4.3 8.6-7.9 13.6-10.6-2.2 4.4-4.1 9.2-5.6 14.2-5.4 2.5-11.7 3.5-16.2 7.4 2.4-4.1 5.2-7.7 8.2-11zm8 73.9c10.2-1 20.9-1.4 30.7-1.4-0.2 7.7-0.4 14.8-0.4 21.1q-10.7 0-21.5 0c-3.6-5.5-6.5-13-8.8-19.7zm-4.2-20.1c11.4-2 23.3-3 35.3-3-0.1 7.5-0.3 14.8-0.4 21.7-9.8 0-20.5 0.4-30.7 1.4-2.1-6-3.5-13.5-4.2-20.1zm4.2-50.2c8.2-4 21.7-4.8 31.2-4.9q0.2 26-0.1 52.1c-12 0-23.9 1-35.3 3-1.8-15.9-0.6-34.1 4.2-50.2zm5.6-14.2c7.7-4.3 16.3-6.7 25.5-6.8q0.1 8.1 0.1 16.1c-9.5 0.1-23 0.9-31.2 4.9 1.5-5 3.4-9.8 5.6-14.2zm25.1 83.1c8.1 0 17 0.4 25.8 1.2-2.2 7-5 14.5-7.7 19.9q-9.3 0-18.5 0c0-6.3 0.2-13.4 0.4-21.1zm0.4-21.7c9.8 0 19.8 0.8 29.7 2.3-0.7 6.8-2.4 14.5-4.3 20.6-8.8-0.8-17.7-1.2-25.8-1.2 0.1-6.9 0.3-14.2 0.4-21.7zm0.1-52.1c7.9 0 19.2 0.6 26.5 3.6 4 16.5 5.1 34.5 3.1 50.8-9.9-1.5-19.9-2.3-29.7-2.3q0.3-26.1 0.1-52.1zm-0.1-16.1c7.6-0.1 15.2 1.6 22.1 4.8 1.8 4.8 3.3 9.8 4.5 14.9-7.3-3-18.6-3.6-26.5-3.6q0-8-0.1-16.1zm25.4 91.1c8.4 0.8 16.8 2 24.4 3.5-4.1 6.2-9.2 11.8-14.4 16.4q-8.9 0-17.7 0c2.7-5.4 5.5-12.9 7.7-19.9zm4.3-20.6c9.5 1.5 18.9 3.6 28 6.4-1.5 6.2-4.3 12.2-7.9 17.7-7.6-1.5-16-2.7-24.4-3.5 1.9-6.1 3.6-13.8 4.3-20.6zm-3.1-50.8c7.2 2.8 15.8 4.5 21.6 9.4 6.6 11.1 10.5 24.5 10.5 39 0 2.9-0.4 5.9-1 8.8-9.1-2.8-18.5-4.9-28-6.4 2-16.3 0.9-34.3-3.1-50.8zm-4.5-14.9c6.5 3.1 12.5 7.5 17.6 13 3.2 3.4 6.1 7.2 8.5 11.3-5.8-4.9-14.4-6.6-21.6-9.4-1.2-5.1-2.7-10.1-4.5-14.9z"></path><path class="d" d="m58.1 276.7l-3.5 5.8h-13.6l8.4-5.1c0 0 0.7 0.8 3.2 1 2.4 0.3 4.4-0.7 5.5-1.7z"></path><path class="d" d="m106 282.5v-5.8c1.6 0.9 5.9 0.3 6.6-0.3q0-0.1 0-0.2l9.6 6.3z"></path><path class="e" d="m112.6 276.2q0 0.1 0 0.2c-0.7 0.6-5 1.2-6.6 0.3q0 0 0 0c-1.6-1-5.1-8.9-7.8-17.3-2.6-8.3-3.5-21.3-3.5-21.3l-8.3-37.2c0 0-9.8 33.1-12.7 40.9-2.9 7.7-14.5 33.8-15.6 34.9-1.1 1-3.1 2-5.5 1.7-2.5-0.3-3.2-1-3.2-1 0 0 11.1-46.3 13.3-54.8 1.5-6 4.7-21.4 7.2-32.1q0.1-0.3 0.2-0.6c1-4.4 1.9-7.9 2.6-9.5 0 0 1.5 1.1 4.3 2.1q0.2 0.1 0.4 0.2c2.2 0.7 5 1.4 8.5 1.5q0.5 0 1 0 0.2 0 0.4 0c2.9 0 5.5-0.2 7.5-0.4q0.2-0.1 0.4-0.1c2.9-0.4 4.6-0.9 4.6-0.9 0 0 0.7 4.1 1.8 10.1q0.1 0.4 0.1 0.7 0 0 0 0c2.3 12.8 5.9 33.5 6.9 42.3 1.5 12.9 4.4 38 4 40.3z"></path><path class="f" d="m125 128.1c0.1 2.1-6.1 13.9-9.1 18.7-3 4.7-9.9 12.5-10.7 14.8-0.8 2.1-4.3 16.8-5.2 20.4-0.2 0.5-0.2 0.8-0.2 0.8 0 0-5.6 1.7-13.9 1.4-4.8-0.2-8.4-1.4-10.6-2.4-1.7-0.7-2.6-1.4-2.6-1.4 0 0-0.9-8-1.2-14.1-0.3-6.2-0.4-12.1-0.4-12.1q0-0.1-0.1-0.4c-1.5-4.7-10.3-26.5-10.3-26.5 0 0 0.9-0.6 2.2-1.5 2.3-1.5 5.9-3.8 7.9-5.1 0.6-0.4 1.1-0.7 1.3-0.9l11.5 23.7c8.5 0.3 16.2 2.1 16.2 2.1 0 0 1-0.9 5.1-6.9 4.1-6 10.4-16.8 10.4-16.8q0.1 0.1 0.2 0.2c2.4 2.3 6.5 4.5 8.5 5.5 0.6 0.4 1 0.5 1 0.5z"></path><path class="d" d="m87.1 132c0 0-0.6-3.3-0.7-5-0.2-2.4 2.1-4.3 2.8-5 0.8-0.6 3.3-1.7 6.3-1.3 2.9 0.4 3.8 3.2 4.4 4.6 0.5 1.1 1 3.2 1 4.6-0.3 0.5-0.4 1.4-0.4 1.4 0 0-1-4.5-2.4-5.6-0.6-0.4-2.7-0.9-4.5-0.6-1.8 0.2-3.2 1.1-3.7 1.7-0.7 0.9-1.4 2.2-1.3 3.7 0 1.5 0 3.4 0 3.4 0.1-0.1-0.6-1.6-1.5-1.9z"></path><path class="g" d="m102.4 131.8c-0.2 1.1-1.9 2.4-1.9 2.4 0.2 5.7-2.8 8-5.3 8.1 0 0.4-0.2 1-0.3 1.6-0.1 0.6-0.2 1.3-0.3 1.8-0.1 1.2-0.5 2.8-1.8 2.8-1.4 0.1-2.4-0.9-2.6-1.9-0.1-0.4-0.2-1.6-0.3-2.9-0.1-2-0.2-4.4-0.2-5.9-3.5-0.1-4.6-5.2-3.4-5.7q0.4-0.2 0.8-0.1c0.9 0.3 1.6 1.8 1.5 1.9 0 0 0-1.9 0-3.4-0.1-1.5 0.6-2.8 1.3-3.7 0.5-0.6 1.9-1.5 3.7-1.7 1.8-0.3 3.9 0.2 4.5 0.6 1.4 1.1 2.4 5.6 2.4 5.6 0 0 0.1-0.9 0.4-1.4q0.2-0.3 0.4-0.4c0.6-0.2 1.3 1.1 1.1 2.3z"></path><path class="h" d="m94 130.7q0 0-0.1 0c-1.3-0.6-2.5 0.3-2.5 0.3-0.1 0.1-0.2 0.1-0.3 0-0.1-0.1 0-0.2 0-0.3 0.1-0.1 1.4-1 3-0.4 0.1 0 0.1 0.1 0.1 0.2q-0.1 0.2-0.2 0.2z"></path><path class="h" d="m96.6 130.5q-0.1 0-0.1 0c-0.1-0.1-0.1-0.2-0.1-0.3 0.1 0 1.6-1.8 3.3-0.8 0.1 0.1 0.1 0.2 0 0.3 0 0.1-0.1 0.1-0.2 0-1.4-0.8-2.7 0.7-2.7 0.8q-0.1 0-0.2 0z"></path><path class="i" d="m88.7 135.9q-0.2 0-0.2-0.1c0 0-0.3-0.6-1.5-1.5-0.1-0.1-0.1-0.2-0.1-0.3 0.1-0.1 0.2-0.1 0.3 0 1.3 1 1.6 1.6 1.6 1.6 0.1 0.1 0 0.2-0.1 0.3q0 0 0 0z"></path><path class="h" d="m93.4 133.5c-0.3 0-0.5-0.2-0.5-0.6 0-0.3 0.2-0.5 0.5-0.5 0.2 0 0.4 0.2 0.4 0.5 0 0.4-0.2 0.6-0.4 0.6z"></path><path class="h" d="m98.4 133c-0.2 0-0.4-0.3-0.4-0.6 0-0.3 0.2-0.6 0.4-0.6 0.3 0 0.5 0.3 0.5 0.6 0 0.3-0.2 0.6-0.5 0.6z"></path><path class="i" d="m100.9 133q0 0 0 0c-0.1 0-0.2-0.1-0.2-0.2 0 0 0-0.9 0.5-1.7 0.1-0.1 0.2-0.1 0.3-0.1 0.1 0.1 0.1 0.2 0.1 0.3-0.5 0.7-0.5 1.5-0.5 1.5 0 0.1-0.1 0.2-0.2 0.2z"></path><path class="j" d="m95.4 134.6c0.3 0 0.5 0.1 0.8 0.2q0.1 0.5 0.1 0.9-0.6-0.2-1.1-0.4 0.1-0.4 0.2-0.7zm0.6-1.6q0-0.1 0.1-0.3 0.1 1 0.1 2.1c-0.3-0.1-0.5-0.2-0.8-0.2q0.3-0.8 0.6-1.6zm0.2 1.8c0.3 0.1 0.5 0.1 0.8 0.2q0.2 0.6 0.4 1.2-0.5-0.2-1.1-0.5 0-0.4-0.1-0.9zm-0.1-2.1q0-0.1 0.1-0.3 0.4 1.3 0.8 2.6c-0.3-0.1-0.5-0.1-0.8-0.2q0-1.1-0.1-2.1z"></path><path class="k" d="m95.2 142.3q-0.1 0.5-0.2 1-0.7-0.2-1.4-0.5 0-0.5 0.1-0.9c0.5 0.2 1 0.4 1.5 0.4zm-1.5-0.4q-0.1 0.4-0.1 0.9c-0.7-0.3-1.3-0.6-1.8-0.9-0.2-0.9-0.1-1.8-0.1-1.8 0 0 0.8 1.2 2 1.8zm1.3 1.4q-0.1 0.9-0.3 1.8c0 0-0.6-0.3-1.3-0.8 0.1-0.5 0.1-1 0.2-1.5q0.7 0.3 1.4 0.5zm-1.4-0.5c-0.1 0.5-0.1 1-0.2 1.5-0.3-0.3-0.7-0.6-1-1q-0.1-0.1-0.1-0.3c-0.2-0.3-0.4-0.7-0.5-1.1 0.5 0.3 1.1 0.6 1.8 0.9z"></path><path class="l" d="m90.2 136.4c0.4 0 1.3-0.1 1.7-0.2 0.1 0.7 0.2 1.4 0.2 1.7-0.4 0-0.9-0.1-1.2-0.3-0.4-0.3-0.6-0.7-0.7-1.2zm0.3-1.2c0.3-0.4 0.7-0.6 1.2-0.7 0 0.4 0.1 1 0.2 1.7-0.4 0.1-1.3 0.2-1.7 0.2 0-0.4 0.1-0.8 0.3-1.2zm1.4 1c0.4 0 1.3-0.2 1.7-0.2 0 0.4-0.1 0.9-0.4 1.2-0.2 0.4-0.6 0.6-1.1 0.7 0-0.3-0.1-1-0.2-1.7zm-0.2-1.7c0.4 0 0.8 0.1 1.2 0.4 0.4 0.2 0.6 0.7 0.7 1.1-0.4 0-1.3 0.2-1.7 0.2-0.1-0.7-0.2-1.3-0.2-1.7z"></path><path class="m" d="m98.1 135.6c0.3 0 1 0.1 1.3 0.2-0.1 0.6-0.2 1.2-0.3 1.5-0.2 0-0.5-0.2-0.7-0.5-0.2-0.3-0.3-0.8-0.3-1.2zm0.6-1.2c0.3-0.2 0.6-0.3 0.9-0.2-0.1 0.3-0.2 0.9-0.2 1.6-0.3-0.1-1-0.2-1.3-0.2 0.1-0.5 0.3-0.9 0.6-1.2zm0.7 1.4c0.2 0 0.9 0.1 1.1 0.1 0 0.5-0.2 0.9-0.6 1.2q-0.3 0.3-0.8 0.2c0.1-0.3 0.2-0.9 0.3-1.5zm0.2-1.6q0.4 0 0.7 0.4c0.2 0.4 0.3 0.9 0.2 1.3-0.2 0-0.9-0.1-1.1-0.1 0-0.7 0.1-1.3 0.2-1.6z"></path><path class="n" d="m93.9 137.6l3.8 0.4c0 0-0.3 1.3-1.9 1.7-1.6 0.4-1.9-2.1-1.9-2.1z"></path><path class="o" d="m365 233.1l-108.2-14.2 6.1-46.4 108.2 14.3z"></path><path class="p" d="m303.5 189.2c3.5-2.6 8-4 12.7-3.4q-2.3 17-4.5 34c-4.7-0.7-8.7-3.1-11.3-6.6-2.7-3.5-4-7.9-3.4-12.6 0.6-4.7 3.1-8.7 6.5-11.4zm12.7-3.4c4.4 0.6 8.6 3 11.3 6.6 2.7 3.5 4 8 3.4 12.6-0.6 4.7-3.1 8.7-6.5 11.4-3.5 2.6-8 4-12.7 3.4q0 0 0 0 2.2-17 4.5-34z"></path><path fill-rule="evenodd" class="q" d="m369 187.6l-0.5 4.1-4.7 36-0.6 4-6.7-0.9-91-11.9-6.6-0.9 0.5-4.1 4.7-36 0.6-4 6.6 0.9 91 11.9zm-7.4 38.2l4.4-32.8q-0.5 0.1-1 0c-2-0.3-3.4-2-3.4-3.9l-90.1-11.9c-0.5 1.9-2.3 3.2-4.3 2.9q-0.5 0-0.9-0.2l-4.3 32.7q0.4 0 0.9 0c2 0.3 3.4 2 3.4 4l90.1 11.8c0.5-1.9 2.3-3.1 4.3-2.9q0.5 0.1 0.9 0.3z"></path><path class="q" d="m281.1 198.5c-0.2 1.8-1.8 3-3.6 2.8-1.8-0.3-3-1.9-2.8-3.7 0.2-1.7 1.9-3 3.6-2.8 1.8 0.3 3.1 1.9 2.8 3.7z"></path><path class="q" d="m353.2 208c-0.3 1.7-1.9 3-3.7 2.8-1.7-0.3-3-1.9-2.7-3.7 0.2-1.8 1.8-3 3.6-2.8 1.8 0.3 3 1.9 2.8 3.7z"></path><path class="o" d="m319.2 207.7q-0.2 1.2-0.7 2-0.6 0.9-1.4 1.5-0.9 0.5-2.1 0.7-0.7 0.1-1.5 0.1l-0.3 1.9-1.4-0.2 0.2-1.9q-0.6-0.1-1.2-0.2-0.8-0.3-1.5-0.6-0.6-0.3-1.1-0.6-0.5-0.3-0.8-0.5c-0.2-0.2-0.3-0.4-0.2-0.6l0.5-3.7c0.1-0.2 0.3-0.4 0.5-0.4l1.7 0.3c0.3 0 0.4 0.2 0.4 0.5l-0.3 2.3q0.5 0.3 1.2 0.6c1 0.4 2 0.6 3 0.5q0.6-0.1 1-0.3 0.5-0.2 0.8-0.6 0.3-0.4 0.3-1 0.1-0.7-0.3-1.3-0.5-0.6-1.3-1.2-0.9-0.6-2-1.1-1-0.6-2-1.4-0.9-0.8-1.5-1.8-0.5-1.1-0.3-2.6 0.1-1 0.6-1.8 0.6-0.8 1.4-1.3 0.9-0.5 2-0.7 0.7-0.1 1.4 0l0.3-2.5 1.5 0.1-0.3 2.5q1.1 0.2 2 0.5 1.1 0.3 1.8 0.7 0 0 0.1 0.1 0.1 0.1 0.2 0.2 0 0.2 0 0.4l-0.5 3.6c0 0.3-0.3 0.4-0.5 0.4l-1.7-0.2c-0.3-0.1-0.4-0.3-0.4-0.5l0.3-2.2q-0.4-0.1-0.9-0.2c-0.8-0.2-1.9-0.4-2.7-0.3q-0.5 0.1-1 0.3-0.3 0.2-0.6 0.5-0.2 0.3-0.2 0.7-0.1 0.7 0.3 1.2 0.5 0.7 1.4 1.2 0.8 0.6 1.9 1.2 1.1 0.7 2 1.4 0.9 0.8 1.5 1.8 0.6 1.1 0.4 2.5z"></path><path class="r" d="m309.7 225.8c0 0 0-3.8 0-8.7 1.2 0.2 2.5-2.4 3.7-2.3q0.1 5.8 0.3 11.5-2-0.2-4-0.5zm4 0.5q-0.2-5.7-0.3-11.5c2.4 0.4 4.9 0.8 7.5 1.1q0.5 5.7 0.7 11.5-4-0.5-7.9-1.1zm7.9 1.1q-0.2-5.8-0.7-11.5 2 0.3 4 0.6c0.4 3.8 0.7 7.6 0.8 11.4q-2.1-0.2-4.1-0.5zm4.1 0.5c-0.1-3.8-0.4-7.6-0.8-11.4q2.2 0.3 4.5 0.6c0.5 3.8 0.8 7.6 1 11.4q-2.4-0.3-4.7-0.6zm4.7 0.6c-0.2-3.8-0.5-7.6-1-11.4 3.9 0.5 7.9 1 11.5 1.6 0.8 3.8 1.3 7.6 1.4 11.4q-6-0.8-11.9-1.6zm11.9 1.6c-0.1-3.8-0.6-7.6-1.4-11.4 1.2 0.2 2.6 3.2 3.8 3.4 0.9 4.8 1.5 8.5 1.5 8.5q-2-0.2-3.9-0.5zm-32.6-13c0-3 0-6.4 0-9.6 1.1 0.2 2.3 0.1 3.4 0.3q0.2 3.5 0.3 7c-1.2-0.1-2.5 2.5-3.7 2.3zm3.7-2.3q-0.1-3.5-0.3-7 3.5 0.6 7.2 1.1 0.3 3.5 0.6 7c-2.6-0.3-5.1-0.7-7.5-1.1zm7.5 1.1q-0.3-3.5-0.6-7 1.9 0.3 3.8 0.6 0.4 3.5 0.8 7-2-0.3-4-0.6zm4 0.6q-0.4-3.5-0.8-7 2.1 0.3 4.3 0.6c0.4 2.3 0.7 4.7 1 7q-2.3-0.3-4.5-0.6zm4.5 0.6c-0.3-2.3-0.6-4.7-1-7 3.7 0.5 7.4 1.1 10.9 1.6q0.9 3.5 1.6 7c-3.6-0.6-7.6-1.1-11.5-1.6zm11.5 1.6q-0.7-3.5-1.6-7c1.1 0.2 2.3 0.9 3.5 1 0.7 3.1 1.4 6.5 1.9 9.4-1.2-0.2-2.6-3.2-3.8-3.4zm-31.2-11.2c0-4.5 0-8.5 0-10.3 0-3-0.4-8.8-0.7-13.1q1.5 0.3 2.9 0.7c0.6 7.6 1 15.3 1.2 23-1.1-0.2-2.3-0.1-3.4-0.3zm3.4 0.3c-0.2-7.7-0.6-15.4-1.2-23q2.9 0.6 5.7 1.3 1.5 11.3 2.7 22.8-3.7-0.5-7.2-1.1zm7.2 1.1q-1.2-11.5-2.7-22.8 1.5 0.3 3 0.7c1.2 7.5 2.6 15 3.5 22.7q-1.9-0.3-3.8-0.6zm3.8 0.6c-0.9-7.7-2.3-15.2-3.5-22.7q1.7 0.3 3.4 0.7c1.3 7.5 3.3 15 4.4 22.6q-2.2-0.3-4.3-0.6zm4.3 0.6c-1.1-7.6-3.1-15.1-4.4-22.6q4.3 1 8.7 2c2 7.3 4.6 14.7 6.6 22.2-3.5-0.5-7.2-1.1-10.9-1.6zm10.9 1.6c-2-7.5-4.6-14.9-6.6-22.2q1.4 0.4 2.8 0.7c0.1 0.2 4.7 12.2 6.8 20.6q0.2 0.9 0.5 1.9c-1.2-0.1-2.4-0.8-3.5-1zm-30.3-27.6c-0.2-3.2-0.4-5.6-0.4-5.6q1.4 0.2 2.9 0.4c0.1 1.9 0.2 3.9 0.4 5.9q-1.4-0.4-2.9-0.7zm2.9 0.7c-0.2-2-0.3-4-0.4-5.9q2.8 0.4 5.7 0.8c0.1 2 0.1 4.3 0.4 6.4q-2.8-0.7-5.7-1.3zm5.7 1.3c-0.3-2.1-0.3-4.4-0.4-6.4q1.5 0.1 3 0.3c0.1 2.2 0.1 4.7 0.4 6.8q-1.5-0.4-3-0.7zm3 0.7c-0.3-2.1-0.3-4.6-0.4-6.8q1.7 0.3 3.4 0.5c0.1 2.1 0 4.9 0.4 7q-1.7-0.4-3.4-0.7zm3.4 0.7c-0.4-2.1-0.3-4.9-0.4-7q4.3 0.6 8.6 1.1c0.2 2.4-0.2 5.7 0.5 7.9q-4.4-1-8.7-2zm8.7 2c-0.7-2.2-0.3-5.5-0.5-7.9q1.5 0.2 2.9 0.4 0.2 4.1 0.4 8.2 0 0 0 0-1.4-0.3-2.8-0.7z"></path><path class="s" d="m338.4 197.9c1.1-0.6 2.2-1.4 3.4-2.2 0 0.9 0.3 2.1 0.4 3q-1.2 0.9-2.4 1.6-0.7-1.2-1.4-2.4zm3.7-6.8c0.7-1 1.5-2.4 2.5-3.4-0.9 2.1-3 5.7-2.8 8-1.2 0.8-2.3 1.6-3.4 2.2q-0.1-0.1-0.1-0.2c0 0 1.8-3.2 3.8-6.6zm2.3-3.9c0.9-1.6 1.7-2.9 2.1-3.4-0.4 0.9-1.4 2.6-1.9 3.9-1 1-1.8 2.4-2.5 3.4 0.7-1.3 1.6-2.7 2.3-3.9zm-2.6 8.5c1-0.6 2.1-1.1 3.2-1.6q-0.4 1.5-0.7 3-1 0.9-2.1 1.6c-0.1-0.9-0.4-2.1-0.4-3zm2.8-8c0.9-0.9 1.9-1.6 3.3-1.5-0.9 2.7-2.1 5.3-2.9 7.9-1.1 0.5-2.2 1-3.2 1.6-0.2-2.3 1.9-5.9 2.8-8zm1.9-3.9q0.2-0.3 0.2-0.3c0.2 0 1.1 0.2 2.1 0.3-0.2 0.5-0.5 1.4-0.9 2.4-1.4-0.1-2.4 0.6-3.3 1.5 0.5-1.3 1.5-3 1.9-3.9zm-1.5 10.3c0.8-0.4 2.4-0.9 2.9-1.5-0.6 1-1.2 1.9-1.8 2.6q-0.8 0.9-1.8 1.9 0.3-1.5 0.7-3zm2.9-7.9c1.4 0.1 3.5-0.8 3.7-0.9-0.7 1.6-2.1 4.7-3.7 7.3-0.5 0.6-2.1 1.1-2.9 1.5 0.8-2.6 2-5.2 2.9-7.9zm0.9-2.4c1.5 0.2 3.2 0.4 3.2 0.4 0 0-0.2 0.4-0.4 1.1-0.2 0.1-2.3 1-3.7 0.9 0.4-1 0.7-1.9 0.9-2.4z"></path><path class="o" d="m160.4 93.1l-130.5 4.4-1.9-55.9 130.5-4.4z"></path><path class="t" d="m79.2 53.4c3.6-3.8 8.6-6.3 14.3-6.5q0.7 20.4 1.3 40.9c-5.6 0.2-10.8-1.9-14.6-5.5-3.8-3.6-6.3-8.6-6.5-14.3-0.2-5.6 2-10.8 5.5-14.6zm14.3-6.5c5.4-0.2 10.7 1.8 14.6 5.5 3.9 3.6 6.3 8.6 6.5 14.2 0.2 5.7-1.9 10.9-5.5 14.7-3.5 3.8-8.6 6.3-14.2 6.5q0 0-0.1 0-0.6-20.5-1.3-40.9z"></path><path fill-rule="evenodd" class="q" d="m156.2 38.6l0.1 4.9 1.5 43.4 0.2 4.9-8.1 0.2-109.6 3.8-8.1 0.2-0.2-4.8-1.4-43.4-0.2-4.9 8.1-0.3 109.6-3.7zm-1.2 46.4l-1.4-39.5q-0.5 0.2-1.1 0.2c-2.4 0.1-4.4-1.6-4.8-4l-108.6 3.7c-0.2 2.4-2.1 4.2-4.5 4.3q-0.6 0-1.1-0.1l1.3 39.5q0.6-0.2 1.1-0.2c2.4-0.1 4.5 1.7 4.8 4l108.6-3.7c0.2-2.3 2.1-4.2 4.6-4.3q0.5 0 1.1 0.1z"></path><path class="q" d="m50.8 72.7c-2.2 0-3.9-1.7-3.9-3.9 0-2.1 1.7-3.9 3.9-3.9 2.1 0 3.9 1.8 3.9 3.9 0 2.2-1.8 3.9-3.9 3.9z"></path><path class="q" d="m137.6 69.7c-2.1 0-3.9-1.7-3.9-3.8 0-2.2 1.8-3.9 3.9-3.9 2.1 0 3.9 1.7 3.9 3.9 0 2.1-1.8 3.8-3.9 3.8z"></path><path class="o" d="m101.3 72.1q0.1 1.4-0.4 2.5-0.5 1.1-1.4 2-0.9 0.8-2.2 1.3-0.9 0.3-1.9 0.4l0.1 2.2-1.8 0.1v-2.2q-0.8 0-1.5-0.1-1-0.2-1.8-0.4-0.9-0.2-1.5-0.5-0.7-0.3-1.1-0.4c-0.2-0.2-0.3-0.4-0.2-0.7l-0.2-4.4c0-0.3 0.2-0.5 0.5-0.6h2.1c0.3 0 0.5 0.2 0.5 0.5l0.1 2.8q0.7 0.3 1.5 0.5c1.3 0.3 2.6 0.2 3.6-0.1q0.7-0.1 1.2-0.5 0.5-0.4 0.8-0.9 0.3-0.5 0.2-1.2 0-0.9-0.6-1.4-0.7-0.7-1.8-1.2-1.2-0.5-2.5-1-1.4-0.5-2.6-1.2-1.3-0.7-2.2-1.8-0.9-1.2-0.9-3-0.1-1.2 0.4-2.3 0.5-1 1.4-1.8 0.9-0.7 2.2-1.1 0.7-0.3 1.6-0.4l-0.1-3 1.8-0.1 0.1 3q1.3 0 2.5 0.1 1.3 0.2 2.2 0.6 0.1 0 0.2 0 0.2 0.1 0.2 0.3 0.2 0.2 0.1 0.4l0.1 4.4c0.1 0.3-0.2 0.5-0.5 0.5l-2 0.1c-0.3 0-0.6-0.2-0.6-0.5l-0.1-2.6q-0.5-0.1-1.1-0.1c-1-0.1-2.3-0.1-3.2 0.2q-0.6 0.2-1.1 0.5-0.4 0.3-0.6 0.8-0.2 0.3-0.2 0.8 0.1 0.8 0.7 1.4 0.7 0.6 1.8 1.1 1.2 0.6 2.5 1.1 1.4 0.5 2.6 1.2 1.3 0.8 2.1 1.9 1 1.1 1 2.8z"></path><path class="g" d="m69.9 118c0.3 1 0.6 2 0.9 2.7-2 1.3-5.6 3.6-7.9 5.1-0.4-0.8-0.9-1.8-1.2-3.1-0.8-2.6-1.3-5.9-1.1-9.1 0.4-5.1 1.3-13.1 1.6-13.6 0.3-0.6-3.6-3.5-3.6-3.5 3.7 0 9.7-0.4 9.7-0.4 0 0 2.7-1.4 3.2-0.6 0.4 0.7-1.9 2.3-3.2 3.4-1.3 1.1-1.5 1.7-1.1 5.7 0.2 2.9 1.6 9.2 2.7 13.4z"></path><path class="g" d="m134.6 96.2q0 0 0 0 0 0.5-0.2 1.1c-0.3 1-0.7 2-1.2 3-1.4 2.5-2.8 3.5-3.8 4.2 0 0-0.7 5.7-1.6 10-0.6 2.5-1.9 7.1-2.9 10.2-0.4 1.3-0.7 2.3-0.9 2.9-2-1-6.1-3.2-8.5-5.5q0.4-0.6 0.8-1.6c1.8-3.7 4.9-11.1 5.8-13.8 1.1-3.4 2.4-6.2 2.4-6.2 0 0-1.1-5.1-0.6-5.4 0.4-0.2 1.9 3.7 2.4 3.7 0.5 0 2.8-2.4 4.5-3.7q1.2-0.9 2.1-1 0.3-0.1 0.5-0.1 0.3 0 0.6 0.1 0.2 0.1 0.3 0.2 0.1 0 0.2 0.1c0.2 0.3 0.3 1 0.1 1.8z"></path><path class="d" d="m315.9 277.5l-0.9 5.3h-13.2l9.1-5q0 0.4 0 0.4c0 0 1.9 1.3 5-0.7z"></path><path class="d" d="m342.3 282.8v-6q0.3 0.5 0.3 0.5c0.1 0.1 2.5 0.6 4.6-0.7l9.5 6.2z"></path><path class="u" d="m347.2 276.6c-2.1 1.3-4.5 0.8-4.6 0.7q0 0-0.3-0.5c-1.2-2.5-6-13.2-7.6-20.8-1.9-8.6-0.9-16.1-0.9-16.1l-10.5-32.1-3.5 31.9c0 0 1.5 5.3 0.8 13.9-0.6 8.6-4.7 23.9-4.7 23.9-3.1 2-5 0.7-5 0.7q0 0 0-0.4c-0.3-4.1-3.4-39.4-3.2-52.4 0.2-13.9 2.5-30.3 5-34.7 0 0 4.6 2.5 10.5 2.6 6 0.2 9.7-2.5 9.7-2.5 5.2 5.3 10 33.5 10.7 42 0.8 8.4 3.6 43.8 3.6 43.8z"></path><path class="v" d="m351.1 179.4c0 0.6-1 5.4-3.4 9.1-2.4 3.8-7.2 10-7.2 10-1.4-0.6-2.7-3-2.8-3.2 0-0.2 4.1-13.6 3.9-14.2-0.1-0.6-4.8-7.4-4.8-7.4 0 3-2.8 5.3-2.8 5.3 0 0-0.3 3-0.5 4.3-0.1 1.3-0.6 7.5-0.6 7.5 0 0-3.7 2.7-9.7 2.5-5.9-0.1-10.5-2.6-10.5-2.6 0 0-0.1-4.1-0.3-7.3-0.2-3.3-1-8.1-1.2-8.4-0.2-0.3-1.7 3.6-1.7 3.6l-8.3-1c0 0 6.2-15.8 8-17.9 1.8-2.1 5.1-3.9 7.2-4.4 0 0 1.4 3.8 5.2 4.3 3.2 0.4 5.8-0.5 7.3-1.7-0.7-0.5-1.2-1-1.6-1.4q0 0 0 0l0.5 0.1c0 0 4.6 0.1 6.9 0.9 2.3 0.8 3.7 1.7 6.5 5.6 2.8 3.8 9.9 15.7 9.9 16.3z"></path><path class="g" d="m330.5 146.1c-1.3 0.9-2.6 0.7-2.6 0.7 0 0-1.6 8.7-0.6 9.7q0 0 0 0c0.4 0.4 0.9 0.9 1.6 1.4-1.5 1.2-4.1 2.1-7.3 1.7-3.8-0.5-5.2-4.3-5.2-4.3 1.3-0.6 4.5-1.5 4.5-1.5v-3.3c-1.9 0.1-3.7-1.6-4-4.8q-0.1-0.2-0.1-0.4 0-0.9 0.1-1.9c0.1-3 1.1-6.2 1.8-7.5 0 0 1.7 0.3 3.3 0.1 1.7-0.2 3.3-1.4 3.3-1.4 0 0 0.2 2.3 1.2 4.3 1 2 3.4 4.1 3.4 4.1 0 0 1.6-1.3 2.2-0.4 0.6 0.9-0.2 2.6-1.6 3.5z"></path><path class="d" d="m336.2 153.8c0.8 1.2 1.9 4.1-1.7 5.1-2.4 0.6-4.3-0.1-5.6-1-0.7-0.5-1.3-1-1.6-1.4-1.8-2.2 0.6-9.7 0.6-9.7 0 0 1.3 0.2 2.6-0.7 1.4-0.9 2.2-2.6 1.6-3.5-0.6-0.9-2.2 0.4-2.2 0.4 0 0-2.4-2.1-3.4-4.1-1-2-1.2-4.3-1.2-4.3 0 0-1.6 1.2-3.3 1.4-1.6 0.2-3.3-0.1-3.3-0.1 0.2-0.8 1.1-3.3 3.8-4 2.8-0.8 5.2-0.3 6.5 0.4 0 0 0.9-1.6 3.5-0.8 2.5 0.8 5.3 4.4 5.5 8.2 0.2 3.9-1.4 5.1-2.1 8.2-0.7 3.1-0.6 4.8 0.3 5.9z"></path><path class="g" d="m341.8 205c-0.2 0.5-0.9 1.5-1.5 2.1q-0.3 0.2-0.5 0.4c-0.3 0.1-0.5 0.1-0.6-0.1q-0.1-0.2-0.2-0.6-0.2-0.3-0.3-0.7c-0.4-1.1-0.9-2.6-1-4.3-0.1-2.7 0-3.5-0.5-4.3-0.5-0.7-2.4-2.9-2.1-3.2 0.2-0.4 2.6 1 2.6 1 0 0 3.1 2.8 4.1 4.8 1 1.9 0.3 4 0 4.9z"></path><path class="i" d="m329 145q0 0-0.1-0.1c-0.1-0.1-0.1-0.2 0-0.2 0.1-0.1 1-0.8 1.8-0.9 0.1 0 0.2 0.1 0.2 0.2 0 0.1 0 0.2-0.1 0.2-0.7 0.1-1.6 0.7-1.6 0.8q-0.1 0-0.2 0z"></path><path class="d" d="m320.9 140.5q-0.1 0-0.2-0.1c-0.3-1.3-2-1.3-2-1.3-0.1 0-0.2-0.1-0.2-0.2 0-0.1 0.1-0.2 0.2-0.2 0.1 0 2 0 2.4 1.6 0 0.1-0.1 0.2-0.2 0.2q0 0 0 0z"></path><path class="d" d="m326.7 141.7q-0.1 0-0.2-0.1c-0.9-1-2.9-0.6-2.9-0.5-0.1 0-0.2-0.1-0.2-0.2 0-0.1 0-0.2 0.1-0.2 0.1 0 2.2-0.6 3.3 0.7 0.1 0.1 0.1 0.2 0 0.3q-0.1 0-0.1 0z"></path><path class="w" d="m319.5 143.4c0.2 0 0.4-0.1 0.7-0.1q-0.1 0.3-0.2 0.7-0.5 0-0.9 0 0.2-0.3 0.4-0.6zm0.7-1.2q0.1-0.2 0.2-0.4-0.1 0.8-0.2 1.5c-0.3 0-0.5 0.1-0.7 0.1q0.3-0.6 0.7-1.2zm0 1.1c0.2-0.1 0.4-0.1 0.6-0.1q0.1 0.4 0.1 0.8-0.4 0-0.9 0 0.1-0.4 0.2-0.7zm0.2-1.5q0.1-0.1 0.2-0.3 0.1 0.8 0.2 1.7c-0.2 0-0.4 0-0.6 0.1q0.1-0.7 0.2-1.5z"></path><path class="d" d="m326.2 179.7q-0.1 0-0.1-0.1c-2-1.1-5.6-1.8-6.9-2-0.4-0.1-0.5-0.1-0.6-0.1-0.1 0-0.1-0.1-0.1-0.2 0.1-0.1 0.2-0.2 0.3-0.2 0 0.1 0.2 0.1 0.5 0.1 1.3 0.3 4.9 0.9 7 2.1 0.1 0.1 0.1 0.2 0.1 0.3q-0.1 0.1-0.2 0.1z"></path><path class="d" d="m331.5 179.7c-0.1 0-0.2-0.1-0.2-0.2 0-0.1 0.1-0.2 0.2-0.2h0.2c1.2-0.2 2.5-0.3 3.8-2.3 1.5-2.2 1.1-3.5 1.1-3.6 0 0-1-3.8-1.3-5.2 0-0.1 0.1-0.2 0.2-0.2 0.1 0 0.2 0.1 0.2 0.2 0.3 1.3 1.3 5.1 1.3 5.1 0 0.1 0.4 1.6-1.1 3.9-1.5 2.2-2.9 2.3-4.1 2.4l-0.3 0.1q0 0 0 0z"></path><path class="d" d="m341.6 181.8q0 0-0.1 0c-0.1 0-0.1-0.1-0.1-0.2 0.5-1.9 1-2.5 1-2.5 0.1-0.1 0.2-0.1 0.3 0 0.1 0 0.1 0.1 0 0.2 0 0-0.5 0.6-0.9 2.3q-0.1 0.2-0.2 0.2z"></path><path class="i" d="m339 206.8q-0.2-0.3-0.3-0.7c0.1-1.4 0.2-3.4 0.1-4.8 0-0.1 0.1-0.2 0.2-0.2 0.1 0 0.2 0.1 0.2 0.2 0.1 1.7-0.1 4.1-0.2 5.5z"></path><path class="i" d="m341 202c-0.1 1.8-0.4 3.7-0.7 5.1q-0.3 0.2-0.5 0.4c0.3-1.2 0.7-3.3 0.8-5.5 0-0.1 0.1-0.2 0.2-0.2 0.1 0 0.2 0.1 0.2 0.2z"></path><path class="d" d="m315 241c-0.6 0-1.6-0.3-2.6-1.8-0.1-0.1-0.1-0.2 0-0.3 0.1 0 0.2 0 0.3 0.1 1.2 1.7 2.2 1.7 2.6 1.6 0.1-0.1 0.2 0 0.3 0.1 0 0.1-0.1 0.2-0.2 0.2q-0.1 0.1-0.4 0.1z"></path><path class="d" d="m340.2 241.1c-0.9 0-1.5-0.5-1.5-0.5 0-0.1 0-0.2 0-0.3 0.1-0.1 0.2 0 0.3 0 0 0 1 1 2.7 0 0.1-0.1 0.2 0 0.3 0.1 0 0.1 0 0.2-0.1 0.2-0.6 0.4-1.2 0.5-1.7 0.5z"></path><path class="d" d="m68.4 234.3c-1.3 0-1.9-0.6-2.2-0.8q0-0.1-0.1-0.1c-0.1-0.1-0.1-0.2 0-0.3 0-0.1 0.1-0.1 0.2-0.1q0.1 0.1 0.2 0.2c0.4 0.4 1.4 1.3 4.3 0.2 0.1 0 0.2 0 0.3 0.1 0 0.1 0 0.2-0.1 0.3-1.1 0.4-1.9 0.5-2.6 0.5z"></path><path class="d" d="m102.6 236.3q-0.7 0-1.2-0.3c-0.6-0.3-0.8-0.9-0.8-0.9 0-0.1 0-0.2 0.1-0.2 0.1 0 0.3 0 0.3 0.1 0 0 0.1 0.5 0.6 0.7 0.5 0.3 1.4 0.4 3.2-0.3 0.1 0 0.2 0 0.2 0.1 0.1 0.1 0 0.2-0.1 0.2q-1.3 0.6-2.3 0.6z"></path><path class="i" d="m133.4 94c-1.6 2-3.6 4.2-3.6 4.3q-0.1 0-0.2 0 0 0-0.1 0c-0.1-0.1-0.1-0.2 0-0.3 0 0 1.9-2.1 3.4-3.9q0.3-0.1 0.5-0.1z"></path><path class="i" d="m134.3 94.3c-0.8 1.3-2.3 3.7-3 4.6q0 0-0.1 0-0.1 0-0.1 0c-0.1-0.1-0.1-0.2-0.1-0.3 0.7-0.8 2.2-3.2 3-4.5q0.2 0.1 0.3 0.2z"></path><path class="i" d="m134.6 96.2q0 0.5-0.2 1.1c-0.9 1.3-1.7 2.3-2.3 3l-0.1 0.1q-0.1 0.1-0.2 0.1 0 0-0.1 0c-0.1-0.1-0.1-0.2 0-0.3l0.2-0.2c0.7-0.8 1.7-2.1 2.7-3.8z"></path><path class="x" d="m193.5 198.5h-0.4c-1-4.9-3.7-18.7-5.8-26.1-2.4-9-6.1-15.7-6.2-15.8 0-0.1 0-0.2 0.1-0.2 0.1-0.1 0.2-0.1 0.3 0 0 0.1 3.7 6.9 6.2 15.9 2 7.4 4.8 21.3 5.8 26.2z"></path><path class="x" d="m231.4 156.6c-2.3 4.8-10.3 28.4-12.7 41.9h-0.4c2.4-13.6 10.4-37.2 12.7-42 0.1-0.1 0.2-0.2 0.3-0.1 0.1 0 0.1 0.1 0.1 0.2z"></path><path class="x" d="m243.1 156.7q-0.1 0-0.1 0c-0.1 0-0.1-0.1-0.1-0.2 0-0.1 2.1-7 1.2-11.4q-0.4-1.9-1.3-2.1c-1.1-0.2-2.9 1.6-4.1 3.4-1.8 2.6-5 7-6.8 7.1q-0.5 0.1-0.8-0.3c-0.6-0.7-1.6-3.6-2.6-7-1.2-3.5-2.9-8.8-3.6-8.9q0 0-0.1 0.1c-0.4 0.8-1.3 3.1-2.3 5.6-2.6 6.4-3.8 9.1-4.3 9.2q-0.1 0-0.2 0c-0.2-0.2-0.3-0.7-1-2.8-1.7-6-5.9-20.1-11.5-20.2q0 0 0 0c-4.4 0-6.8 8.8-8.6 15.2-1.1 4.1-2 7.4-3.2 7.8q-0.4 0.1-0.8-0.1c-1.4-0.7-2.7-4.5-4-8.1-0.9-2.8-2.1-6.3-2.8-6.2-1.4 0.2-4.4 9.3-6 15.3q0 0.1-0.2 0.1c-1.3 0.3-3.6-2.3-5.9-5-1.9-2.3-4-4.7-5-4.6-1.2 0.2-1.7 5.2-1.1 12.9h-0.4 0.2-0.2c-0.4-5.8-0.5-12.9 1.4-13.3 1.2-0.2 3.2 2.1 5.4 4.7 2 2.3 4.3 5 5.5 5 0.5-2.1 4.2-15.1 6.2-15.5 1-0.1 1.9 2.4 3.3 6.4 1.2 3.5 2.5 7.4 3.8 8q0.2 0.1 0.5 0c1-0.3 1.9-3.8 3-7.5 1.9-6.9 4.2-15.5 8.9-15.5q0 0 0 0c5.9 0.1 10.1 14.4 11.9 20.5 0.3 1.2 0.6 2.2 0.8 2.5 0.6-0.7 2.6-5.6 3.9-8.9 1.1-2.6 1.9-4.8 2.4-5.7 0.1-0.2 0.3-0.3 0.4-0.3 0.9 0.1 2.1 3.5 3.9 9.2 1 3.1 2 6.2 2.5 6.8q0.3 0.3 0.6 0.3c1.2-0.1 3.5-2.7 6.5-7 0.8-1.2 2.9-3.9 4.5-3.5q1.2 0.2 1.6 2.4c0.9 4.4-1.2 11.2-1.3 11.5q0 0.1-0.1 0.1z"></path><path class="d" d="m77.4 182.7c-2.1 2.8-5.4 5.9-7.5 7.8q0.1-0.3 0.2-0.6c2.1-1.9 5-4.8 6.9-7.4q0.2 0.1 0.4 0.2z"></path><path class="d" d="m101.7 193.6c-2-2.1-5.1-5.8-6.9-9.8q0.2-0.1 0.4-0.1c1.7 3.7 4.4 7.1 6.4 9.2q0.1 0.4 0.1 0.7z"></path><path class="d" d="m87.3 184.2c-0.4 4.3-0.8 7.9-0.8 8 0 0.1 0 0.1-0.1 0.1h-0.1c-0.1 0-0.1-0.1-0.1-0.2 0 0 0.3-3.6 0.7-7.9q0.2 0 0.4 0z"></path><path class="d" d="m323.9 143.4c-0.2 0-0.5-0.2-0.5-0.4 0-0.3 0.3-0.5 0.5-0.5 0.3 0 0.5 0.2 0.5 0.5 0 0.2-0.2 0.4-0.5 0.4z"></path><path class="d" d="m318.9 141.6c-0.3 0-0.5-0.2-0.5-0.5 0-0.2 0.2-0.4 0.5-0.4 0.2 0 0.5 0.2 0.5 0.4 0 0.3-0.3 0.5-0.5 0.5z"></path><path class="u" d="m148.5 186.5q0.2 0.2 0.1 0.4 0 0.3-0.2 0.4l-5.7 4.1q-0.2 0.1-0.3 0.1c-0.2 0-0.4-0.1-0.5-0.3-0.2-0.2-0.1-0.6 0.1-0.8l5.7-4q0.2-0.1 0.5-0.1 0.2 0 0.3 0.2z"></path><path class="u" d="m139.7 148.8c-0.1 0.3-0.3 0.5-0.6 0.5q0 0 0 0l-6.9-0.8q-0.3-0.1-0.4-0.2-0.1-0.2-0.1-0.4c0-0.3 0.3-0.6 0.6-0.5l6.9 0.8c0.3 0 0.5 0.3 0.5 0.6z"></path><path class="u" d="m151.9 105.9q0.2 0.2 0.2 0.4 0.1 0.2-0.1 0.4-0.1 0.2-0.4 0.2-0.2 0-0.4-0.1l-5.6-4.4q-0.2-0.1-0.2-0.3 0-0.3 0.1-0.4 0.2-0.2 0.4-0.3 0.2 0 0.4 0.2z"></path><path class="u" d="m190.7 72.6l1.1 5.8q0.1 0.3-0.1 0.5-0.1 0.2-0.3 0.2c0 0-0.1 0-0.1 0-0.3 0-0.5-0.2-0.6-0.4l-1.1-5.9q0-0.2 0.1-0.4 0.1-0.2 0.3-0.3 0.3 0 0.5 0.1 0.2 0.1 0.2 0.4z"></path><path class="u" d="m247.6 79.9q0 0.3-0.1 0.4l-3.3 5.3c-0.1 0.2-0.3 0.2-0.5 0.2q-0.2 0-0.3 0-0.2-0.2-0.3-0.4 0-0.2 0.1-0.4l3.4-5.3q0.1-0.2 0.3-0.2 0.3-0.1 0.5 0.1 0.2 0.1 0.2 0.3z"></path><path class="u" d="m267.8 122.5c0-0.3 0.3-0.6 0.6-0.6 0.3 0 3.6-0.8 6.6-1.5q0.2-0.1 0.4 0 0.2 0.2 0.3 0.4 0 0.2-0.1 0.4-0.1 0.2-0.3 0.3c-1.9 0.4-6.4 1.5-6.9 1.5-0.3 0-0.6-0.2-0.6-0.5z"></path><path class="u" d="m277 166.3c0 0.3-0.2 0.4-0.5 0.4 0 0-0.1 0-0.2 0l-8.1-2.4q-0.2-0.1-0.3-0.3-0.1-0.2 0-0.4 0-0.2 0.2-0.3 0.2-0.2 0.5-0.1l8.1 2.4q0.2 0.1 0.3 0.3 0.1 0.2 0 0.4z"></path><path class="u" d="m261.6 195.1c0.3 0.1 0.3 0.5 0.1 0.7-0.1 0.2-0.2 0.3-0.4 0.3q-0.2 0-0.3-0.1l-6.8-4.6c-0.2-0.2-0.3-0.6-0.1-0.8 0.2-0.3 0.5-0.3 0.8-0.2z"></path><path class="y" d="m322.3 146.5c0.2 0 0.9 0 1.3 0 0 0.6 0 1.1 0 1.4-0.4 0-0.7-0.2-1-0.4-0.2-0.3-0.3-0.6-0.3-1zm0.3-0.9c0.3-0.3 0.6-0.4 1-0.4 0 0.3 0 0.8 0 1.3-0.4 0-1.1 0-1.3 0 0-0.3 0.1-0.7 0.3-0.9zm1 0.9c0.3 0 1.1 0 1.3 0 0 0.4-0.1 0.7-0.4 1-0.2 0.2-0.6 0.4-0.9 0.4 0-0.3 0-0.8 0-1.4zm0-1.3c0.3 0 0.7 0.1 0.9 0.4 0.3 0.2 0.4 0.6 0.4 0.9-0.2 0-1 0-1.3 0 0-0.5 0-1 0-1.3z"></path><path class="z" d="m316.8 144.5c0.1 0 0.2 0 0.3 0 0 0.4 0 0.8 0 1.2q-0.1 0.1-0.2 0-0.1-0.6-0.1-1.2zm0.1-1.1q0.1 0 0.2 0 0 0.5 0 1.1c-0.1 0-0.2 0-0.3 0q0-0.5 0.1-1.1zm0.2 1.1c0.3 0 0.9 0 1 0 0.1 0.3 0 0.6-0.3 0.9-0.1 0.2-0.4 0.3-0.7 0.3 0-0.4 0-0.8 0-1.2zm0-1.1c0.3 0 0.6 0.2 0.7 0.4q0.3 0.3 0.3 0.7c-0.1 0-0.7 0-1 0q0-0.6 0-1.1z"></path><path class="n" d="m318.5 146l3.4 0.5c0 0-0.3 1.3-2.1 1.3-1.3 0-1.3-1.8-1.3-1.8z"></path><path class="A" d="m320.9 151.8c0.2 0 0.6-0.1 1-0.2 0.2 0.6 0.4 1.1 0.2 1.8q-0.5 0.3-1.2 0.4 0-1 0-2zm0-1.3c0 0 0.3 0 0.8 0.1 0 0.3 0.1 0.6 0.2 1-0.4 0.1-0.8 0.2-1 0.2q0-0.6 0-1.3zm1 1.1c0.4 0 1-0.3 1.6-0.6-0.2 0.6-0.1 1.1-0.5 1.8q-0.4 0.4-0.9 0.6c0.2-0.7 0-1.2-0.2-1.8zm-0.2-1c0.4 0 1.1-0.1 1.8-0.4 0 0.2 0.1 0.3 0 0.8-0.6 0.3-1.2 0.6-1.6 0.6-0.1-0.4-0.2-0.7-0.2-1zm1.8 0.4c0.6-0.4 1.2-0.9 1.9-1.5-0.5 0.7-1.1 1.7-1.7 2.5q-0.4 0.5-0.7 0.8c0.4-0.7 0.3-1.2 0.5-1.8zm0-0.8c0.8-0.3 1.6-0.8 2.5-1.6-0.1 0.1-0.3 0.4-0.6 0.9-0.7 0.6-1.3 1.1-1.9 1.5 0.1-0.5 0-0.6 0-0.8z"></path><path class="B" d="m61.8 123q1.7-0.5 3.7-1.1 0.4 1.2-0.3 2.5c-0.8 0.5-1.6 1-2.3 1.4-0.4-0.7-0.8-1.7-1.1-2.8zm1.9-1.7q1.2-0.8 2.5-1.5-1.2 1-0.7 2.1-2 0.6-3.7 1.1-0.1-0.2-0.1-0.3 0.9-0.7 2-1.4zm1.8 0.6c1.7-0.5 3.5-0.9 5.3-1.3 0.1 0.3-2 1.4-2.3 1.6-1.1 0.7-2.2 1.5-3.3 2.2q0.7-1.3 0.3-2.5zm0.7-2.1c1.2-0.6 2.4-1.3 3.7-1.8 0.3 1 0.6 1.9 0.9 2.6-1.8 0.4-3.6 0.8-5.3 1.3q-0.5-1.1 0.7-2.1z"></path><path class="C" d="m115.8 122.4c1.5 0.4 2.9 1 4.4 1.4 0.2 0.9 0.4 1.7 0.8 2.2-1-0.6-2-1.2-3-1.9-0.8-0.6-1.6-1.2-2.2-1.7zm0.5-1.9c1.2 0.5 2.3 1 3.4 1.6 0.2 1.5 0.2 0.9 0.5 1.7-1.5-0.4-2.9-1-4.4-1.4q-0.2-0.2-0.3-0.3 0.4-0.6 0.8-1.6zm3.9 3.3c1.7 0.5 3.2 1 4.6 1.2-0.4 1.2-0.7 2.1-0.8 2.6-0.8-0.4-1.8-0.9-3-1.6-0.4-0.5-0.6-1.3-0.8-2.2zm-0.5-1.7c1.3 0.6 2.5 1.2 3.5 1.7q1 0.5 1.7 0.9-0.1 0.2-0.1 0.3c-1.4-0.2-2.9-0.7-4.6-1.2-0.3-0.8-0.3-0.2-0.5-1.7z"></path><path class="D" d="m135.9 259.3q36.9 0 73.9 0 0 11.6 0 23.2-37 0-73.9 0 0-11.6 0-23.2zm0-33.6q36.9 0 73.9 0 0 16.8 0 33.6-37 0-73.9 0 0-16.8 0-33.6zm0-27.2q36.9 0 73.9 0 0 13.6 0 27.2-37 0-73.9 0 0-13.6 0-27.2z"></path><path class="E" d="m146 230.6h2.6v20.9h-2.6z"></path><path fill-rule="evenodd" class="E" d="m153 230.9c1.4-0.2 3.1-0.4 4.9-0.4 3.4 0 5.8 0.8 7.4 2.3 1.8 1.6 2.9 4.1 2.9 7.7 0 3.9-1.1 6.6-2.8 8.3-1.8 1.9-4.7 2.8-8.2 2.8q-2.5 0-4.2-0.2zm2.6 18.4c0.6 0.1 1.4 0.2 2.1 0.2 4.9 0 7.8-2.9 7.8-8.9 0-5-2.4-8.1-7.4-8.1-1.1 0-1.9 0.1-2.5 0.3z"></path><path class="E" d="m181.3 241.7h-7.2v7.6h8.1v2.2h-10.7v-20.9h10.2v2.2h-7.6v6.7h7.2z"></path><path fill-rule="evenodd" class="E" d="m188.5 245l-1.9 6.5h-2.7l6.4-20.9h3.1l6.3 20.9h-2.7l-2-6.5zm6.1-2l-1.8-5.8c-0.4-1.4-0.7-2.8-1-4.1-0.3 1.3-0.6 2.8-1 4.1l-1.8 5.8z"></path><path class="F" d="m135.8 215.9c7 0 14.1 0 21.2 0q-0.1 2.5-0.2 4.9-10.5 0-20.9 0-0.1-2.4-0.1-4.9zm-0.2-17.4q11.1 0 22.2 0c-0.2 5.8-0.6 11.6-0.8 17.4-7.1 0-14.2 0-21.2 0q-0.1-8.7-0.2-17.4zm21.4 17.4c12.7 0 25.6 0 38.4 0-0.3 1.6-0.5 3.3-0.7 4.9q-19 0-37.9 0 0.1-2.4 0.2-4.9zm0.8-17.4q20 0 40.1 0c-0.9 5.8-1.6 11.6-2.5 17.4-12.8 0-25.7 0-38.4 0 0.2-5.8 0.6-11.6 0.8-17.4zm37.6 17.4q5.7 0 11.4 0-0.4 2.5-0.8 4.9-5.7 0-11.3 0c0.2-1.6 0.4-3.3 0.7-4.9zm2.5-17.4q5.9 0 11.9 0-1.5 8.7-3 17.4-5.7 0-11.4 0c0.9-5.8 1.6-11.6 2.5-17.4z"></path><path class="G" d="m135.6 198.5q30.8 0 61.6 0-4.4 8.4-8.9 16.8-30.9 0-61.7 0 4.5-8.4 9-16.8zm61.6 0q6.3 0 12.6 0-4.4 8.4-8.9 16.8-6.3 0-12.6 0 4.5-8.4 8.9-16.8z"></path><path class="H" d="m307.9 177.5c0.4-0.1 0.8 0.1 1.2 0-0.3 0.6-0.5 1-0.5 1q-0.7-0.1-1.4-0.2 0.3-0.4 0.7-0.8zm1-1.4c0.4-0.2 0.9-0.4 1.3-0.7 0 0.2-0.6 1.3-1.1 2.1-0.4 0.1-0.8-0.1-1.2 0q0.5-0.7 1-1.4zm0.4-0.4q0.3-0.5 0.7-1c0.1 0.2 0.1 0.5 0.2 0.7-0.4 0.3-0.9 0.5-1.3 0.7q0.2-0.2 0.4-0.4zm-0.2 1.8c0.3 0 0.7-0.4 1-0.4q-0.3 0.8-0.6 1.5-0.5 0-0.9-0.1c0 0 0.2-0.4 0.5-1zm1.1-2.1c0.3-0.2 0.5-0.4 0.8-0.7q0 0.1 0.1 0.1-0.5 1.2-1 2.3c-0.3 0-0.7 0.4-1 0.4 0.5-0.8 1.1-1.9 1.1-2.1zm-0.2-0.7q0.3-0.3 0.5-0.6 0.3 0.3 0.5 0.6c-0.3 0.3-0.5 0.5-0.8 0.7-0.1-0.2-0.1-0.5-0.2-0.7z"></path><path class="d" d="m311.2 175.2q-0.1 0-0.2-0.1c-2-4-1.7-7.8 1.1-11.5 0.1 0 0.2-0.1 0.3 0 0 0.1 0.1 0.2 0 0.3-2.7 3.5-3 7.2-1.1 11 0.1 0.1 0 0.2 0 0.3q-0.1 0-0.1 0z"></path><path class="I" d="m72.3 176.7c0.1-0.5 0.4-0.9 0.9-1.1 0.2 2.5 0.3 4.4 0.3 5.3-0.5-0.3-0.8-0.5-0.8-0.5 0 0-0.2-1.5-0.4-3.7zm-0.7-8.5c0.3-0.2 0.8-0.4 1.3-0.5 0.1 2.8 0.1 5.4 0.3 7.9-0.5 0.2-0.8 0.6-0.9 1.1-0.2-2.4-0.5-5.5-0.7-8.5zm-0.6-14.4q0.1 0.3 0.2 0.6c1.3 4 1.6 8.7 1.7 13.3-0.5 0.1-1 0.3-1.3 0.5q0-1-0.1-1.9c-0.3-6.2-0.4-12.1-0.4-12.1q0-0.1-0.1-0.4zm2.2 21.8c0.4 0.3 1 0.2 1.6 0.5 0.2 2.3 0.4 4.3 0.5 5.7q-1.1-0.5-1.8-0.9c0-0.9-0.1-2.8-0.3-5.3zm-0.3-7.9c0.3 0.2 0.4-0.3 0.9-0.1q0.3 2.3 0.6 4.6 0.2 2.1 0.4 3.9c-0.6-0.3-1.2-0.2-1.6-0.5-0.2-2.5-0.2-5.1-0.3-7.9zm-1.7-13.3q0.1 0.3 0.2 0.6c0.8 2.6 1.6 7.5 2.4 12.6-0.5-0.2-0.6 0.3-0.9 0.1-0.1-4.6-0.4-9.3-1.7-13.3z"></path></svg> 