<?xml version="1.0" encoding="UTF-8"?> <svg xmlns="http://www.w3.org/2000/svg" version="1.2" viewBox="0 0 400 320" width="400" height="320"><defs><linearGradient id="P" gradientUnits="userSpaceOnUse"></linearGradient><linearGradient id="g1" x1="140.6" y1="188.9" x2="349.8" y2="188.9" href="#P"><stop stop-color="#fbbb61"></stop><stop offset="1" stop-color="#ee4062"></stop></linearGradient><linearGradient id="g2" x1="140.6" y1="176.4" x2="349.9" y2="176.4" href="#P"><stop stop-color="#42c5d7"></stop><stop offset="1" stop-color="#4f6fb5"></stop></linearGradient><linearGradient id="g3" x1="242.1" y1="103.1" x2="316.7" y2="103.1" href="#P"><stop stop-color="#7ed1f5"></stop><stop offset="1" stop-color="#aee1f6"></stop></linearGradient><linearGradient id="g4" x1="240.8" y1="92.5" x2="315.2" y2="92.5" href="#P"><stop stop-color="#7ed1f5"></stop><stop offset="1" stop-color="#aee1f6"></stop></linearGradient><linearGradient id="g5" x1="377.7" y1="107.9" x2="312.6" y2="293.6" href="#P"><stop stop-color="#b9c3c8"></stop><stop offset="1" stop-color="#f4ecf4"></stop></linearGradient><linearGradient id="g6" x1="303" y1="204.4" x2="395.5" y2="338.1" href="#P"><stop stop-color="#4ebbea"></stop><stop offset="1" stop-color="#aee1f6"></stop></linearGradient><linearGradient id="g7" x1="57.8" y1="129.3" x2="59.2" y2="194.3" href="#P"><stop stop-color="#42c5d7"></stop><stop offset="1" stop-color="#4f6fb5"></stop></linearGradient><linearGradient id="g8" x1="51.4" y1="129.5" x2="52.7" y2="194.4" href="#P"><stop stop-color="#42c5d7"></stop><stop offset="1" stop-color="#4f6fb5"></stop></linearGradient><linearGradient id="g9" x1="336.1" y1="1.5" x2="320.5" y2="59.8" href="#P"><stop stop-color="#42c5d7"></stop><stop offset="1" stop-color="#4f6fb5"></stop></linearGradient><linearGradient id="g10" x1="332.7" y1="5.1" x2="320.6" y2="50.3" href="#P"><stop stop-color="#42c5d7"></stop><stop offset="1" stop-color="#4f6fb5"></stop></linearGradient><linearGradient id="g11" x1="117" y1="155.8" x2="117" y2="241" href="#P"><stop stop-color="#596a76"></stop><stop offset="1" stop-color="#f0f1f1"></stop></linearGradient><linearGradient id="g12" x1="136.5" y1="186.7" x2="136.5" y2="369.1" href="#P"><stop stop-color="#41617c"></stop><stop offset="1" stop-color="#f0f1f1"></stop></linearGradient><linearGradient id="g13" x1="133" y1="163.2" x2="135.4" y2="163.2" href="#P"><stop stop-color="#c9dcf1"></stop><stop offset="1" stop-color="#e8f5f7"></stop></linearGradient><linearGradient id="g14" x1="137.3" y1="158.8" x2="139.8" y2="158.8" href="#P"><stop stop-color="#c9dcf1"></stop><stop offset="1" stop-color="#e8f5f7"></stop></linearGradient><linearGradient id="g15" x1="141.8" y1="161.1" x2="144.3" y2="161.1" href="#P"><stop stop-color="#c9dcf1"></stop><stop offset="1" stop-color="#e8f5f7"></stop></linearGradient><linearGradient id="g16" x1="146.5" y1="166.4" x2="149" y2="166.4" href="#P"><stop stop-color="#c9dcf1"></stop><stop offset="1" stop-color="#e8f5f7"></stop></linearGradient><linearGradient id="g17" x1="93.8" y1="233.5" x2="93.8" y2="219.2" href="#P"><stop stop-color="#f79a5c"></stop><stop offset="1" stop-color="#fdd05d"></stop></linearGradient><linearGradient id="g18" x1="126.4" y1="242.1" x2="120.1" y2="242.1" href="#P"><stop stop-color="#f79a5c"></stop><stop offset="1" stop-color="#fdd05d"></stop></linearGradient><linearGradient id="g19" x1="119.7" y1="213.5" x2="113.6" y2="213.5" href="#P"><stop stop-color="#f79a5c"></stop><stop offset="1" stop-color="#fdd05d"></stop></linearGradient></defs><style>.a{fill:#e0e0e0}.b{fill:#d9d9d9}.c{fill:#b8b8b8}.d{fill:url(#g1)}.e{fill:url(#g2)}.f{fill:url(#g3)}.g{fill:url(#g4)}.h{fill:url(#g5)}.i{fill:#007fe6}.j{fill:#0064b5}.k{fill:#004e8c}.l{fill:url(#g6)}.m{fill:#6a75ba}.n{fill:#545d94}.o{fill:#eea886}.p{fill:#d9d3c8}.q{fill:#222538}.r{fill:#ffc955}.s{fill:#a77860}.t{fill:#c29941}.u{fill:#fff}.v{fill:url(#g7)}.w{fill:url(#g8)}.x{fill:url(#g9)}.y{fill:url(#g10)}.z{fill:url(#g11)}.A{fill:#616587}.B{fill:#152b3d}.C{fill:#ffc05c}.D{fill:#254380}.E{fill:#353a3d}.F{fill:#e55353}.G{fill:#eea987}.H{fill:#2f4563}.I{fill:#202338}.J{fill:#2f6b8c}.K{fill:#877d78}.L{fill:#f5e1d9}.M{fill:#4b6f9e}.N{fill:#eddad3}.O{fill:#c9bab3}.P{fill:#1e2c40}.Q{fill:url(#g12)}.R{fill:url(#g13)}.S{fill:url(#g14)}.T{fill:url(#g15)}.U{fill:url(#g16)}.V{fill:#007bde}.W{fill:#1a598c}.X{fill:#2273b5}.Y{fill:#3788cc}.Z{fill:#81807e}.a0{fill:#292c47}.a1{fill:#cac7d1}.a2{fill:#1d2033}.a3{fill:#323657}.a4{fill:#c78d71}.a5{fill:#a09ea6}.a6{fill:#eae6f2}.a7{fill:#3a4066}.a8{fill:#f2dfd8}.a9{fill:#d6c5be}.aa{fill:url(#g17)}.ab{fill:url(#g18)}.ac{fill:url(#g19)}.ad{fill:#ffa855}.ae{fill:#ffa555}.af{fill:#858585}.ag{fill:#e2d2ca}.ah{fill:#1c1e30}.ai{fill:#24263d}.aj{fill:#282b45}.ak{fill:#1f2136}.al{fill:#4f558a}.am{fill:#d6c5bf}.an{fill:#16202e}.ao{fill:#6e6760}.ap{fill:#918880}.aq{fill:#706865}.ar{fill:#eb4747}.as{fill:#d69779}.at{fill:#12131f}.au{fill:#9e633a}.av{fill:#97a43c}.aw{fill:#82522f}.ax{fill:#c67b47}</style><path class="a" d="m192.5 164.8h0.7v92.9h-0.7z"></path><path class="a" d="m244.8 164.8h0.8v92.9h-0.8z"></path><path class="a" d="m297.1 164.8h0.8v92.9h-0.8z"></path><path class="b" d="m140.6 153.4h12.5v2.4h-12.5z"></path><path class="b" d="m140.6 157.9h17.7v2.4h-17.7z"></path><path class="b" d="m192.3 153.4h14.7v2.4h-14.7z"></path><path class="b" d="m192.3 157.9h9.4v2.4h-9.4z"></path><path class="b" d="m245.6 153.4h9.1v2.4h-9.1z"></path><path class="b" d="m245.6 157.9h10.6v2.4h-10.6z"></path><path class="b" d="m297.9 153.4h13.2v2.4h-13.2z"></path><path class="b" d="m297.9 157.9h10.6v2.4h-10.6z"></path><path class="c" d="m192.9 263.3h8.3v3.2h-8.3z"></path><path class="c" d="m245.6 263.3h8.3v3.2h-8.3z"></path><path class="c" d="m297.9 263.3h8.3v3.2h-8.3z"></path><g style="opacity:.4"><path class="d" d="m331.7 230.1c-16.3 0-30.5-8.4-45.3-17.3-18.3-10.9-37.1-22.2-62.3-19.1-16 1.9-26.1 9.8-35 16.8-8.1 6.3-15.7 11.8-26 12.3-16.7 0.7-22.4-7.8-22.5-8.4v-5.4c0 0 3.6 9.6 22.5 9.5 9.3 0 16.1-5.4 24.1-11.6 9.2-7.2 19.7-15.3 36.6-17.4 26.1-3.2 45.5 8.3 64.2 19.5 19.5 11.7 38.2 22.7 61.8 13.2v4.5c-6.7 2.7-12.1 3.4-18.1 3.4z"></path></g><g style="opacity:.2"><path class="e" d="m233.7 229.1c-12 0-21.6-9.8-30.9-19.3-7.1-7.2-14.5-14.6-22.9-18.3-26-11.1-39.2 9.2-39.3 9.4v-6.2c0.1-0.2 2.5-3.9 9.3-7.4 6.2-3.2 16.7-5.8 31.1 0.2 9.1 3.9 16.7 11.6 24.1 19.1 14.8 15.2 27.7 28.3 50 7.7 16.9-15.5 32.9-30.3 48.5-35.8 15.4-5.3 31.4-1.4 46.3 16.6l-0.1 5.6c-31.8-38.4-58.8-14-92.6 17-8.9 8.2-16.6 11.4-23.5 11.4z"></path></g><path class="f" d="m242.6 142.6l-0.5-0.7 8.8-9h5.3l12.2-12.5 7.6 7.8h5.6l2.8 2.9 8.8-9h4.5l18.5-19 0.5 0.8-18.7 19.2h-4.5l-9.1 9.3-3.1-3.2h-5.6l-7.3-7.5-11.9 12.1h-5.3z"></path><path class="g" d="m243.9 130.2h-3.1v-1h2.7l4.6-5.5 3.3 4 8-9.6 2.4 3 8.1-9.7 4.8 5.8h5.5l8.5-10.2h7.3l5.4-6.6h6.7l6.5-7.9 0.6 0.7-6.8 8.2h-6.6l-5.4 6.5h-7.4l-8.5 10.3h-6.1l-4.5-5.4-8.1 9.7-2.4-3-8 9.6-3.3-4z"></path><path fill-rule="evenodd" class="h" d="m325.6 195.5c-4.6 20.7-13.5 38.6-25.2 52.7l4.7 7.8-19.5 16.9-4.1-6.9c-22.1 16-49.4 21.6-76.2 12.9-52.4-16.9-83.4-81.8-69.3-144.8 8.4-37.6 30.9-66 58.8-79.2q0.1-0.1 0.1-0.1c7.6-3.6 15.6-6.1 23.8-7.3q0 0 0 0c12.3-1.8 25-0.9 37.6 3.2q7.5 2.5 14.5 6.2c27 14.5 46.6 42.6 54.4 75.4q0 0.1 0 0.1c4.7 19.9 5.2 41.6 0.4 63.1zm-30.6-52.8q-0.6-2.6-1.4-5.1c-6.3-21.5-19.5-37.6-35.6-46.3-10.9-5.8-23.1-8.2-35.4-6.3-4.8 0.7-9.6 2-14.3 4.1q-1 0.4-1.9 0.8c-33.5 15.9-50.7 60.9-38.5 101.9 12.5 41.8 50.7 63.5 85.4 48.6 33.3-14.4 51.3-57.3 41.7-97.7z"></path><path class="i" d="m344.5 125.7l-19.3 6.6-30.2 10.4q-0.6-2.6-1.4-5.1c-6.3-21.5-19.5-37.6-35.6-46.3l12.8-34.4 1.3-3.6 6.9-18.5c32.6 17.4 56.1 51.3 65.5 90.9z"></path><path class="j" d="m272.1 53.3l-1.3 3.6-12.8 34.4c-10.9-5.8-23.1-8.2-35.4-6.3l-3.9-37.5-0.4-3.9c12.7-1.9 25.8-1 38.8 3.3q7.9 2.5 15 6.4z"></path><path class="k" d="m222.6 85c-4.8 0.7-9.6 2-14.3 4.1q-1 0.4-1.9 0.8l-11.5-35.1-3.5-10.6c8.4-4 17.1-6.7 26.2-8l0.7 7.4 0.4 3.9z"></path><path class="l" d="m347.9 320h-38.7l-26.9-45 25.5-22z"></path><path class="m" d="m209.9 28c0 0-1.4-3.1-2.2-4.2-0.8-1.1-3.5-1.9-3.1-3.3 0.4-1.5 3.9-0.8 4.9 0.6 0.9 1.3 3.9 1.8 4 2.4 0.1 0.6-1 3.8-1.7 4.3-0.6 0.5-1.9 0.2-1.9 0.2z"></path><path class="n" d="m203.9 30.6c0 0-2.2-2.1-3.3-2.8-1.1-0.6-3.8-0.1-4-1.6-0.1-1.5 3.3-2.6 4.7-1.8 1.3 0.8 4.2-0.1 4.5 0.3 0.3 0.5 0.3 4-0.1 4.8-0.4 0.8-1.8 1.1-1.8 1.1z"></path><path class="o" d="m209 36.3c0 0 1-8.2 0.9-9.6 0-0.4 2.1-0.3 2 0.5-0.2 1.7 0.7 8.3 0.5 9.5-0.1 1.2-3.5 0.3-3.4-0.4z"></path><path class="o" d="m205.9 38.6c0 0-1.9-7.9-2.3-9.2-0.2-0.6 1.7-1.5 1.9-0.5 0.4 1.7 3.4 7.2 3.7 8.4 0.2 1.2-3.2 2-3.3 1.3z"></path><path class="p" d="m207.2 44.1c0 0-2-8.1-2.4-8.9l3.2-2.4c0 0 1.5 5.2 1.7 6.5 0.2 1.3-2.5 4.8-2.5 4.8z"></path><path class="q" d="m266.3 30.7c0 0-0.5 2.9-2.5 6.1-2.1 3.1 1.5 9.4 1.9 12.3 0.4 2.9-3.1 3.2-4.9 2.8-1.8-0.5-10.1-11.8-10.4-12.3-0.2-0.6-0.2-4.3 2.6-5.8 2.7-1.4 3.9-4.6 5.4-7.4 1.4-2.8 4.5-3.7 4.5-3.7z"></path><path class="o" d="m262.3 36.2q0 0-0.2 0c-0.2 0-0.4 0-0.7 0.1q-0.1 0-0.3 0.1c-0.7 0.6-2.4 1.9-2.7 2-0.2 0 0-4.8 0-4.8 0 0 0.9-1.9 1-3.2 0.1-1.3 2.9 5.8 2.9 5.8z"></path><path class="p" d="m239.8 50.9c0 0-6.5 0.4-8.6 0.5-2 0.2-13.4 0.5-15.9 0-2.5-0.5-6.7 0.6-8.2-2-1.5-2.5-0.4-5.5 0.1-7.1 0.5-1.5 1.8-8 1.8-8l4.6 1.4c0 1-2.7 8.4-2.3 8.8 0.4 0.3 3.5 0.2 7.2-1.1 3.7-1.3 8.2-0.8 9.5-0.9 1.4-0.1 1.8-2.3 5.7-3.2 3.9-0.9 7.3 1.9 7.3 1.9z"></path><path class="o" d="m268.4 26.6c0 0 0.2 4-0.5 5.2-0.3 0.5-0.5 0.7-0.7 0.9q-0.3 0.3-0.4 0.7c-0.2 0.8-0.4 1.8-0.5 2.1-0.2 0.2-0.8-0.4-1-0.4-0.2 0-2.2 2.1-2.7 1.6-0.5-0.4-3.4-4-3.2-6.4 0.3-2.5 1.2-6.1 4.5-6.1 3.3 0 4.2 1.4 4.5 2.4z"></path><path class="r" d="m258.4 45.6c-0.1 0.1-1.3 2.5-2.6 3.8-0.6 0.6-1.1 1-1.6 1q-0.3 0-0.5 0c-1.5 0-2.7 0.3-4.8 0.4-2.1 0.2-7.3-0.2-7.4-0.2-0.2 0-1.7 0.3-1.7 0.3-0.5-0.7 0.9-9.6 1.2-9.7 0.2 0 1.9 0.8 3.6 0.5 1.6-0.4 2.3-0.6 4.8-4 2.4-3.5 4.9-4.4 5.9-4.1 1 0.3 3.1 0 3.1 0 0 0 0.1 11.7 0 12z"></path><path class="q" d="m263.3 29.1c-2.2-0.4-4.8 5.3-5 4.4-0.1-0.9 2.2-10.3 4.6-10.8 1.8-0.4 4.7 0 5.5 3.7 0.7 3.7-0.5 5.3-0.5 5.3-0.3-0.3-0.9-2.2-0.9-2.2-1.4 0.2-1.4 0.1-3.7-0.4z"></path><path class="s" d="m262.1 36.2c-0.2 0-0.4 0-0.7 0.1q-0.1 0-0.3 0.1c-0.5-1-1-3.3-1-3.4 0.3 0.9 2 3.2 2 3.2z"></path><path class="t" d="m255.8 49.4c-0.6 0.6-1.1 1-1.6 1q-0.3 0-0.5 0l0.7-7.4z"></path><path class="o" d="m267.7 62.1l-1.4 1.6c-1.3-0.8-4.5-3.6-5.1-4.2-0.6-0.7-4.9-5-5.5-6-0.6-0.9-1.4-11.1-1.3-11.6 0.1-0.4 3.7-0.7 4.2 0.4 0 0 0.1 5.8 0.2 6.8q0.2 1.4 1 2.6c0.8 1.2 2.4 3.8 4 5.9 0.3 0.5 3.5 4 3.9 4.5z"></path><path class="r" d="m254.3 43c-0.3-4.2 0.1-8.1 2.7-8.2 2.1-0.1 1.9 7.6 1.9 7.6-0.6 0.7-4.6 0.6-4.6 0.6z"></path><path class="o" d="m267 61.3c0 0 0.2 0.4 0.5 0.5 0.5 0.2 1.2-0.2 1.6 0.6 0.3 0.8-1.4 2.7-1.9 2.8-0.4 0.2-1.2-0.7-1.7-2.4-0.6-1.7 1.5-1.5 1.5-1.5z"></path><path class="o" d="m268.9 62.2c0 0 0.9 0.8 1.8 1.8 0.8 0.9 1.6 2.1 1.4 2.3-0.3 0.4-0.8-0.7-1.7-1.5-0.7-0.8-0.7-0.5-0.7-0.5 0 0 0-0.1 0.7 1 0.8 1.1 1.5 2.4 1.3 2.6-0.1 0.1-0.1 0.1-0.5-0.2 0.2 0.2 0.1 0.3 0.1 0.4-0.5 0.4-1.8-1-2.3-1.6 0.4 0.4 0.7 0.8 0.3 0.9-0.5 0-2.3-2.1-3-2.8-0.7-0.7 2.6-2.4 2.6-2.4z"></path><path class="a" d="m243.8 41.7c-0.4 2.4-0.6 9-0.6 9-0.7 0.3-1.1 0-1.1 0-0.4-3 0.4-9.1 0.4-9.1 1.1-0.1 1.3 0.1 1.3 0.1z"></path><path class="a" d="m242.6 0h0.6v46.2h-0.6z"></path><path class="u" d="m327.8 239.2h10.6v0.9h-10.6z"></path><path class="u" d="m327.8 240.9h10.6v3.7h-10.6z"></path><path class="u" d="m322.8 245.9h6.3v0.6h-6.3z"></path><path class="u" d="m322.8 246.7h6.3v1.5h-6.3z"></path><path class="u" d="m340.1 234.4h0.5v10.5h-0.5z"></path><path class="v" d="m50.3 163.4h10.2l3.1 7.8h-10.2z"></path><path class="w" d="m45.6 163.4h2.4l3.1 7.8h-2.4z"></path><path class="x" d="m321.6 26.4h11.3v5.2h-11.3z"></path><path class="y" d="m321.6 24h11.3v0.9h-11.3z"></path><path class="z" d="m76.9 139.7c0-1.7 1.3-3 3-3h73.6c1.6 0 3 1.3 3 3v2.4c0 1.6-1.4 3-3 3h-73.6c-1.7 0-3-1.4-3-3z"></path><path class="A" d="m185.8 307.9l-1.2-0.5 13.2-48.6h43l-13.2 49.1-1.2-0.5 12.7-47.1h-40.4z"></path><path class="A" d="m211.2 307.9l-13.2-49.1h43l13.2 48.6-1.2 0.5-12.9-47.6h-40.4l12.7 47.1z"></path><path class="A" d="m194.9 273.6h49.5v1.5h-49.5z"></path><path class="A" d="m189.8 290h59.2v1.5h-59.2z"></path><path class="o" d="m211.1 153.3c-2.5-4-3-6.2-1.3-9.7 1.7-3.6 7-4.1 8.5 1.4 1.6 5.7 0.6 7.9 0.6 7.9-1 1.8-5.3 4.3-7.8 0.4z"></path><path class="o" d="m206.5 250.7c0 0-0.3 2.3-0.3 2.7 0 0.3-2.9-0.2-2.9-0.2l-0.3-2.8c0 0 3.1 0 3.5 0.3z"></path><path class="B" d="m206.2 253.1c0 0 1 1.4 1.9 2 0.9 0.6 2.3 0.9 2.8 1.5 0.4 0.5 1.4 2.4-2.3 2.4-3.7 0-5.5 0.3-5.9-0.5-0.4-0.7 0.6-5.6 0.6-5.6 0 0 0.9 0.3 2.9 0.2z"></path><path class="o" d="m226.7 250.7c0 0-0.3 2.3-0.3 2.7-0.1 0.3-3-0.2-3-0.2l-0.2-2.8c0 0 3.1 0 3.5 0.3z"></path><path class="B" d="m226.4 253.1c0 0 0.9 1.4 1.8 2 0.9 0.6 4.2 1.1 4.7 1.8 0.4 0.4 1 2.3-4.2 2.1-3.7-0.1-5.5 0.3-5.9-0.5-0.4-0.7 0.6-5.6 0.6-5.6 0 0 1.2 0.3 3 0.2z"></path><path class="C" d="m215.3 205.9c-0.2 1.9-4.1 18.8-4.9 21.1-0.8 2.4-3.8 25.6-3.8 25.6l-3.6-0.1c0 0-0.3-9.6-0.3-12.6 0.1-3 1.9-16.3 2.3-21.9 0.4-5 1.4-10.2 1.2-15.1-0.2-4.8 1.3-10.4 1.3-10.4 0 0 7.9 11.5 7.8 13.4z"></path><path class="C" d="m222.5 192c0 0 2.2 14.7 2.4 17.7 0.3 2.9 0.5 14.2 0.6 16.1 0.1 1.8 0.9 24 1.6 26.8h-4c0 0-4.2-16.2-4.2-23.8 0-7.7-2.7-16.7-4.5-21.7-1.8-5.1-5.8-5.2-6.9-14.6 0 0 13.5-3.5 15-0.5z"></path><path class="o" d="m217.5 154.4c0 0-0.5 1.6 0 2.7 0.4 1.1-5.8 0.4-5.8 0.4 0 0 0.2-2.3-0.6-4.2-0.8-2 6.4 1.1 6.4 1.1z"></path><path class="C" d="m207.4 192.6l15.1-0.6 0.2 1.3c-13.2 3.2-15.5 0.5-15.5 0.5z"></path><path class="o" d="m218.4 157.5c0 0 2.3 0.2 3 0.4 0.7 0.1 5.1-1 6-1.1 0.9-0.1 4.8-3.3 5-3.7 0.1-0.4 2.3-7.2 2.4-8.7 0.2-1.4 2.2-0.7 2.1 0.3-0.4 1.9-0.8 6.6-1 7.9-0.3 1.4-1 4.7-1.3 5.1-0.4 0.4-3.9 3.6-7.3 5-3.5 1.4-6.1 3.4-6.1 3.4h-16.9c0 0-6.6-11.3-6.7-13-0.1-1.7 4.6-13.1 5.5-14.5 1-1.4 2.4 0.5 2.4 0.5 0 0-2.9 10-3.2 11.4-0.4 1.4 3.2 7.6 4.2 7.7 1.1 0 3.6-0.4 4.8-0.5 1.1 0 2.4-0.6 2.4-0.6z"></path><path class="D" d="m225.7 165c0 0-2.1 1.7-2.2 4.5-0.2 2.9-1 7.3-1.4 8.9-0.3 1.5 0.4 12.7 0.5 13.5 0 0.7-13.1 2.6-15.2 0.7 0 0-0.5-10.4-0.8-13.3-0.2-3-1.3-10.1-1.7-11.1-0.4-1-5-8.7-5.2-9.7 0 0 2.4-4.6 4.1-4.6 0 0 2.7 3.8 3.6 4 0.9 0.1 6.3-1.1 6.3-1.1 0 0 0.6 1 3.7-0.1 0 0 3.7 0.5 4.3 0.6 0.8 0.1 5.9-0.8 5.9-0.8 0 0 2 4.2 1.7 6.3z"></path><path class="o" d="m234.7 145.3c0 0 0.5-2.6-0.1-3.4-0.3-0.4-1-1.5-1.1-1.7-0.1-0.2-0.9-0.7-0.9-1 0-0.3 0.8-0.6 1.5 0.2 0.7 0.7 1.1 0.9 1.4 0.8 0.3-0.1 0.7-2.9 0.7-3.5 0.1-0.7 0.3-2.6 0.6-2.4 0.4 0.1 0.4 0.9 0.4 0.9 0 0 0.4-1.4 0.7-1.1 0.2 0.2 0.2 0.9 0.2 0.9 0 0 0.5-0.8 0.7-0.2 0.1 0.6 0 1.1 0 1.1 0 0 0.5-0.4 0.5 0.5 0.1 0.9-0.1 3.5-0.5 4.4-0.4 0.9-1.8 3.3-2 4.2-0.1 1-2.1 0.3-2.1 0.3z"></path><path class="o" d="m203.1 138.6c0.7-0.8 1.5-4 1.7-5.1 0.1-1 0.7-3 1.2-3.4 0.6-0.3 0.2 0.7 0.2 0.7 1.8-3.2 1.7-1.2 1.7-1.2 0 0 0.7-0.8 1.1-0.7 0.3 0.1-0.6 2.4-0.6 2.4 0.2-0.2 1.3-1.4 1.6-1.1 0.3 0.3-1.4 2.5-1.7 2.9-0.3 0.4-0.8 2-0.7 2.2 0.1 0.2 0.4 0.4 1.3 0 0.8-0.4 1.6-0.5 1.6-0.3 0.1 0.2-0.8 0.6-1.4 1.2-0.7 0.6-1.5 0.7-2 1-0.5 0.3-2.1 3.5-2.1 3.5 0 0-2.5-1.3-1.9-2.1z"></path><path class="E" d="m211.5 141.3c5.7-3.3 6.9 3.9 6.9 3.9 0 0-0.7 0.5-1.1 1.1-0.4 0.7 0.5 2.1 0.5 2.1-0.3 0.5-1 1.1-1.8 0.2-0.4-0.4-0.5 3.3-2.3 4-1.7 0.8-2.6 0.7-2.6 0.7 0 0-6.2-8.2 0.4-12z"></path><path class="D" d="m211.5 157.5l0.2-1.2c2-0.3 5.6-0.3 5.6-0.3l0.2 1.1c-3.5 1.8-6 0.4-6 0.4z"></path><path class="o" d="m217.1 150.1c0 1.4-2.3-0.2-2.2-1.6 0.2-1.9 1.4-1.4 1.7-0.8 0.2 0.4 0.5 1.1 0.5 2.4z"></path><path class="F" d="m234.8 144.7c0 0 1.3 0.1 1.9 0.7 0 0 0.1 0.5-0.1 0.8 0 0-1.1-0.6-1.9-0.7 0 0 0-0.6 0.1-0.8z"></path><path class="E" d="m236.3 145.1c0.2 0.4 0 0.7-0.2 0.9-0.3 0.1-0.7 0-0.8-0.4-0.1-0.3 0-0.7 0.3-0.8 0.3-0.2 0.6 0 0.7 0.3z"></path><path class="G" d="m339 181.6c0 0-1.1 0.2-1.1-0.4 0-0.6 0-1.4 0-1.4z"></path><path class="G" d="m345.5 175.2l-3.8 3.5c0.5-0.1 1.3-0.2 1.3 0.1 0 0.4-1.4 1-1.9 1.3-0.4 0.4-0.9 1.1-1 1.1l-0.8 0.8-1.4-2.2c0 0 2.3-3 2.8-3.6 0.9-1.1 4.4-1.7 4.6-1.5 0.3 0.2 0.2 0.5 0.2 0.5z"></path><path class="H" d="m333.2 192.5c0 0 4.3 4.6 6.2 4.6 2.3-0.1 9.1 2.7 4.4 6.8-4.3 3.6-8.4-2.4-11.9-5-1.4-1.1-6.3-5.7-4.6-7.1l10.5-12.7 3 3.1z"></path><path class="I" d="m339.1 296.2c0 0.3 0.8 2.9 0.4 3.8-0.3 1-0.6 0.4-3.6 2.3-2.1 1.3-7.1 0.4-7.1-0.8 0-1.3 1.2-1.9 3-2.3 1.7-0.5 3.5-2.7 3.5-2.7 0 0 3.9-0.7 3.8-0.3z"></path><path class="J" d="m338.9 294.8c0 0 0.2 0.8 0.2 1.4 0.2 0.8-3.8 0.3-3.8 0.3 0 0 0.2-1.1 0.2-1.1z"></path><path class="I" d="m358.7 297.1c0 0.3 0.6 2.8 0.2 3.7-0.4 0.9-1.1 0.8-3 2.2-2.8 2.2-6.9 0.6-6.8-0.7 0.1-1.2 1.2-2.1 2.9-2.6 1.7-0.5 2.9-2.6 2.9-2.6 0 0 3.9-0.4 3.8 0z"></path><path class="J" d="m358.5 295.6c0 0 0.2 0.8 0.2 1.5 0 0.8-3.7 0-3.8 0 0-0.1 0.1-1.1 0.1-1.1z"></path><path class="K" d="m356.7 230.8c3.2 10.2 1.9 35.4 2 37.7 0.4 6 1.2 28.6 1.2 28.6-1.1 1-6.3 0-6.3 0 0 0-1.5-25.3-2.1-28.5-0.6-3.2-2.9-23.2-3.7-24.3-0.8-1.1-3.3 16.5-4.1 20.6-0.9 4.4-3.8 31.8-3.8 31.8 0 0-5.6 0.6-5.3-0.6 0.2-1.2 0.6-22.2 0.9-26.3 0.2-3.3 0.5-8.5 1.4-14.9 0.7-5.4 2.6-21.3 2.6-21.3 0 0 15.5-8.1 17.2-2.8z"></path><path class="C" d="m350.3 195.2c0 0 6.1 1.1 7.7 3.2 0.7 1 0.7 7.3 0.7 7.3 0 0-1.2 11.2-1.7 16-0.3 3.8 1 15.5 1 15.5-9.6 1.5-18.9-0.8-18.9-0.8 0.4-3.9 0.4-15.8-0.3-18.6-0.6-2.7-1.2-10.2-1.2-11.9 0.1-1.8 1.2-8.2 1.8-8.8 0.6-0.7 5.4-1.9 5.4-1.9z"></path><path class="H" d="m355.3 197.1c3.4 1.1 3.3 10 2.7 13.2-0.2 0.8-0.7 1.8-1.3 2.4-0.4 0.5-0.9 0.8-1.4 0.9-1.5 0.5-3-0.9-3.2-6.7-0.5-11.2 3.2-9.8 3.2-9.8z"></path><path class="L" d="m337.6 209.5c0 0 2.7-0.5 2.9 4.2 0.2 4.7 1.8 13.5 4.6 16.9l-10.9 0.5c-2.7-3.5-4.1-11.8-4.3-16.5-0.2-4.3-2.8-4.2-2.8-4.2z"></path><path class="H" d="m343.6 195.6c0 0 2.2-1.2 7.3-0.2 0 0-2.5 3.5-5.1 3.8q-0.1 0-0.3 0-0.2 0-0.4 0-0.6-0.1-0.9-0.3-0.1-0.1-0.2-0.2c-1.3-1-0.4-3.1-0.4-3.1z"></path><path class="o" d="m350.5 182.1c-0.1 2.9 0.3 8.8-3.3 10.8-3.6 2-5.1 1.3-6.7-7.8-1.5-9.2 4.6-7.7 4.6-7.7 1.9 0.1 5.5 1.8 5.4 4.7z"></path><path class="o" d="m344.3 194.8q0-0.1 0-0.2 0.1-0.4 0.2-0.8 0-0.2 0-0.4c0.1-0.5 0-0.9 0-0.9 0 0 6.2-7.7 5.5-4.3-0.7 3.6-0.2 6.8-0.2 6.8-4.5 2.5-5.7 1.5-5.7 1.5 0-1-0.1-0.5 0.2-1.7z"></path><path class="E" d="m350.3 186.8c0 0-0.3-2.4-1.2-2.5-0.9-0.1-1.1 1.4-1.1 1.4l-0.7 0.1c0 0 0.3-2.6-0.6-3-0.9-0.4-5.7 1-6.4 0.3-0.7-0.7-0.4-5.5 0.9-6.3 1.3-0.7 4.6-2.7 7.2-0.7 0 0 2-0.3 2.3 1.6 0.4 1.9 0.1 7.7-0.4 9.1z"></path><path class="o" d="m348 183.4c0.1-0.8 1.6-1 1.6 0.3 0 1.3-0.9 3.5-1.4 3.3-0.5-0.3-0.4-2.4-0.2-3.6z"></path><path class="M" d="m350.3 195.2l-4 3.3-1.2-2.4c2.3-0.4 4.7-2.1 4.7-2.1z"></path><path class="M" d="m344.3 194.8c0 0 0.2 1 0.8 1.3l-1.2 2v-2.6z"></path><path class="u" d="m346 197.9c-1.3 0.7-1.8-0.2-1.8-0.2l0.9-1.6z"></path><path class="u" d="m344.5 197.8h0.9l0.1 1.4q-0.2 0-0.4 0-0.6-0.1-0.9-0.3c0.1-0.7 0.3-1.1 0.3-1.1z"></path><path class="s" d="m344.5 193.8c0 0 2.6-0.1 4.3-2.4-0.1 0.1-1.8 3.5-4.5 3.3 0.1-0.3 0.1-0.7 0.2-0.9z"></path><path class="N" d="m337.6 209.5c0 0-3.2 0.4-2.5 5.8l-9.6 0.6c0 0-1.3-3.7 1.6-5.5z"></path><path class="O" d="m326.4 213.5l7.5-0.5v0.5l-7.5 0.5z"></path><path class="O" d="m327 211.4l7.5-0.5v0.5l-7.4 0.5z"></path><path class="O" d="m331.1 216.1l7.4-0.5 0.1 0.4-7.5 0.5z"></path><path class="O" d="m332 219.2l7.5-0.5v0.5l-7.5 0.5z"></path><path class="O" d="m332.9 222.4l7.5-0.5v0.5l-7.4 0.4z"></path><path class="O" d="m333.9 225.5l7.5-0.5v0.5l-7.5 0.5z"></path><path class="O" d="m334.8 228.7l7.5-0.5v0.5l-7.5 0.5z"></path><path class="o" d="m346.7 222.6c-1.5 1.3-2.8 1.7-3.2 1.1-0.4-0.5-1.1-4.1-0.3-4.6 0.8-0.6 1.3 0.5 2 0.7 0.3 0.1 0.7-0.1 0.7-0.1 0 0 2.4 1.5 0.8 2.9z"></path><path class="o" d="m344.8 223.8c-1.1 0.2-4.2 1-4.6 0.5-0.4-0.4 0.1-0.6 0.7-0.7-0.8 0.1-3 0.6-3.2-0.2-0.1-0.2 0-0.3 0.3-0.4-0.6 0.1-0.6 0-0.7-0.4 0-0.3 1.5-1 2.9-1.6 1.3-0.5 1.2-0.4 1.2-0.4 0 0 0.2-0.3-1-0.1-1.3 0.2-2.6 0.9-2.7 0.3-0.1-0.4 1.6-1.1 2.9-1.4 1.5-0.3 2.9-0.5 2.9-0.5 0 0 2.5 4.8 1.3 4.9z"></path><path class="H" d="m360.4 204.3c0.2 0.6 1.7 8.1 2.6 11.3 0.8 3.2 0.4 4.4-0.3 5.3-0.8 0.9-16.2 4.1-16.2 4.1l-1.3-5.2c0 0 5.1-1.2 5.9-1.5 0.3-0.1 5.9-1.9 6.4-2.6 0.4-0.8-1.9-5.4-2.4-6.3-0.4-0.9-1.1-2.8-1.8-6.7-0.6-3.4-0.1-5.1 0.9-5.5 4.5-1.8 5.9 6.5 6.2 7.1z"></path><path class="P" d="m354.7 208.4c0.2 0.4 2 4.3 2 4.3-0.4 0.5-0.9 0.8-1.4 0.9-1.5-4.2-1.9-10.1-1.9-10.1 0.2 1 1.2 4.5 1.3 4.9z"></path><path class="Q" d="m77.1 154.5c0-2.2 1.8-4 4-4h70.7c2.2 0 4 1.8 4 4v59.5c0 2.3-1.8 4-4 4h-70.7c-2.2 0-4-1.7-4-4z"></path><path class="R" d="m133 163.2h2.4v16.4h-2.4z"></path><path class="S" d="m137.3 158.8h2.5v20.8h-2.5z"></path><path class="T" d="m141.8 161.1h2.5v18.5h-2.5z"></path><path class="U" d="m146.5 166.4h2.5v13.2h-2.5z"></path><path class="V" d="m133 169.2h2.4v10.4h-2.4z"></path><path class="V" d="m137.3 166.4h2.5v13.2h-2.5z"></path><path class="V" d="m141.8 167.9h2.5v11.7h-2.5z"></path><path class="V" d="m146.5 171.4h2.5v8.2h-2.5z"></path><path class="u" d="m133.7 186.3c0-0.6 0.4-1 1-1h12.6c0.5 0 1 0.4 1 1v2.7c0 0.5-0.5 1-1 1h-12.6c-0.6 0-1-0.5-1-1z"></path><path class="u" d="m133.7 195.1c0-0.6 0.4-1 1-1h12.6c0.5 0 1 0.4 1 1v2.6c0 0.6-0.5 1-1 1h-12.6c-0.6 0-1-0.4-1-1z"></path><path class="u" d="m133.7 203.8c0-0.5 0.4-1 1-1h12.6c0.5 0 1 0.5 1 1v2.7c0 0.6-0.5 1-1 1h-12.6c-0.6 0-1-0.4-1-1z"></path><path fill-rule="evenodd" class="u" d="m113.5 208.2c-8.8 3.8-18.2 0.4-23.9-7.6-1.4-2-2.5-4.1-3.4-6.6q-0.3-0.8-0.5-1.6c-1.7-5.6-1.7-11.4-0.3-16.6 2-7.5 6.7-13.9 13.4-16.8 2.2-1 4.5-1.5 6.7-1.5 9.1-0.4 17.8 6.4 21.1 17.3 4 13.6-1.9 28.6-13.1 33.4zm8-31.2c-2.5-8.2-9-13.2-15.9-13q-2.5 0.1-4.9 1.1c-5.1 2.2-8.6 7-10.1 12.7-1 3.9-1 8.2 0.2 12.4q0.2 0.6 0.4 1.2 1 2.7 2.5 4.9c4.3 6 11.4 8.6 17.9 5.8 8.5-3.7 12.9-14.9 9.9-25.1z"></path><path class="W" d="m90.6 177.8l-5.2-2c2-7.5 6.7-13.9 13.4-16.8 2.2-1 4.5-1.5 6.7-1.5l0.1 6.5q-2.5 0.1-4.9 1.1c-5.1 2.2-8.6 7-10.1 12.7z"></path><path class="X" d="m91.2 191.4l-5 2.6q-0.3-0.8-0.5-1.6c-1.7-5.6-1.7-11.4-0.3-16.6l5.2 2c-1 3.9-1 8.2 0.2 12.4q0.2 0.6 0.4 1.2z"></path><path class="Y" d="m89.6 200.6c-1.4-2-2.5-4.1-3.4-6.6l5-2.6q1 2.7 2.5 4.9z"></path><path class="I" d="m152.2 294.5c0 0 0.7 2.4 0.6 3.5-0.1 1-0.7 0.8-1.2 2.1-0.6 1.3-0.7 2.5-2 2.6-1.3 0.1-4.7 0.7-4.7-1.6 0-2.1 2-3.3 2.5-4.1 0.6-0.7 1.4-2.5 1.4-2.5z"></path><path class="Z" d="m152.2 293.9c0 0 0.2 0.9 0.1 1 0 0-3.7 0.8-3.7 0 0-0.7 0.4-1.4 0.4-1.4z"></path><path class="o" d="m186.1 209.8c0 0 3.9-1 4.2-0.8 0.3 0.2 0.3 0.5 0 0.6-0.4 0.1-3.8 1.1-3.8 1.1 0 0 4.7-0.2 5-0.1 0.2 0.1 0.2 0.6 0 0.6-0.2 0.1-4.8 0.7-4.8 0.7 0 0 4.4-0.2 4.6 0 0.1 0.1 0.1 0.6-0.2 0.6-0.4 0.1-4.4 0.5-4.4 0.5 0 0 3.2 0.2 3.3 0.4 0 0.2 0.1 0.6-0.7 0.6-0.9-0.1-2.8 0-2.8 0z"></path><path class="I" d="m168.8 294.2c0 0 1.7 2.2 3.3 2.6 1.7 0.5 2.8 1.1 2.8 2.3 0 1.3-4.7 2.1-6.6 0.9-2.8-1.9-3.1-1.4-3.4-2.3-0.3-0.9 0.3-3.5 0.3-3.8 0-0.3 3.6 0.3 3.6 0.3z"></path><path class="Z" d="m168.7 293.2c0 0 0.2 1 0.1 1 0 0-3.7 0.6-3.6-0.3 0.1-0.6 0.2-1.4 0.2-1.4z"></path><path class="a0" d="m165.3 232c0 0 1.3 15.6 2 21 0.9 6.2 1.1 11.4 1.4 14.7 0.2 4 0.3 24.1 0.5 25.3 0.2 1.2-4.4 0.3-4.4 0.3 0 0-2.3-26.2-3.2-30.5-0.8-4.1-3.7-21.5-4.4-20.4-0.8 1.1-1.6 20.3-2.2 23.5-0.5 3.2-2.1 28.2-2.1 28.2 0 0-3.7 0.9-4.7-0.1 0 0-0.5-21.5-0.1-27.5 0.1-2.3-2.2-27.4 0.8-37.4 1.6-5.4 16.4 2.9 16.4 2.9z"></path><path class="a1" d="m141.9 216.2c0.1-1.2 1.9-18.8 2.8-19.5 0.5-0.5 4.2-2.3 6.1-3.2 0.9-0.4 1.6-0.7 1.7-0.7 0.5 0 5.8 0.6 5.8 0.6 0 0 0.8 0.3 1.6 0.8 1.3 0.7 3.4 1.9 4.9 2.7 0.5 0.3 1.1 0.7 1.6 1q-0.1 3.3-0.3 7.1c0 0-0.3 5.5-0.3 11-0.2 1.3-0.2 4.2-0.2 4.2-0.1 2.8 0.2 5.6 0.3 7.2 0.1 2.5 0.3 7.8 0.3 7.8l-2.3 0.3-11.5-0.3-4-0.5c0 0 0.4-12.3 0.4-15.5-0.1-3.1-1.5-9.6-1.6-10q0 0 0 0 0-0.1 0-0.1 0 0 0 0c0 0-1.1 6.3-1.1 8.6-0.1 2.9 0.4 16.9-0.6 17.1-0.9 0.2-3.2-0.6-3.2-0.6 0 0-0.5-15.8-0.4-18z"></path><path class="a2" d="m166.2 235.2c-4.7 2.3-15.1 0.5-15.1 0.5v-2.7c6.9 0.8 14.8 0 14.8 0z"></path><path class="a3" d="m164.9 196.7c0.5 0.3 1.3 0.8 1.7 1.2q-0.1 3.3-0.4 7.2c0 0-0.1 6.2-0.4 12.2q-0.2 1.2-0.1 2.6 0.1 1.7 0.3 3.7 0 0.1 0 0.1 0.1 0.5 0.1 0.9 0 0 0 0.1c0.7 6.6 1.8 14.2 2.4 16.5 0.1 0.5-0.3 0.9-0.6 1.2l-2.2 1.7c0 0-0.9-9.9-1.1-13.2-0.3-3.2-1.2-7.5-1.6-11.7-0.5-5.4-1.2-10.6-1.6-13.7-0.9-8.1-2.2-11.7-2.2-11.7 0.9 0.3 5.7 2.9 5.7 2.9z"></path><path class="a1" d="m158.8 195.7c0 0 0.1 2.5-1.6 2.5-1.7 0.1-3.1-1.9-3.1-1.9l2.9 0.9 1.7-1.8z"></path><path class="o" d="m181.8 211.8c0 0 1.2-0.4 1.4-1.3 0.1-0.8 0.8-1.7 1-2 0.2-0.3 0.7-1.8 1.1-1.5 0.3 0.4-0.7 2.5-0.9 3-0.1 0.5 1.6-0.3 2-0.2 0.4 0.2 1.3 3.8 0 4.2-1.2 0.5-2.8-0.1-3 0-0.2 0.1-0.9 0.4-0.9 0.4z"></path><path class="G" d="m156.4 176.7c0 0 4 0.8 3.4 8.4-0.7 7.5-4.2 6.8-4.5 6.8-0.2 0-3.5 0.1-3.7-9.1 0 0 0-6.8 4.8-6.1z"></path><path class="G" d="m158.2 189.7c0 0 0 3.1 0.1 3.8 0.1 0.7-3.2 2.8-5.4 0.4 0 0 0.5-3.4 0.3-4.6-0.1-1.2 5 0.4 5 0.4z"></path><path class="G" d="m159.8 183.3c0 0 0.4-0.6 0.6 0 0.1 0.6-0.6 3-0.7 3.2 0 0-0.1 0.3-0.2 0.1-0.1-0.1 0.3-3.3 0.3-3.3z"></path><path class="G" d="m151.8 186.1c-0.1 0.1-0.2-0.1-0.2-0.1-0.1-0.2-0.7-2.7-0.5-3.3 0.1-0.6 0.5 0 0.5 0 0 0 0.3 3.3 0.2 3.4z"></path><path class="E" d="m160.1 182.3c-0.1 1-0.3 1.8-0.3 1.8l-0.6 0.9c0 0 0.1-2 0-2.3 0-0.2-0.1-0.4-0.1-0.6-0.1-0.4-0.2-0.8-0.2-1-0.1-0.2-3.4-1.4-6.4 0.3 0 0 0 0.3 0 0.6 0 0.4 0 0.9-0.2 1-0.3 0.1-0.1 2.3-0.1 2.3l-0.5-0.6c0 0-0.1-1.2-0.3-2.5q0 0 0 0 0-0.5-0.1-1c0-1.3 0.1-3.8 1.5-5.2 1-0.5 2.6-1 5.2 0 0 0 0.7 0.2 0.9 0.4 1.6 2.2 1.2 5.9 1.2 5.9z"></path><path class="a4" d="m153.5 190.9c0 0 0.7 1.1 2.1 1 1.5 0 2.2-1 2.2-1 0 0-0.7 1.8-2.2 1.8-1.4 0-2.1-1.8-2.1-1.8z"></path><path class="a5" d="m158.4 195.8l-1.4 1.4c0 0 1.2-3.2 1.2-4.5z"></path><path class="a6" d="m158.2 192.7l1.1 1.1 1 3.8-1.9-1.8z"></path><path class="a3" d="m183.4 215.4c0 0-8.7 2.7-10.9 2.1-1-0.3-2.3-1.9-3.5-3.9q-0.7-0.9-1.2-1.9 0 0 0 0c-1.6-2.7-2.7-5.2-2.7-5.2 0 0-4.6-6.4-0.9-9.2 0 0 1.5-0.2 2.4 0.6 0.8 0.7 2.7 5.1 3 6 0.3 0.8 3.8 8.5 4 8.7 0.2 0.2 3.2-0.5 4.7-0.6 2.5-0.3 4.6-1.1 4.6-1.1z"></path><path class="G" d="m158 193.8c0 0-0.4 1.8-1 3.4 0 0-1.6-1.7-2.1-2.3-0.5-0.6 3.1-1.1 3.1-1.1z"></path><path class="a5" d="m155.3 195.3l1.7 1.9c0 0-2-0.2-2.3-0.6z"></path><path class="a6" d="m153.2 191.9c0 0 1.3 2.6 2.1 3.4l-1.4 2.9-2.3-5.1z"></path><path class="a3" d="m146.2 217.8c-0.2 2.7 0.8 17.7-0.1 17.9-1 0.2-4.5-0.7-4.5-0.7 0 0-0.4-16.1-0.3-17.8 0.1-1.2 1.8-19.7 2.6-20.4 0.5-0.4 4.2-2 6-2.8 0.3-0.2 1.4-0.7 1.7-0.9 0.3 0.5 3.7 9.9 4 17.3 0.1 2.2-0.4 6.9-0.7 10.8-0.3 4.1-0.7 7.3-1 10.7-0.6 6.8-1 12.2-1 12.2l-5.6-3c-0.9-0.6-2.1-2.8-1.8-4 1.3-4.3 2.9-11.8 2.9-15.6 0 0-0.6-9.4-1.1-11.4 0 0-0.9 4.3-1.1 7.7z"></path><path class="a7" d="m156.6 233.2h3.7v3.3h-3.7z"></path><path class="N" d="m148.3 250.7h-12.2l2.9-9.8h12.1z"></path><path class="a8" d="m148.3 250.7h-12.2l2.9-9.8h12.1z"></path><path class="a9" d="m136.1 250.7h12.2l2.8 9.8h-12.1z"></path><path class="a8" d="m148.3 270.2h-12.2l2.9-9.7h12.1z"></path><path class="a9" d="m136.1 270.2h12.2l2.8 9.8h-12.1z"></path><path class="O" d="m139.7 242.5h6.9v0.4h-6.9z"></path><path class="O" d="m139.3 243.9h6.9v0.3h-6.9z"></path><path class="O" d="m138.8 245.2h5.6v0.3h-5.6z"></path><path class="O" d="m139.7 262h6.9v0.4h-6.9z"></path><path class="O" d="m139.3 263.3h3.4v0.4h-3.4z"></path><path class="o" d="m145.4 235.9c0 0 0 0.2 0.1 0.6 0.2 0.8 0.9 1.6 0.5 2.6-0.4 1-3.4 0.3-3.8-0.1-0.5-0.5-0.3-2 0.8-3.9 1-2 2.4 0.8 2.4 0.8z"></path><path class="o" d="m146.1 238.7c0 0-0.1 1.6-0.3 3.4-0.2 1.6-0.6 3.6-0.9 3.5-0.5-0.1 0-1.6 0.1-3.2 0.1-1.5-0.2-1.2-0.2-1.2 0 0 0.1-0.1-0.3 1.5-0.3 1.7-0.8 3.5-1.1 3.5-0.3-0.1-0.4-0.1-0.3-0.8-0.1 0.4-0.2 0.4-0.3 0.4-0.7-0.2-0.5-2.8-0.4-3.8 0 0.8-0.2 1.3-0.5 0.9-0.4-0.5 0.1-4.1 0.1-5.4 0.1-1.5 4.1 1.2 4.1 1.2z"></path><path class="a3" d="m146.4 225.4l-0.1 11.9c0 0-2-0.1-4.7-1.4l-0.2-16.7z"></path><path class="aa" d="m130.6 219.9l-6.8 18.6-0.2 0.5c-0.4 0-0.7-0.1-0.8-0.1l0.2-0.4 6.7-18.4-9.8-12.8-1.5-0.4 0.1-0.8 1.7 0.4z"></path><path class="ab" d="m120.1 241.6c0-0.9 0.4-2.8 2.9-2.8 2.4 0 3.1 1.9 3.3 2.8 0.1 0.3 0.1 0.5 0.1 0.5h-6.3c0 0-0.1-0.2 0-0.5z"></path><path class="ac" d="m119.4 206.6c0.5 1.5 0.3 3.2-0.4 4.5-0.5 1.1-1.3 2-2.4 2.4l-2.6-8.8-0.4-1.5c2.4-1 5 0.5 5.8 3.4z"></path><path class="ad" d="m123.9 238.5v0.4q-0.2 0.1-0.3 0.1c-0.4 0-0.7-0.1-0.8-0.1q0 0 0 0v-0.4h0.2 0.8z"></path><path class="ae" d="m120.1 241.6h6.2c0.1 0.3 0.1 0.5 0.1 0.5h-6.3c0 0-0.1-0.2 0-0.5z"></path><path class="ad" d="m119.4 206.6c0.5 1.5 0.3 3.2-0.4 4.5-1.1-2.5-3.4-5-5-6.4l-0.4-1.5c2.4-1 5 0.5 5.8 3.4z"></path><path class="o" d="m92.2 218.9c0 0 1.1-1.7 1.3-1.9 0.2-0.3 0.9-0.5 1.7-0.7 0.8-0.2 1.9 0 2 0.2 0.1 0.1 0.2 0.2 0.3 0.6 0 0.5-0.2 1-0.2 1 0 0 0.3 0.5 0.1 1 0 0 0.2 0.5-0.2 1.1 0 0 0.2 0.5 0 0.8 0 0-0.7 0.3-0.9 0.5-0.3 0.1-1.7 0.5-3.2 0.6 0 0-1.3-0.5-0.9-3.2z"></path><path class="af" d="m60.4 270.7l-6.3 31.6h-1.4l5.4-31.6z"></path><path class="af" d="m67.3 270.7l-6.3 31.6h-1.4l5.3-31.6z"></path><path class="af" d="m80.7 270.7l5.3 31.6h-1.4l-6.2-31.6z"></path><path class="ag" d="m84.3 271h-27.1c0 0-1.9 0-3.1-6.8-1.5-7.5-4.3-32.8-4.3-32.8 0 0 0.7-2.4 12.6-2.1l21.4 33.4c0 0 0.7 5.2 0.5 8.3z"></path><path class="o" d="m85.1 239.5c0 0 1.4-0.7 2.5-0.5 1 0.3 3.4 1.4 4.6 1.6 1.2 0.2 2.4 1 2.3 1.5 0 0.5-9.2 0.9-9.3-0.2 0-1.1-0.1-2.4-0.1-2.4z"></path><path class="o" d="m93.5 222.1c0 0-2.7 1.6-2.7 1.6-0.1 0-0.5-2.2-0.4-3 0-0.4 1.8-1.8 1.8-1.8z"></path><path class="a0" d="m92.2 296.9c0 0 2.3 1.7 3.4 2.3 1 0.6 5.1 0.8 5.5 1.3 0.4 0.4 0.3 1.9-0.4 2-0.7 0.2-5.7 0.7-7.3 0.2-1.7-0.4-4.8 0.3-5.5 0.1-0.6-0.3-0.2-4.8 0.1-5.8 0.2-1 4.2-0.1 4.2-0.1z"></path><path class="ah" d="m92.2 295v1.9c0 0-3.1 0.7-4.2 0.1l0.1-2.1z"></path><path class="a3" d="m97.6 296.9c0 0 2.4 1.7 3.4 2.3 1.1 0.6 5.2 0.8 5.6 1.3 0.4 0.4 0.2 1.9-0.5 2-0.6 0.2-5.6 0.7-7.3 0.2-1.6-0.4-4.7 0.3-5.4 0.1-0.7-0.3-0.3-4.8 0-5.8 0.3-1 4.2-0.1 4.2-0.1z"></path><path class="ah" d="m97.6 295v1.9c0 0-3.1 0.7-4.2 0.1l0.1-2.1z"></path><path class="ai" d="m79.3 251.1l-3.5-0.7 2.4-7.2z"></path><path class="aj" d="m68.8 252.6c0 0 17.7 4.5 20.5 5.9 2.7 1.4 4.4 2 4.6 2.7 0.2 0.7 4.6 34.6 4.6 34.6h-5.9c0 0-4.6-25.6-5.2-27.1-0.5-1.6-22.5-1.7-24.1-3.6-1.6-1.9-2.9-7.2-1.2-11.9 1.7-4.7 6.7-0.6 6.7-0.6z"></path><path class="aj" d="m77.7 250.2c0 0 20.4 6.9 22.1 10 1.7 3.2-6.8 35.6-6.8 35.6h-5.8c0 0 5.6-30.3 4.9-31.6-0.7-1.4-31.4-0.1-25.7-11 5.7-10.9 11.3-3 11.3-3z"></path><path class="a3" d="m75.6 216.1c0.8-0.4 3.4 0.6 4.1 2 1.8 3.3 5.1 7.4 5.1 7.4l7.4-7.5 1.4 4.5-8.7 8.9c-0.8 0.7-1.9 0.7-2.6-0.2-2.3-2.6-7-8.3-7.4-9.7-0.5-1.9-0.7-4.4 0.7-5.4z"></path><path class="G" d="m73.1 197.1c0 0 3.6 0.7 3.6 7.9 0 7.2-2.2 7.9-5.7 6.8-2.1-0.6-4-4.1-3.2-10.3 0.7-6.2 5.3-4.4 5.3-4.4z"></path><path class="N" d="m73.6 214.3c0 0 4.9 2.1 5.6 3.5 0.7 1.3 0.2 13.3-0.2 17.6-0.4 4.3-1.5 13.5-1.3 14.8l-11.3 3c0 0-3.6-15.9-3.7-18.5-0.1-2.5-2.8-14.3-1.5-15.3 1.3-1 6.9-4.7 6.9-4.7z"></path><path class="ak" d="m66.4 253.2l-0.5-2.5 11.9-2.8-0.1 2.3z"></path><path class="al" d="m72.3 249.1l2.9-0.7v2.7l-2.9 0.8z"></path><path class="a3" d="m71.1 242.1q-0.1 1-0.1 2.1c-0.4 7.9-1 16.2-1 16.2-0.9 0.9-11.3-2.1-11.3-2.1 0 0 1.2-2.1 2.5-7.9 1.2-5.9 0.3-11.5-1-21-1.3-9.5-0.3-9.4-0.3-9.4l8.2-5.3c0.5 2.4 2.6 11.2 3.1 16.3 0.2 1.8 0.1 6.2-0.1 11.1z"></path><path class="a3" d="m79.9 218.4c0.4 1.4-0.6 15.3-0.3 21.5 0.1 2.8 0.3 11.1 0.3 11.1 0 0 0.3 0.3-0.8-0.1-1.1-0.3-1-14.1-2.1-21.8-1-7.4-3.3-14.8-3.3-14.8 2.5 0.6 5.7 2.7 6.2 4.1z"></path><path class="G" d="m73.5 213.2c0 0.4 0 0.8 0.1 1.1 0 0-0.6 2.9-5.5 0.4 0 0 0.9-4.4 0-8l5.5 4.1c0 0-0.1 0.7-0.1 1.4q0 0.5 0 1z"></path><path class="am" d="m68.3 213.5c0 0 1.9 1.1 3.8 1.4l-0.9 2.4-3.1-2.6z"></path><path class="am" d="m72.1 214.9c0 0 1.4-0.6 1.4-1.4l0.2 0.8-0.6 2.6z"></path><path class="an" d="m70.7 201.8c-1.1 0.7 0 2.5 0 2.5 0 0-1.5 0.4-1.9 1.2-0.3 0.6-0.3 4.1-0.3 4.1 0 0-0.2-0.3-1.5-3.7-1.2-3.5-2.1-6.4 0.8-9.2 2.8-2.8 4.5-0.5 5.3-0.7 0.9-0.3 2.7-1 3.4 0.8 0.8 1.9-0.2 4.5-0.2 4.5-2.2 1.1-4.5-0.2-5.6 0.5z"></path><path class="G" d="m69.1 206.2c-0.5 0-1.5-1.7-1.1-2.7 0.4-1 1.1-0.4 1.2 0.1 0.4 1.2 0.4 2.6-0.1 2.6z"></path><path class="i" d="m72.1 214.9l0.7 1.4c0 0-0.3 0.5-1.3 0.3z"></path><path class="i" d="m72.7 216.5c0 0 2.9 10.3 2.9 17.6 0 7.3-0.4 11.6-0.4 11.6l-0.7 1.5-0.9-1.3c0 0 0.7-21.3-1.9-29.3 0 0 0.9-0.5 1-0.1z"></path><path class="a3" d="m60.8 219.4c2.2-1.1 4.4 2.5 5.6 6 1.1 3.6 3.4 10 3.4 10l15.7 3.1 0.2 3.6h-18.3c0 0-7-15.1-7.5-17-0.5-1.8-0.6-5 0.9-5.7z"></path><path class="ag" d="m80.2 242.1h51.8v2.1h-51.8z"></path><path class="ao" d="m110.5 204.5h1.3v33.3h-1.3z"></path><path class="ap" d="m112.1 241.4c-0.3-0.5-0.3-1.1-0.3-1.2v-14.6h0.5v14.6c0 0 0 0.5 0.3 0.8q0.3 0.4 1 0.4h9.3v0.7h-9.3q-1 0-1.5-0.7z"></path><path class="ao" d="m101.1 240.9h9.6v1.2h-10.5v-0.1c0-0.6 0.4-1.1 0.9-1.1z"></path><path class="aq" d="m126.6 244.2h1.5v58.4h-1.5z"></path><path class="aq" d="m84.1 244.2h1.4v58.4h-1.4z"></path><path class="ak" d="m71.1 242.1q-0.1 1-0.1 2.1c0 0-2.1 0.4-3.8-0.6-1.7-0.9-2.9-8-3-8.4 0.2 0.4 2.9 6.9 3.6 6.9 0.7 0 3.3 0 3.3 0z"></path><path class="s" d="m73.5 212.2q0 0.5 0 1c-3.9 0-4-2.6-4-2.6 0.6 1.9 4 1.6 4 1.6z"></path><path class="ar" d="m94.9 218.9l-0.3-0.4 4.2-5 0.4 0.4z"></path><path class="o" d="m98.8 213.5l0.8-0.5-0.4 0.9z"></path><path class="as" d="m97.2 216.5c0.6 0.5 0.2 1.5 0.2 1.5 0.2 0.7 0 1.1 0 1.1 0.2 0.6-0.1 1.1-0.1 1.1 0.2 0.6-0.1 0.8-0.1 0.8 0 0-1.3 0.5-1.7 0.3-0.3-0.1-0.2-0.7-0.2-0.7-0.8-0.1-0.4-0.8-0.4-0.8-0.8-0.2-0.5-1-0.5-1l0.8-0.7c0 0-0.2-0.2-0.2-0.6 0-0.5 2-1 2-1 0.1 0 0.2 0 0.2 0z"></path><path class="o" d="m93.6 216.9c0 0 1.3 0.5 1.9 1.3 0.2 0.1 0.3 0.3 0.2 0.5 0 0.3-0.4 0.5-1 0.3-0.6-0.2-1.4-0.1-1.4-0.1 0 0-0.5-0.4 0.3-2z"></path><path class="at" d="m95.3 271.3c0 0-1.3-9.3-1.3-9.7-0.1-0.4-1.4-1.7-7.4-4.1 0 0 6.7 1.6 8.5 2.9 1.3 1.1 0.2 10.9 0.2 10.9z"></path><path class="au" d="m118.9 242.1c0 0-1.3-2.7-1.8-7.2h6.1c0 0-0.1 0.4-0.3 1.1-0.5 2-1.6 5.8-2.3 6.1z"></path><path class="av" d="m120.6 232.6c0 0-0.4-3.1 1.8-4.1 0 0 0.7 1.3 0.2 2-0.5 0.8-1.5 1.9-1.5 2.1 0 0.3-0.5 0-0.5 0z"></path><path class="av" d="m118.9 230.8c0.2-1-0.7-2.2-1.5-3.2-0.8-1.1-0.3-3.1-0.3-3.1 0 0 0 1.5 1.6 2.2 1.6 0.7 1.4 6 1.4 6h-0.2c0 0-1.1-0.9-1-1.9z"></path><path class="aw" d="m119.3 242.1h-0.4c0 0-1.3-2.7-1.8-7.2h6.1c0 0-0.1 0.4-0.3 1.1-1.4 0.5-3.7 1.9-3.6 6.1z"></path><path class="ax" d="m123.4 234.9h-6.7l0.3-2.3h6.2z"></path></svg> 