<?xml version="1.0" encoding="UTF-8"?> <svg xmlns="http://www.w3.org/2000/svg" version="1.2" viewBox="0 0 400 320" width="400" height="320"><style>.a{fill:none;stroke:#e4e4e4;stroke-width:.6;stroke-dasharray:5.051019506349979,5.051019506349979}.b{fill:#f6f5f5}.c{fill:#a9bae6}.d{fill:#e4e4e4}.e{fill:#fff}.f{fill:#708cd5}.g{fill:#d3dfff}.h{fill:#fff;stroke:#708cd5;stroke-width:.9}.i{fill:#ee6f57}.j{fill:#f9b384}.k{fill:#1f3c88}.l{fill:#e28b6d}.m{fill:#102048}.n{opacity:.6;fill:#102048}.o{opacity:.3;fill:#1f3c88}.p{opacity:.6;fill:#e28b6d}.q{fill:#6f3428}.r{fill:#fbc343}.s{opacity:.3;fill:none;stroke:#6f3428;stroke-width:1.3}.t{opacity:.4;fill:#fc8879}.u{opacity:.6;fill:#6f3428}.v{fill:none;stroke:#102048;stroke-width:1.3}</style><path class="a" d="m385.3 209.3c19.5 35.8-8.7 106.2-187.7 57.3-89.8-24.5-156.8 30.7-170.6-7.8-32.2-89.8 99.2-193.7 172.3-121.2 66.8 66.3 150.5 6.4 186 71.7z"></path><path class="b" d="m384.3 288.2h-365c11.4-86.7 88.8-153.8 182.5-153.8 93.7 0 171.1 67.1 182.5 153.8z"></path><path class="c" d="m187.8 73.3c0-6.6 5.4-12 12-12h136.5c6.6 0 12 5.4 12 12v202.2c0 6.6-5.4 12-12 12h-136.5c-6.6 0-12-5.4-12-12z"></path><path class="b" d="m202.3 70.4h132.1v197.1h-132.1z"></path><path class="d" d="m334.4 70.4c0 76.9 2.5 169.6-5.9 190.1-37.1 3.7-80.4 4.9-126.2 5.1l17.4-194.6z"></path><path class="e" d="m322.5 254.3c-57.6 9.5-96.2 10-127.5 7.6 4.1-44.3 5.7-117.9 7.3-191.4l69.6 0.1 62.9 4.3c0.9 76.3 1 146.8-12.3 179.4z"></path><path class="f" d="m301.9 101.2l-69.5-1.7 0.3-10.9 69.5 1.7z"></path><path class="f" d="m315.4 121.9l-62.6-1.5 0.1-5 62.7 1.5z"></path><path class="g" d="m295.1 132.2l-42.6-1 0.1-5 42.6 1.1z"></path><path class="h" d="m232.8 130.5l-14.8-0.4 0.3-15.3 14.8 0.4z"></path><path class="i" d="m223.4 119.5q0.5 1.7 0.9 3.4c0 0 0.8 2.4 0.4 2.1q-0.9-0.3-1.8-0.6c1.1-0.2 2.7-2.9 3.4-3.7q1.5-1.8 3.1-3.5 3-3.6 6-7.1c0.8-0.9 3.4 0.8 2.8 1.5q-3.4 4-6.9 8-1.7 2-3.4 4c-0.6 0.7-1.3 2-2.2 2.5-3.7 2.1-4.5-5.4-5-7.2-0.3-1.4 2.5-0.3 2.7 0.6z"></path><path class="f" d="m303.7 149.3l-51.6-1.2 0.2-5 51.6 1.3z"></path><path class="g" d="m314.6 160.4l-62.7-1.5 0.1-4.9 62.7 1.5z"></path><path class="h" d="m232.2 158.2l-14.9-0.4 0.4-15.2 14.8 0.3z"></path><path class="i" d="m222.8 147.7q0.4 1.6 0.8 3.3c0.1 0.1 0.8 2.5 0.4 2.1q-0.8-0.3-1.7-0.5c1-0.3 2.7-2.9 3.4-3.7q1.5-1.8 3-3.6 3.1-3.5 6.1-7.1c0.7-0.8 3.3 0.9 2.7 1.6q-3.4 3.9-6.8 7.9-1.7 2-3.4 4c-0.7 0.8-1.4 2.1-2.2 2.5-3.7 2.1-4.6-5.4-5-7.2-0.4-1.4 2.5-0.3 2.7 0.7z"></path><path class="f" d="m314.2 177.3l-62.7-1.5 0.1-5 62.7 1.5z"></path><path class="g" d="m279.3 187.3l-28-0.7 0.1-4.9 28 0.6z"></path><path class="h" d="m231.5 185.9l-14.8-0.4 0.3-15.2 14.9 0.3z"></path><path class="i" d="m222.4 175.6q0.4 1.6 0.8 3.3c0 0.1 0.8 2.5 0.4 2.1q-0.9-0.2-1.7-0.5c1-0.3 2.6-2.9 3.3-3.7q1.6-1.8 3.1-3.6 3-3.5 6.1-7.1c0.7-0.8 3.3 0.9 2.7 1.6q-3.4 3.9-6.8 7.9-1.8 2-3.5 4c-0.6 0.8-1.3 2.1-2.2 2.5-3.6 2.2-4.5-5.4-4.9-7.2-0.4-1.4 2.4-0.2 2.7 0.7z"></path><path class="f" d="m313.5 205l-62.6-1.5 0.1-5 62.6 1.5z"></path><path class="g" d="m300.1 215.5l-49.5-1.1 0.1-5 49.5 1.2z"></path><path class="h" d="m230.9 213.6l-14.8-0.4 0.3-15.2 14.8 0.3z"></path><path class="i" d="m221.7 203.1q0.5 1.7 0.9 3.3c0 0.1 0.7 2.5 0.3 2.2q-0.8-0.3-1.7-0.6c1.1-0.2 2.7-2.9 3.4-3.7q1.5-1.8 3.1-3.6 3-3.5 6-7c0.8-0.9 3.4 0.8 2.8 1.5q-3.5 4-6.9 8-1.7 2-3.4 4c-0.6 0.7-1.3 2-2.2 2.5-3.7 2.1-4.5-5.5-5-7.3-0.3-1.3 2.5-0.2 2.7 0.7z"></path><path class="f" d="m275.1 231.6l-24.9-0.6 0.2-5 24.8 0.6z"></path><path class="g" d="m311.4 242.6c-6.3 1-37.2-0.2-61.4-0.7l0.1-5 62.7 1.5c0.1 1.7-0.4 3.1-1.4 4.2z"></path><path class="h" d="m230.5 241.1l-14.9-0.4 0.4-15.2 14.8 0.3z"></path><path class="i" d="m221.1 230.4q0.4 1.7 0.9 3.3c0 0.1 0.7 2.5 0.3 2.2q-0.8-0.3-1.7-0.6c1.1-0.2 2.7-2.9 3.4-3.7q1.5-1.8 3-3.6 3.1-3.5 6.1-7.1c0.7-0.8 3.3 0.9 2.7 1.6q-3.4 4-6.8 8-1.7 2-3.4 3.9c-0.7 0.8-1.4 2.1-2.2 2.6-3.7 2.1-4.5-5.5-5-7.3-0.3-1.3 2.5-0.2 2.7 0.7z"></path><path class="i" d="m297.8 62.7v15.2h-59.5v-15.2c0-2.4 1-4.6 2.5-6.2q0.3-0.3 0.6-0.6c1.5-1.2 3.4-2 5.5-2 1.5 0 3-0.4 4.4-1q0.8-0.4 1.6-1c1.7-1.3 3-3.2 3.6-5.3 0.7-2.3 2.1-4.1 3.8-5.4 1.7-1.3 3.7-2 5.9-2h3.7c2.2 0 4.2 0.7 5.9 2 1.8 1.3 3.1 3.1 3.8 5.4 0.6 2.1 1.9 4 3.6 5.3q0.8 0.6 1.7 1c1.3 0.6 2.8 1 4.4 1 2 0 3.9 0.8 5.4 2 1.9 1.6 3.1 4.1 3.1 6.8z"></path><path class="d" d="m302.6 70.4v11.4h-69.1v-11.4h4.8v7.5h59.5v-7.5z"></path><path class="e" d="m268.1 53.5c-2.9 0-5.3-2.3-5.3-5.2 0-2.8 2.4-5.1 5.3-5.1 2.9 0 5.2 2.3 5.2 5.1 0 2.9-2.3 5.2-5.2 5.2z"></path><path class="j" d="m154.1 119.5c-2.1-0.4-4.1-4-4.8-5.4q-0.3-0.5-0.1-1.1l0.8-4.6c0 0 1.9 0.4 1.8 3q0 0.4 0.1 0.8l0.8 2 2.1-1.7-1.2-3.5c0 0-1.6 0.4-2.4 0.2-1.7-0.6 0.5-1.9 1.2-2.1 0.8-0.1 2.3-0.7 3 0.5 0.7 1.3 1.1 2 1.1 2 0 0 0.8-2.8 0.3-9 0-0.2 0.6-0.2 0.8 0 0.6 0.6 1.5 2.4 1.6 7.9 0 0 0.1-6.4 1.1-7.1 0.9-0.5 1.4 2.6 0.7 7.9 0 0 1.2-4.6 2-4.6 1.4 0 0 12.3-3.5 16z"></path><path class="j" d="m160.7 117.6q-0.1 1-0.2 1.8-0.4 3.1-0.9 5.5-0.1 0.1-0.1 0.2c-1.1 4.5-1.2 6.7-4.9 6.1l-3.7-4.4h-0.1l-0.2-0.3 0.7-2.4 0.1-0.3 0.6-1.6v-0.2l1-2.9 0.4-1.2z"></path><path class="k" d="m100 277.5l-1.5 10.3h-18.9c0.2-3 4.1-5.5 10.6-7.7l0.9-3.1c2 0.8 5.1 1.5 8.9 0.5z"></path><path class="j" d="m101 270.9l-1 6.6c-3.8 1-6.9 0.3-8.9-0.5l2.4-7.6z"></path><path class="j" d="m117 276.6l0.5-7.2 8.9-0.4-0.6 7.7c-1.9 0.6-5 1.1-8.8-0.1z"></path><path class="k" d="m116.2 287.8l0.8-11.2c3.8 1.2 6.9 0.7 8.8 0.1l-0.2 3.1c7.3 1 10.6 5 10.9 8z"></path><path class="j" d="m118.6 121.5l-10.7 0.1v-16.6h10.4v1 5.3l0.1 8.4z"></path><path class="l" d="m118.3 112.1c-1.9 2-6.9-0.3-9-2.6l9-2.7z"></path><path class="j" d="m120.8 101.1c0 1.2 0 2.5-0.2 3.8-0.6 3.3-2 6.2-5.1 6.3-7.6 0.2-9.7-4.2-11.1-7.8-1.5-3.6 0.8-12.4 0.8-12.4l9.8-1 5.3 4.5c0 0 0.6 3.1 0.5 6.6z"></path><path class="m" d="m102.9 100.8c-8.2-8-0.4-11.7-0.4-11.7 2.2-6.5 10-6.7 15.1-4.1 5.2-3.4 8.8 2.3 7.5 6.1-1.8 5.3-7.1 4.5-9 1.9-2.3 2.6-5.1 3.8-8.9 2.5-0.4 5.7-2.5 5.8-2.5 5.8 0 0-1.6-0.3-1.8-0.5z"></path><path class="m" d="m134.3 181.3l-5.9 92h-13.9l3.5-89.2 2.1-1.1z"></path><path class="k" d="m98.5 161.9l36.5 0.9-0.7 18.5-16.4 5.2-14.4 86.8h-15.2l9.8-104.6z"></path><path class="n" d="m97.2 162.8l31.9-4.4 2.9 5.9c-4 4.2-23.5 7.7-31.7 4.7z"></path><path class="e" d="m131.2 162.9q-0.4 0.1-0.8 0.3c-3.1 1.3-6.6 2.4-10.4 3.2-2.2 0.4-4.5 0.7-6.9 0.9-3.6 0.1-7.3-0.1-10.9-0.9l4.6-44.5 0.6-5.4c0 0 6 7.7 12.7-0.8z"></path><path class="o" d="m113.1 167.3c-3.6 0.1-7.3-0.1-10.9-0.9l4.6-44.5 1.7-2.5c4.1 10.3 8.2 32.9 4.6 47.9z"></path><path class="f" d="m107.9 114.7c4.6 20.1 6.5 40.9-0.3 63.9-5 1.9-10.5 1.9-16.4 0.2l1.5-41.8-34.2 24.1-2.1-13.2c13.1-12.9 35.9-32.4 51.5-33.2z"></path><path class="o" d="m130.4 163.2c-3.1 1.3-6.6 2.4-10.4 3.2-2-12.2-2.5-32.1-0.8-41.1z"></path><path class="p" d="m159.6 124.9q-0.1 0.1-0.1 0.2c-1.1 4.5-1.2 6.7-4.9 6.1l-3.7-4.4h-0.1l0.5-2.7 0.1-0.3 0.6-1.6v-0.2z"></path><path class="f" d="m158.9 129c0 0-9.2 20-14.6 20.4-5.3 0.5-7.8-4.8-7.8-4.8l3.7 29.3c-4.4 2.1-9.2 3.1-14.7 2.1-5-16.5-6.8-37.8-7.2-61.5 4 0.2 11.9 0.6 14.8 2.5 5 3.3 11.3 15.3 11.3 15.3l7.3-10.2z"></path><path class="q" d="m46.9 100.8c0 0 0.6-9.6 1.5-9.1 1 0.4 2.9 8.7 2.9 8.7l-2.1 3.4z"></path><path class="i" d="m74.9 273.5l0.2 3.2c0.5 5.6-3.5 10.5-8.9 11h-0.8c-5.4 0.5-10.1-3.6-10.6-9.1l-0.3-3.2z"></path><path class="r" d="m61.5 121.1l13.4 152.4-20.4 1.9-13.3-152.4z"></path><path class="s" d="m66.4 252.3l-7.3 0.6-11.6-133.6 7.2-0.7z"></path><path class="m" d="m74.9 273.5l-20.4 1.9-0.5-6.1-0.4-4.3-1.2-13.1 20.4-1.9 1.2 13.1 0.3 4.3z"></path><path class="r" d="m74.3 267.4l-20.3 1.9-0.4-4.3 20.4-1.9z"></path><path class="i" d="m41.2 123l5.6-23.4c0 0 2 0.9 4.3-0.6l10.4 22.1z"></path><path class="j" d="m107.2 105.7c0.2 0.6-3 0.5-3.3 0.4-1-0.2-1.8-0.9-2.3-1.7-0.9-1.4-1.2-4.1 0.6-5 0.6-0.2 1.1-0.1 1.6 0 0.4 0.1 1.9 0.6 2 0.9 0 0.1 1.4 5.4 1.4 5.4z"></path><path class="j" d="m48.2 161.9c-0.5 1.2-3.4 1.9-3.4 1.9l0.4 3.6c-4.7-0.9-5.8-7.8-5.5-10 0.3-2.3 2.3-3.7 4.6-4.6 1.5-0.5 3.1 0.4 3.6 1.9 0.8 2.5 0.7 6.3 0.3 7.2z"></path><path class="k" d="m135.1 131q0.3 2.2 0.6 4.5c0.2 1.5 0.4 3.1 0.6 4.6l0.5 4.5q0.2 2.3 0.3 4.6h-0.2q-0.4-2.2-0.7-4.5l-0.5-4.6c-0.2-1.5-0.4-3-0.5-4.5q-0.2-2.3-0.4-4.6z"></path><path class="k" d="m93.2 130.7q0 2.6-0.1 5.1c-0.1 1.7-0.2 3.4-0.2 5.1l-0.3 5.1q-0.1 2.5-0.4 5h-0.2q0-2.5 0.1-5.1l0.2-5c0.1-1.7 0.1-3.4 0.2-5.1q0.2-2.6 0.4-5.1z"></path><path class="m" d="m113.3 100.2c0.2 0.6-0.1 1.2-0.5 1.3-0.4 0.1-0.9-0.4-1-1-0.1-0.6 0.1-1.1 0.5-1.2 0.5-0.1 0.9 0.3 1 0.9z"></path><path class="m" d="m118.8 100.5c-0.5 0-0.8-0.5-0.8-1.1 0-0.6 0.3-1.1 0.8-1.1 0.4 0 0.8 0.5 0.8 1.1 0 0.6-0.4 1.1-0.8 1.1z"></path><path class="l" d="m116.1 99.9c0.2 0.6 0.2 1.1 0.3 1.6q0.1 0.3 0.3 0.5c0.1 0.1 0.3 0.2 0.6 0.3 0.3 0.1 0.5 0.3 0.7 0.6 0.2 0.2 0.3 0.7 0.1 1-0.2 0.3-0.4 0.5-0.6 0.7q-0.3 0.2-0.6 0.4l-0.2-0.2q0.2-0.3 0.5-0.6c0.2-0.2 0.4-0.4 0.4-0.5 0.1-0.3-0.1-0.6-0.5-0.8-0.3-0.1-0.6-0.2-0.8-0.5-0.2-0.2-0.4-0.5-0.4-0.8-0.1-0.6 0-1.1 0-1.6z"></path><path class="m" d="m110.4 98.6c0.1-0.4 0.3-0.8 0.6-1 0.3-0.3 0.7-0.4 1.1-0.5 0.9 0 1.7 0.5 2 1.2l-0.2 0.1c-0.5-0.4-1.1-0.7-1.7-0.6-0.6 0-1.2 0.3-1.6 0.9z"></path><path class="m" d="m116.8 97.8q0.1-0.5 0.5-0.8c0.2-0.3 0.5-0.4 0.9-0.5 0.6-0.1 1.4 0.3 1.6 0.9l-0.2 0.1c-0.4-0.3-0.9-0.4-1.3-0.4q-0.4 0.1-0.7 0.3-0.3 0.2-0.6 0.5z"></path><path class="e" d="m113.4 106.1c1 1.8 2.5 2 3.6 0.1z"></path><path class="t" d="m120.9 100.7c0 1.2-0.1 2.9-0.3 4.2-0.8-0.3-1.3-1-1.3-1.9 0-0.9 0.7-2.2 1.6-2.3z"></path><path class="t" d="m110.7 106.2c-1.1 0-2-0.9-2-2 0-1.2 0.9-2.1 2-2.1 1.1 0 2 0.9 2 2.1 0 1.1-0.9 2-2 2z"></path><path class="l" d="m104.5 102.4c-0.4-0.3-0.8-0.6-1.2-0.8q-0.2-0.1-0.5-0.1-0.2 0-0.5 0.2l-0.2-0.1c0.1-0.2 0.3-0.5 0.6-0.6 0.3-0.2 0.7-0.1 0.9 0.1q0.8 0.4 1.1 1.1z"></path><path class="u" d="m48.2 161.9l-2.9 9-0.6-7.1c1.8-0.4 2.8-1.1 3.5-1.9z"></path><path class="v" d="m0.5 287.8h402.6"></path></svg> 