<?xml version="1.0" encoding="UTF-8"?> <svg xmlns="http://www.w3.org/2000/svg" version="1.2" viewBox="0 0 400 320" width="400" height="320"><style>.a{fill:#e0e0e0}.b{fill:#f5f5f5}.c{fill:#ff725e}.d{fill:#263238}.e{fill:#455a64}.f{fill:#ebebeb}.g{fill:#fff}.h{fill:#ae7461}.i{fill:#6f4439}.j{fill:#fafafa}.k{fill:#ffbf9d}.l{fill:#ff9a6c}</style><path fill-rule="evenodd" class="a" d="m130.2 53.1c2.5-1.6 5.1-2.8 7.9-3.7l1.6-8.2 13.1-0.3 1.9 8.2c2.8 0.8 5.5 1.9 8 3.4l6.6-4.7 9.5 9.8-4.1 7.2c1.5 2.6 2.6 5.5 3.4 8.4l7.8 1.7 0.2 14-7.7 2c-0.7 2.9-1.7 5.8-3.2 8.5l4.4 7.1-9.1 10-6.8-4.4c-2.5 1.6-5.2 2.9-7.9 3.7l-1.6 8.3-13.1 0.2-1.9-8.2c-2.8-0.7-5.5-1.8-8-3.4l-6.6 4.7-9.5-9.7 4.1-7.3c-1.5-2.6-2.6-5.4-3.4-8.3l-7.8-1.8-0.2-14 7.7-2c0.7-2.9 1.7-5.8 3.2-8.5l-4.4-7 9.1-10.1zm7 18.6c-5.4 6-5.2 15.5 0.4 21.3 5.6 5.7 14.5 5.6 19.9-0.4 5.4-6 5.3-15.5-0.3-21.2-5.6-5.8-14.6-5.6-20 0.3z"></path><path fill-rule="evenodd" class="b" d="m70.6 36.5q2.4-1.5 5-2.3l1-5.2 8.4-0.2 1.2 5.2q2.6 0.7 5 2.1l4.3-2.9 6 6.2-2.7 4.6q1.5 2.5 2.2 5.3l4.9 1.1 0.2 8.8-4.9 1.3q-0.7 2.8-2 5.4l2.8 4.5-5.8 6.4-4.3-2.8q-2.4 1.5-5 2.3l-1 5.3-8.4 0.1-1.2-5.2q-2.6-0.7-5-2.1l-4.3 2.9-6-6.1 2.7-4.6q-1.5-2.6-2.2-5.3l-5-1.1-0.1-8.9 4.9-1.3q0.6-2.8 2-5.4l-2.8-4.5 5.8-6.4zm4.5 11.9c-3.5 3.8-3.4 9.8 0.2 13.5 3.5 3.6 9.2 3.5 12.6-0.3 3.5-3.8 3.4-9.8-0.2-13.5-3.5-3.6-9.2-3.5-12.6 0.3z"></path><path fill-rule="evenodd" class="b" d="m359.8 149.9q2.5-1.6 5.3-2.4l1.1-5.5 8.7-0.2 1.3 5.5q2.8 0.7 5.3 2.2l4.4-3.1 6.3 6.5-2.7 4.8q1.5 2.7 2.3 5.6l5.2 1.2 0.1 9.3-5.1 1.3q-0.7 3-2.1 5.7l2.9 4.7-6.1 6.7-4.5-2.9q-2.5 1.6-5.3 2.4l-1.1 5.6-8.7 0.1-1.3-5.4q-2.8-0.8-5.3-2.3l-4.4 3.1-6.4-6.5 2.8-4.8q-1.5-2.7-2.3-5.6l-5.2-1.1-0.1-9.4 5.1-1.3q0.7-3 2.1-5.7l-2.9-4.7 6.1-6.7zm4.7 12.4c-3.6 4-3.5 10.3 0.2 14.2 3.7 3.8 9.7 3.7 13.3-0.3 3.6-3.9 3.5-10.3-0.2-14.1-3.8-3.9-9.7-3.8-13.3 0.2z"></path><path fill-rule="evenodd" class="a" d="m30.2 105.3q2.8-1.7 5.7-2.6l1.2-6 9.5-0.2 1.4 5.9q3 0.8 5.8 2.5l4.8-3.4 6.9 7-3 5.3q1.6 2.9 2.5 6.1l5.6 1.2 0.2 10.2-5.6 1.4q-0.8 3.2-2.3 6.2l3.2 5.1-6.7 7.3-4.9-3.2q-2.7 1.8-5.7 2.7l-1.2 6-9.5 0.2-1.4-6q-3-0.8-5.7-2.4l-4.9 3.3-6.8-7 3-5.3q-1.7-2.8-2.5-6l-5.7-1.3-0.1-10.1 5.6-1.5q0.7-3.2 2.2-6.1l-3.1-5.2 6.6-7.3zm5.1 13.5c-3.9 4.4-3.8 11.3 0.2 15.4 4.1 4.2 10.6 4.1 14.5-0.2 3.9-4.4 3.8-11.3-0.2-15.4-4.1-4.2-10.6-4.1-14.5 0.2z"></path><path class="c" d="m-0.2 283.8q198 0 396 0"></path><path class="d" d="m197.8 284c-109.5 0-198-0.1-198-0.2 0-0.1 88.5-0.1 198-0.1 109.5 0 198 0 198 0.1 0 0.1-88.5 0.2-198 0.2z"></path><path class="e" d="m364.4 254.7q-4.4 0.7-8.8 1.4-5.3-15.3-10.5-30.7c-1.1-3.2-2.3-6.5-2-9.9 0.2-3.4 1.3-6.7 4.5-7.5 3.4 0.1 6.5 2.3 7.6 6.4 3.8 13.7 5.9 26.5 9.2 40.3z"></path><path class="d" d="m347.7 207.8c0 0-0.5 0.5-1 1.5-0.6 1.1-1.2 2.8-1.2 5-0.1 2.2 0.5 4.8 1.4 7.6 0.9 2.7 1.8 5.8 2.8 9 2.1 6.3 3.9 12.1 5.2 16.3 0.6 2.1 1.2 3.8 1.5 5q0.3 0.8 0.4 1.4 0.2 0.4 0.1 0.4 0 0-0.1-0.4-0.2-0.5-0.5-1.4c-0.4-1.2-0.9-2.8-1.6-4.9-1.4-4.2-3.2-10-5.3-16.3-1-3.2-1.9-6.3-2.8-9-0.9-2.8-1.4-5.4-1.3-7.7 0-2.2 0.7-4 1.3-5 0.6-1.1 1.1-1.5 1.1-1.5z"></path><path class="d" d="m362.4 253.8q0 0-0.2-0.4-0.2-0.5-0.5-1.3c-0.5-1.2-1.1-2.8-1.8-5-0.6-2.1-1.2-4.6-1.9-7.5-0.6-2.8-1.3-6-2-9.3-0.8-3.3-1.6-6.4-2.5-9.1-0.9-2.8-1.8-5.2-2.8-7.2-1-1.9-1.9-3.5-2.6-4.5-0.3-0.5-0.6-0.8-0.8-1.1q-0.2-0.4-0.2-0.4 0 0 0.3 0.3c0.2 0.3 0.5 0.7 0.8 1.2 0.8 0.9 1.7 2.4 2.7 4.4 1 1.9 2 4.4 2.9 7.2 0.9 2.7 1.8 5.8 2.5 9.1 0.7 3.3 1.4 6.5 2 9.3 0.6 2.9 1.3 5.4 1.9 7.6 0.6 2.1 1.1 3.8 1.6 4.9q0.3 0.9 0.5 1.3 0.1 0.5 0.1 0.5z"></path><path class="d" d="m345.2 223.8c0 0.1-0.5 0.3-1.1 0.5-0.6 0.2-1.1 0.3-1.2 0.2 0-0.1 0.5-0.3 1.1-0.5 0.6-0.2 1.1-0.3 1.2-0.2z"></path><path class="d" d="m344 217.4c0 0.1-0.7 0.2-1.5 0.3-0.8 0-1.5 0.1-1.5 0 0-0.1 0.6-0.3 1.5-0.4 0.8 0 1.5 0 1.5 0.1z"></path><path class="d" d="m344.7 211.5c0 0.1-0.5-0.2-1.1-0.7-0.5-0.4-0.9-0.9-0.9-0.9 0.1-0.1 0.6 0.2 1.1 0.7 0.6 0.4 1 0.9 0.9 0.9z"></path><path class="d" d="m347.2 208c-0.1 0-0.2-0.4-0.2-1 0-0.6 0.1-1 0.2-1 0.1 0 0.1 0.4 0.1 1 0 0.6 0 1-0.1 1z"></path><path class="d" d="m352.8 208.3c0.1 0.1-0.1 0.5-0.4 1.1-0.3 0.5-0.6 0.9-0.7 0.8-0.1 0 0.1-0.5 0.4-1 0.3-0.6 0.7-1 0.7-0.9z"></path><path class="d" d="m356.7 214.8c0 0.1-0.4 0.4-1 0.6-0.6 0.3-1.1 0.5-1.2 0.4 0-0.1 0.5-0.4 1-0.7 0.6-0.3 1.1-0.4 1.2-0.3z"></path><path class="d" d="m359.1 221.5c0 0.1-0.6 0.5-1.4 0.7-0.8 0.2-1.5 0.2-1.5 0.1 0-0.1 0.7-0.2 1.4-0.4 0.8-0.3 1.5-0.5 1.5-0.4z"></path><path class="d" d="m349.1 220c-0.1-0.1-0.1-0.5 0.1-1.1 0.1-0.5 0.3-1 0.4-0.9 0.1 0 0 0.4-0.1 1-0.2 0.6-0.3 1-0.4 1z"></path><path class="d" d="m350.8 228.5c-0.1-0.1 0.1-0.7 0.3-1.5 0.3-0.7 0.6-1.3 0.7-1.3 0.1 0.1-0.1 0.7-0.4 1.5-0.2 0.7-0.5 1.3-0.6 1.3z"></path><path class="d" d="m347.4 231c0 0-0.6-0.1-1.2-0.3-0.7-0.2-1.3-0.4-1.3-0.5 0-0.1 0.6 0 1.3 0.2 0.7 0.2 1.3 0.5 1.2 0.6z"></path><path class="d" d="m349.7 237.8c0 0.1-0.3 0.5-0.8 0.9-0.5 0.4-1 0.7-1 0.6-0.1 0 0.3-0.4 0.8-0.8 0.5-0.5 0.9-0.7 1-0.7z"></path><path class="d" d="m351.5 244.7c0.1 0.1-0.4 0.3-1 0.5-0.6 0.2-1.1 0.3-1.1 0.2 0-0.1 0.4-0.3 1-0.5 0.6-0.2 1.1-0.3 1.1-0.2z"></path><path class="d" d="m359.5 227.3c0 0.1-0.3 0.4-0.9 0.7-0.6 0.2-1.1 0.3-1.1 0.2 0-0.1 0.4-0.3 1-0.5 0.5-0.3 0.9-0.5 1-0.4z"></path><path class="d" d="m361.1 238c0 0.1-0.5 0-1-0.3-0.6-0.2-1-0.5-1-0.6 0-0.1 0.5 0.1 1.1 0.3 0.5 0.3 1 0.5 0.9 0.6z"></path><path class="d" d="m363.6 245.7c0 0.1-0.7-0.1-1.4-0.4-0.8-0.2-1.4-0.5-1.3-0.6 0-0.1 0.6 0 1.4 0.3 0.7 0.3 1.3 0.6 1.3 0.7z"></path><path class="d" d="m352.2 252.2c-0.1 0 0.5-0.5 1.1-1.1 0.7-0.6 1.2-1.1 1.2-1 0.1 0-0.3 0.7-1 1.3-0.6 0.6-1.3 0.9-1.3 0.8z"></path><path class="d" d="m357.8 248.1c-0.1 0-0.3-0.5-0.5-1.1-0.3-0.6-0.5-1.1-0.4-1.2 0 0 0.4 0.4 0.7 1 0.2 0.7 0.2 1.2 0.2 1.3z"></path><path class="d" d="m355.9 238.8c-0.1 0.1-0.4-0.1-0.9-0.4-0.4-0.3-0.7-0.6-0.6-0.6 0-0.1 0.4 0.1 0.8 0.3 0.4 0.3 0.7 0.6 0.7 0.7z"></path><path class="d" d="m362.3 231.1c0.1 0.1-0.5 0.4-1.1 0.4-0.7 0.1-1.3 0-1.3-0.1 0.1-0.1 0.6-0.1 1.2-0.2 0.7-0.1 1.2-0.2 1.2-0.1z"></path><path class="d" d="m362.9 225.6c0 0.1-0.6 0.1-1.2-0.2-0.5-0.2-0.9-0.7-0.8-0.7 0-0.1 0.4 0.2 1 0.4 0.5 0.2 1 0.4 1 0.5z"></path><path class="d" d="m363.9 240.8c0 0.1-0.5 0.2-1 0.1-0.5-0.1-1-0.2-1-0.3 0.1-0.1 0.5-0.1 1-0.1 0.6 0.1 1 0.3 1 0.3z"></path><path class="d" d="m380.1 230.6c-0.1 0.1-0.5-0.3-1-0.8-0.5-0.5-0.8-0.9-0.8-1 0.1-0.1 0.5 0.3 1 0.8 0.5 0.5 0.8 0.9 0.8 1z"></path><path class="e" d="m385.8 259.1l-8.9-2.2c0.8-16.7 3.2-33.3 7.1-49.4 0.6-2.3 1.3-4.8 2.7-6.6 1.4-1.9 3.8-3.2 6-2.5 1.9 0.6 3.2 2.6 3.6 4.7 0.5 2.1 0.2 4.2-0.1 6.3-2.3 17.8-4.9 32.8-10.4 49.7z"></path><path class="d" d="m391.4 198.2q0 0 0 0.2-0.1 0.1-0.2 0.4-0.3 0.6-0.8 1.6c-0.1 0.3-0.3 0.7-0.5 1.2q-0.3 0.6-0.6 1.4-0.3 0.7-0.6 1.6-0.3 0.9-0.7 1.9c-0.9 2.6-1.7 5.8-2.6 9.4-0.8 3.5-1.5 7.5-2.1 11.7-1.2 8.5-1.9 16.1-2.6 21.7-0.4 2.7-0.7 5-0.9 6.5q-0.2 1.1-0.3 1.8 0 0.3-0.1 0.4 0 0.2 0 0.2 0 0 0-0.2 0-0.1 0.1-0.4 0-0.7 0.2-1.8c0.2-1.6 0.4-3.8 0.7-6.6 0.7-5.5 1.4-13.2 2.6-21.6 0.6-4.2 1.3-8.2 2.1-11.8 0.9-3.6 1.8-6.8 2.7-9.4q0.4-1 0.7-1.9 0.3-0.8 0.7-1.6 0.3-0.8 0.6-1.4c0.1-0.4 0.3-0.8 0.5-1.2q0.5-1 0.8-1.5 0.2-0.3 0.2-0.5 0.1-0.1 0.1-0.1z"></path><path class="d" d="m392.3 198.3c0 0 0.5 0.7 0.9 2.1 0.4 1.4 0.6 3.7 0.3 6.3-0.7 5.4-1.8 12.7-3.2 20.7-1.3 8.1-2.6 15.4-3.6 20.6-0.5 2.6-0.9 4.8-1.2 6.2q-0.2 1.1-0.4 1.7 0 0.3-0.1 0.5 0 0.1 0 0.1 0 0 0-0.2 0-0.1 0.1-0.4 0.1-0.6 0.3-1.7c0.2-1.5 0.6-3.6 1.1-6.2 0.9-5.3 2.2-12.6 3.5-20.6 1.3-8.1 2.5-15.4 3.2-20.7 0.4-2.6 0.3-4.8-0.1-6.2-0.4-1.5-0.9-2.2-0.8-2.2z"></path><path class="d" d="m396.3 223.9c0 0.1-0.7-0.2-1.6-0.6-0.9-0.5-1.6-0.9-1.6-1 0.1-0.1 0.8 0.2 1.7 0.7 0.9 0.4 1.6 0.8 1.5 0.9z"></path><path class="d" d="m398.3 214.2c0 0.1-0.7 0.4-1.7 0.8-1 0.4-1.8 0.6-1.8 0.5-0.1-0.1 0.7-0.5 1.7-0.8 1-0.4 1.8-0.6 1.8-0.5z"></path><path class="d" d="m398.4 206.1c0 0.1-0.6 0.1-1.3-0.1-0.7-0.1-1.3-0.3-1.3-0.4 0-0.1 0.6 0 1.3 0.1 0.8 0.1 1.4 0.3 1.3 0.4z"></path><path class="d" d="m389.5 200c0 0.1-0.4-0.5-0.7-1.2-0.4-0.8-0.6-1.4-0.5-1.5 0.1 0 0.4 0.6 0.8 1.3 0.3 0.7 0.5 1.4 0.4 1.4z"></path><path class="d" d="m386 204.6c0 0.1-0.6 0.1-1.3 0-0.7-0.1-1.3-0.3-1.2-0.3 0-0.1 0.6-0.1 1.3-0.1 0.7 0.1 1.2 0.3 1.2 0.4z"></path><path class="d" d="m382.9 214.1c0 0.1-0.6-0.2-1.3-0.6-0.7-0.3-1.2-0.7-1.1-0.8 0-0.1 0.6 0.1 1.3 0.5 0.7 0.4 1.2 0.8 1.1 0.9z"></path><path class="d" d="m382 222.2c0 0.1-0.5 0.3-1.2 0.3-0.7 0.1-1.2 0.1-1.2 0 0-0.1 0.5-0.2 1.2-0.3 0.6-0.1 1.2-0.1 1.2 0z"></path><path class="d" d="m379.8 235.5c0 0.1-0.6 0.2-1.3 0.3-0.7 0-1.3 0-1.3-0.1 0-0.1 0.6-0.2 1.3-0.3 0.7 0 1.2 0 1.3 0.1z"></path><path class="d" d="m378.4 242.8c0 0.1-0.4 0.4-1.1 0.7-0.6 0.2-1.2 0.4-1.2 0.3 0-0.1 0.5-0.4 1.1-0.7 0.6-0.2 1.2-0.4 1.2-0.3z"></path><path class="d" d="m383.3 251.7c-0.1 0.1-0.4-0.5-0.7-1.4-0.4-0.8-0.6-1.5-0.5-1.5 0.1 0 0.4 0.6 0.7 1.4 0.4 0.8 0.6 1.5 0.5 1.5z"></path><path class="d" d="m386.2 238c0 0.1-0.4 0.6-1.1 1.2-0.7 0.5-1.3 0.9-1.3 0.9-0.1-0.1 0.4-0.6 1.1-1.2 0.6-0.6 1.2-1 1.3-0.9z"></path><path class="d" d="m386.5 230.6c-0.1 0.1-0.5-0.3-0.9-0.9-0.4-0.5-0.6-1-0.6-1.1 0.1 0 0.5 0.4 0.9 0.9 0.4 0.6 0.6 1.1 0.6 1.1z"></path><path class="d" d="m388.4 221.4c0.1 0.1-0.3 0.6-0.9 1.2-0.6 0.5-1.1 1-1.2 0.9 0-0.1 0.4-0.6 1-1.2 0.5-0.5 1.1-0.9 1.1-0.9z"></path><path class="d" d="m389.7 214.7c-0.1 0.1-0.6-0.4-1.1-1.1-0.5-0.6-0.9-1.2-0.8-1.3 0 0 0.5 0.4 1 1.1 0.6 0.7 0.9 1.2 0.9 1.3z"></path><path class="d" d="m391.7 205.7c0.1 0-0.2 0.6-0.7 1.3-0.5 0.7-0.9 1.2-1 1.1 0-0.1 0.3-0.6 0.7-1.3 0.5-0.7 0.9-1.2 1-1.1z"></path><path class="d" d="m394.8 197.4c0.1 0.1-0.2 0.7-0.6 1.3-0.5 0.7-0.9 1.2-0.9 1.2-0.1-0.1 0.2-0.7 0.6-1.3 0.4-0.7 0.8-1.2 0.9-1.2z"></path><path class="d" d="m397.1 201.5c0 0.1-0.4 0.4-0.9 0.6-0.5 0.2-0.9 0.3-0.9 0.2-0.1-0.1 0.3-0.4 0.8-0.6 0.5-0.2 1-0.2 1-0.2z"></path><path class="d" d="m394.5 232c-0.1 0.1-0.9-0.1-1.8-0.6-0.9-0.5-1.5-1.1-1.4-1.2 0.1-0.1 0.7 0.4 1.6 0.9 0.9 0.5 1.6 0.8 1.6 0.9z"></path><path class="d" d="m392.8 238.4c0 0.1-0.5 0.2-1.2 0.3-0.7 0.1-1.3 0-1.3-0.1 0-0.1 0.5-0.2 1.2-0.3 0.7 0 1.3 0 1.3 0.1z"></path><path class="d" d="m390.5 249.3c-0.1 0.1-0.7-0.5-1.3-1.4-0.5-0.9-0.8-1.8-0.7-1.8 0.1-0.1 0.5 0.7 1 1.6 0.6 0.9 1.1 1.5 1 1.6z"></path><path class="d" d="m375.5 252.9c-0.1-0.1 0.3-0.5 0.9-0.9 0.5-0.4 1-0.7 1.1-0.6 0 0.1-0.4 0.5-0.9 0.9-0.6 0.4-1.1 0.7-1.1 0.6z"></path><path class="e" d="m374.1 254.9l-8-1.2c-1.6-10-1.7-20.7-0.7-29.8 0.2-1.4 0.6-2.8 1.4-3.9 0.8-1.2 2.1-2 3.4-1.7 2.2 0.3 3.1 3.1 3.4 5.4 1.7 10.6 1.9 20.6 0.5 31.2z"></path><path class="d" d="m370.2 218.3c0 0-0.4 0.3-0.8 1.1-0.5 0.7-0.8 2-0.9 3.7-0.1 1.6-0.2 3.6-0.2 5.8-0.1 2.1 0 4.6 0.1 7.1 0.2 5 0.6 9.6 0.8 12.9 0.1 1.6 0.2 3 0.2 3.9q0.1 0.6 0.1 1 0 0.4-0.1 0.4 0 0 0-0.3 0-0.5-0.1-1.1-0.1-1.5-0.3-3.9c-0.3-3.3-0.8-7.9-1-12.9-0.1-2.5-0.1-4.9-0.1-7.1q0.1-1.7 0.2-3.2c0-0.9 0-1.8 0.1-2.7 0.1-1.6 0.5-3 1-3.7 0.6-0.8 1-1 1-1z"></path><path class="d" d="m374.4 220.8c0 0.1-0.4 0.5-1.1 0.9-0.6 0.3-1.1 0.5-1.2 0.4 0-0.1 0.4-0.4 1.1-0.8 0.6-0.3 1.1-0.6 1.2-0.5z"></path><path class="d" d="m375.7 227.8c0 0.1-0.6 0.2-1.4-0.1-0.8-0.2-1.3-0.5-1.3-0.6 0.1-0.1 0.7 0.1 1.4 0.3 0.7 0.2 1.3 0.3 1.3 0.4z"></path><path class="d" d="m375.6 235c-0.1 0.1-0.6-0.3-1.3-0.9-0.6-0.5-1.1-1.1-1-1.1 0.1-0.1 0.6 0.3 1.3 0.8 0.6 0.6 1.1 1.2 1 1.2z"></path><path class="c" d="m348 250.7h46.3v8.7h-46.3z"></path><path class="c" d="m390.9 257.7l-6.2 26.1h-27.6l-5.6-26.1z"></path><path class="d" d="m371 259.6c-12.9 0-23.3-0.1-23.3-0.1 0-0.1 10.4-0.2 23.3-0.2 12.9 0 23.3 0.1 23.3 0.2 0 0-10.4 0.1-23.3 0.1z"></path><path class="d" d="m371.2 228.8c-0.1 0.1-0.4-0.4-0.7-1.1-0.3-0.6-0.4-1.2-0.3-1.2 0.1-0.1 0.4 0.4 0.6 1.1 0.3 0.6 0.5 1.2 0.4 1.2z"></path><path class="d" d="m370.1 236.7c-0.1 0 0.1-0.6 0.5-1.4 0.3-0.8 0.7-1.3 0.8-1.3 0.1 0.1-0.1 0.7-0.5 1.5-0.4 0.7-0.7 1.3-0.8 1.2z"></path><path class="d" d="m371.5 245.5c-0.1 0-0.4-0.7-0.7-1.7-0.2-0.9-0.4-1.7-0.3-1.7 0.1 0 0.4 0.7 0.7 1.6 0.3 0.9 0.4 1.7 0.3 1.8z"></path><path class="d" d="m363.4 249.1c-0.1-0.1 0.3-0.6 0.9-1 0.5-0.5 1-0.8 1.1-0.7 0.1 0-0.3 0.5-0.9 1-0.6 0.4-1.1 0.7-1.1 0.7z"></path><path class="e" d="m64.2 94.9c0-4.4 3.6-8 8-8h257.4c4.4 0 8 3.6 8 8v176.5c0 4.4-3.6 8-8 8h-257.4c-4.4 0-8-3.6-8-8z"></path><path class="e" d="m339 283.8h-274.8c-5.9 0-10.7-5.1-10.7-11.4v-5.4h296.2v5.4c0 6.3-4.8 11.4-10.7 11.4z"></path><path class="d" d="m232.7 265.2l-3.4 6.2h-51.7l-3.7-6.2z"></path><path class="f" d="m76.9 102.1c0-1.1 0.9-2 2-2h243.8c1.1 0 2 0.9 2 2v152.5c0 1.1-0.9 2-2 2h-243.8c-1.1 0-2-0.9-2-2z"></path><path class="g" d="m324.4 256.8h-247.8l0.3-145h247.5z"></path><path class="d" d="m95.2 108.2c-1.1 0-2-0.9-2-2.1 0-1.2 0.9-2.1 2-2.1 1.1 0 2 0.9 2 2.1 0 1.2-0.9 2.1-2 2.1z"></path><path class="d" d="m83.2 108.2c-1.1 0-2-0.9-2-2.1 0-1.2 0.9-2.1 2-2.1 1.1 0 2 0.9 2 2.1 0 1.2-0.9 2.1-2 2.1z"></path><path class="d" d="m89 108.2c-1.1 0-2-0.9-2-2.1 0-1.2 0.9-2.1 2-2.1 1.1 0 2 0.9 2 2.1 0 1.2-0.9 2.1-2 2.1z"></path><path class="d" d="m199.7 265.4c-74.9 0-135.5-0.1-135.5-0.2 0-0.1 60.6-0.2 135.5-0.2 74.9 0 135.5 0.1 135.5 0.2 0 0.1-60.6 0.2-135.5 0.2z"></path><path class="a" d="m288.8 240.8h-3.6c-0.2 0-0.3-0.1-0.3-0.3 0-0.2 0.1-0.3 0.3-0.3h3.3v-3.5c0-0.2 0.1-0.4 0.3-0.4 0.2 0 0.3 0.2 0.3 0.4v3.8c0 0.2-0.1 0.3-0.3 0.3z"></path><path class="a" d="m278.2 240.8h-7c-0.2 0-0.3-0.1-0.3-0.3 0-0.2 0.1-0.3 0.3-0.3h7c0.1 0 0.3 0.1 0.3 0.3 0 0.2-0.2 0.3-0.3 0.3zm-14.1 0h-7c-0.1 0-0.3-0.1-0.3-0.3 0-0.2 0.2-0.3 0.3-0.3h7c0.2 0 0.4 0.1 0.4 0.3 0 0.2-0.2 0.3-0.4 0.3zm-14 0h-7c-0.1 0-0.3-0.1-0.3-0.3 0-0.2 0.2-0.3 0.3-0.3h7c0.2 0 0.3 0.1 0.3 0.3 0 0.2-0.1 0.3-0.3 0.3zm-14 0h-7c-0.2 0-0.3-0.1-0.3-0.3 0-0.2 0.1-0.3 0.3-0.3h7c0.2 0 0.3 0.1 0.3 0.3 0 0.2-0.1 0.3-0.3 0.3z"></path><path class="a" d="m222.1 240.8h-3.6c-0.2 0-0.3-0.1-0.3-0.3v-3.8c0-0.2 0.1-0.4 0.3-0.4 0.2 0 0.3 0.2 0.3 0.4v3.5h3.3c0.2 0 0.3 0.1 0.3 0.3 0 0.2-0.1 0.3-0.3 0.3z"></path><path class="a" d="m218.5 229c-0.2 0-0.3-0.2-0.3-0.3v-8c0-0.2 0.1-0.4 0.3-0.4 0.2 0 0.3 0.2 0.3 0.4v8c0 0.1-0.1 0.3-0.3 0.3zm0-16c-0.2 0-0.3-0.2-0.3-0.4v-8c0-0.1 0.1-0.3 0.3-0.3 0.2 0 0.3 0.2 0.3 0.3v8c0 0.2-0.1 0.4-0.3 0.4zm0-16c-0.2 0-0.3-0.2-0.3-0.4v-8c0-0.1 0.1-0.3 0.3-0.3 0.2 0 0.3 0.2 0.3 0.3v8c0 0.2-0.1 0.4-0.3 0.4z"></path><path class="a" d="m218.5 181c-0.2 0-0.3-0.2-0.3-0.4v-3.8c0-0.2 0.1-0.3 0.3-0.3h3.6c0.2 0 0.3 0.1 0.3 0.3 0 0.2-0.1 0.3-0.3 0.3h-3.3v3.5c0 0.2-0.1 0.4-0.3 0.4z"></path><path class="a" d="m278.2 177.1h-7c-0.2 0-0.3-0.1-0.3-0.3 0-0.2 0.1-0.3 0.3-0.3h7c0.1 0 0.3 0.1 0.3 0.3 0 0.2-0.2 0.3-0.3 0.3zm-14 0h-7.1c-0.1 0-0.3-0.1-0.3-0.3 0-0.2 0.2-0.3 0.3-0.3h7.1c0.1 0 0.3 0.1 0.3 0.3 0 0.2-0.2 0.3-0.3 0.3zm-14.1 0h-7c-0.1 0-0.3-0.1-0.3-0.3 0-0.2 0.2-0.3 0.3-0.3h7c0.2 0 0.3 0.1 0.3 0.3 0 0.2-0.1 0.3-0.3 0.3zm-14 0h-7c-0.2 0-0.3-0.1-0.3-0.3 0-0.2 0.1-0.3 0.3-0.3h7c0.2 0 0.3 0.1 0.3 0.3 0 0.2-0.1 0.3-0.3 0.3z"></path><path class="a" d="m288.8 181c-0.2 0-0.3-0.2-0.3-0.4v-3.5h-3.3c-0.2 0-0.3-0.1-0.3-0.3 0-0.2 0.1-0.3 0.3-0.3h3.6c0.2 0 0.3 0.1 0.3 0.3v3.8c0 0.2-0.1 0.4-0.3 0.4z"></path><path class="a" d="m288.8 229c-0.2 0-0.3-0.2-0.3-0.3v-8c0-0.2 0.1-0.4 0.3-0.4 0.2 0 0.3 0.2 0.3 0.4v8c0 0.1-0.1 0.3-0.3 0.3zm0-16c-0.2 0-0.3-0.2-0.3-0.4v-8c0-0.1 0.1-0.3 0.3-0.3 0.2 0 0.3 0.2 0.3 0.3v8c0 0.2-0.1 0.4-0.3 0.4zm0-16c-0.2 0-0.3-0.2-0.3-0.4v-8c0-0.1 0.1-0.3 0.3-0.3 0.2 0 0.3 0.2 0.3 0.3v8c0 0.2-0.1 0.4-0.3 0.4z"></path><path class="d" d="m245.1 65.5c-2.8 5.4-8.1 9.3-13.8 10.1-1.2 0.2-2.5 0.2-3.6-0.3-1.1-0.6-1.9-1.9-1.6-3.2q-0.4 1.8-0.7 3.5c-2.6 0.9-5.4 1-8 0.3 1.7-0.6 2.8-2.7 2.4-4.5-0.4-2-2.2-3.7-1.8-5.7 0.4-1.7 2.3-2.6 2.7-4.3 0.5-1.7-0.7-3.2-1.6-4.8-1.6-3.1-1.7-7.1-0.2-10.3"></path><path class="d" d="m254.5 59.3c-1.2 3.3-7.5 8.1-10.8 8.4l-21.7-11.6c-2.3-0.6-4.2-3.2-4.1-5.8 0.1-1.2 0.5-2.4 0.4-3.7-0.1-1.1-0.7-2.1-1-3.1-0.6-2.3 0.1-4.7 1.5-6.5 1.3-1.8 3.3-3.1 5.3-3.9 2-0.9 4.2-1.4 6.2-0.7 1.4 0.6 2.5 1.7 3.9 2.2 2 0.7 4.1 0.2 6.1-0.1 2-0.3 4.2-0.4 5.8 0.8 2.3 1.8 2.4 5.4 4.1 7.8 0.8 1.2 1.9 2 2.8 3 2.3 2.5 2.7 9.8 1.5 13.2z"></path><path class="h" d="m221.4 53.6c-1.3-4.5-0.5-11 3.8-12.2l14-1.8c1.3-0.4 2.7 0.4 3.1 1.7l10.7 32c0 0 0.3 0.4 0.8-0.1 0.2-0.1 0.4 0 0.3 0.2-0.4 2.9 0.1 9.9-8.3 10.5-1.9 0.1-5.6 0.3-6.6-1.6l-2-5.1c-1-2.6-1.4-3.7-1.4-3.7 0 0-5.6 1.2-9.2-5.6-1.9-3.4-3.8-9.4-5.2-14.3z"></path><path class="d" d="m226.4 58.2c0.5-0.2 1 0 1.2 0.5 0.1 0.5-0.2 1.1-0.7 1.3-0.4 0.1-1-0.1-1.1-0.6-0.2-0.5 0.1-1.1 0.6-1.2z"></path><path class="d" d="m234.9 54.7c0.5-0.1 1 0.1 1.2 0.6 0.1 0.5-0.1 1.1-0.6 1.2-0.5 0.2-1.1-0.1-1.2-0.6-0.2-0.5 0.1-1 0.6-1.2z"></path><path class="d" d="m223.6 55.6c0.2-0.4 0.7-0.9 1.3-1.1 0.7-0.2 1.3-0.1 1.7 0.1 0.5 0.2 0.7 0.4 0.6 0.5 0 0.2-1-0.2-2.1 0.2-1 0.3-1.6 1.2-1.7 1.1-0.1 0-0.1-0.4 0.2-0.8z"></path><path class="d" d="m232.8 52.3c0.2-0.5 0.7-1 1.4-1.3 0.6-0.3 1.3-0.3 1.8-0.2 0.5 0.1 0.7 0.3 0.7 0.4-0.1 0.2-1.1 0-2.2 0.5-1.1 0.5-1.6 1.5-1.8 1.4-0.1-0.1-0.1-0.4 0.1-0.8z"></path><path class="d" d="m230.7 62q-0.2 0.1-0.4 0.1c-0.2 0-0.4 0-0.6-0.2-0.2-0.3-0.2-0.7-0.2-1.1q0-1 0-2.2c0-3.2 0.1-5.8 0.2-5.8 0.2 0 0.2 2.6 0.2 5.8q0 1.2 0 2.2c0 0.4 0 0.7 0.1 0.9 0.1 0.1 0.4 0.1 0.6 0 1-0.3 1.7-0.4 1.7-0.3 0 0-0.6 0.3-1.6 0.6z"></path><path class="i" d="m235.8 73.5c0 0 4.8-1.6 8.3-6.3 0 0-0.5 6-7.6 8.1z"></path><path class="i" d="m233.7 63.7c0.3-0.6 0.9-1 1.5-1 0.4 0 0.9 0.1 1.2 0.5 0.3 0.3 0.5 0.8 0.3 1.2-0.3 0.5-0.8 0.6-1.3 0.6-0.5-0.1-1-0.4-1.4-0.6q-0.2-0.1-0.3-0.3c-0.1-0.1-0.1-0.3-0.1-0.4"></path><path class="d" d="m235.9 62.2c0.1 0.4 0.1 1.2-0.2 1.9-0.4 0.7-1 1.1-1.5 1.2-0.4 0.2-0.7 0.2-0.8 0.1 0-0.1 1.1-0.5 1.7-1.6 0.7-1.1 0.3-2.2 0.4-2.3 0.1 0 0.3 0.2 0.4 0.7z"></path><path class="d" d="m231.2 49.1c0.3-0.4 0.8-0.9 1.4-1.2 0.7-0.3 1.3-0.4 1.8-0.4 0.4 0 0.7 0.1 0.7 0.3 0 0.3-1 0.5-2.1 1.1-1 0.5-1.8 1.2-2.1 1-0.1-0.1 0-0.4 0.3-0.8z"></path><path class="d" d="m222.5 52.6c0.2-0.3 0.8-0.7 1.5-0.9 0.7-0.2 1.4-0.2 1.8-0.1 0.4 0.1 0.6 0.3 0.6 0.4-0.2 0.3-1.1 0.4-2.1 0.7-1 0.3-1.8 0.8-2.1 0.7-0.1-0.1 0-0.4 0.3-0.8z"></path><path class="d" d="m244.5 42.7q3.5 9.2 7 18.5c-1.4 0.7-3.1 0.9-4.6 0.3-1.9-0.6-3.4-2.3-4-4.3-0.6-1.8-0.4-3.9-1.7-5.2-1.6-1.8-4.7-1.1-6.3-2.8-1-1-1.2-2.6-2.2-3.6-1-0.9-2.3-1-3.6-0.9-1.3 0.1-2.6 0.4-3.8 0.1-1.3-0.3-2.4-1.4-2.3-2.8 5.1-1.7 10.4-2.8 15.7-3.3 1.3-0.1 2.6-0.1 3.7 0.6 1.1 0.7 1.6 2.1 2.1 3.4z"></path><path class="d" d="m263.1 51.5c-0.1 0.6-0.4 1.2-0.7 1.7q-1.6 2.3-3.1 4.7c-3 4.6-6.2 9.3-11 11.3 0.7-1.3 0.3-3-0.5-4.3-0.7-1.3-1.9-2.2-2.9-3.3-1.8-1.9-2-4.4-3.1-8.8l2.5-15.8c1-0.6 2.8-0.4 3.4 0.5 0.7 0.9 0.5 2.3 1.6 3.2 1.4 1.1 3.7-0.1 5.2 0.9 1.6 1.2 1.1 4 2.4 5.5 0.9 1 2.4 1.2 3.7 1.6 1.2 0.4 2.6 1.4 2.5 2.8z"></path><path class="e" d="m258.8 56.7c0 0-0.1 0.1-0.4 0.3-0.3 0.2-0.8 0.5-1.5 0.7-0.7 0.1-1.6 0.1-2.5-0.2-1-0.3-2-1-2.6-2.2-0.4-0.6-0.6-1.2-0.7-1.9-0.1-0.8-0.1-1.5 0-2.3 0.1-0.8 0.2-1.6 0.1-2.4-0.1-0.7-0.5-1.5-1.2-1.9-0.7-0.4-1.5-0.2-2.4-0.1-0.4 0-0.9 0-1.3-0.3-0.4-0.2-0.7-0.7-0.9-1.1-0.4-0.9-0.4-1.9-0.6-2.8-0.1-0.5-0.3-0.9-0.6-1.3-0.2-0.3-0.6-0.6-1.1-0.7-0.9-0.1-1.8 0.2-2.6 0.6-0.9 0.3-1.8 0.6-2.8 0.4-0.9-0.1-1.7-0.4-2.4-1-0.7-0.6-1.2-1.4-1.7-2.1-0.4-0.7-0.9-1.4-1.4-2-0.6-0.5-1.2-0.9-1.9-1.1-1.3-0.5-2.7-0.4-3.9 0-1.1 0.5-2 1.3-2.6 2.1-0.6 0.8-0.9 1.7-1.1 2.4-0.5 1.4-0.4 2.2-0.4 2.2q0 0 0-0.1 0-0.2 0-0.5c0-0.4 0.1-0.9 0.2-1.7 0.2-0.7 0.6-1.5 1.2-2.4 0.6-0.8 1.5-1.7 2.6-2.2 1.2-0.5 2.7-0.6 4.1-0.1 0.7 0.3 1.4 0.7 2 1.2 0.5 0.6 1 1.3 1.4 2.1 0.5 0.7 1 1.4 1.6 1.9 0.7 0.6 1.5 0.9 2.4 1 0.8 0.1 1.7-0.1 2.6-0.4 0.8-0.4 1.8-0.8 2.8-0.6 0.5 0.1 0.9 0.4 1.3 0.8 0.3 0.4 0.5 0.9 0.6 1.4 0.2 1 0.2 1.9 0.5 2.8 0.2 0.4 0.5 0.7 0.8 1 0.4 0.2 0.8 0.2 1.2 0.2 0.4 0 0.8-0.1 1.3-0.1 0.4 0 0.9 0 1.2 0.2 0.8 0.5 1.2 1.4 1.3 2.2 0.2 0.8 0.1 1.7 0 2.4-0.1 0.8-0.2 1.5-0.1 2.2 0.1 0.7 0.3 1.3 0.6 1.9 0.7 1.1 1.6 1.8 2.5 2.2 0.9 0.3 1.8 0.3 2.5 0.1 1.3-0.3 1.9-0.9 1.9-0.8z"></path><path class="d" d="m261.3 45.1c0 0 0.2 0 0.3 0.3 0.2 0.2 0.4 0.7 0.4 1.3 0 0.3-0.1 0.7-0.3 1-0.2 0.3-0.5 0.6-0.9 0.8-0.7 0.3-1.8 0.3-2.6-0.4q-0.7-0.5-1-1.3c-0.3-0.6-0.4-1.2-0.4-1.8-0.1-1.3 0.1-2.6-0.5-3.9-0.2-0.6-0.6-1.2-1.2-1.4-0.6-0.2-1.3 0-2 0.3-0.6 0.3-1.3 0.7-2.1 0.8-0.4 0-0.8-0.1-1.1-0.3-0.4-0.3-0.7-0.6-0.9-0.9-0.4-0.8-0.5-1.6-0.8-2.3q-0.3-1.1-1-2c-0.9-1.1-2.2-1.8-3.5-1.9-1.3-0.1-2.5 0.4-3.5 0.8-1.1 0.5-2.2 1-3.2 1-1 0.1-1.9 0-2.7-0.3-0.8-0.3-1.4-0.6-1.8-1-0.9-0.7-1.3-1.3-1.3-1.3 0.1 0 0.4 0.6 1.3 1.2 0.5 0.4 1.1 0.7 1.9 0.9 0.7 0.3 1.6 0.4 2.6 0.3 1-0.1 2-0.5 3.1-1 1-0.5 2.3-1 3.7-0.9 1.3 0.1 2.7 0.8 3.7 2 0.4 0.6 0.8 1.3 1 2.1 0.2 0.7 0.4 1.5 0.8 2.2 0.4 0.6 1 1.1 1.7 1.1 0.7-0.1 1.3-0.5 2-0.8 0.7-0.3 1.4-0.6 2.2-0.3 0.7 0.3 1.1 0.9 1.4 1.6 0.3 0.7 0.4 1.4 0.4 2 0 0.7 0 1.4 0 2 0.1 0.6 0.2 1.2 0.4 1.7q0.3 0.8 0.9 1.2c0.7 0.7 1.7 0.7 2.4 0.4 0.4-0.2 0.7-0.4 0.9-0.7 0.1-0.3 0.2-0.6 0.3-0.9 0-0.6-0.1-1-0.3-1.3-0.2-0.2-0.3-0.3-0.3-0.3z"></path><path class="d" d="m213.5 72.7c0.1 0 0 0.6 0.6 1.3 0.3 0.3 0.8 0.6 1.4 0.6 0.6-0.1 1.3-0.6 1.5-1.4 0.1-0.4 0.1-0.8 0-1.2q-0.3-0.6-0.8-1.2c-0.6-0.7-1.5-1.3-1.9-2.5-0.4-1-0.4-2.4 0.2-3.5q0.4-0.9 1.1-1.6c0.4-0.4 1-0.7 1.5-1 0.6-0.4 1.1-0.6 1.6-1 0.4-0.4 0.7-0.9 0.8-1.5 0.1-0.6 0-1.1-0.1-1.7-0.2-0.5-0.5-1-0.8-1.4-0.7-0.9-1.4-1.7-1.7-2.7-0.4-1-0.4-2-0.3-2.8 0.2-0.9 0.6-1.6 1-2.1 0.3-0.6 0.6-1.1 0.8-1.5 0.4-0.9 0.3-1.4 0.3-1.4q0 0 0 0.1 0 0.1 0 0.2c0 0.3 0 0.7-0.2 1.1-0.2 0.5-0.5 1-0.8 1.6-0.3 0.5-0.7 1.2-0.8 2-0.2 0.9-0.2 1.8 0.2 2.7 0.4 0.9 1 1.7 1.7 2.6 0.3 0.4 0.6 1 0.8 1.5 0.2 0.6 0.3 1.2 0.2 1.9-0.1 0.6-0.5 1.2-1 1.6-0.4 0.4-1 0.7-1.5 1-0.6 0.3-1.1 0.7-1.5 1.1q-0.7 0.6-1.1 1.4c-0.5 1.1-0.5 2.3-0.1 3.3 0.3 1.1 1.2 1.7 1.8 2.4 0.3 0.4 0.6 0.8 0.8 1.3 0.2 0.4 0.2 1 0 1.4-0.3 0.8-1 1.4-1.6 1.4-0.7 0.1-1.3-0.2-1.6-0.6-0.3-0.4-0.4-0.7-0.5-1 0-0.2 0-0.4 0-0.4z"></path><path class="b" d="m214.2 137.5c0-1.7 1.4-3 3-3h67.8c1.6 0 3 1.3 3 3v57c0 1.7-1.4 3-3 3h-67.8c-1.6 0-3-1.3-3-3z"></path><path class="d" d="m285.2 197.5c0 0 0.2 0 0.7-0.1 0.4-0.1 1-0.4 1.5-1.2 0.3-0.3 0.5-0.8 0.5-1.4q0-0.8 0-1.9 0-2 0-4.6c0-7.1 0-17.3 0-29.8 0-6.3-0.1-13.2-0.1-20.6 0-0.5 0.1-0.9-0.1-1.4q-0.2-0.6-0.6-1.1-0.5-0.5-1.1-0.7c-0.4-0.1-0.8-0.1-1.3-0.1q-2.7 0-5.5 0-5.5 0-11.4 0c-15.6 0-32.8 0-50.8 0-1.1 0-2.1 0.8-2.4 1.8-0.2 0.6-0.2 1.2-0.2 1.8v1.7q0 3.6 0 7.1 0 7 0 13.8c0 9.1 0 17.8 0 26.1q0 3.1 0 6.2 0 0.7 0 1.5c0 0.5 0.1 0.9 0.3 1.3 0.5 0.9 1.3 1.4 2.2 1.5q5.5 0 10.8 0c6.9 0 13.4 0 19.3 0 11.8 0 21.3 0 28 0 3.3 0.1 5.8 0.1 7.6 0.1q1.3 0 1.9 0 0.7 0 0.7 0 0 0-0.7 0-0.6 0-1.9 0c-1.8 0-4.3 0.1-7.6 0.1-6.7 0-16.2 0-28 0-5.9 0-12.4 0-19.3 0q-5.3 0-10.8 0c-1 0-1.9-0.6-2.4-1.5-0.3-0.5-0.4-1-0.4-1.5q0-0.8 0-1.5 0-3.1 0-6.2c0-8.3 0-17 0-26.1q0-6.8 0-13.8 0-3.5 0-7.1v-1.7c0-0.6-0.1-1.3 0.2-1.9 0.4-1.2 1.5-2 2.7-2 18 0 35.2 0 50.8 0q5.9 0 11.4 0 2.8 0 5.5 0c0.4 0 0.9 0 1.4 0.2q0.6 0.2 1.1 0.7 0.5 0.6 0.8 1.3c0.1 0.4 0.1 0.9 0.1 1.4 0 7.4 0 14.3 0 20.6 0 12.5-0.1 22.7-0.1 29.8q0 2.6 0 4.6 0 1 0 1.9c0 0.6-0.2 1.1-0.5 1.5-0.5 0.7-1.2 1-1.6 1.1-0.5 0.1-0.7 0.1-0.7 0.1z"></path><path class="e" d="m217.8 139.4l67.2 0.3-0.2 53.8-67.2-0.3z"></path><g style="opacity:.2"><path d="m217.6 193.2l23.6-33.3 14.4 20.9 10-11.1 19.2 23.8z"></path></g><g style="opacity:.2"><path d="m256.6 161.5c-2.9 0-5.3-2.6-5.3-5.7 0-3.1 2.4-5.6 5.3-5.6 3 0 5.3 2.5 5.3 5.6 0 3.1-2.3 5.7-5.3 5.7z"></path></g><path class="c" d="m218.4 87.5c0 0-0.3-0.8 1.8-3.3 2.1-2.5 16.6-8.2 16.6-8.2 0 0 5.6 7.3 10.8 2.3 3.8-3.6 4.4-8 4.4-8 0 0 12.8-0.8 13.1 0.1l3.4 17.1-6 0.1z"></path><path class="h" d="m248.9 126.7l22.3-23.7-2.8-12.9 11.9-3.8c0 0 3.6 18.1 3.1 21.3-0.9 6.2-28.2 23.8-28.2 23.8z"></path><path class="c" d="m264.5 70.1c0 0 5.4 0.4 9.7 5.2 4.6 5 10.2 18.3 10.2 18.3l-15.7 4.1z"></path><path class="h" d="m246.2 129.2l2.7-2.5 6.3 4.7c0 0-3 2.9-3 2.9 0 0.2-4 5.4-4 5.4 0 0-2.9 4.4-3.7 5.6-0.8 1.1-1.7-0.1-1.7-0.1 0 0-1.1 2.6-1.6 2.7-1.2 0.1-0.8-1.4-0.8-1.4l2.1-7.5-2.1 3.1c0 0-0.3 1.9-1 3.8-0.7 2-2 0.8-2 0.8l0.5-3.6-0.6 1.5c-0.6 2.1-2 0.8-2 0.8 0 0 0.5-3.5 0.9-4.9 0.5-1.4 3.6-7 3.6-7l6.3-4.2q0.1 0 0.1-0.1z"></path><path class="i" d="m237.4 146.2q0.1-0.5 0.2-1.2 0.1-0.8 0.2-1.7 0.1-0.5 0.2-1.1 0.1-0.5 0.3-1c0.6-1.4 1.3-2.6 1.9-3.4q0.4-0.6 0.7-0.9 0.2-0.3 0.2-0.3 0 0-0.2 0.4-0.2 0.3-0.6 0.9c-0.6 0.8-1.3 2-1.9 3.3q-0.2 0.6-0.3 1.1-0.1 0.5-0.1 1-0.2 1-0.3 1.7-0.1 0.7-0.2 1.2-0.1 0.4-0.1 0.4 0 0 0-0.4z"></path><path class="i" d="m245.6 139q-0.1 0.2-0.3 0.6c-0.3 0.6-0.6 1.3-1.1 2.2v-0.1q0 0.1 0 0.2c-0.4 0.9-0.7 1.7-1 2.3q-0.1 0.5-0.2 0.7-0.2 0.3-0.2 0.3 0 0 0.1-0.3 0.1-0.3 0.3-0.7c0.2-0.6 0.5-1.4 0.8-2.4q0.1 0 0.1-0.1c0.4-0.8 0.8-1.6 1.1-2.1q0.3-0.4 0.4-0.6 0.1-0.3 0.1-0.3 0 0.1-0.1 0.3z"></path><path class="h" d="m210.4 85.4q0 0 0-0.1 0-0.1 0-0.3 0.1-0.3 0.3-0.6c0.2-0.4 0.6-0.7 1.1-0.8 0.7-0.2 1.5 0.2 1.9 0.8 0-0.5 0.4-1 0.9-1.1 0.4-0.1 1 0 1.3 0.4 0.4 0.3 0.3 0.6 0.5 1.1 0.4-0.9 2.3-0.8 2.5-0.1 0 0 1.7-2 2.6-1 0.3 0.4 0.2 1-0.1 1.6-0.3 0.8-0.6 1.4-1 2.3-0.2 0.5-0.4 0.9-0.6 1.1 0 0 0.3 0-0.1 0-0.3 0-0.9-0.1-0.9-0.1-0.2 0.5-0.3 1.5-0.3 2-0.1 0.6-0.2 1.1-0.5 1.6-0.2 0.4-0.7 0.8-1.2 0.8-0.5 0-1-0.5-1-1-0.1 0.4-0.3 0.9-0.6 1.2-0.3 0.3-0.8 0.5-1.2 0.4-0.4-0.1-0.7-0.6-0.7-1-0.5 0.4-1.4 0-1.7-0.6-0.4-0.6-0.4-1.4-0.4-2.1 0.1-0.7 0.1-1.4-0.1-2-0.1-0.1-0.1-0.2-0.1-0.3-0.1-0.1-0.1-0.3-0.1-0.5q0-0.5-0.2-1 0-0.1 0-0.2c-0.1-0.2-0.2-0.3-0.3-0.5z"></path><path class="h" d="m211 85.9c0.3 0.5 0.6 1.1 0.6 1.7-0.1 0.6-0.4 1.2-0.9 1.4-0.6 0.2-1.3 0-1.5-0.6-0.1-0.3 0-1-0.3-1.2-0.1-0.1-0.2-0.1-0.3-0.1-0.6-0.1-0.9-0.1-1.5-0.3 0-0.5 0-1.3 0.4-1.7 0.2-0.3 0.7-0.4 1.1-0.4 0.9 0.1 1.8 0.5 2.4 1.2z"></path><path class="i" d="m213.6 84.3c0.1 0 0.1 1.9 0 4.2-0.1 2.2-0.3 4.1-0.4 4.1-0.1 0-0.1-1.9 0-4.2 0.1-2.3 0.3-4.1 0.4-4.1z"></path><path class="i" d="m216.4 84.7c0.1 0 0.3 1.7 0.1 3.8-0.2 2.1-0.6 3.7-0.7 3.7-0.1 0 0.1-1.7 0.3-3.8 0.2-2 0.2-3.7 0.3-3.7z"></path><path class="i" d="m219 84.7c0.2 0 0.2 1.4 0 3.1-0.2 1.7-0.5 3.1-0.6 3.1-0.1 0 0-1.4 0.2-3.1 0.2-1.7 0.3-3.1 0.4-3.1z"></path><path class="i" d="m209.5 85.1c0-0.1 0.3-0.1 0.7 0 0.4 0.2 0.8 0.7 1 1.4q0.3 1 0.3 1.7c-0.1 0.5-0.4 0.7-0.4 0.6 0-0.1 0.1-0.2 0.1-0.6 0-0.4-0.2-1-0.3-1.6-0.2-0.5-0.6-1-0.9-1.2-0.3-0.2-0.5-0.3-0.5-0.3z"></path><path class="g" d="m110.1 191.4c0-3.3 2.7-6 6-6h83.2c3.3 0 6 2.7 6 6v44.3c0 3.3-2.7 6-6 6h-83.2c-3.3 0-6-2.7-6-6z"></path><path class="d" d="m200.1 241.7c0 0 0.3 0 0.8 0 0.4-0.1 1.2-0.3 2-0.9 0.8-0.5 1.7-1.4 2.1-2.8 0.2-0.7 0.3-1.5 0.3-2.4q0-1.3 0-2.7c0-7.8-0.1-19-0.1-32.8q0-2.6 0-5.3 0-1.4 0-2.8c0-0.9 0-1.8-0.2-2.7-0.5-1.8-2-3.3-3.8-3.7q-0.6-0.1-1.3-0.1-0.7 0-1.4 0-1.4 0-2.9 0c-7.6 0-15.8 0-24.4 0-17.1 0-36 0-55.9 0-1.2 0-2.4 0.5-3.3 1.3-0.9 0.9-1.5 2.1-1.7 3.3 0 0.6 0 1.3 0 1.9q0 1 0 2 0 1.9 0 3.8 0 7.8 0 15.2 0 7.5 0 14.7 0 3.6 0 7.1c0 0.6 0 1.2 0 1.8q0 0.8 0.3 1.6c0.4 1 1.1 1.9 2 2.5 0.9 0.6 1.9 0.9 3 0.9q1.6 0 3.1 0 3.2 0 6.2 0 6.2 0 11.9 0c7.6 0 14.8 0 21.3 0 12.9 0 23.5 0.1 30.7 0.1 3.7 0 6.5 0 8.4 0q1.4 0 2.2 0 0.7 0 0.7 0 0 0-0.7 0-0.8 0.1-2.2 0.1c-1.9 0-4.7 0-8.4 0-7.2 0-17.8 0-30.7 0-6.5 0.1-13.7 0.1-21.3 0.1q-5.7 0-11.9 0-3 0-6.2 0-1.5 0-3.1 0c-1.1 0-2.2-0.3-3.1-0.9-1-0.6-1.7-1.6-2.1-2.7q-0.4-0.8-0.4-1.7c0-0.6 0-1.2 0-1.8q0-3.5 0-7.1 0-7.2 0-14.7 0-7.4 0-15.2 0-1.9 0-3.8 0-1 0-2c0-0.6-0.1-1.3 0-1.9 0.2-1.4 0.9-2.6 1.8-3.5 1-0.9 2.3-1.4 3.5-1.4 19.9 0 38.8 0 55.9 0 8.6 0 16.8 0 24.4 0q1.5 0 2.9 0 0.7 0 1.4 0 0.7 0 1.4 0.2c1.9 0.4 3.4 2 3.9 3.8 0.3 0.9 0.2 1.9 0.2 2.8q0 1.4 0 2.8 0 2.7 0 5.3c0 13.8 0 25 0 32.8q0 1.4 0 2.7c0 0.9-0.1 1.7-0.3 2.4-0.5 1.4-1.4 2.4-2.2 2.9-0.8 0.5-1.5 0.7-2 0.8-0.3 0-0.5 0-0.6 0q-0.2 0-0.2 0z"></path><path class="c" d="m120.3 194.9h14.1v2.8h-14.1z"></path><path class="c" d="m120.3 229.7h14.1v2.8h-14.1z"></path><path class="a" d="m120.3 201.9h24.3v2.9h-24.3z"></path><path class="c" d="m148.9 201.9h10.8v2.9h-10.8z"></path><path class="d" d="m184.7 201.9h7.1v2.9h-7.1z"></path><path class="e" d="m163.5 201.9h18.7v2.9h-18.7z"></path><path class="a" d="m167.4 208.6h24.4v2.9h-24.4z"></path><path class="e" d="m152.3 208.6h10.8v2.9h-10.8z"></path><path class="d" d="m120.3 208.6h7.1v2.9h-7.1z"></path><path class="c" d="m129.8 208.6h18.8v2.9h-18.8z"></path><path class="a" d="m120.3 215.5h24.3v2.9h-24.3z"></path><path class="d" d="m148.9 215.5h10.8v2.9h-10.8z"></path><path class="d" d="m191.8 218.4h-7.1v-2.9h7.1z"></path><path class="c" d="m143.4 222.6h7.1v2.8h-7.1z"></path><path class="e" d="m163.5 215.5h18.7v2.9h-18.7z"></path><path class="e" d="m119.8 222.6h18.7v2.8h-18.7z"></path><path class="j" d="m255.3 210.1c0-2.8 2.3-5 5-5h29.4c2.8 0 5 2.2 5 5v30.7c0 2.7-2.2 5-5 5h-29.4c-2.7 0-5-2.3-5-5z"></path><path class="d" d="m289.8 245.8c0-0.1 0.5 0 1.5-0.3 0.4-0.2 1-0.4 1.5-0.9 0.6-0.5 1.1-1.2 1.5-2.1q0.2-0.7 0.3-1.5c0-0.5 0-1.1 0-1.7q0-1.8 0-3.9 0-4.3 0-9.6 0-5.3 0-11.5 0-1.6 0-3.2c0-0.6 0-1.1-0.1-1.6q-0.1-0.8-0.5-1.5c-0.4-1-1.2-1.8-2.1-2.3q-0.7-0.4-1.5-0.5c-0.5 0-1.1 0-1.6 0-8.8 0-18.5 0-28.6 0-1.2 0-2.5 0.5-3.3 1.5-0.9 0.9-1.4 2.1-1.4 3.4q0 3.9 0 7.8 0 7.6 0 14.6 0 3.5-0.1 6.9c0.1 0.5 0 1.1 0.1 1.6q0 0.8 0.3 1.5c0.4 1 1.1 1.8 1.9 2.4 0.8 0.5 1.7 0.8 2.6 0.7q1.4 0 2.8 0 2.7 0.1 5.2 0.1c6.7 0 12 0 15.8 0q2.7 0 4.2 0 0.7 0.1 1.1 0.1 0.4 0 0.4 0 0 0-0.4 0-0.4 0-1.1 0-1.5 0-4.2 0c-3.8 0.1-9.1 0.1-15.8 0.1q-2.5 0-5.2 0-1.4 0-2.8 0c-0.9 0-1.9-0.2-2.8-0.8-0.8-0.6-1.5-1.4-1.9-2.4q-0.3-0.8-0.4-1.7c0-0.5 0-1.1 0-1.6q0-3.4 0-6.9 0-7 0-14.6 0-3.9 0-7.8c0-1.4 0.5-2.7 1.5-3.7 0.9-0.9 2.2-1.5 3.5-1.5 10.1 0 19.8 0 28.6 0 0.5 0 1.1 0 1.6 0q0.9 0.1 1.6 0.5c1 0.5 1.8 1.4 2.3 2.4 0.5 1 0.6 2.2 0.5 3.3q0 1.6 0 3.2 0 6.2 0 11.5 0 5.3 0 9.6 0 2.1 0 3.9c0 0.6 0 1.2-0.1 1.7q0 0.9-0.3 1.6c-0.4 0.9-0.9 1.6-1.5 2.1-0.6 0.4-1.1 0.7-1.6 0.9q-0.7 0.2-1.1 0.2-0.4 0-0.4 0z"></path><path class="d" d="m264 214.6h21.5v7.7h-1q-0.5-4.1-2.9-5.6-1.3-0.8-4-0.8v20q0 2.1 0.7 2.8 0.7 0.7 2.9 0.7v0.9h-12.8v-0.9q2.1 0 2.8-0.7 0.7-0.7 0.7-2.8v-20q-2.6 0-4 0.8-2.6 1.5-2.9 5.6h-1z"></path><path class="g" d="m305.2 139.3h46.4c2.1 0 3.9 1.9 3.9 4.2v76.5c0 2.3-1.8 4.2-3.9 4.2h-34.2-10.8-1.4c-2.1 0-3.8-1.9-3.8-4.2v-76.5c0-2.3 1.7-4.2 3.8-4.2z"></path><path class="d" d="m301.4 143.5q0 0 0-0.2 0-0.2 0-0.6c0.1-0.4 0.3-1.1 0.8-1.9 0.6-0.7 1.5-1.4 2.8-1.5q1.9 0 4.4 0c6.6 0 16.2 0 28-0.1q4.4 0 9.2 0 2.4 0 4.9 0c1.8 0 3.5 1.3 3.9 3.2 0.2 0.4 0.2 0.9 0.2 1.4q0 0.7 0 1.4 0 1.4 0 2.8 0 2.9 0 5.8 0 6 0 12.2c0 16.6 0 34.9 0 54 0 1.3-0.5 2.5-1.4 3.3q-0.7 0.6-1.5 0.9c-0.6 0.1-1.2 0.1-1.7 0.1q-3.4 0-6.7 0-6.5 0-12.9 0c-8.5 0-16.7 0-24.5 0q-0.7 0-1.5 0c-0.4 0-1 0-1.4-0.2-1-0.3-1.8-1.1-2.3-2q-0.3-0.7-0.4-1.5c-0.1-0.5-0.1-1-0.1-1.5q0-1.5 0-3 0-5.9 0-11.4c0-7.4 0.1-14.3 0.1-20.6 0-12.5 0-22.7 0-29.7 0-3.5 0-6.3 0-8.1q0-1.4 0.1-2.1 0-0.7 0-0.7 0 0 0 0.7 0 0.7 0 2.1c0 1.8 0 4.6 0 8.1 0 7 0.1 17.2 0.1 29.7 0 6.3 0 13.2 0 20.6q0 5.5 0 11.4 0 1.5 0 3c0 0.5 0 1 0 1.5q0.1 0.7 0.5 1.4c0.4 0.8 1.2 1.5 2.1 1.8q0.6 0.2 1.3 0.2 0.8 0 1.5 0c7.8 0 16 0 24.5 0q6.4 0 12.9 0 3.3 0 6.7 0c0.5 0 1.1 0 1.6-0.2q0.8-0.2 1.4-0.7c0.8-0.8 1.3-1.9 1.3-3.1 0-19.1 0-37.4 0-54q0-6.2 0-12.2 0-2.9 0-5.8 0-1.4 0-2.8 0-0.7 0-1.4c0-0.5 0-0.9-0.1-1.4-0.4-1.7-2-3-3.7-2.9q-2.5 0-4.9 0-4.8 0-9.2 0c-11.8-0.1-21.4-0.1-28-0.1-1.6 0-3.1 0-4.4 0-1.2 0.1-2.2 0.8-2.7 1.5-0.6 0.7-0.8 1.4-0.9 1.9 0 0.4 0 0.7 0 0.7z"></path><path class="a" d="m314.9 155.6c0-0.8 0.7-1.5 1.5-1.5 0.9 0 1.6 0.7 1.6 1.5v53.1c0 0.8-0.7 1.5-1.6 1.5-0.8 0-1.5-0.7-1.5-1.5z"></path><path class="d" d="m316.5 210.2c0 0 0.4 0.1 1-0.4 0.6-0.5 0.4-1.8 0.4-3.2 0-3 0-7.3-0.1-12.5 0-5.3 0-11.5 0-18.5q0-5.2 0-10.9 0-2.8 0-5.8 0-1.4 0-2.9c0-0.3 0-0.5 0-0.7q-0.1-0.3-0.3-0.6-0.5-0.5-1.2-0.4c-0.4 0-0.8 0.2-1 0.5q-0.2 0.3-0.3 0.6c0 0.2 0 0.5 0 0.8q0 1.4 0 2.9 0 2.9 0 5.8 0 5.7 0 10.9c0 7 0 13.2 0 18.5 0 5.2-0.1 9.5-0.1 12.4q0 1.1 0 2c0 0.5 0.3 1 0.6 1.2 0.3 0.2 0.5 0.3 0.7 0.3q0.3 0 0.3 0 0 0-0.3 0c-0.2 0-0.5 0-0.8-0.2-0.3-0.3-0.6-0.7-0.6-1.3q0-0.9 0-2c0-2.9 0-7.2-0.1-12.4 0-5.3 0-11.5 0-18.5q0-5.2 0-10.9 0-2.9 0-5.8 0-1.5 0-2.9c0-0.3 0-0.5 0-0.8q0-0.4 0.3-0.8c0.3-0.4 0.8-0.7 1.3-0.7 0.5-0.1 1.1 0.1 1.4 0.6q0.3 0.3 0.4 0.7c0.1 0.3 0 0.5 0.1 0.8q0 1.5 0 2.9 0 3-0.1 5.8 0 5.7 0 10.9c0 7 0 13.2 0 18.5 0 5.2 0 9.5-0.1 12.5q0 1.1 0 1.9c0.1 0.6-0.2 1.1-0.5 1.3-0.6 0.6-1 0.4-1 0.4z"></path><path class="a" d="m326.9 155.6c0-0.8 0.7-1.5 1.5-1.5 0.9 0 1.6 0.7 1.6 1.5v53.1c0 0.8-0.7 1.5-1.6 1.5-0.8 0-1.5-0.7-1.5-1.5z"></path><path class="d" d="m328.5 210.2c0 0 0.4 0.1 1-0.4 0.6-0.5 0.4-1.8 0.4-3.2 0-3 0-7.3-0.1-12.5 0-5.3 0-11.5 0-18.5q0-5.2 0-10.9 0-2.8 0-5.8 0-1.4 0-2.9c0-0.3 0-0.5-0.1-0.7q0-0.3-0.2-0.6-0.5-0.5-1.2-0.4c-0.4 0-0.8 0.2-1 0.5q-0.2 0.3-0.3 0.6c0 0.2 0 0.5 0 0.8q0 1.4 0 2.9 0 2.9 0 5.8 0 5.7 0 10.9c0 7 0 13.2 0 18.5 0 5.2-0.1 9.5-0.1 12.4q0 1.1 0 2c0 0.5 0.3 1 0.6 1.2 0.3 0.2 0.5 0.3 0.7 0.3q0.3 0 0.3 0 0 0-0.3 0c-0.2 0-0.5 0-0.8-0.2-0.3-0.3-0.6-0.7-0.6-1.3q0-0.9 0-2c0-2.9-0.1-7.2-0.1-12.4 0-5.3 0-11.5 0-18.5q0-5.2 0-10.9 0-2.9 0-5.8 0-1.5 0-2.9c0-0.3 0-0.5 0-0.8q0-0.4 0.3-0.8c0.3-0.4 0.8-0.7 1.3-0.7 0.5-0.1 1.1 0.1 1.4 0.6q0.3 0.3 0.4 0.7c0.1 0.3 0 0.5 0.1 0.8q0 1.5-0.1 2.9 0 3 0 5.8 0 5.7 0 10.9c0 7 0 13.2 0 18.5 0 5.2 0 9.5-0.1 12.5q0 1.1 0 1.9c0.1 0.6-0.2 1.1-0.5 1.3-0.6 0.6-1 0.4-1 0.4z"></path><path class="a" d="m338.9 155.6c0-0.8 0.6-1.5 1.5-1.5 0.9 0 1.6 0.7 1.6 1.5v53.1c0 0.8-0.7 1.5-1.6 1.5-0.9 0-1.5-0.7-1.5-1.5z"></path><path class="d" d="m340.5 210.2c0 0 0.4 0.1 1-0.4 0.6-0.5 0.4-1.8 0.4-3.2 0-3 0-7.3-0.1-12.5 0-5.3 0-11.5 0-18.5q0-5.2 0-10.9 0-2.8 0-5.8 0-1.4 0-2.9c0-0.3 0-0.5-0.1-0.7q0-0.3-0.2-0.6-0.5-0.5-1.2-0.4c-0.4 0-0.8 0.2-1 0.5q-0.2 0.3-0.3 0.6c0 0.2 0 0.5 0 0.8q0 1.4 0 2.9 0 2.9 0 5.8 0 5.7 0 10.9c0 7 0 13.2 0 18.5 0 5.2-0.1 9.5-0.1 12.4q0 1.1 0 2c0 0.5 0.3 1 0.6 1.2 0.3 0.2 0.5 0.3 0.7 0.3q0.3 0 0.3 0 0 0-0.3 0c-0.2 0-0.5 0-0.8-0.2-0.3-0.3-0.6-0.7-0.6-1.3q0-0.9 0-2c0-2.9-0.1-7.2-0.1-12.4 0-5.3 0-11.5 0-18.5q0-5.2 0-10.9 0-2.9 0-5.8 0-1.5 0-2.9c0-0.3 0-0.5 0-0.8q0-0.4 0.3-0.8c0.3-0.4 0.8-0.7 1.3-0.7 0.5-0.1 1.1 0.1 1.4 0.6q0.3 0.3 0.4 0.7c0.1 0.3 0 0.5 0 0.8q0 1.5 0 2.9 0 3 0 5.8 0 5.7 0 10.9c0 7 0 13.2 0 18.5 0 5.2 0 9.5-0.1 12.5q0 1.1 0 1.9c0.1 0.6-0.2 1.1-0.5 1.3-0.6 0.6-1 0.4-1 0.4z"></path><path class="c" d="m316.2 180.4h-0.6c-1.6 0-3-1.5-3-3.2 0-1.8 1.4-3.3 3-3.3h0.6c1.7 0 3 1.5 3 3.3 0 1.7-1.3 3.2-3 3.2z"></path><path class="c" d="m329 192.6h-0.6c-1.7 0-3-1.5-3-3.3 0-1.7 1.3-3.2 3-3.2h0.6c1.7 0 3 1.5 3 3.2 0 1.8-1.3 3.3-3 3.3z"></path><path class="c" d="m340.6 169.6h-0.6c-1.7 0-3-1.4-3-3.2 0-1.8 1.3-3.2 3-3.2h0.6c1.6 0 3 1.4 3 3.2 0 1.8-1.4 3.2-3 3.2z"></path><path class="g" d="m294.1 56.1c0-2.8 2.2-5 5-5h64.2c2.8 0 5 2.2 5 5v69.1c0 2.7-2.2 5-5 5h-64.2c-2.8 0-5-2.3-5-5z"></path><path class="d" d="m363.3 130.2c0 0 0.3 0 0.8-0.1 0.5-0.1 1.2-0.3 2-0.8 0.8-0.6 1.6-1.6 2-3 0.2-0.7 0.2-1.5 0.2-2.4q0-1.3 0-2.8c0-7.7 0-19-0.1-32.9 0-6.9 0-14.5 0-22.7q0-3.1 0-6.2c0-1.1 0-2.2 0-3.2-0.1-1.1-0.4-2.1-1.1-2.9-0.6-0.9-1.4-1.5-2.4-1.8-1-0.3-2-0.1-3.1-0.2q-3.1 0-6.4 0c-17.2 0-36.2 0-56.1 0-1.2 0-2.4 0.5-3.3 1.4-0.9 0.9-1.4 2.1-1.6 3.3 0 2.6 0 5.3 0 7.8q0 7.8 0 15.3c0 10 0 19.6 0 28.8q0 6.9 0 13.5 0 1.6 0 3.2c0 1.1 0.2 2.1 0.7 3q0.4 0.7 0.9 1.2 0.5 0.5 1.2 0.8c0.8 0.5 1.8 0.6 2.7 0.5 7.7 0 14.9 0 21.4 0.1 13 0 23.6 0 30.9 0 3.6 0 6.5 0 8.4 0q1.4 0 2.2 0.1 0.7 0 0.7 0 0 0-0.7 0-0.8 0-2.2 0c-1.9 0-4.8 0-8.4 0-7.3 0-17.9 0.1-30.9 0.1-6.5 0-13.7 0-21.4 0-0.9 0-1.9 0-2.8-0.5q-0.7-0.4-1.3-0.9-0.6-0.6-0.9-1.3c-0.6-0.9-0.8-2-0.8-3.1q0-1.6 0-3.2 0-6.6 0-13.5c0-9.2 0-18.8 0-28.8q0-7.5 0-15.3c0-2.6 0-5.1 0-7.8 0.1-1.3 0.7-2.6 1.7-3.5 0.9-1 2.2-1.5 3.5-1.5 19.9 0 38.9 0 56.1 0q3.3 0 6.4 0 0.8 0 1.6 0c0.5 0 1.1 0.1 1.6 0.2 1 0.4 1.9 1 2.6 1.9 0.6 0.9 1 2 1.1 3.1 0 1 0 2.1 0 3.2q0 3.1 0 6.2c0 8.2 0 15.8 0 22.7-0.1 13.9-0.1 25.2-0.1 32.9q0 1.5 0 2.8c0 0.8 0 1.7-0.2 2.4-0.4 1.5-1.3 2.4-2.1 3-0.8 0.6-1.5 0.8-2 0.8-0.3 0.1-0.5 0.1-0.6 0.1q-0.2 0-0.2 0z"></path><path class="a" d="m334.7 89.9h-7.8c-3.8 0-6.8-3.3-6.8-7.3v-17.9h21.4v17.9c0 4-3 7.3-6.8 7.3z"></path><path class="d" d="m334.7 89.9c0-0.1 0.7 0 2-0.4 0.6-0.2 1.3-0.6 2.1-1.2 0.7-0.6 1.5-1.5 1.9-2.7 0.6-1.1 0.7-2.5 0.7-4.1q0-2.3 0-5c-0.1-3.5-0.1-7.5-0.1-11.8l0.2 0.2c-4.5 0-9.4 0.1-14.6 0.1q-3.5 0-6.8 0l0.2-0.3c0 5.4 0 10.4 0 14.9 0 1.1-0.1 2.2 0 3.3 0 1 0.2 2 0.7 2.9 0.8 1.7 2.2 2.9 3.6 3.5 1.5 0.6 3 0.4 4.2 0.4q1.9 0.1 3.2 0.1 1.3 0 2 0 0.3 0 0.5 0 0.2 0.1 0.2 0.1 0 0-0.2 0-0.2 0-0.5 0-0.7 0-2 0.1-1.3 0-3.2 0-0.9 0-2 0-1.1 0-2.3-0.4c-1.5-0.6-3-1.8-3.9-3.6-0.4-1-0.7-2-0.7-3.1 0-1.1 0-2.2 0-3.3 0-4.5-0.1-9.5-0.1-14.9v-0.2h0.3q3.3 0 6.8 0c5.2 0 10.1 0 14.6 0h0.2v0.2c0 4.3 0 8.3 0 11.8q0 2.7 0 5c0 1.6-0.1 3.1-0.7 4.3-0.6 1.2-1.3 2-2.1 2.7-0.8 0.6-1.6 0.9-2.2 1.1-1.3 0.4-2 0.3-2 0.3z"></path><path class="c" d="m341.5 64.9c-3 2.5-7.3 3.8-11.1 3.9-3.9 0.1-7.1-1.5-10.2-3.9z"></path><path class="d" d="m341.5 68.4q0.1 0 0.2 0.5 0.1 0.5 0.4 1.4c0.3 1.3 0.7 3.1 1.2 5.3q0.4 1.7 0.9 3.7c0.1 0.6 0.3 1.3 0.4 2 0.1 0.8 0 1.6-0.3 2.3-0.3 0.7-0.8 1.4-1.4 1.9-0.7 0.4-1.5 0.7-2.3 0.7q-2.3 0-4.8 0-1.3 0-2.5 0c-0.8 0-1.6 0.1-2.4-0.1-1.6-0.3-2.9-1.3-3.9-2.5q-0.7-0.9-1.1-2c-0.2-0.7-0.4-1.3-0.6-1.9q-0.6-2-1.2-3.6c-0.7-2.1-1.2-3.9-1.6-5.2q-0.3-0.8-0.5-1.4-0.1-0.5-0.1-0.5 0 0 0.2 0.5 0.2 0.5 0.5 1.4c0.5 1.2 1.1 3 1.8 5.1q0.6 1.6 1.2 3.5c0.5 1.3 0.8 2.7 1.8 3.8 0.8 1.2 2.1 2 3.6 2.3 0.7 0.2 1.5 0.2 2.3 0.2q1.2 0 2.5 0 2.5 0 4.8-0.1c0.7 0 1.4-0.2 2-0.6 0.6-0.4 1.1-1 1.3-1.7 0.3-0.6 0.4-1.4 0.3-2-0.1-0.7-0.3-1.4-0.4-2.1q-0.4-1.9-0.8-3.6c-0.5-2.2-0.8-4-1.1-5.3q-0.2-0.9-0.3-1.5-0.1-0.5-0.1-0.5z"></path><path class="d" d="m322.1 70.6c-0.7 0-1.2-0.5-1.2-1.2 0-0.7 0.5-1.3 1.2-1.3 0.7 0 1.2 0.6 1.2 1.3 0 0.7-0.5 1.2-1.2 1.2z"></path><path class="c" d="m341.3 64.9c0.1 0.6-0.6 1.1-0.6 1.6 0.1 1.1-0.5 2-1.5 2.4q-0.1 0-0.2 0.1c-0.4 0.4-0.5 1-0.6 1.6q-0.2 1.4-0.4 2.9c-0.1 0.6-0.1 1.2-0.4 1.7-0.3 0.5-0.8 0.9-1.4 0.9-0.8-0.1-1.3-1-1.4-1.9-0.2-1 0-2.2-0.7-3.1-0.3-0.4-0.8-0.7-1.3-0.5-1.2 0.5-0.5 2.6-1.7 3.1-0.3 0.1-0.7 0-0.9-0.2-0.7-0.4-0.8-1.2-1-1.9q-0.4-1.7-0.8-3.4z"></path><path class="c" d="m310.6 112.9c-3.6 0-6.6-3.1-6.6-7.1 0-3.9 3-7 6.6-7 3.7 0 6.7 3.1 6.7 7 0 4-3 7.1-6.7 7.1z"></path><path class="c" d="m331.2 112.9c-3.7 0-6.6-3.1-6.6-7.1 0-3.9 2.9-7 6.6-7 3.7 0 6.6 3.1 6.6 7 0 4-2.9 7.1-6.6 7.1z"></path><path class="c" d="m351.8 112.9c-3.7 0-6.7-3.1-6.7-7.1 0-3.9 3-7 6.7-7 3.6 0 6.6 3.1 6.6 7 0 4-3 7.1-6.6 7.1z"></path><g style="opacity:0"><path class="g" d="m310.6 112.9c-3.6 0-6.6-3.1-6.6-7.1 0-3.9 3-7 6.6-7 3.7 0 6.7 3.1 6.7 7 0 4-3 7.1-6.7 7.1z"></path></g><g style="opacity:.2"><path d="m351.8 112.9c-3.7 0-6.7-3.1-6.7-7.1 0-3.9 3-7 6.7-7 3.6 0 6.6 3.1 6.6 7 0 4-3 7.1-6.6 7.1z"></path></g><path class="d" d="m317.3 105.8c-0.1 0.1 0-0.6-0.3-1.7-0.3-1-0.9-2.6-2.4-3.8-0.8-0.6-1.7-1.1-2.8-1.3-1-0.1-2.2-0.1-3.4 0.4q-0.8 0.3-1.6 0.9-0.8 0.6-1.4 1.5c-0.8 1.1-1.2 2.6-1.2 4 0 1.5 0.4 3 1.2 4.1q0.6 0.9 1.4 1.5 0.8 0.6 1.6 0.9c1.2 0.5 2.4 0.5 3.4 0.3 1.1-0.1 2-0.6 2.8-1.2 1.5-1.2 2.1-2.8 2.4-3.8 0.3-1.1 0.2-1.8 0.3-1.8 0 0 0.1 0.7-0.2 1.8-0.2 1.1-0.8 2.7-2.4 4-0.7 0.6-1.7 1.1-2.8 1.3-1.1 0.2-2.4 0.2-3.6-0.3q-0.9-0.3-1.7-0.9-0.8-0.7-1.4-1.6c-0.9-1.2-1.4-2.7-1.4-4.3 0.1-1.5 0.5-3 1.4-4.2q0.6-0.9 1.4-1.6 0.8-0.6 1.7-0.9c1.2-0.5 2.5-0.5 3.6-0.3 1.1 0.2 2.1 0.7 2.8 1.3 1.6 1.3 2.2 2.9 2.4 4 0.3 1.1 0.2 1.7 0.2 1.7z"></path><path class="d" d="m337.8 105.8c0 0.1 0-0.6-0.2-1.7-0.3-1-1-2.6-2.4-3.8-0.8-0.6-1.7-1.1-2.8-1.3-1.1-0.1-2.3-0.1-3.4 0.4q-0.9 0.3-1.6 0.9-0.8 0.6-1.4 1.5c-0.8 1.1-1.3 2.6-1.3 4 0 1.5 0.5 3 1.3 4.1q0.6 0.9 1.4 1.5 0.7 0.6 1.6 0.9c1.1 0.5 2.3 0.5 3.4 0.3 1.1-0.1 2-0.6 2.8-1.2 1.4-1.2 2.1-2.8 2.4-3.8 0.2-1.1 0.2-1.8 0.2-1.8 0 0 0.1 0.7-0.1 1.8-0.2 1.1-0.9 2.7-2.4 4-0.8 0.6-1.7 1.1-2.8 1.3-1.2 0.2-2.4 0.2-3.6-0.3q-0.9-0.3-1.7-0.9-0.9-0.7-1.5-1.6c-0.8-1.2-1.3-2.7-1.3-4.3 0-1.5 0.5-3 1.3-4.2q0.6-0.9 1.5-1.6 0.8-0.6 1.7-0.9c1.2-0.5 2.4-0.5 3.6-0.3 1.1 0.2 2 0.7 2.8 1.3 1.5 1.3 2.2 2.9 2.4 4 0.2 1.1 0.1 1.7 0.1 1.7z"></path><path class="d" d="m358.4 105.8c0 0.1 0-0.6-0.3-1.7-0.2-1-0.9-2.6-2.4-3.8-0.7-0.6-1.7-1.1-2.7-1.3-1.1-0.1-2.3-0.1-3.4 0.4q-0.9 0.3-1.7 0.9-0.8 0.6-1.4 1.5c-0.8 1.1-1.2 2.6-1.2 4 0 1.5 0.4 3 1.2 4.1q0.6 0.9 1.4 1.5 0.8 0.6 1.7 0.9c1.1 0.5 2.3 0.5 3.4 0.3 1-0.1 2-0.6 2.7-1.2 1.5-1.2 2.2-2.8 2.4-3.8 0.3-1.1 0.3-1.8 0.3-1.8 0 0 0.1 0.7-0.1 1.8-0.3 1.1-0.9 2.7-2.5 4-0.7 0.6-1.7 1.1-2.8 1.3-1.1 0.2-2.4 0.2-3.6-0.3q-0.9-0.3-1.7-0.9-0.8-0.7-1.4-1.6c-0.9-1.2-1.3-2.7-1.3-4.3 0-1.5 0.4-3 1.3-4.2q0.6-0.9 1.4-1.6 0.8-0.6 1.7-0.9c1.2-0.5 2.5-0.5 3.6-0.3 1.1 0.2 2.1 0.7 2.8 1.3 1.6 1.3 2.2 2.9 2.5 4 0.2 1.1 0.1 1.7 0.1 1.7z"></path><path class="d" d="m57.9 123.9c0.5 0.8 1.4 1.6 2.4 1.6 0.2 0 1-0.3 1-0.3 0.3 0.3 0.2 1.5-0.1 1.8-0.2 0.3-0.7 0.8-0.7 0.8 1 0.7 2.1 0.4 3.3 0-0.3 2.2-1.8 4.1-3.8 4.8-0.6 0.3-1.3 0.4-1.9-0.1-0.4-0.3-0.6-1-0.7-1.6-0.4-2.2-0.6-4.5-0.5-6.7z"></path><path class="k" d="m44.6 120.1l0.7 0.1c6.6 0.9 11.5 7 11.2 14.1-0.2 6.6-0.6 14-1 17.5-1 7.3-7.9 7.5-7.9 7.5-0.1 0.2-0.2 2-0.3 4.2-0.2 4.6-2.2 10.9-8.6 11.3-7.3-0.1-7.9-7.4-7.6-12.3l1.7-29c0.2-7.7 4.6-13.9 11.8-13.4z"></path><path class="l" d="m47.5 161.2c-6.9-0.3-8.5-5.9-8.5-5.9 4.2 3.7 8.6 4 8.6 4z"></path><path class="d" d="m44.5 136.2c-0.2 0.2-0.9-0.5-2.1-0.6-1.1-0.1-2 0.4-2.1 0.3-0.1-0.1 0.1-0.4 0.5-0.6 0.3-0.3 1-0.5 1.7-0.5 0.7 0.1 1.3 0.4 1.6 0.8 0.3 0.3 0.4 0.6 0.4 0.6z"></path><path class="d" d="m43.6 140.7c-0.5 0-0.9-0.4-0.9-0.9 0-0.6 0.4-1 0.9-1 0.5 0 0.9 0.4 0.9 1 0 0.5-0.4 0.9-0.9 0.9z"></path><path class="d" d="m47 144.9c0-0.1 0.6-0.1 1.7-0.1 0.3 0 0.5 0 0.6-0.2 0.1-0.2 0-0.5-0.1-0.9q-0.2-1.1-0.5-2.3c-0.8-3.2-1.3-5.9-1.1-5.9 0.1 0 0.8 2.6 1.5 5.8q0.3 1.2 0.5 2.3c0.1 0.4 0.2 0.8 0 1.2-0.1 0.2-0.3 0.3-0.4 0.3q-0.3 0.1-0.5 0c-1.1 0-1.7-0.1-1.7-0.2z"></path><path class="d" d="m44.9 132.4c-0.1 0.3-1-0.1-2.1-0.2-1.1-0.1-2 0-2.1-0.3-0.1-0.1 0.1-0.3 0.5-0.5 0.4-0.2 1.1-0.3 1.7-0.2 0.7 0 1.2 0.3 1.6 0.6 0.3 0.2 0.5 0.5 0.4 0.6z"></path><path class="d" d="m55.2 134.2c-0.1 0.2-1-0.1-2.1-0.2-1.1-0.1-2 0-2.1-0.2 0-0.1 0.2-0.3 0.6-0.5 0.3-0.1 0.9-0.2 1.6-0.2 0.6 0.1 1.2 0.3 1.6 0.5 0.3 0.3 0.5 0.5 0.4 0.6z"></path><path class="k" d="m32 145.7c-0.1 0.1-4.9 0.7-4.4-4.3 0.4-5 4.8-3 4.9-2.9 0 0-0.5 7-0.5 7.2z"></path><path class="l" d="m30.5 143.9c-0.1 0.1-0.4 0.1-0.7 0-0.7-0.2-1.1-1.2-1-2.2 0-0.6 0.1-1 0.4-1.4 0.2-0.4 0.5-0.7 0.9-0.7q0.2 0 0.4 0.2 0.2 0.1 0.2 0.3c0 0.2-0.1 0.3-0.1 0.3 0 0 0-0.1-0.1-0.3 0-0.1-0.2-0.3-0.4-0.3-0.3 0.1-0.5 0.3-0.7 0.6-0.2 0.4-0.3 0.8-0.3 1.3-0.1 0.9 0.3 1.8 0.8 2 0.2 0.1 0.4 0.1 0.6 0 0.1 0 0.2-0.1 0.2-0.1 0 0 0 0.2-0.2 0.3z"></path><path class="d" d="m26.6 130c1.1-1.7 1.4-3.8 2.1-5.7 0.6-2 1.7-3.9 3.6-4.5 1.7-0.6 3.7-0.5 5 0.7 0.4-2.5 2.6-4.5 5.1-5 2.4-0.6 6.2 0 8.4 1.1 1.8 0.9 3.4 2.5 5.4 4.9q1.2 1.5 2.2 3.2l1.8 7-1.9 3.4q-0.2 0.4-0.4 0.8v-0.1l-1.8 7.3c0-2 0.3-9 0.3-11.1-3-0.3-5.6-1.7-7.5-4.1-1-1.3-1.8-3-3.2-3.8-1.7-1-3.9-0.4-5.9 0.2l0.1-0.1c-1 0.4-2 1.1-2.7 1.9 0.2 4.1-0.4 8.2-1.8 12-0.2 0.6-0.7 1.8-1.3 2-1 0.3-1.3-0.8-1.9-1.5-0.4-0.4-1.1-0.5-1.9-0.6-0.4-1.3-0.7-3.4-1-5.2-0.7 0.1-1.4 0.1-2 0q0.3-0.8 0.7-1.5c-0.3 0.1-0.6 0.3-0.9 0.3-0.3 0.1-0.7-0.1-0.8-0.4-0.1-0.4 0.1-0.8 0.3-1.2z"></path><path class="e" d="m39.4 121.5c0 0-0.3 0.2-0.7 0.6-0.5 0.5-0.9 1.3-1.2 2.4q-0.2 0.8-0.3 1.8 0 1.1 0 2.2c0 0.8 0.1 1.6 0 2.4q-0.1 0.6-0.2 1.3c-0.2 0.4-0.3 0.8-0.6 1.2-0.2 0.2-0.6 0.3-1 0.3-0.3-0.1-0.6-0.3-0.8-0.6-0.4-0.6-0.5-1.3-0.6-1.9h0.1c-0.2 0.6-0.5 1.1-0.9 1.5-0.3 0.4-0.8 0.7-1.3 0.7q-0.4 0-0.7-0.2c-0.2-0.1-0.4-0.3-0.5-0.5q-0.1-0.3-0.1-0.6 0-0.4 0.2-0.6l0.1 0.1c-0.5 0.6-1.1 0.9-1.5 1.1q-0.3 0.1-0.5 0.1-0.1 0.1-0.1 0.1 0 0 0.1-0.1 0.2 0 0.5-0.2c0.4-0.2 0.9-0.5 1.4-1.1l0.1 0.1c-0.2 0.2-0.3 0.7-0.1 1.1 0.1 0.1 0.2 0.3 0.4 0.4q0.3 0.2 0.7 0.2c0.4-0.1 0.9-0.3 1.2-0.7 0.4-0.4 0.7-0.9 0.9-1.5l0.1-0.2 0.1 0.3c0 0.6 0.1 1.3 0.5 1.8 0.2 0.2 0.5 0.4 0.8 0.5 0.3 0.1 0.6 0 0.8-0.3 0.3-0.3 0.4-0.7 0.5-1.1q0.2-0.6 0.2-1.2c0.1-0.8 0.1-1.6 0.1-2.4q0-1.1 0-2.2 0.1-1 0.3-1.8c0.3-1.2 0.8-2 1.2-2.4 0.5-0.5 0.8-0.6 0.8-0.6z"></path><path class="e" d="m60.3 129.7q0 0-0.1 0.1-0.1 0-0.2 0.1-0.1 0.1-0.3 0.2-0.1 0.1-0.4 0.2c-0.6 0.3-1.7 0.5-3 0.4-1.2-0.2-2.7-0.7-4-1.9-1.3-1.1-2.5-2.7-3.4-4.5-0.4-0.9-0.8-1.8-1.2-2.7-0.4-0.9-0.9-1.7-1.4-2.3-0.6-0.7-1.3-1.2-2-1.4q-0.5-0.2-1-0.2-0.5 0-1 0.2c-0.6 0.1-1 0.5-1.4 0.8-0.4 0.3-0.7 0.7-0.9 1-0.3 0.7-0.3 1.1-0.4 1.1q0 0 0.1-0.1 0-0.1 0-0.2 0.1-0.3 0.3-0.8c0.2-0.3 0.4-0.7 0.8-1.1 0.4-0.3 0.9-0.7 1.5-0.9q0.5-0.1 1-0.1 0.5 0 1.1 0.2c0.7 0.2 1.4 0.7 2 1.4 0.6 0.6 1 1.4 1.4 2.3 0.4 0.9 0.8 1.8 1.3 2.7 0.9 1.8 2 3.4 3.3 4.5 1.3 1.2 2.7 1.7 4 1.9 1.2 0.1 2.2-0.1 2.9-0.4 0.6-0.3 1-0.5 1-0.5z"></path><path class="d" d="m54.9 137.3c-0.1 0.1-0.9-0.6-2-0.7-1.2-0.1-2.1 0.4-2.2 0.3 0-0.1 0.1-0.4 0.5-0.6 0.4-0.3 1-0.5 1.7-0.4 0.8 0 1.3 0.4 1.7 0.7 0.3 0.3 0.4 0.6 0.3 0.7z"></path><path class="d" d="m52.9 141.7c-0.5 0-0.9-0.4-0.9-1 0-0.5 0.4-0.9 0.9-0.9 0.5 0 1 0.4 1 0.9 0 0.6-0.5 1-1 1z"></path><path class="d" d="m46.9 149c0 0-0.3 0.1-0.7 0.1-0.5-0.1-1.1-0.3-1.6-0.9-0.5-0.5-0.7-1.1-0.8-1.6 0-0.5 0-0.8 0.1-0.8 0 0 0 0.3 0.2 0.7 0.1 0.5 0.3 1 0.7 1.5 0.5 0.5 1 0.7 1.4 0.8 0.4 0.1 0.7 0.2 0.7 0.2z"></path><path class="c" d="m91.6 173.6l-20 21.6c-3.5 3.5-8.4 2.6-12.9 0.7l-10.8-9.2 1.3-19.7 17.4 15 18.1-17.1z"></path><path class="c" d="m13.9 174.4c0 0 0.4-7.4 6.6-11.3 0.9-0.6 8.5-4.1 8.5-4.1l2.2-3.4 13.7 9.3 1.7 1.7 1.4-3.6 1.7 2.7-0.7-0.1 0.2 1.4 0.8 6 0.7 17.1c-0.1-0.2 0.2 6 0 8.9-0.6 10.8-2.3 38.3-2.9 40.3-0.8 2.4-2.9 2.5-2.9 2.5l-35.9-10.8c-2-0.2-3.8-6-0.8-7.9z"></path><g style="opacity:.3"><path d="m50.1 210.8v2.4c0 0-8.2 1.9-13.3-1-5.1-2.9-20-32.6-20-32.6z"></path></g><path class="c" d="m27.4 166.8c2 1 21.2 27.8 21.2 27.8l27.1-0.2 1.8 13.5c0 0-28.5 4.4-35.1 2.9-6.6-1.6-26-31.6-27.2-33.6-1.9-3.2-0.3-8.3 2.6-11"></path><path class="d" d="m17.8 166.2q0 0-0.3 0.3-0.3 0.3-0.8 0.9c-0.6 0.9-1.5 2.4-2 4.5-0.2 1.1-0.4 2.3-0.1 3.6 0.3 1.3 1.2 2.4 2 3.7 1.7 2.6 3.6 5.4 5.8 8.6 2.2 3.1 4.6 6.5 7.3 10.1q2.1 2.7 4.4 5.4c1.5 1.8 3.2 3.6 5 5.2 1 0.8 2 1.6 3.1 2l0.2 0.1h0.3l0.4 0.1c0.3 0 0.6 0.1 0.9 0.1q1 0.1 1.9 0.1c2.6 0 5.2-0.1 7.8-0.3 5.3-0.4 10.7-1.1 16.2-1.8q3.8-0.5 7.5-1.1l-0.1 0.2q-0.9-6.9-1.8-13.5l0.2 0.2c-9.9 0-19.1 0.1-27.1 0.2h-0.1v-0.1c-6.2-8.6-11.4-15.7-15.1-20.6-1.8-2.4-3.3-4.3-4.3-5.5q-0.8-0.9-1.3-1.4c-0.3-0.2-0.4-0.3-0.4-0.4 0 0 0.2 0.1 0.5 0.4q0.4 0.4 1.2 1.4c1.1 1.2 2.6 3 4.4 5.4 3.8 4.9 9 11.9 15.2 20.6l-0.1-0.1c8-0.1 17.2-0.2 27.1-0.3h0.1v0.2q0.9 6.5 1.8 13.5v0.2h-0.1q-3.7 0.5-7.5 1c-5.6 0.8-11 1.4-16.3 1.8-2.6 0.2-5.2 0.4-7.8 0.3q-0.9 0-1.9-0.1c-0.3 0-0.6 0-0.9-0.1l-0.5-0.1h-0.2l-0.3-0.1c-1.2-0.4-2.2-1.2-3.1-2-1.9-1.7-3.6-3.5-5.1-5.3q-2.3-2.8-4.4-5.4c-2.7-3.6-5.1-7-7.3-10.2-2.2-3.1-4.1-6-5.7-8.6q-0.7-0.9-1.2-1.8c-0.4-0.7-0.7-1.3-0.8-2-0.3-1.3-0.2-2.6 0.1-3.6 0.5-2.2 1.4-3.6 2.1-4.5q0.5-0.7 0.8-1 0.3-0.3 0.3-0.2z"></path><path class="c" d="m46.2 166.6l-1.6-1.4-3 3.1c0 0-12.5-8.9-12.6-9.3"></path><path class="d" d="m46.2 166.6q0 0-0.4-0.3-0.5-0.4-1.2-1h0.1c-0.8 0.8-1.8 1.9-3 3.1l-0.1 0.1h-0.1c-1.1-0.9-2.4-1.8-3.8-2.8-2.4-1.7-4.7-3.4-6.2-4.6-1.6-1.2-2.6-2-2.5-2.1 1.3 1 4.4 3.2 8.9 6.5 1.4 0.9 2.6 1.9 3.8 2.7h-0.2c1.2-1.2 2.3-2.2 3.1-3v-0.1l0.1 0.1q0.7 0.6 1.2 1 0.4 0.4 0.3 0.4z"></path><path class="d" d="m49.5 169.1c0 0 0.1 0.3 0.1 1 0.1 0.6 0.2 1.5 0.3 2.7 0.3 2.3 0.5 5.5 0.7 9 0.2 3.5 0.3 6.7 0.3 9.1 0 1.1 0 2.1 0 2.7-0.1 0.6-0.1 1-0.1 1 0 0 0-0.4-0.1-1q0-1.1 0-2.7c-0.1-2.4-0.2-5.5-0.4-9.1-0.2-3.5-0.4-6.7-0.6-9q-0.1-1.7-0.2-2.7c0-0.7 0-1 0-1z"></path><path class="c" d="m10.5 223.1c8.4-0.7 16.8-2.2 24.9-4.7"></path><path class="d" d="m35.4 218.4c0 0-0.3 0.1-0.9 0.3-0.6 0.2-1.5 0.5-2.6 0.8-2.2 0.7-5.3 1.4-8.8 2.1-3.4 0.6-6.6 1-8.9 1.2-1.1 0.2-2 0.2-2.7 0.3-0.6 0-1 0-1 0 0 0 0.4-0.1 1-0.2q1-0.1 2.7-0.3c2.3-0.3 5.4-0.7 8.9-1.3 3.4-0.7 6.5-1.4 8.7-2q1.6-0.4 2.7-0.7c0.6-0.1 0.9-0.2 0.9-0.2z"></path><path class="e" d="m45.8 279.5l-17.1-6.2c0 0-11.7 16.4-15 15.6l10.2-35.8 27 8.5z"></path><path class="a" d="m33.3 262.5c0.1 0.7-0.6 1.5-1.3 1.6-0.8 0-1.4-0.9-1.4-1.6 0-0.8 0.7-1.4 1.4-1.4 0.7 0.1 1.3 0.8 1.3 1.6"></path><path class="a" d="m23.2 252.8l2.6 0.9-10 34.3c0 0-1.1 1.4-2.1 0.9z"></path><path class="d" d="m28.7 273.9c-0.2-0.1 0-1-0.3-2-0.2-1-0.8-1.7-0.7-1.8 0.1-0.2 1 0.4 1.3 1.6 0.3 1.3-0.2 2.3-0.3 2.2z"></path><path class="d" d="m26.2 277.2c-0.2 0-0.3-0.9-0.8-1.7-0.5-0.8-1.2-1.2-1.1-1.4 0-0.2 1 0 1.6 1 0.7 1.1 0.4 2.1 0.3 2.1z"></path><path class="d" d="m21.4 277.9c0-0.1 0.9-0.1 1.6 0.6 0.8 0.8 0.9 1.7 0.8 1.7-0.2 0.1-0.5-0.6-1.2-1.2-0.6-0.6-1.3-0.9-1.2-1.1z"></path><path class="d" d="m32.7 274.8c-0.1-0.1 0.4-0.8 0.6-1.8 0.2-1 0.1-1.9 0.3-1.9 0.1-0.1 0.5 0.9 0.3 2-0.3 1.2-1 1.9-1.2 1.7z"></path><path class="d" d="m47.9 230.9c0.6-0.2 29.6 32.9 30.3 38.4 0.6 5.4-0.4 10.2-3.8 13.3-3.5 3.1-42.5-7-42.5-7l3.7-17.4-14.1-5.1 12.6-24.5z"></path><g style="opacity:.3"><path d="m54.7 238.2l1 1.1c0 0-16.6 18.5-21.7 18.3l-8.2-2.9 27.6-18.1z"></path></g><path class="e" d="m49.1 262.7c7.5 2.4 13.6 4.3 13.6 4.4-0.1 0.1-6.2-1.7-13.6-4-7.5-2.4-13.6-4.4-13.6-4.5 0.1 0 6.2 1.8 13.6 4.1z"></path><path class="e" d="m68.2 264.7l-5.1 17.2c0 0 14.7 11.3 14 14.6l-31.7-9.3 6.9-27.2z"></path><path class="a" d="m53.5 277.6c0.7-0.2 1.4 0.6 1.4 1.3 0.1 0.7-0.7 1.4-1.4 1.4-0.6-0.1-1.2-0.7-1.2-1.4 0.1-0.7 0.7-1.3 1.3-1.3"></path><path class="a" d="m45.2 287.9l0.7-2.7 30.4 9.2c0 0 1.3 1.1 0.8 2.1z"></path><path class="d" d="m63.6 281.9c0 0.2-0.8 0-1.7 0.3-0.9 0.3-1.5 0.9-1.6 0.8-0.2-0.1 0.3-1 1.4-1.4 1.1-0.3 2 0.1 1.9 0.3z"></path><path class="d" d="m66.6 284.3c0 0.2-0.8 0.3-1.5 0.8-0.7 0.5-1 1.3-1.2 1.2-0.1 0 0-1 0.9-1.7 0.9-0.6 1.8-0.4 1.8-0.3z"></path><path class="d" d="m67.4 289.1c-0.2 0-0.2-0.9 0.4-1.7 0.7-0.7 1.5-0.9 1.5-0.7 0.1 0.1-0.5 0.5-1 1.1-0.6 0.7-0.8 1.4-0.9 1.3z"></path><path class="d" d="m64.4 277.8c-0.1 0.2-0.8-0.3-1.7-0.5-0.9-0.2-1.6-0.1-1.7-0.2 0-0.2 0.8-0.6 1.8-0.4 1.1 0.3 1.7 1 1.6 1.1z"></path><g style="opacity:.3"><path d="m46.4 279.1l2.1-9.1-1.6-0.8 9.8-28.4 1.9 1.7-7.7 26.1-2.8 10.8z"></path></g><path class="d" d="m9 231c0 0 58-21.5 59-21.9 0.3-0.1 0.9-0.3 1.5-0.4 3.8-0.8 7.9 0 11 2.5 2.7 2.1 4.9 5.5 4.1 10.8-1.5 11.8-15.7 52-15.7 52l-19.5-6.3c-0.2 0-0.3-0.3-0.2-0.2 0.2 0.2 9.9-33.3 9.7-32.9-0.3 0.4-19.8 17.2-27.9 20.3-8.3 3.1-16.5-0.7-20.5-6.6-1.9-2.8-3.5-10.7-1.5-17.3z"></path><path class="e" d="m8.9 231.7q-0.2 0.6-0.4 1.9c-0.3 1.8-0.5 4.4-0.1 7.8 0.3 1.7 0.6 3.5 1.4 5.4q0.3 0.7 0.7 1.4 0.5 0.6 1 1.3c0.7 0.8 1.4 1.6 2.3 2.3 1.8 1.5 4 2.7 6.4 3.4 1.3 0.4 2.6 0.6 3.9 0.7 1.4 0 2.8-0.1 4.2-0.4q0.5-0.1 1-0.2c0.4-0.1 0.7-0.2 1-0.3 0.8-0.2 1.4-0.6 2.1-0.9 0.7-0.3 1.3-0.7 2-1.1q1-0.6 2-1.2c2.7-1.7 5.4-3.6 8.2-5.7q4.1-3.1 8.3-6.6 2.2-1.7 4.3-3.6 0.6-0.5 1.1-0.9 0.1-0.2 0.3-0.3l0.1-0.1c0.1 0-0.2-0.1 0.3 0 0 0.1 0 0.1 0 0.1q-0.1 0.4-0.2 0.7-0.4 1.5-0.8 2.9c-2.2 7.8-4.6 15.9-7.1 24.3q-0.5 1.6-0.9 3.1-0.3 0.8-0.6 1.6c0 0.1 0 0.1-0.1 0.3-0.6 0 0-0.2 0-0.2 0.1 0 0 0 0 0q0.1 0.1 0.1 0.1 0 0.1 0 0.1c0 0 0 0 0 0 0 0.1 0 0 0 0h0.2l0.8 0.3q3 1 6.1 1.9 6.1 2 12.5 4l-0.2 0.1c0.6-1.8 1.3-3.8 2-5.8 3.1-9.2 6.1-18.2 8.7-26.9 1.4-4.4 2.6-8.7 3.7-13 0.3-1 0.5-2.1 0.7-3.2 0.3-1 0.4-2.1 0.6-3.2 0.3-2.1 0.1-4.3-0.7-6.2-0.8-1.9-2.2-3.4-3.8-4.6-1.5-1.1-3.3-1.9-5.2-2.2-1.8-0.4-3.7-0.3-5.4 0.1q-0.7 0.2-1.3 0.3-0.7 0.3-1.3 0.5-1.3 0.5-2.5 0.9c-6.7 2.5-12.9 4.8-18.5 6.9-11.4 4.2-20.5 7.6-26.9 9.9-3.1 1.2-5.6 2.1-7.3 2.7q-1.2 0.4-1.9 0.7-0.7 0.2-0.7 0.2 0 0 0.7-0.2 0.6-0.3 1.9-0.8c1.6-0.6 4.1-1.5 7.2-2.7 6.4-2.4 15.5-5.8 26.8-10 5.7-2.1 11.9-4.4 18.6-6.9q1.2-0.5 2.5-1 0.6-0.2 1.3-0.4 0.6-0.2 1.3-0.4c1.8-0.4 3.7-0.5 5.6-0.1 1.9 0.3 3.7 1.1 5.3 2.3 1.6 1.2 3 2.7 3.8 4.7 0.9 2 1.1 4.2 0.8 6.4-0.2 1-0.3 2.1-0.6 3.2-0.2 1.1-0.4 2.1-0.7 3.2-1.1 4.3-2.3 8.6-3.6 13-2.7 8.7-5.7 17.7-8.8 26.9-0.7 2-1.4 4-2 5.9l-0.1 0.1h-0.1q-6.4-2.1-12.5-4-3.1-1-6.1-2l-0.8-0.2-0.2-0.1c-0.1 0-0.2-0.1-0.2-0.2q0-0.1-0.1-0.1 0 0 0-0.1c0.2-0.5 0.6 0.1 0.1-0.2 0 0.1 0 0 0-0.1q0.3-0.8 0.5-1.6 0.5-1.5 1-3.1c2.5-8.4 4.9-16.5 7.1-24.3q0.4-1.4 0.8-2.9 0.1-0.3 0.2-0.7c0 0 0 0 0 0.1 0.6 0.1 0.2 0 0.3 0l-0.1 0.1-0.1 0.2q-0.2 0.1-0.3 0.2-0.6 0.5-1.1 0.9-2.1 1.9-4.3 3.7-4.3 3.5-8.4 6.6c-2.7 2-5.4 4-8.1 5.7q-1.1 0.6-2.1 1.2c-0.6 0.3-1.3 0.7-2 1.1-0.7 0.2-1.4 0.6-2.1 0.8-0.3 0.1-0.7 0.2-1 0.3q-0.6 0.2-1.1 0.3c-1.4 0.3-2.8 0.4-4.2 0.3-1.3 0-2.7-0.3-3.9-0.6-2.5-0.8-4.7-2-6.5-3.5-0.9-0.7-1.7-1.6-2.4-2.4q-0.5-0.7-0.9-1.3-0.4-0.7-0.7-1.4c-0.8-1.9-1.2-3.8-1.4-5.5-0.4-3.4-0.2-6 0.1-7.8q0.2-1.3 0.4-1.9 0.2-0.7 0.2-0.7 0 0-0.1 0.7z"></path><path class="e" d="m66.3 226.6c-0.9 0.7-2.1 1.7-3.4 3-1.2 1.2-2.2 2.5-2.9 3.5-0.7 0.9-1.1 1.6-1.1 1.5q-0.1 0 0.2-0.5 0.2-0.4 0.7-1.2c0.6-1 1.6-2.3 2.9-3.6 1.3-1.3 2.5-2.3 3.5-2.9 1-0.7 1.6-1 1.6-1 0 0-0.6 0.5-1.5 1.2z"></path><path class="e" d="m60.7 224.7c-0.4 1-0.8 2.5-1.1 4-0.3 1.6-0.5 3.1-0.6 4.1-0.2 1.1-0.2 1.8-0.3 1.8 0 0 0-0.7 0-1.8 0.1-1.1 0.3-2.5 0.6-4.1 0.3-1.6 0.8-3 1.1-4 0.4-1 0.7-1.6 0.7-1.6 0.1 0-0.1 0.6-0.4 1.6z"></path><path class="e" d="m85.2 191.6l7.4-15.9c0.5-1.1 1.6-1.8 2.7-1.8h18.6c0.7 0 1.2 0.8 0.8 1.4l-12.6 24.9c-0.3 0.7-1 1.1-1.8 1.1h-19.3z"></path><path class="d" d="m114.6 175.4q0 0.1-0.4 0.1-0.4 0-1 0-1.5 0-3.9 0c-3.4 0-8-0.1-13-0.1-0.6 0-1.2 0.1-1.7 0.4-0.5 0.3-0.9 0.8-1.1 1.4-0.6 1-1 2.2-1.5 3.2-0.9 2.1-1.8 4-2.5 5.6-0.7 1.5-1.3 2.8-1.7 3.7q-0.3 0.6-0.5 1-0.1 0.4-0.1 0.4-0.1 0 0.1-0.4 0.1-0.4 0.4-1c0.4-1 0.9-2.3 1.6-3.8 0.7-1.6 1.5-3.5 2.4-5.6 0.5-1.1 0.9-2.2 1.5-3.3 0.3-0.6 0.6-1.1 1.2-1.5 0.6-0.4 1.3-0.5 1.9-0.5 5.1 0 9.6 0.2 13 0.2q2.4 0.1 3.9 0.2 0.6 0 1 0 0.4 0 0.4 0z"></path><path class="g" d="m103.1 178.9c0.5 0.3 0.5 0.7 0.3 1-0.2 0.4-0.6 0.5-1 0.4-0.2 0-0.4-0.2-0.5-0.5 0-0.3 0.2-0.8 0.6-0.9 0 0 0.4-0.1 0.6 0z"></path><path class="k" d="m73.8 197.8l1.3-1.4c0 0 1.9-2.9 2.7-3.8 0.7-0.9 5.4-4.1 5.4-4.1 0 0 2.2-3.2 2.5-3.2 0.4 0 1.5 0.2 1.2 1.7-0.3 1.4-0.8 3.4-1.3 4.3l9.9 0.2c0.7 0 1.3 0.3 1.6 0.8 0.3 0.4 0.4 0.8-0.1 1-1 0.6-5.2 1.6-5.2 1.6l1.9-0.5c0 0 0.4 1.9-0.8 2.8-1.2 0.9-1.3 1.1-1.3 1.1 0 0 0 1.8-0.5 2.5-0.5 0.7-6.1 3.8-6.1 3.8 0 0-3.6 1.1-5.4 1-1.8-0.1-3.6 1-3.8 1-0.2 0.1-2-8.8-2-8.8z"></path><path class="l" d="m86.6 191.3c0 0.1-1.3 0.2-2.8 0.4-1.5 0.1-2.8 0.2-2.8 0.1 0-0.1 1.2-0.3 2.8-0.5 1.5-0.2 2.8-0.1 2.8 0z"></path><path class="l" d="m85.3 196c-0.1-0.1 1.7-0.7 4-0.9 1.1-0.2 2.2-0.3 2.9-0.4 0.7-0.1 1.2-0.1 1.2-0.1 0 0.1-0.4 0.2-1.2 0.4-0.7 0.1-1.7 0.3-2.8 0.4-2.3 0.3-4.1 0.7-4.1 0.6z"></path><path class="l" d="m85.3 199.4c0-0.1 1.4-0.2 3.2-0.5 1.7-0.3 3.1-0.8 3.1-0.7 0 0.1-1.3 0.8-3.1 1.1-1.8 0.3-3.2 0.2-3.2 0.1z"></path><path class="l" d="m85.9 203.2c-0.1 0-0.3-0.4-0.3-0.9-0.1-0.5-0.1-1 0-1 0.1 0 0.2 0.4 0.3 0.9 0.1 0.6 0.1 1 0 1z"></path><path class="l" d="m85 198.6c-0.1 0-0.2-0.3-0.3-0.7-0.2-0.3-0.4-0.6-0.4-0.7 0.1-0.1 0.5 0.1 0.7 0.6 0.2 0.4 0.1 0.9 0 0.8z"></path><path class="l" d="m83.9 194c-0.1 0.1-0.2-0.2-0.4-0.4-0.1-0.3-0.2-0.5-0.1-0.6 0 0 0.3 0.1 0.5 0.4 0.1 0.3 0.1 0.6 0 0.6z"></path><path class="k" d="m87.2 165c0 0 0.2-3 1.7-4.9 3.8-5 2.5-9.5 2.5-9.5 1.3-1.6 3.5 0.3 4 3.9 0.9 7.4-0.3 15.7-0.4 16-0.1 0.4-4 2.2-4 2.2l-5.3-6.6z"></path><path class="g" d="m92.9 126.1c0-3.3 2.7-6 6-6h87.5c3.3 0 6 2.7 6 6v39.7c0 3.3-2.7 6-6 6h-87.5c-3.3 0-6-2.7-6-6z"></path><path class="d" d="m187.2 171.8c0 0 0.2 0 0.7-0.1 0.5-0.1 1.2-0.3 2-0.8 0.8-0.5 1.7-1.5 2.2-2.9 0.2-0.7 0.3-1.5 0.2-2.4q0-1.2 0-2.7c0-7.7 0-18.9 0-32.8q0-1.3 0-2.6 0-0.6 0-1.3c0-0.5 0-0.9-0.1-1.3-0.2-1.8-1.3-3.5-2.9-4.2-0.8-0.4-1.7-0.5-2.6-0.5q-1.3 0-2.7 0-2.8 0-5.6 0c-7.7 0-15.8 0-24.4 0-17.2 0-36.1 0-55.9 0-1.2 0-2.4 0.5-3.3 1.3-0.9 0.9-1.5 2.1-1.7 3.3-0.1 0.6 0 1.3 0 1.9q0 1 0 2 0 1.9 0 3.8 0 7.8-0.1 15.2 0 7.5 0 14.7 0 1.8 0 3.6c0 1.1 0.3 2.3 0.9 3.2 0.6 1 1.5 1.7 2.5 2.1 0.9 0.4 2 0.3 3.1 0.3 17.2 0 32.6 0 45.6 0.1 13 0 23.5 0 30.8 0 3.6 0 6.5 0 8.4 0q1.4 0 2.1 0.1 0.8 0 0.8 0 0 0-0.8 0-0.7 0-2.1 0c-1.9 0-4.8 0-8.4 0-7.3 0-17.8 0.1-30.8 0.1-13 0-28.4 0-45.6 0-0.5 0-1.1 0-1.6 0q-0.9 0-1.6-0.3c-1.1-0.4-2-1.2-2.7-2.2-0.6-1-0.9-2.2-0.9-3.4q0-1.8 0-3.6 0-7.2 0-14.7 0-7.4 0-15.2 0-1.9 0-3.8 0-1 0-2c0-0.6 0-1.3 0.1-1.9 0.2-1.4 0.8-2.6 1.8-3.5 1-0.9 2.2-1.4 3.5-1.4 19.8 0 38.7 0 55.9 0 8.6 0 16.7 0 24.4 0q2.8 0 5.6 0 1.4 0 2.7 0c0.9 0 1.9 0.1 2.7 0.6 1.7 0.8 2.8 2.5 3 4.3 0.1 0.5 0.1 0.9 0.1 1.4q0 0.7 0 1.3 0 1.3 0 2.6c0 13.9 0 25.1-0.1 32.8q0 1.5 0 2.7c0.1 0.9 0 1.7-0.3 2.4-0.4 1.5-1.3 2.4-2.1 2.9-0.9 0.6-1.6 0.8-2.1 0.8-0.2 0.1-0.4 0.1-0.5 0.1q-0.2 0-0.2 0z"></path><path class="f" d="m132.3 137.3v6.3l-8.5 3.8 8.5 4-0.2 6.6-15.1-6.9v-6.8z"></path><path class="f" d="m152.9 158.5v-6.3l8.5-3.8-8.5-4.1 0.1-6.5 15.2 6.9v6.8z"></path><path class="f" d="m150.2 131.6l-8.7 32c0 0-6.3-0.1-6.6 0-0.2 0 8.6-31.8 8.6-32z"></path><path class="a" d="m101.1 129c-1.1 0-2.1-0.9-2.1-2.1 0-1.1 1-2.1 2.1-2.1 1.2 0 2.1 1 2.1 2.1 0 1.2-0.9 2.1-2.1 2.1z"></path><path class="a" d="m106.9 129c-1.2 0-2.1-0.9-2.1-2.1 0-1.1 0.9-2.1 2.1-2.1 1.2 0 2.1 1 2.1 2.1 0 1.2-0.9 2.1-2.1 2.1z"></path><path class="a" d="m112.7 129c-1.2 0-2.1-0.9-2.1-2.1 0-1.1 0.9-2.1 2.1-2.1 1.1 0 2.1 1 2.1 2.1 0 1.2-1 2.1-2.1 2.1z"></path></svg> 